<?xml version="1.0" standalone="no"?>
<!DOCTYPE svg PUBLIC "-//W3C//DTD SVG 20010904//EN"
 "http://www.w3.org/TR/2001/REC-SVG-20010904/DTD/svg10.dtd">
<svg version="1.0" xmlns="http://www.w3.org/2000/svg"
 width="2500.000000pt" height="1562.000000pt" viewBox="0 0 2500.000000 1562.000000"
 preserveAspectRatio="xMidYMid meet">
<metadata>
Created by potrace 1.16, written by Peter Selinger 2001-2019
</metadata>
<g transform="translate(0.000000,1562.000000) scale(0.100000,-0.100000)"
fill="#000000" stroke="none">
<path d="M110 15610 c0 -5 5 -10 10 -10 15 0 12 -29 -4 -46 -24 -23 -32 -16
-29 24 4 33 3 35 -9 17 -15 -25 -20 -82 -8 -90 6 -4 3 -16 -5 -29 -15 -23 -11
-56 6 -56 5 0 9 -9 9 -20 0 -11 -4 -20 -10 -20 -5 0 -10 -5 -10 -11 0 -5 4 -7
10 -4 5 3 10 2 10 -4 0 -6 7 -8 16 -4 8 3 13 11 10 18 -2 7 1 18 7 24 9 9 8
15 -7 23 -25 14 -1 30 33 21 24 -6 24 -6 19 61 -5 62 5 96 18 62 9 -24 24 -9
24 25 0 33 -23 40 -39 12 -10 -17 -10 -17 -11 0 0 10 -8 17 -20 17 -11 0 -20
-4 -20 -10z"/>
<path d="M23638 15607 c-44 -10 -47 -12 -41 -36 3 -14 13 -36 20 -48 11 -16
12 -27 4 -41 -13 -25 9 -47 40 -39 19 5 21 2 15 -23 l-5 -29 24 21 c14 12 25
28 25 35 0 7 6 13 14 13 8 0 17 6 19 13 4 7 6 6 6 -4 1 -9 8 -22 16 -29 8 -7
15 -21 15 -31 0 -22 32 -41 54 -33 12 5 16 0 16 -19 0 -37 -10 -56 -25 -51 -8
3 -14 -5 -17 -23 -3 -15 -9 -36 -13 -45 -4 -11 -3 -18 4 -18 19 0 51 39 51 61
0 18 2 19 15 9 22 -18 25 -10 12 37 -9 37 -8 45 7 62 10 11 23 18 29 14 5 -3
16 2 24 12 13 18 13 18 27 -1 17 -23 22 -19 30 21 3 17 3 24 0 18 -8 -19 -27
-16 -20 3 4 11 -1 18 -14 21 -26 7 -22 36 5 42 11 2 23 8 27 15 5 8 11 7 20
-2 11 -11 10 -15 -4 -23 -30 -17 -22 -39 10 -33 19 4 32 1 41 -10 8 -9 22 -16
32 -16 12 0 19 -7 19 -20 0 -13 -7 -20 -20 -20 -13 0 -20 7 -20 20 0 11 -5 20
-11 20 -14 0 -48 -41 -49 -57 0 -15 16 -17 24 -4 11 18 55 -14 75 -55 12 -23
21 -58 21 -78 0 -20 5 -36 10 -36 6 0 10 -7 10 -15 0 -8 5 -15 10 -15 6 0 10
4 10 9 0 6 -4 13 -10 16 -5 3 -10 24 -10 46 0 21 5 39 10 39 18 0 11 18 -10
25 -13 4 -20 15 -20 31 0 13 -4 24 -10 24 -5 0 -10 7 -10 15 0 8 9 15 20 15
11 0 20 -4 20 -10 0 -15 33 -50 47 -50 6 0 19 8 28 17 14 14 24 15 56 6 31 -8
39 -7 44 5 3 8 -2 23 -11 33 -17 18 -12 39 9 39 28 0 16 86 -13 95 -21 7 -29
55 -10 55 6 0 10 5 10 10 0 14 -37 12 -44 -2 -5 -10 -7 -10 -12 0 -9 19 -22
14 -27 -10 l-4 -23 -2 23 c-1 22 -21 32 -21 11 0 -8 -4 -8 -12 -2 -7 6 -46 11
-85 12 -72 2 -73 2 -73 -23 0 -37 -19 -42 -26 -7 -6 29 -10 31 -49 31 -25 0
-45 -5 -48 -12 -4 -10 -6 -10 -6 0 -1 6 -8 12 -16 12 -18 0 -20 -17 -2 -23 9
-3 9 -9 -2 -28 -10 -16 -10 -24 -2 -27 22 -7 2 -82 -23 -82 -10 0 -7 29 7 50
10 17 9 22 -2 30 -12 7 -12 11 -2 23 14 17 -1 33 -20 21 -8 -4 -9 0 -4 15 5
18 2 21 -24 21 -21 0 -31 -5 -31 -15 0 -18 -16 -20 -26 -3 -9 15 -21 -21 -23
-66 -1 -35 -27 -67 -47 -59 -8 3 -14 0 -14 -6 0 -6 -7 -11 -15 -11 -13 0 -14
4 -5 20 7 14 7 26 1 39 -6 10 -8 21 -4 24 3 4 -2 9 -11 13 -9 3 -16 13 -16 20
0 11 4 12 19 4 28 -14 31 -13 32 13 1 15 4 10 11 -15 13 -50 28 -48 28 2 0 45
0 45 -82 27z"/>
<path d="M24335 15610 c-10 -15 4 -30 27 -30 12 0 37 -6 56 -12 31 -12 36 -11
52 10 10 12 20 22 22 22 8 0 2 -60 -7 -61 -5 0 13 -6 40 -13 28 -7 57 -9 67
-4 29 14 41 9 35 -13 -4 -15 0 -23 14 -26 10 -3 19 -9 19 -14 0 -5 9 -9 20 -9
23 0 28 38 8 58 -16 16 3 35 25 26 16 -6 19 -15 22 -69 2 -28 18 -32 31 -7 10
20 11 19 21 -9 7 -17 9 -37 6 -45 -3 -9 1 -14 12 -14 14 0 16 -7 13 -37 -5
-43 9 -83 29 -83 7 0 13 -11 13 -25 0 -14 -4 -25 -8 -25 -16 0 -52 50 -52 71
0 17 -3 19 -14 10 -7 -6 -20 -9 -28 -6 -11 4 -18 -2 -22 -19 -10 -42 32 -89
48 -53 5 10 7 10 12 0 10 -22 58 -14 107 17 26 17 50 30 52 30 13 0 3 -29 -11
-34 -10 -4 -14 -12 -10 -22 5 -13 1 -15 -24 -12 -20 3 -30 0 -30 -8 0 -7 -6
-14 -12 -17 -7 -2 -10 -7 -6 -11 3 -4 15 -2 26 5 27 17 59 -5 41 -27 -9 -11
-7 -14 7 -15 11 -1 23 -1 28 0 4 1 14 -3 20 -9 23 -18 19 60 -4 80 -20 17 -27
40 -12 40 4 0 13 -5 20 -12 21 -21 14 11 -7 34 -20 20 -20 21 2 38 l21 17 -22
7 c-12 4 -22 12 -22 17 0 6 8 8 19 4 17 -5 19 1 20 90 1 52 -2 95 -7 95 -17 0
-31 -26 -26 -47 3 -11 2 -23 -3 -26 -7 -4 -8 17 -4 68 0 8 10 15 21 15 16 0
20 7 20 35 l0 35 -115 0 c-114 0 -115 0 -121 -25 -7 -27 -18 -32 -30 -13 -4 6
0 16 10 23 13 10 -3 12 -83 13 -75 1 -103 -3 -112 -14 -15 -18 -29 -18 -29 1
0 21 -76 20 -97 0 -14 -14 -17 -14 -32 0 -20 17 -47 20 -56 5z"/>
<path d="M24473 15483 c-15 -5 -18 -43 -4 -43 5 0 11 -6 14 -14 11 -27 -5 -53
-41 -71 -20 -10 -31 -20 -24 -22 18 -7 15 -21 -5 -26 -12 -3 -8 -5 9 -6 14 0
33 -4 42 -7 11 -4 16 0 16 14 0 11 -7 23 -16 26 -31 12 -9 15 50 7 51 -7 62
-5 92 15 26 18 34 20 34 9 0 -8 -4 -15 -10 -15 -15 0 -12 -37 4 -43 10 -4 15
8 19 46 5 56 -8 98 -28 90 -8 -3 -15 5 -17 19 -4 27 -38 38 -38 12 0 -19 -28
-43 -50 -43 -10 0 -6 8 13 24 15 13 27 27 27 30 0 6 -70 5 -87 -2z"/>
<path d="M24473 15095 c-16 -17 -17 -41 -3 -50 6 -3 10 -17 10 -31 0 -21 -3
-24 -26 -18 -15 4 -29 2 -33 -4 -7 -12 -51 -5 -51 8 0 4 7 13 15 20 16 13 21
40 8 40 -23 -1 -45 -31 -41 -55 3 -14 2 -25 -2 -25 -4 0 -13 -12 -20 -26 -13
-23 -19 -25 -52 -20 l-38 6 0 -43 c0 -24 -6 -49 -12 -55 -9 -9 -10 -15 -2 -20
7 -4 14 -16 17 -27 4 -11 4 -3 1 18 -3 22 -1 37 6 37 5 0 10 -7 10 -15 0 -8 4
-15 9 -15 5 0 12 -12 16 -27 l7 -28 14 34 c19 45 18 50 -11 57 -15 4 -25 13
-25 24 0 10 -6 20 -12 23 -7 2 2 7 21 12 22 4 36 3 40 -4 5 -8 13 -5 26 9 24
26 31 25 47 -7 14 -30 44 -38 42 -13 -1 8 -4 30 -8 48 l-8 32 51 0 c46 0 51
-2 57 -25 3 -14 10 -25 14 -25 5 0 15 -3 24 -6 10 -4 16 -1 16 10 0 10 6 13
15 9 21 -7 46 27 35 47 -5 8 -16 24 -25 35 -15 19 -15 18 -13 -19 2 -31 -2
-42 -20 -54 -13 -8 -22 -10 -22 -4 0 6 -6 17 -13 24 -7 7 -22 29 -34 49 l-21
37 39 17 c21 10 39 22 39 27 0 14 -74 8 -87 -7z"/>
<path d="M18902 12560 c-9 -15 -10 -26 -2 -40 9 -17 7 -19 -22 -17 -18 1 -39
6 -45 10 -8 5 -13 4 -13 -2 0 -6 -11 -11 -25 -11 -18 0 -25 -5 -25 -19 0 -11
-4 -23 -10 -26 -5 -3 -10 -1 -10 4 0 19 -17 12 -23 -9 -3 -12 -14 -20 -26 -20
-13 0 -19 -5 -15 -13 3 -8 -2 -20 -11 -27 -8 -7 -15 -18 -15 -25 0 -7 -7 -18
-15 -25 -13 -10 -19 -10 -33 4 -35 31 -78 10 -84 -39 -3 -34 -38 -50 -38 -18
0 15 -2 16 -10 3 -15 -23 -12 -30 11 -30 11 0 17 -5 14 -10 -4 -6 -10 -8 -15
-5 -4 3 -11 -1 -13 -7 -3 -8 -6 -6 -6 5 -1 20 -12 22 -29 5 -9 -9 -15 -10 -20
-2 -4 6 -15 13 -25 17 -15 6 -16 4 -7 -13 8 -15 8 -21 -2 -24 -67 -18 -73 -22
-70 -49 2 -21 -1 -27 -18 -27 -11 0 -20 -4 -20 -9 0 -5 -8 -11 -17 -14 -10 -2
-26 -8 -35 -12 -11 -4 -18 -3 -18 4 0 6 6 11 13 11 7 0 18 10 26 21 11 18 11
21 -1 16 -46 -20 -68 -34 -72 -50 -2 -10 -10 -16 -18 -15 -8 2 -12 -4 -10 -15
2 -14 -3 -17 -24 -15 -21 2 -31 -3 -42 -22 l-14 -25 7 30 6 30 -16 -23 c-10
-13 -23 -21 -31 -18 -8 3 -14 -1 -14 -9 0 -8 5 -15 12 -15 9 0 8 -3 -1 -12
-11 -10 -14 -10 -18 0 -3 6 -9 12 -14 12 -6 0 -8 -4 -4 -10 3 -5 -14 -15 -37
-22 l-43 -12 33 -4 c17 -2 32 -8 32 -14 0 -6 -15 -8 -35 -6 -27 3 -36 0 -41
-14 -3 -10 -13 -17 -22 -16 -9 1 -28 0 -41 0 -18 -2 -21 -5 -12 -15 13 -16 5
-27 -21 -27 -10 0 -18 -4 -18 -8 0 -4 -13 -13 -30 -19 -23 -9 -30 -18 -30 -37
0 -30 -11 -33 -33 -8 -15 16 -17 21 -17 39 0 4 -6 1 -12 -5 -10 -10 -10 -15 2
-22 11 -7 12 -12 3 -21 -6 -6 -9 -18 -6 -25 7 -19 -47 -40 -59 -22 -5 9 -8 6
-8 -10 0 -19 -4 -22 -22 -17 -17 6 -20 4 -14 -11 6 -15 2 -14 -18 5 -15 14
-26 20 -26 14 0 -6 6 -14 13 -17 9 -5 9 -7 0 -12 -7 -3 -9 -12 -6 -21 5 -13 2
-15 -15 -11 -19 5 -20 3 -11 -13 5 -10 8 -20 7 -20 -13 -6 -78 -4 -78 3 0 4
-8 8 -17 8 -14 0 -13 -3 6 -16 29 -21 9 -37 -26 -21 -19 8 -26 7 -37 -9 -8
-10 -12 -21 -9 -24 3 -3 8 1 10 8 5 14 49 17 57 3 3 -5 -21 -12 -54 -16 -33
-4 -60 -11 -60 -16 0 -5 8 -9 19 -9 10 0 24 -7 31 -15 8 -9 8 -15 2 -15 -6 0
-19 -3 -29 -6 -15 -5 -15 -4 -3 5 20 14 10 20 -22 14 -14 -3 -28 -13 -31 -24
-3 -11 -14 -19 -26 -19 -12 0 -21 -4 -21 -10 0 -5 -17 -10 -37 -10 -20 0 -34
-3 -30 -6 9 -9 -14 -65 -27 -63 -29 5 -96 -15 -96 -27 0 -19 -19 -18 -26 1 -4
8 -10 15 -16 15 -5 0 -6 -5 -2 -12 4 -6 -1 -17 -11 -25 -17 -12 -17 -13 -2
-13 15 0 16 -4 7 -21 -6 -11 -21 -25 -33 -30 l-22 -10 23 5 c12 2 22 1 22 -3
0 -4 -28 -13 -62 -20 -42 -8 -57 -15 -48 -21 11 -7 9 -14 -12 -35 -16 -16 -25
-33 -21 -43 3 -10 2 -13 -4 -7 -10 13 -53 17 -53 5 0 -14 -33 -21 -42 -8 -6
10 -8 9 -8 -4 0 -9 -12 -21 -27 -26 -18 -7 -22 -11 -10 -11 22 -1 22 -5 -8
-37 -14 -15 -25 -32 -25 -38 0 -7 -9 -12 -20 -13 -11 -1 -20 2 -20 8 0 5 5 9
11 9 5 0 8 4 5 9 -3 5 1 11 9 15 8 3 15 13 14 23 0 11 -3 13 -6 6 -2 -7 -16
-13 -29 -13 -23 0 -33 -13 -16 -23 4 -2 1 -2 -5 -1 -23 6 -42 -7 -36 -23 5
-13 1 -15 -21 -9 -18 4 -25 3 -21 -4 3 -5 14 -10 25 -10 10 0 20 -7 23 -14 4
-9 1 -13 -6 -11 -7 2 -25 6 -40 10 l-28 6 20 -22 c29 -31 20 -34 -25 -10 -49
27 -52 26 -56 -6 -2 -14 -8 -28 -15 -30 -7 -3 -10 4 -7 19 l5 23 -10 -23 c-6
-12 -9 -28 -7 -35 1 -6 1 -9 -1 -4 -8 13 -32 7 -42 -10 -5 -10 -13 -15 -17
-11 -4 4 -2 13 3 20 16 21 23 48 13 48 -6 0 -10 -7 -10 -15 0 -10 -7 -14 -22
-12 -13 2 -17 2 -10 0 15 -5 16 -23 1 -23 -5 0 -7 -5 -4 -10 10 -16 -15 -80
-31 -80 -13 0 -12 3 0 23 14 21 18 67 6 67 -15 0 -39 -41 -33 -56 5 -15 1 -16
-32 -11 -31 5 -35 4 -22 -6 8 -7 18 -23 22 -37 4 -17 3 -21 -3 -11 -8 11 -10
11 -15 0 -4 -10 -6 -9 -6 3 -1 9 -5 20 -11 23 -5 3 -7 0 -4 -8 3 -8 1 -18 -5
-22 -16 -9 -13 -25 5 -25 8 0 12 -5 9 -10 -9 -15 -37 9 -31 26 3 8 -4 19 -15
25 -19 10 -20 8 -14 -28 5 -30 4 -35 -5 -23 -9 12 -11 10 -7 -12 5 -32 4 -33
-16 -13 -13 12 -18 11 -41 -10 -29 -27 -46 -34 -27 -11 19 22 -5 29 -34 10
-29 -19 -33 -29 -8 -20 15 6 14 4 -2 -14 -10 -11 -24 -19 -31 -16 -19 7 -25
-5 -11 -22 10 -13 9 -14 -9 -8 -17 5 -23 2 -27 -14 -5 -20 -7 -21 -36 -5 -28
14 -32 14 -37 1 -3 -8 -3 -20 1 -26 3 -6 -4 -10 -17 -11 -23 -1 -23 -1 2 -8
24 -7 24 -8 -10 -16 -19 -4 -44 -9 -55 -9 -14 -1 -20 -8 -19 -23 0 -13 -3 -23
-8 -23 -4 0 -8 5 -8 12 0 7 -5 5 -12 -4 -17 -22 -83 -34 -93 -18 -6 9 -10 9
-16 -1 -11 -18 -11 -32 0 -25 15 10 -1 -43 -18 -56 -14 -12 -15 -11 -2 5 13
16 13 20 1 27 -18 11 -31 3 -23 -15 4 -11 -1 -14 -18 -13 -18 2 -25 -3 -27
-19 -2 -13 -9 -23 -15 -23 -7 0 -25 -12 -42 -27 -17 -16 -26 -21 -23 -11 4 9
4 19 1 22 -10 10 -32 -14 -27 -29 6 -14 -12 -15 -33 -2 -9 6 -13 1 -14 -15 0
-13 -3 -18 -6 -11 -7 19 -41 -7 -36 -27 3 -10 0 -21 -6 -24 -7 -5 -11 1 -11
15 0 18 -2 19 -15 9 -17 -14 -20 -40 -4 -40 5 0 7 -5 3 -11 -4 -7 -9 -8 -13
-1 -3 6 -18 13 -32 17 -22 5 -27 2 -33 -17 -9 -36 -7 -41 12 -33 13 5 14 3 5
-6 -14 -14 -33 -4 -33 17 0 21 -34 13 -38 -9 -3 -12 3 -17 19 -17 16 0 20 -3
13 -10 -7 -7 -20 -7 -35 -2 -29 11 -49 5 -49 -14 0 -8 -7 -14 -15 -14 -8 0
-15 -6 -15 -12 0 -9 -16 -13 -47 -13 -27 1 -54 -5 -60 -11 -18 -18 -16 -29 2
-14 8 7 22 9 32 6 9 -4 20 -1 24 6 4 7 11 9 16 5 9 -10 -38 -48 -49 -41 -5 3
-6 10 -2 15 3 6 -3 5 -15 -3 -12 -7 -21 -17 -21 -22 0 -4 -9 2 -19 15 -15 18
-22 21 -31 13 -8 -8 -9 -14 -1 -18 6 -4 11 -1 12 6 1 18 17 -22 18 -44 1 -12
-6 -18 -21 -18 -21 0 -21 0 -2 14 11 8 15 18 10 23 -5 4 -11 2 -13 -4 -3 -7
-11 -13 -20 -13 -10 0 -12 -6 -8 -19 4 -15 0 -20 -16 -23 -12 -2 -24 -9 -27
-16 -3 -9 3 -11 22 -6 32 8 34 -3 4 -15 -14 -5 -31 -4 -43 2 -18 9 -18 8 -7
-5 9 -11 10 -18 2 -23 -5 -3 -10 -1 -10 6 0 7 -3 10 -6 7 -3 -4 0 -16 6 -29
10 -18 10 -21 -3 -16 -8 3 -20 0 -26 -6 -8 -8 -11 -8 -11 1 0 7 4 12 8 12 5 0
9 14 9 30 0 39 -13 39 -22 0 -4 -16 -11 -32 -16 -35 -5 -4 -5 -13 1 -25 7 -13
6 -21 -5 -30 -12 -10 -13 -5 -10 34 3 27 0 48 -7 52 -7 5 -9 2 -5 -8 7 -19
-11 -38 -35 -38 -10 0 -18 -6 -18 -14 0 -8 -7 -16 -14 -19 -9 -4 -13 -1 -10 6
3 8 -4 13 -15 13 -11 0 -17 -4 -14 -9 2 -4 -1 -14 -7 -22 -10 -12 -10 -15 0
-15 8 0 10 -3 7 -6 -4 -4 -13 -1 -22 6 -12 10 -15 10 -15 -4 0 -9 6 -16 13
-16 8 0 8 -3 -2 -9 -8 -5 -11 -16 -8 -25 4 -9 3 -15 -1 -15 -20 3 -31 -3 -35
-18 -3 -12 -5 -9 -6 8 -1 21 -7 28 -30 31 -21 3 -28 1 -24 -9 6 -15 -13 -18
-22 -3 -3 6 -11 10 -17 10 -6 0 -4 -10 5 -23 14 -21 13 -24 -4 -35 -12 -8 -19
-8 -19 -2 0 5 5 10 10 10 6 0 10 4 10 9 0 5 -16 9 -35 9 -19 0 -38 -4 -41 -9
-3 -5 2 -9 10 -9 9 0 16 -4 16 -8 0 -17 -12 -21 -30 -10 -20 13 -54 3 -45 -12
5 -8 11 -8 20 0 9 7 15 7 23 -3 9 -10 5 -13 -18 -11 -16 1 -43 -8 -63 -22 -19
-13 -37 -20 -41 -17 -3 4 -6 2 -6 -4 0 -7 -17 -9 -44 -6 -26 3 -46 1 -50 -6
-5 -7 -1 -9 8 -5 9 3 16 1 16 -4 0 -6 -8 -13 -19 -17 -10 -3 -26 -14 -36 -25
-17 -18 -16 -19 9 -26 14 -3 26 -11 26 -16 0 -6 -11 -7 -27 -3 -23 5 -25 4
-14 -9 11 -13 10 -17 -4 -22 -12 -5 -13 -9 -5 -14 7 -4 -11 -7 -41 -6 -35 1
-54 6 -57 15 -3 8 0 11 6 7 6 -3 13 -2 16 3 3 5 0 11 -8 14 -19 7 -32 -20 -35
-70 -1 -25 -21 -32 -21 -8 0 8 -4 15 -10 15 -5 0 -10 -5 -10 -10 0 -7 -7 -7
-22 0 -22 11 -22 11 1 -8 18 -14 20 -21 11 -27 -8 -5 -16 -1 -22 9 -5 9 -17
16 -26 16 -13 0 -10 -6 12 -25 23 -20 32 -23 50 -13 17 8 19 8 9 -2 -10 -11
-9 -16 5 -26 24 -18 35 -17 28 2 -5 14 -4 15 9 4 12 -10 15 -10 15 0 0 7 9 3
20 -10 24 -28 25 -31 5 -24 -8 4 -15 1 -15 -5 0 -6 -5 -11 -11 -11 -8 0 -7 5
1 15 21 25 6 26 -28 2 -18 -13 -30 -28 -27 -37 3 -8 0 -22 -5 -30 -8 -12 -10
-11 -10 8 0 38 -33 20 -42 -23 -2 -11 -10 -19 -16 -17 -47 9 -82 10 -76 1 3
-6 15 -9 25 -6 10 3 23 -1 30 -9 8 -10 8 -14 0 -14 -6 0 -11 5 -11 10 0 7 -6
8 -17 1 -10 -5 -26 -5 -39 -1 -20 8 -22 5 -26 -26 -5 -42 3 -57 25 -48 9 3 14
11 11 16 -4 6 2 8 15 3 14 -4 21 -2 21 7 0 10 3 9 10 -2 8 -13 10 -13 10 2 0
13 8 16 37 13 45 -3 63 3 63 20 0 7 14 15 30 17 17 3 30 1 30 -4 0 -4 7 -8 15
-8 8 0 15 4 15 8 0 5 14 8 31 7 20 -1 38 5 47 16 16 19 37 16 26 -3 -5 -7 2
-9 20 -6 14 3 26 1 26 -4 0 -5 5 -6 10 -3 6 3 10 15 10 26 0 19 1 19 17 3 16
-15 18 -15 38 10 20 25 54 34 69 19 3 -4 -4 -13 -16 -21 -16 -9 -17 -12 -4 -8
13 5 17 2 13 -8 -4 -10 -1 -13 8 -10 9 4 13 17 11 36 -3 23 1 32 15 35 11 3
19 10 19 17 0 6 5 3 11 -7 9 -15 13 -16 26 -6 19 17 53 22 53 9 0 -7 6 -7 19
0 25 13 34 13 26 0 -3 -5 1 -10 10 -10 9 0 14 4 10 9 -3 5 2 16 10 24 8 9 15
23 15 33 0 16 1 16 18 1 10 -10 22 -14 25 -10 4 3 7 1 7 -6 0 -7 5 -9 10 -6 6
4 8 16 4 27 -5 17 -3 20 11 14 13 -4 16 -2 11 9 -8 21 7 19 24 -4 15 -21 32
-19 24 3 -3 7 2 16 12 20 12 4 15 2 10 -9 -8 -23 4 -18 26 10 16 21 22 23 38
13 16 -10 22 -9 32 4 7 9 37 26 66 37 47 17 54 18 59 4 5 -12 9 -8 20 13 7 16
11 21 9 12 -3 -10 -1 -20 3 -23 5 -2 12 11 15 30 4 19 11 35 16 35 13 0 13
-27 0 -35 -5 -3 -10 -11 -10 -17 0 -7 4 -7 13 1 10 8 17 7 25 -1 8 -8 9 -5 5
11 -4 17 -2 20 11 15 9 -3 16 -10 16 -14 0 -16 36 -4 59 20 14 15 25 20 27 14
7 -17 44 -5 44 13 0 10 6 13 17 9 9 -4 19 -3 22 2 3 5 27 12 53 15 41 6 46 4
41 -9 -5 -14 -3 -15 15 -5 14 7 19 17 16 29 -5 14 -4 15 5 2 6 -8 11 -11 11
-6 0 5 9 1 19 -8 13 -12 21 -14 26 -6 3 6 12 9 18 8 7 -1 23 4 36 11 21 12 26
11 38 -5 9 -12 13 -13 13 -4 0 7 3 10 7 7 3 -4 12 -2 19 4 8 6 21 9 29 5 8 -3
26 -1 39 6 20 9 31 7 61 -12 20 -12 38 -20 41 -17 3 3 -3 8 -14 11 -20 7 -37
34 -27 44 3 3 5 0 5 -6 0 -7 7 -12 15 -12 8 0 13 6 11 13 -1 6 -1 9 1 4 3 -4
9 -4 15 -1 5 3 8 -2 6 -11 -2 -10 3 -20 11 -23 10 -3 12 1 9 16 -4 15 -2 19 8
15 9 -3 12 -13 9 -24 -7 -22 -5 -22 29 -9 23 8 26 7 26 -11 0 -11 4 -18 10
-14 5 3 7 12 3 20 -4 11 -1 13 11 9 9 -3 16 -1 16 5 0 7 14 17 31 23 17 6 28
16 25 23 -2 7 1 12 7 12 44 -1 57 4 57 23 0 11 -4 20 -10 20 -5 0 -10 -5 -10
-11 0 -5 -5 -7 -11 -3 -11 7 15 28 35 29 5 0 10 15 12 33 3 23 0 32 -11 32
-17 0 -21 35 -5 45 6 3 13 0 16 -8 6 -15 20 -17 41 -4 14 9 43 -1 43 -15 0 -6
6 -5 15 2 13 11 15 8 15 -14 0 -26 13 -35 24 -17 4 5 0 11 -6 13 -7 3 0 7 15
10 18 4 34 0 44 -10 14 -14 17 -14 29 3 17 22 17 30 4 55 -7 13 -6 19 6 24 8
3 12 2 9 -3 -3 -5 -1 -12 5 -16 6 -3 10 4 11 17 0 13 3 17 6 11 7 -18 23 -16
23 2 0 8 5 15 11 15 20 0 39 33 27 47 -7 9 -2 10 24 3 18 -6 35 -10 37 -10 2
0 1 14 -3 30 -5 28 -4 30 20 24 20 -5 26 -2 31 15 3 11 9 21 14 21 5 0 9 9 9
20 0 23 10 26 28 8 12 -12 13 -11 16 15 1 6 9 11 19 9 10 -2 17 4 17 14 0 11
5 14 16 10 8 -3 22 0 30 8 18 19 18 24 -3 29 -10 3 3 5 28 6 39 1 50 6 64 27
11 18 23 24 36 21 12 -3 19 0 19 9 0 8 5 14 10 14 6 0 10 7 10 15 0 8 9 15 21
15 11 0 18 4 15 9 -3 5 1 14 9 21 8 7 15 9 15 5 0 -4 6 -2 14 5 8 6 12 18 9
26 -4 10 2 17 14 20 11 3 26 17 33 30 8 13 17 24 22 24 13 0 9 -18 -4 -23 -7
-2 -11 -7 -8 -9 11 -12 50 13 50 32 0 14 7 20 23 20 12 0 29 5 37 10 12 8 12
10 -5 10 -19 1 -19 2 -3 14 10 7 15 16 11 19 -3 4 -1 7 5 7 7 0 12 -9 12 -20
0 -11 5 -20 10 -20 11 0 14 13 10 44 -1 11 3 15 9 12 6 -4 11 0 11 9 0 14 45
40 62 37 4 -1 15 9 24 23 9 14 24 25 33 25 9 0 25 7 35 15 11 8 28 15 38 15
11 0 23 11 28 25 7 19 17 25 42 26 27 0 29 2 13 9 -18 7 -19 8 -2 15 9 4 17
14 17 22 0 12 8 15 39 10 30 -4 41 -1 52 14 7 11 19 19 26 19 7 0 13 7 13 16
0 12 7 15 29 12 24 -4 27 -1 23 16 -4 14 -1 18 9 14 8 -3 24 1 34 9 19 14 19
15 -5 8 -22 -7 -23 -6 -8 9 9 9 24 16 32 16 18 0 22 26 5 32 -7 2 4 4 23 4 37
0 68 22 68 48 0 9 5 16 11 16 6 0 23 9 39 20 15 11 30 17 34 13 3 -3 6 2 6 11
0 14 5 17 24 12 14 -3 28 -2 31 4 3 5 1 10 -4 10 -6 0 -11 5 -11 10 0 6 7 10
15 10 8 0 15 4 15 9 0 5 10 11 22 14 18 5 19 8 8 21 -8 10 -8 16 -2 16 6 0 14
-4 17 -10 10 -17 45 -12 39 5 -4 8 -1 15 5 15 6 0 11 6 11 14 0 8 7 16 15 20
8 3 15 1 15 -4 0 -31 71 13 93 58 9 19 19 26 36 24 29 -3 76 25 92 54 10 19
15 21 30 11 15 -9 22 -8 36 6 16 15 16 17 1 17 -9 0 -19 4 -22 9 -4 5 10 5 32
0 48 -11 61 -11 43 0 -12 8 -12 12 -2 25 7 8 19 12 27 9 8 -3 14 1 14 10 0 11
6 13 22 9 17 -4 20 -2 15 11 -7 20 -3 21 23 7 26 -14 50 -2 50 25 0 13 6 26
13 29 9 5 9 7 0 12 -14 6 12 35 43 49 17 7 17 8 2 12 -10 3 -18 9 -18 14 0 6
4 8 8 5 5 -3 18 3 29 14 12 10 24 16 27 13 11 -12 47 37 44 60 -2 16 2 22 17
22 16 0 19 6 17 30 -4 26 -2 28 12 16 14 -12 19 -11 36 7 11 12 20 29 20 39 0
15 4 14 20 -7 18 -23 20 -23 20 -5 0 29 65 68 99 61 24 -6 25 -5 7 8 -10 8
-15 19 -11 25 8 14 35 14 35 1 0 -5 7 -10 15 -10 9 0 14 8 12 20 -2 19 5 21
82 23 65 3 85 7 93 20 11 21 28 22 28 2 0 -9 6 -12 15 -9 8 4 15 12 15 20 0 8
7 14 15 14 8 0 15 -7 15 -15 0 -8 5 -15 10 -15 6 0 10 7 10 15 0 8 5 14 12 13
7 -2 12 3 13 10 0 16 65 58 65 43 0 -6 5 -11 12 -11 9 0 9 3 0 12 -19 19 -14
27 21 30 19 2 31 8 29 16 -1 6 2 12 8 12 6 0 10 7 10 15 0 8 4 15 9 15 5 0 7
9 4 20 -7 27 15 52 41 45 12 -3 15 -2 9 1 -7 3 -13 20 -13 36 0 17 -8 48 -17
69 -14 32 -20 38 -40 33 -15 -4 -23 -2 -23 6 0 7 7 10 15 6 19 -7 19 -2 0 34
-11 21 -22 29 -38 27 -17 -2 -21 2 -19 20 2 17 -1 20 -18 16 -15 -4 -19 -2
-14 10 3 10 -5 21 -25 33 -33 20 -42 38 -13 27 15 -6 15 -5 3 10 -7 9 -24 17
-37 17 -24 0 -33 23 -14 35 6 3 10 11 10 17 0 6 -6 5 -16 -3 -14 -11 -18 -11
-28 2 -6 8 -19 13 -28 11 -10 -2 -18 1 -18 7 0 6 -6 11 -14 11 -7 0 -16 10
-20 23 -5 18 -8 20 -16 7 -8 -12 -11 -11 -16 8 -5 18 -9 21 -16 10 -7 -10 -11
-10 -15 0 -2 6 -10 12 -15 12 -6 0 -8 -3 -5 -7 4 -3 2 -12 -4 -20 -10 -11 -14
-10 -26 7 -18 25 -25 25 -41 0z m-3147 -2550 c-5 -15 -2 -20 10 -20 9 0 19 -9
22 -21 3 -12 11 -18 19 -15 8 3 14 0 14 -5 0 -6 9 -9 20 -6 13 3 20 0 20 -9 0
-8 16 -16 40 -20 22 -4 40 -10 40 -15 0 -5 7 -9 15 -9 8 0 15 -4 15 -10 0 -5
11 -10 25 -10 14 0 25 -4 25 -9 0 -5 -14 -8 -30 -6 -20 3 -30 0 -29 -8 4 -30
-2 -57 -11 -57 -7 0 -10 19 -9 46 2 31 -2 48 -12 54 -9 6 -15 5 -18 -2 -2 -7
1 -14 8 -16 6 -2 11 -15 11 -28 0 -14 -4 -23 -9 -19 -5 3 -13 1 -16 -5 -9 -14
-35 7 -35 27 0 10 -7 14 -18 11 -15 -4 -18 0 -17 24 1 20 -1 26 -9 18 -16 -16
-24 -12 -41 24 -9 18 -25 43 -36 55 -16 17 -18 24 -7 36 18 20 20 19 13 -5z"/>
<path d="M6703 11961 c-72 -25 -92 -41 -53 -41 10 0 39 -6 62 -14 24 -7 101
-26 171 -41 120 -25 129 -26 147 -10 15 14 21 14 38 4 18 -11 26 -9 61 15 23
16 41 32 41 35 0 9 -338 82 -370 80 -14 -1 -58 -13 -97 -28z"/>
<path d="M7209 11873 c-8 -9 -13 -24 -11 -34 2 -9 -1 -20 -7 -23 -10 -6 15
-66 28 -66 3 0 30 -18 60 -40 61 -46 68 -48 69 -17 0 12 5 51 12 86 6 34 10
64 8 66 -5 4 -131 45 -139 45 -3 0 -13 -7 -20 -17z"/>
<path d="M5909 11795 c-31 -71 -27 -169 12 -291 30 -95 88 -229 89 -209 1 6 9
-8 18 -30 27 -64 65 -125 74 -119 4 3 8 -2 8 -10 0 -9 5 -16 11 -16 6 0 9 -7
5 -15 -3 -8 0 -14 6 -12 7 1 12 -5 13 -13 0 -22 34 -87 53 -102 10 -8 13 -9 9
-1 -4 6 -3 14 1 17 5 3 14 -5 19 -17 9 -19 51 -74 153 -197 59 -72 347 -355
380 -375 10 -5 41 -30 70 -55 64 -54 176 -138 221 -165 56 -34 64 -39 106 -72
22 -18 44 -33 48 -33 3 0 30 -19 59 -42 30 -24 65 -52 80 -62 14 -10 24 -22
21 -25 -3 -3 22 -19 55 -36 34 -16 193 -119 354 -227 323 -216 295 -188 312
-310 3 -26 14 -54 24 -63 16 -15 18 -12 24 47 4 34 9 66 12 69 2 4 59 -27 127
-69 67 -41 142 -86 166 -99 25 -13 53 -32 62 -42 10 -11 27 -22 39 -26 11 -3
20 -11 20 -16 0 -6 4 -8 9 -4 6 3 15 -4 21 -15 14 -26 14 -26 -56 10 -32 16
-65 30 -73 30 -8 0 -22 7 -32 16 -16 15 -17 14 -12 -5 3 -12 1 -21 -6 -21 -6
0 -11 -5 -11 -10 0 -7 6 -7 19 -1 18 10 31 6 31 -11 0 -4 -12 -8 -27 -8 -14 0
-23 -3 -20 -7 10 -10 -13 -33 -33 -33 -13 0 -17 -6 -13 -20 3 -12 0 -20 -7
-20 -7 0 -10 -7 -6 -15 3 -8 1 -15 -4 -15 -6 0 -10 -4 -10 -10 0 -5 7 -10 15
-10 11 0 10 -5 -7 -22 -14 -14 -18 -23 -10 -26 7 -2 12 -10 12 -18 0 -9 -4
-12 -10 -9 -5 3 -10 -2 -10 -12 0 -11 -5 -24 -12 -31 -7 -7 -8 -12 -4 -12 5 0
3 -7 -4 -15 -10 -12 -10 -15 4 -15 9 0 16 -4 16 -10 0 -5 -8 -10 -17 -10 -13
0 -23 -16 -36 -60 -9 -33 -21 -60 -26 -60 -5 0 -7 -8 -4 -19 3 -10 0 -22 -7
-26 -8 -5 -8 -11 1 -21 6 -8 9 -17 5 -21 -3 -3 -6 -1 -6 5 0 7 -3 12 -8 12 -4
0 -7 -17 -6 -37 1 -21 -2 -43 -7 -50 -6 -6 -7 -23 -3 -37 4 -17 2 -26 -6 -26
-6 0 -9 -4 -5 -9 3 -5 1 -12 -5 -16 -5 -3 -10 -17 -10 -31 0 -13 -5 -24 -10
-24 -7 0 -7 -6 -1 -18 7 -13 7 -22 -1 -30 -8 -8 -8 -15 2 -27 10 -12 10 -15
-1 -15 -12 0 -12 -2 0 -9 17 -11 9 -201 -15 -326 -12 -65 -16 -115 -8 -115 5
0 10 -55 11 -123 1 -75 -2 -114 -7 -102 -8 18 -9 18 -9 2 -1 -10 -7 -24 -13
-31 -11 -12 -16 -11 -32 2 -18 16 -18 16 -6 -8 12 -23 12 -24 -4 -11 -9 8 -20
10 -24 6 -4 -4 -1 -10 6 -12 6 -3 12 -8 12 -12 0 -11 -43 -11 -56 0 -15 12
-29 -5 -18 -23 5 -8 2 -9 -10 -5 -16 7 -59 -25 -53 -40 1 -5 -8 -9 -21 -11
-17 -3 -21 -8 -17 -23 7 -20 -9 -27 -20 -9 -11 18 -23 10 -18 -11 5 -18 3 -20
-17 -14 -15 5 -20 4 -16 -3 4 -6 -2 -15 -11 -21 -17 -10 -17 -10 2 -11 17 -1
17 -3 -6 -15 -14 -8 -32 -28 -39 -44 -6 -16 -20 -37 -31 -47 -10 -9 -19 -24
-19 -33 0 -12 3 -12 12 -3 7 7 19 12 27 12 10 0 8 -6 -7 -19 -22 -19 -29 -41
-13 -41 5 0 11 7 15 15 3 8 12 15 19 15 21 0 42 27 25 33 -7 2 -2 2 12 0 34
-6 38 -13 16 -25 -15 -8 -16 -12 -5 -19 23 -15 35 -10 46 19 10 25 11 25 12 5
1 -26 11 -29 29 -11 10 10 15 10 21 -1 5 -7 14 -10 20 -6 7 4 18 2 25 -4 10
-9 15 -8 20 5 4 11 13 14 28 11 12 -4 28 -1 36 6 13 10 14 8 7 -13 -8 -25 -7
-25 13 -7 11 11 26 16 32 12 15 -9 42 15 36 32 -3 8 -2 12 3 8 5 -3 12 1 14 7
4 10 8 9 16 -2 7 -10 7 -17 -1 -21 -7 -4 -6 -9 2 -14 7 -4 16 -2 20 5 5 7 13
9 21 5 8 -5 5 1 -5 13 -11 12 -16 25 -13 29 4 4 13 -2 21 -12 9 -12 15 -15 20
-7 4 7 12 12 18 12 7 0 7 -5 -1 -14 -9 -11 -8 -15 5 -20 22 -9 23 -8 17 14 -4
16 -1 19 13 16 42 -9 64 -19 64 -28 0 -6 7 -7 16 -4 10 4 25 -3 40 -19 13 -14
30 -25 38 -25 8 0 23 -11 33 -24 10 -13 29 -26 41 -30 12 -4 25 -18 28 -32 4
-14 11 -23 18 -21 11 4 46 -29 46 -43 0 -4 16 -11 36 -14 19 -4 42 -10 50 -13
8 -3 14 1 14 11 0 10 9 16 24 16 14 0 28 5 31 10 4 6 11 8 16 5 5 -4 9 0 9 8
0 16 27 30 40 22 5 -3 7 -23 6 -45 -3 -36 -1 -40 16 -34 18 5 18 4 8 -16 -7
-12 -10 -33 -7 -47 6 -30 -13 -71 -31 -65 -14 4 -16 -14 -2 -23 16 -10 12 -21
-15 -35 -18 -9 -23 -19 -19 -32 5 -17 -8 -23 -43 -19 -7 1 -9 -7 -6 -20 5 -18
3 -21 -10 -16 -13 5 -17 1 -17 -14 0 -11 -3 -18 -7 -16 -13 8 -33 -19 -33 -44
0 -6 -7 -8 -16 -5 -12 5 -14 1 -9 -15 5 -16 3 -20 -6 -17 -8 3 -19 -7 -26 -24
-7 -16 -17 -27 -23 -23 -5 3 -14 -4 -19 -17 -5 -13 -23 -34 -40 -47 -17 -13
-31 -32 -31 -42 0 -11 -6 -19 -14 -19 -8 0 -17 -13 -21 -30 -4 -16 -13 -30
-21 -30 -8 0 -14 -5 -14 -10 0 -6 -10 -15 -23 -21 -12 -6 -28 -23 -35 -39 -7
-16 -22 -32 -33 -35 -10 -4 -19 -13 -19 -21 0 -18 -49 -74 -66 -74 -7 0 -10
-8 -7 -20 4 -14 0 -20 -11 -20 -9 0 -16 -6 -15 -12 3 -25 -1 -38 -12 -38 -8 0
-8 4 0 14 10 12 8 13 -8 9 -12 -3 -18 -9 -15 -14 3 -5 -7 -20 -23 -35 -22 -21
-25 -27 -13 -34 14 -9 7 -14 -13 -11 -15 2 -49 -41 -44 -58 3 -12 -7 -25 -29
-41 -31 -20 -40 -37 -35 -64 1 -5 -5 -6 -14 -2 -10 3 -27 -4 -43 -19 l-27 -25
25 -1 25 0 -25 -10 c-17 -7 -26 -7 -28 0 -2 6 -8 11 -13 11 -15 0 2 -29 19
-33 14 -4 14 -5 -2 -6 -12 -1 -16 -6 -12 -17 4 -12 1 -14 -13 -9 -16 5 -18 2
-14 -16 5 -20 3 -21 -30 -17 -33 4 -35 2 -31 -24 3 -26 -4 -33 -28 -29 -11 2
-10 -23 2 -37 7 -9 7 -9 -2 -2 -18 15 -28 12 -28 -9 0 -23 -25 -45 -40 -36 -7
4 -10 0 -8 -11 2 -13 -3 -19 -13 -18 -9 1 -16 -4 -16 -10 1 -33 -5 -44 -20
-42 -10 0 -17 -5 -16 -11 2 -7 -2 -13 -7 -13 -6 0 -10 8 -11 18 0 11 -2 12 -6
4 -3 -7 1 -19 7 -28 7 -8 10 -17 6 -21 -3 -3 -6 -1 -6 6 0 7 -14 1 -33 -13
-19 -15 -42 -26 -53 -27 -10 0 -14 -3 -8 -5 16 -7 5 -46 -18 -63 -11 -7 -17
-19 -15 -26 4 -8 -3 -11 -18 -9 -17 1 -22 -2 -18 -13 3 -8 -4 -27 -16 -43 -11
-16 -21 -34 -21 -40 0 -5 -7 -10 -15 -10 -8 0 -15 -8 -16 -17 -1 -36 -8 -53
-33 -86 -14 -19 -26 -38 -26 -42 0 -9 -34 -87 -53 -120 -31 -55 -57 -118 -53
-123 3 -3 6 0 6 6 0 7 5 12 10 12 6 0 10 -7 10 -15 0 -17 36 -39 50 -30 6 3
10 0 10 -7 0 -19 81 -43 90 -27 10 16 33 1 26 -17 -8 -21 7 -17 22 6 7 11 17
20 23 20 8 0 7 -5 -1 -15 -7 -9 -10 -18 -7 -22 10 -10 37 18 37 38 0 11 5 19
10 19 6 0 10 -4 10 -10 0 -5 4 -10 9 -10 5 0 9 6 8 12 -1 40 3 52 15 40 15
-15 38 -16 38 -1 0 16 31 38 53 39 10 0 20 7 23 15 4 9 14 14 23 13 9 -2 17 4
17 12 1 8 2 22 3 30 1 13 2 13 11 0 6 -10 10 -11 10 -2 0 6 9 12 19 12 11 0
22 9 26 19 3 11 15 23 26 26 10 4 19 11 19 17 0 5 7 8 15 4 11 -4 15 1 15 17
0 12 4 18 8 12 14 -19 40 -15 56 10 11 16 22 22 33 18 11 -4 14 -3 9 5 -4 7
-1 12 8 12 9 0 16 -5 16 -11 0 -5 5 -7 10 -4 6 4 7 11 4 17 -5 7 1 9 15 5 29
-7 51 1 45 16 -2 7 5 17 17 22 12 6 21 14 20 19 -4 14 22 26 42 20 12 -4 17 0
17 15 0 14 6 21 19 21 10 0 24 7 31 15 7 9 15 13 18 11 2 -3 17 8 32 24 16 17
35 30 44 30 16 0 58 35 51 42 -3 2 7 4 21 3 25 0 50 -27 40 -44 -3 -5 0 -11 8
-14 15 -6 19 -57 4 -57 -6 0 -8 9 -5 20 3 11 1 20 -5 20 -5 0 -8 -15 -6 -32 2
-20 8 -32 16 -30 6 1 12 -7 12 -18 0 -13 -5 -18 -15 -14 -8 4 -15 1 -15 -5 0
-6 5 -11 11 -11 5 0 9 -8 7 -17 -1 -10 6 -30 16 -45 13 -20 17 -40 14 -72 -3
-30 -1 -47 7 -50 7 -2 11 -15 10 -28 -1 -13 -3 -34 -4 -46 -1 -15 -9 -26 -21
-29 -11 -3 -20 -10 -20 -15 0 -5 4 -6 10 -3 5 3 10 -1 10 -9 0 -9 -5 -16 -11
-16 -7 0 -9 -10 -5 -27 4 -17 3 -23 -2 -15 -9 14 -45 5 -36 -9 3 -5 1 -9 -5
-9 -5 0 -12 -14 -16 -31 -4 -17 -13 -42 -20 -56 -8 -14 -12 -39 -10 -54 2 -20
-1 -29 -11 -29 -8 0 -17 -7 -20 -15 -4 -8 -12 -15 -20 -15 -10 0 -13 -7 -8
-24 4 -18 0 -30 -19 -46 -17 -15 -24 -30 -22 -54 1 -26 -2 -33 -14 -28 -10 4
-13 1 -8 -11 4 -10 0 -20 -11 -26 -9 -6 -12 -11 -7 -11 6 0 3 -5 -5 -10 -13
-9 -13 -11 0 -20 13 -8 12 -10 -2 -10 -10 0 -18 -4 -18 -10 0 -5 -13 -22 -28
-37 -15 -16 -28 -37 -27 -48 0 -11 -6 -29 -15 -39 -11 -14 -12 -20 -3 -23 13
-5 6 -33 -9 -33 -5 0 -6 5 -3 10 3 6 1 10 -4 10 -6 0 -11 -5 -11 -12 0 -6 -8
-20 -17 -30 -10 -12 -13 -22 -8 -26 16 -11 15 -44 0 -38 -16 6 -31 -22 -34
-64 -1 -14 -7 -20 -18 -18 -14 2 -17 -3 -15 -24 3 -21 -1 -27 -19 -30 -12 -2
-23 -11 -25 -21 -1 -9 2 -15 7 -11 5 3 9 1 9 -5 0 -5 -5 -13 -10 -16 -6 -4 -9
-13 -8 -22 2 -8 -6 -20 -17 -27 -11 -6 -22 -12 -25 -14 -2 -2 2 -7 10 -13 13
-8 13 -11 -2 -20 -10 -5 -18 -16 -18 -23 0 -8 -10 -16 -22 -20 -19 -5 -21 -8
-8 -16 13 -8 12 -10 -2 -10 -11 0 -18 -8 -18 -20 0 -11 -5 -20 -11 -20 -7 0
-8 -11 -4 -30 4 -20 3 -30 -5 -30 -22 0 -73 -42 -60 -50 7 -5 3 -15 -14 -31
-26 -24 -34 -49 -16 -49 6 0 10 -5 10 -11 0 -5 -4 -8 -8 -5 -4 2 -23 -11 -42
-30 -19 -20 -30 -35 -25 -34 28 6 34 -1 18 -19 -36 -40 -44 -51 -39 -60 3 -4
-3 -17 -12 -27 -10 -10 -16 -28 -14 -38 2 -10 -3 -23 -12 -28 -9 -5 -16 -18
-16 -28 0 -11 -4 -20 -10 -20 -5 0 -10 -7 -10 -15 0 -8 -5 -15 -12 -15 -6 0
-3 -7 8 -15 19 -14 19 -14 0 -15 -11 0 -16 -3 -13 -7 4 -3 2 -12 -5 -20 -8
-11 -7 -12 6 -7 9 3 16 1 16 -4 0 -6 -9 -14 -20 -17 -22 -7 -27 -25 -7 -25 7
-1 4 -6 -7 -15 -10 -7 -15 -18 -12 -24 3 -5 -4 -18 -16 -28 -15 -11 -22 -26
-20 -41 2 -14 -4 -29 -14 -36 -11 -8 -14 -18 -9 -26 5 -8 4 -11 -3 -6 -6 3
-13 -5 -16 -22 -4 -15 -20 -41 -36 -59 -16 -17 -32 -43 -36 -57 -3 -15 -15
-31 -25 -37 -11 -5 -19 -16 -19 -24 0 -8 -4 -15 -9 -15 -9 0 -24 -38 -22 -57
1 -6 -3 -14 -9 -18 -16 -10 -12 -28 6 -21 10 4 13 2 8 -6 -4 -6 1 -17 10 -24
16 -11 16 -13 -3 -19 -12 -3 -21 -11 -21 -17 0 -5 7 -8 15 -4 9 3 15 0 15 -9
0 -8 5 -15 11 -15 6 0 9 -6 6 -14 -11 -28 35 -45 81 -31 21 7 31 25 14 25 -5
0 -9 13 -10 30 -1 25 3 30 22 30 31 0 47 19 35 41 -8 15 -6 17 8 12 12 -5 15
-2 10 10 -3 9 -2 19 3 22 6 4 10 -3 10 -15 0 -34 20 -12 21 23 0 18 3 26 6 20
2 -7 14 -13 25 -13 15 0 18 5 13 20 -5 15 -2 20 11 20 13 0 14 3 5 14 -10 12
-5 17 24 27 21 8 34 18 31 26 -7 17 13 28 27 14 18 -18 30 -13 24 12 -7 27 16
62 36 54 20 -8 74 64 62 83 -3 6 1 7 9 4 11 -4 16 0 16 15 0 17 6 21 32 21 30
0 31 0 13 20 -18 20 -17 20 9 20 19 0 29 7 36 25 7 17 15 23 27 19 12 -4 14
-3 6 3 -14 10 17 69 49 91 10 7 16 18 13 23 -3 5 1 6 9 3 9 -3 12 -12 9 -22
-4 -9 -3 -14 1 -10 4 3 8 12 10 20 1 7 4 18 7 23 4 6 9 23 13 38 5 20 11 27
22 23 9 -3 12 -1 9 4 -3 6 -1 10 4 10 6 0 11 10 11 23 0 12 5 29 11 37 8 12 9
9 4 -10 l-6 -25 18 21 c10 11 25 23 33 27 10 3 7 6 -7 6 -13 1 -23 6 -23 12 0
5 10 9 23 7 18 -2 23 2 25 30 2 18 8 30 13 27 5 -4 9 -1 9 5 0 6 8 9 18 6 15
-5 18 0 18 26 0 28 3 33 22 31 14 -2 21 1 17 8 -13 20 5 58 35 76 17 9 30 23
30 30 0 12 13 18 34 14 5 -1 6 4 3 12 -6 15 28 65 38 56 12 -12 60 45 57 67
-2 12 2 25 9 29 9 6 11 3 6 -8 -5 -14 -3 -15 13 -5 10 7 16 16 14 20 -3 5 2
11 10 14 9 3 13 10 10 15 -3 5 0 9 5 9 6 0 11 7 11 15 0 8 4 15 9 15 5 0 18
15 30 33 11 17 21 28 21 23 0 -19 29 29 30 49 0 15 2 17 9 6 6 -9 11 -10 15
-2 4 6 4 11 -1 11 -4 0 7 8 24 16 18 9 30 20 27 25 -7 13 20 11 33 -2 7 -7 12
0 16 24 4 29 57 104 57 82 0 -4 9 4 20 18 11 14 20 30 20 37 0 7 8 9 19 5 16
-5 18 -2 14 17 -3 17 -2 19 5 9 8 -11 11 -10 16 6 4 11 18 26 31 33 14 7 25
17 25 22 0 4 10 18 21 29 16 16 23 18 29 9 6 -9 9 -7 12 9 1 12 7 20 12 19 5
-2 13 8 17 21 6 14 14 21 24 17 8 -3 17 0 21 6 4 7 3 8 -4 4 -7 -4 -12 -2 -12
4 0 6 8 14 18 17 22 9 42 29 42 42 0 6 5 11 11 11 16 0 39 26 39 44 0 21 10
20 26 -2 12 -16 13 -15 14 6 0 12 -5 22 -10 22 -6 0 0 11 12 23 13 13 26 20
29 15 3 -5 11 3 17 17 6 14 20 25 31 25 10 0 24 6 31 14 6 8 19 12 27 9 11 -4
14 -2 9 5 -11 18 24 71 42 64 12 -4 14 0 10 16 -4 12 -2 22 3 22 5 0 9 6 9 14
0 8 7 16 15 20 9 3 15 0 15 -9 0 -21 20 -19 21 3 1 18 4 32 9 45 1 4 3 11 4
17 3 25 86 56 86 32 0 -5 16 -14 35 -22 19 -8 35 -17 35 -21 0 -4 14 -10 30
-14 17 -4 28 -10 25 -15 -3 -5 5 -12 17 -16 13 -4 24 -2 26 5 2 6 8 9 13 5 13
-8 11 3 -7 37 -8 17 -13 33 -10 36 3 3 -3 14 -15 23 -11 10 -19 22 -17 26 1 5
-3 18 -9 29 -13 24 -9 123 6 138 8 8 11 8 11 -1 0 -7 5 -12 10 -12 6 0 10 7
10 15 0 9 9 15 21 15 12 0 23 8 26 20 3 12 14 20 27 20 15 0 17 3 7 9 -11 7
-10 12 5 29 12 15 22 18 30 12 8 -7 19 2 38 30 15 23 36 49 46 58 11 9 20 21
20 27 1 5 19 22 40 37 22 15 40 34 40 43 0 9 6 12 15 9 13 -5 20 6 16 28 0 4
7 4 16 1 11 -4 14 -3 9 5 -5 8 -1 10 10 5 13 -5 16 -3 11 9 -4 11 1 18 14 21
12 3 19 14 19 30 0 14 7 27 14 30 10 4 13 1 9 -9 -4 -10 0 -12 11 -8 9 3 13
11 9 17 -3 5 1 15 9 21 8 6 17 19 21 29 4 10 11 15 17 12 5 -3 10 -1 10 5 0 6
5 8 10 5 6 -4 10 7 10 25 0 25 4 31 15 26 10 -3 15 1 15 13 0 10 3 21 6 24 8
8 64 -24 64 -36 0 -4 4 -5 10 -2 5 3 27 -6 48 -20 22 -14 51 -27 66 -28 15 -1
30 -7 34 -14 4 -7 23 -14 42 -16 19 -2 51 -12 70 -22 32 -17 34 -17 21 -1 -8
10 -42 37 -75 61 -72 52 -112 93 -126 129 -12 33 -3 33 60 1 28 -14 50 -23 50
-20 0 3 -13 24 -30 47 -16 22 -30 45 -30 50 0 5 -7 16 -15 25 -14 14 -14 17 2
33 10 10 21 16 25 13 9 -5 48 33 48 47 0 15 35 47 59 55 12 3 19 11 16 16 -4
5 1 12 9 15 9 3 16 12 16 20 0 8 7 14 15 14 9 0 20 11 25 24 5 13 18 27 29 31
12 3 21 15 21 26 0 10 5 19 11 19 5 0 23 15 40 32 16 18 29 28 29 23 0 -6 8 4
18 20 10 17 32 37 48 45 16 8 34 22 41 30 7 8 13 12 13 8 0 -9 32 16 66 52 13
14 24 20 24 14 0 -19 156 -84 275 -114 63 -16 124 -32 136 -35 20 -7 20 -7 3
22 -10 15 -54 69 -98 118 -44 50 -89 100 -99 112 -16 18 -18 25 -7 38 7 8 16
13 20 10 5 -3 11 4 15 15 3 11 11 20 16 20 8 0 42 26 75 58 7 6 17 12 23 12 6
0 16 9 23 20 7 11 17 20 23 20 6 0 21 10 35 23 30 27 143 116 174 137 13 8 34
23 47 33 13 9 33 23 43 31 18 12 14 16 -50 55 -39 22 -76 41 -84 41 -7 0 -11
3 -8 6 8 7 88 -17 88 -26 0 -5 12 -11 28 -15 15 -4 79 -32 142 -63 131 -65
234 -112 246 -112 4 0 15 -7 25 -16 16 -14 147 -58 209 -70 14 -3 48 -15 75
-28 28 -13 73 -27 100 -32 28 -5 49 -14 48 -21 -1 -6 6 -9 17 -6 11 3 34 -4
52 -17 28 -18 30 -20 8 -14 -14 3 -31 11 -38 17 -7 5 -15 8 -17 5 -2 -2 26
-24 63 -47 37 -24 92 -60 122 -80 30 -20 62 -39 71 -43 12 -5 19 -25 24 -68 7
-56 27 -96 44 -86 4 3 8 24 10 48 1 23 4 44 6 47 3 2 28 -14 57 -35 29 -22 70
-50 90 -64 24 -16 33 -27 25 -32 -8 -5 -6 -9 6 -14 9 -3 17 -10 17 -15 0 -6
-10 -5 -21 2 -17 9 -20 8 -17 -3 3 -8 17 -12 38 -10 28 2 31 0 21 -12 -7 -8
-9 -21 -5 -28 6 -9 3 -9 -9 1 -15 12 -17 12 -11 -2 3 -9 18 -17 32 -19 20 -2
27 -9 28 -26 1 -12 9 -31 18 -41 9 -9 16 -26 16 -36 0 -15 3 -16 12 -7 9 9 10
19 1 42 -15 40 -10 38 16 -5 11 -19 16 -37 10 -40 -16 -10 -11 -38 7 -31 8 3
12 2 9 -4 -3 -6 0 -10 8 -10 10 0 13 -7 10 -19 -4 -16 -1 -19 15 -14 21 5 44
-18 24 -25 -7 -2 -10 -8 -6 -13 3 -5 13 -5 24 1 16 9 18 8 13 -7 -5 -12 -2
-15 10 -10 11 4 17 1 17 -8 0 -8 7 -15 16 -15 13 0 14 -3 5 -14 -9 -11 -9 -16
0 -21 6 -4 15 -1 20 6 5 9 6 -1 2 -23 -4 -25 -2 -38 5 -38 7 0 18 -14 27 -30
13 -25 20 -29 40 -24 26 6 27 5 29 -45 1 -13 7 -26 15 -29 10 -3 12 0 8 12 -5
12 -3 16 5 14 7 -3 14 -17 16 -32 3 -22 8 -27 23 -23 16 4 19 2 14 -14 -5 -13
-2 -19 10 -19 9 0 18 -12 22 -30 3 -17 10 -33 14 -36 5 -3 6 -10 3 -16 -5 -8
3 -9 23 -5 35 7 48 0 32 -19 -9 -11 -6 -16 12 -23 13 -5 18 -10 12 -10 -19 -1
-16 -16 8 -42 l21 -24 -5 23 c-5 20 -2 22 16 16 12 -3 28 -12 36 -20 12 -11
11 -12 -7 -7 -28 7 -28 -8 -2 -25 12 -7 18 -17 14 -23 -3 -6 1 -9 11 -7 10 2
20 -3 23 -11 3 -8 0 -11 -7 -7 -6 4 -11 3 -11 -3 0 -5 12 -16 28 -23 17 -8 31
-25 37 -46 7 -25 14 -32 30 -30 14 2 20 -2 19 -14 -1 -10 2 -18 7 -18 5 0 9 5
9 10 0 6 5 10 11 10 6 0 9 -7 5 -15 -3 -8 -1 -15 5 -15 6 0 9 -7 5 -15 -4 -11
1 -15 19 -15 14 0 25 -4 25 -10 0 -5 -8 -10 -17 -10 -15 0 -16 -2 -3 -10 8 -5
27 -10 41 -10 33 0 54 -21 37 -38 -9 -9 -7 -12 10 -12 30 0 39 -27 16 -46 -18
-14 -18 -15 4 -9 16 5 22 2 22 -9 0 -9 -7 -16 -15 -16 -27 0 -16 -19 12 -22
18 -2 29 -10 31 -22 3 -11 0 -16 -7 -12 -6 4 -11 4 -11 -1 0 -16 16 -32 40
-43 24 -10 24 -10 -5 -5 l-30 6 39 -36 c30 -28 41 -34 48 -23 6 9 7 6 3 -9 -5
-17 -2 -23 8 -23 9 0 18 -6 21 -12 5 -10 7 -10 12 0 3 6 15 12 27 11 12 0 16
-3 10 -6 -20 -7 -15 -25 5 -21 9 2 25 -6 34 -17 15 -17 19 -18 28 -5 8 13 10
13 10 -2 0 -12 5 -15 16 -11 10 4 17 -1 21 -16 3 -12 13 -21 25 -21 10 0 17 4
14 8 -3 5 5 8 17 8 19 -1 23 6 28 44 3 25 7 37 7 28 1 -10 9 -18 17 -18 18 0
20 16 3 24 -7 4 -2 4 11 2 l23 -5 -23 25 c-12 13 -17 24 -11 24 7 0 12 5 12
10 0 6 -7 10 -15 10 -8 0 -15 9 -15 20 0 11 -4 20 -10 20 -5 0 -10 7 -10 15 0
8 -4 15 -10 15 -5 0 -10 -4 -10 -10 0 -5 -4 -10 -8 -10 -5 0 -7 13 -4 28 3 23
-1 30 -22 40 -15 6 -29 20 -33 29 -6 17 -20 35 -64 83 -10 10 -20 31 -24 48
-3 17 -17 38 -30 48 -13 10 -22 22 -19 26 3 4 -2 11 -10 14 -9 3 -16 17 -16
30 0 21 -10 29 -32 25 -5 0 -8 8 -8 19 0 11 -4 20 -10 20 -5 0 -10 10 -10 21
0 18 -2 19 -15 9 -10 -8 -15 -9 -15 -2 0 6 6 15 13 19 6 4 19 17 27 27 14 18
13 19 -3 13 -11 -4 -24 -1 -33 8 -18 17 -34 20 -34 4 0 -5 -5 -7 -11 -4 -6 4
-8 14 -5 22 6 13 3 13 -18 -1 -14 -9 -27 -12 -31 -7 -3 5 1 11 7 14 8 3 0 16
-22 36 l-35 31 32 -17 c35 -19 47 -15 37 11 -5 14 -9 15 -15 5 -6 -11 -9 -10
-14 3 -4 10 -14 14 -27 10 -16 -4 -19 -2 -13 8 6 10 4 12 -8 7 -19 -7 -23 8
-7 18 8 5 8 11 1 19 -6 7 -8 16 -4 19 3 4 1 7 -5 7 -7 0 -12 9 -12 19 0 11 -8
26 -17 33 -10 7 -23 22 -29 33 -7 12 -21 19 -33 18 -12 -2 -21 2 -21 7 0 6 5
10 10 10 6 0 5 8 -2 20 -7 11 -19 20 -27 20 -8 0 -12 3 -8 6 9 10 54 -4 71
-22 9 -8 16 -11 16 -5 0 6 -9 16 -20 23 -11 7 -20 16 -20 20 0 8 18 -2 142
-75 270 -161 839 -433 1041 -498 132 -42 151 -47 288 -69 68 -10 214 -35 324
-54 110 -19 264 -39 343 -44 85 -6 148 -14 155 -21 9 -9 8 -11 -5 -6 -32 13
-19 -12 14 -26 18 -7 40 -21 49 -30 22 -22 122 -59 160 -59 17 0 37 7 45 15 9
8 31 15 50 15 40 0 67 21 58 44 -3 9 -1 16 6 16 6 0 8 -4 5 -10 -3 -5 -1 -10
4 -10 6 0 11 -8 11 -17 0 -14 2 -15 9 -4 5 7 13 11 19 7 5 -3 15 1 22 9 9 10
9 15 1 15 -6 0 -11 9 -11 20 0 14 7 20 23 21 12 0 16 3 9 6 -9 4 -10 9 -2 18
8 10 4 14 -15 19 -25 6 -35 26 -13 26 8 0 7 5 -3 15 -20 20 -55 9 -38 -11 9
-11 9 -14 0 -14 -8 0 -10 -8 -6 -22 7 -23 7 -23 -8 -3 -10 12 -12 22 -5 26 19
12 -14 49 -38 43 -12 -3 -31 -1 -42 5 -17 9 -21 8 -25 -7 -4 -16 -5 -16 -6 1
0 9 -6 17 -12 17 -6 0 -8 8 -4 19 3 11 1 22 -4 26 -7 4 -7 11 2 20 9 9 16 10
25 2 10 -8 16 -7 22 2 5 9 10 10 14 3 4 -6 14 -8 22 -5 11 4 0 17 -40 45 -54
38 -65 52 -48 61 4 2 1 2 -6 0 -9 -2 -11 3 -7 17 4 11 2 20 -3 20 -12 0 -24
-29 -16 -41 3 -5 0 -17 -5 -26 -10 -17 -11 -16 -12 2 -1 11 -1 27 0 35 1 8 -5
4 -13 -10 -8 -14 -10 -26 -5 -28 5 -2 9 -10 9 -18 0 -8 6 -11 15 -8 8 4 15 12
15 20 0 20 4 18 42 -16 21 -19 27 -30 17 -30 -8 0 -20 5 -27 12 -9 9 -12 6
-12 -15 0 -15 -5 -27 -10 -27 -6 0 -9 -3 -9 -7 5 -32 -3 -53 -18 -50 -10 1
-18 -2 -18 -8 0 -6 18 -8 40 -7 22 2 37 1 33 -3 -4 -4 -1 -14 7 -22 21 -21 18
-35 -4 -21 -15 9 -23 9 -35 -1 -10 -8 -16 -9 -16 -3 0 6 8 16 18 21 15 9 15
10 -5 11 -14 0 -23 -6 -23 -15 0 -8 -4 -15 -10 -15 -5 0 -10 7 -10 15 0 10 -8
14 -22 11 -33 -5 -52 18 -38 45 9 16 9 24 0 33 -9 8 -11 7 -9 -4 1 -8 -3 -26
-9 -40 -10 -24 -11 -24 -11 -2 -1 24 -16 30 -24 10 -2 -7 -8 -10 -12 -6 -5 5
-1 16 8 26 19 21 22 42 7 42 -5 0 -7 -6 -4 -13 3 -8 -2 -20 -11 -27 -13 -11
-18 -10 -30 6 -8 10 -12 26 -9 34 4 12 3 13 -7 3 -18 -18 -29 -16 -22 5 6 15
5 16 -12 2 -10 -8 -16 -10 -12 -4 6 11 -32 34 -56 34 -7 0 -18 9 -25 20 -7 12
-17 18 -22 15 -6 -3 -10 -1 -10 4 0 6 -7 11 -15 11 -9 0 -18 7 -21 15 -4 8
-10 12 -16 9 -5 -3 -18 2 -29 12 -14 13 -19 14 -19 4 0 -11 -2 -12 -12 -1 -11
10 -9 15 7 28 19 15 19 15 -4 8 -16 -5 -21 -4 -17 4 4 6 2 11 -4 11 -7 0 -9
-9 -5 -22 6 -23 6 -23 -10 -3 -9 11 -21 19 -27 17 -6 -2 -8 4 -5 12 4 9 2 18
-3 21 -4 3 -10 0 -12 -5 -2 -6 -13 -2 -25 9 -11 11 -24 17 -27 14 -3 -4 -6 -1
-6 6 0 16 -49 56 -67 56 -8 0 -17 6 -22 13 -4 7 -12 12 -17 11 -23 -4 -34 2
-34 19 0 21 -43 62 -65 62 -13 0 -14 4 -5 23 10 20 9 20 -9 -3 -12 -15 -21
-19 -21 -11 0 10 -3 11 -14 2 -11 -9 -14 -8 -12 6 0 10 -5 17 -11 15 -7 -1
-13 3 -13 9 0 6 -7 9 -15 5 -9 -3 -19 3 -26 17 -7 12 -18 26 -26 30 -7 5 -11
12 -8 18 4 5 1 9 -4 9 -6 0 -11 -5 -11 -12 0 -6 -7 -3 -15 8 -12 15 -16 16
-23 6 -7 -10 -14 -3 -27 25 -16 33 -19 35 -26 18 -7 -18 -8 -18 -8 -2 -1 10
-5 16 -10 13 -15 -10 -40 5 -34 20 3 10 0 12 -10 8 -12 -4 -14 0 -10 18 6 21
5 22 -10 9 -15 -12 -17 -11 -17 9 l0 22 -20 -23 c-10 -13 -19 -19 -20 -14 0 6
5 16 11 22 7 7 7 13 1 17 -6 3 -14 2 -17 -4 -4 -7 -13 -4 -23 8 -18 19 -82 52
-102 52 -6 0 -9 4 -5 9 3 6 -11 18 -31 27 -20 9 -38 23 -41 31 -3 8 -13 11
-24 8 -12 -4 -21 1 -29 15 -6 11 -17 20 -25 20 -7 0 -26 11 -42 24 -15 13 -36
25 -47 27 -10 2 -27 19 -36 37 -14 25 -19 29 -24 16 -5 -13 -9 -14 -21 -4 -8
7 -15 19 -15 26 0 8 -6 14 -14 14 -8 0 -17 6 -19 13 -4 8 -6 7 -6 -3 -1 -9
-15 0 -36 24 -19 22 -35 37 -35 33 0 -4 -9 2 -19 12 -11 11 -35 27 -55 36 -30
15 -34 20 -25 36 12 23 6 24 -15 3 -17 -16 -36 -11 -36 9 0 7 4 6 10 -3 8 -13
10 -13 10 2 0 22 -20 34 -30 18 -5 -8 -9 -4 -13 11 -3 13 -1 29 5 36 8 10 5
13 -13 13 -14 0 -19 -3 -13 -8 6 -4 8 -16 4 -26 -6 -17 -7 -18 -13 -3 -3 9
-13 17 -22 17 -14 0 -20 12 -16 33 1 5 -4 7 -11 4 -7 -2 -12 -10 -10 -16 1 -8
-3 -8 -17 1 -11 7 -17 16 -15 20 3 5 -8 13 -25 19 -29 10 -36 20 -32 43 1 5
-5 6 -14 2 -12 -4 -19 3 -26 24 -10 28 -12 29 -33 15 -21 -14 -24 -13 -34 10
-15 32 -15 38 0 29 6 -4 8 -3 4 4 -3 6 -2 13 4 17 14 8 13 26 -1 23 -6 -2 -14
3 -17 11 -3 9 0 11 8 6 9 -5 11 -4 6 4 -4 6 -12 9 -17 6 -5 -4 -13 4 -18 17
-10 23 -10 23 -10 1 -1 -12 5 -24 12 -26 9 -4 9 -6 -1 -6 -7 -1 -15 6 -18 14
-9 22 -34 18 -34 -5 0 -11 -7 -23 -15 -26 -19 -8 -47 14 -38 30 4 6 -1 5 -10
-2 -14 -12 -17 -10 -23 12 -5 20 -11 25 -24 21 -9 -3 -23 1 -30 10 -7 8 -9 15
-5 15 5 0 0 9 -10 20 -10 11 -23 20 -29 20 -6 0 -3 -5 7 -11 9 -5 17 -15 17
-20 0 -6 -7 -3 -16 5 -8 9 -20 16 -26 16 -7 0 -6 5 1 14 7 9 8 17 2 20 -5 3
-11 0 -14 -6 -2 -8 -8 -9 -13 -4 -5 5 -3 11 4 13 10 4 7 9 -8 20 -19 13 -23
13 -41 -3 -10 -9 -19 -12 -19 -6 0 6 9 16 21 22 11 7 18 18 15 25 -3 9 0 12
10 8 12 -4 14 0 8 22 -5 19 -3 26 4 21 6 -3 14 -1 18 5 4 8 3 9 -4 5 -7 -4
-12 -2 -12 5 0 7 -13 0 -29 -15 -16 -16 -34 -25 -40 -22 -5 4 -13 0 -18 -8 -7
-12 -10 -12 -22 1 -11 12 -11 14 0 12 22 -4 69 19 69 33 -1 16 -30 56 -30 41
0 -7 5 -15 10 -18 8 -5 7 -11 -1 -21 -6 -7 -15 -12 -19 -9 -5 3 -11 1 -15 -5
-4 -6 -10 -8 -15 -5 -5 3 -12 -5 -16 -19 -5 -22 -8 -23 -20 -11 -22 21 -17 33
19 41 28 6 30 8 12 16 -15 6 -13 7 11 4 30 -5 31 -4 20 19 -9 19 -13 21 -19 9
-4 -8 -14 -14 -22 -14 -16 0 -30 18 -20 28 3 3 10 1 14 -6 6 -10 13 -6 26 14
15 24 16 26 1 21 -11 -5 -16 -1 -16 13 0 11 -4 20 -10 20 -5 0 -10 -6 -10 -14
0 -24 -22 -30 -37 -11 -12 17 -13 17 -13 2 0 -24 -15 -21 -17 2 -2 20 22 35
39 25 5 -3 7 -13 4 -21 -3 -8 -1 -11 4 -8 6 3 10 16 10 27 0 12 -3 18 -7 15
-3 -4 -12 -2 -19 4 -8 7 -14 7 -19 -1 -3 -5 -11 -10 -17 -10 -6 0 -3 9 7 20
16 18 16 20 2 20 -10 0 -17 4 -17 10 0 5 -11 12 -25 16 -14 3 -25 9 -25 13 1
16 19 33 36 31 36 -4 46 0 40 15 -3 8 -1 15 3 15 5 0 11 -6 14 -12 3 -10 9 -8
24 4 22 20 33 23 33 7 0 -5 -5 -7 -12 -3 -7 5 -8 3 -3 -6 6 -10 11 -9 22 5 16
23 63 31 74 13 7 -10 9 -9 9 5 0 9 5 17 10 17 6 0 10 -3 10 -7 0 -13 64 -45
68 -34 4 11 28 5 50 -13 11 -8 11 -12 -4 -23 -10 -7 -14 -16 -10 -20 4 -4 10
-3 14 3 8 13 41 12 61 -1 10 -5 12 -4 7 3 -4 7 -3 12 2 12 12 0 24 -29 17 -41
-4 -5 1 -6 10 -2 10 3 21 0 26 -8 5 -8 9 -9 9 -3 0 6 14 11 30 11 20 0 26 -3
18 -9 -10 -6 -9 -8 4 -8 9 0 18 -3 21 -7 2 -5 3 -3 1 3 -2 12 48 10 68 -2 6
-4 14 -1 18 6 9 14 49 -4 123 -56 26 -19 50 -34 54 -34 4 0 -21 21 -56 46 -40
29 -61 50 -57 60 3 8 -4 18 -15 25 -11 6 -18 13 -15 16 3 4 0 13 -7 21 -8 11
-9 16 -1 19 6 2 9 15 6 28 -3 19 0 25 13 25 14 0 15 3 6 14 -7 9 -8 17 -2 20
5 3 12 0 15 -6 3 -7 5 -4 5 7 -2 44 2 62 14 63 6 1 32 4 57 7 75 10 90 8 144
-19 28 -15 43 -21 32 -14 -10 7 -29 22 -43 32 l-25 19 28 12 c17 7 33 9 38 4
14 -12 73 -11 81 1 5 8 12 7 22 -1 9 -8 17 -9 21 -3 6 8 40 10 98 6 11 -1 34
-13 50 -27 16 -14 32 -25 36 -25 4 0 16 -10 28 -22 11 -12 20 -19 20 -15 0 7
45 -17 175 -97 82 -50 141 -75 179 -76 6 0 1 7 -10 15 -17 13 -17 14 -1 15 11
0 17 8 17 24 0 13 7 26 15 30 8 3 15 11 15 19 0 18 23 67 33 67 4 0 7 6 7 14
0 10 8 13 25 10 14 -2 25 0 25 6 0 6 -4 8 -10 5 -5 -3 -10 -2 -10 4 0 5 -3 18
-6 28 -3 10 -2 14 3 8 14 -18 61 -38 71 -31 6 4 15 -2 21 -11 7 -12 10 -13 11
-4 0 10 9 12 35 7 22 -4 35 -3 35 4 0 5 -6 10 -12 11 -7 0 -4 4 7 9 30 13 35
12 35 -10 0 -14 5 -18 17 -13 11 4 14 3 9 -5 -5 -8 -2 -10 9 -5 13 4 14 8 4
14 -20 12 -8 18 24 12 22 -4 26 -9 22 -27 -5 -19 -5 -19 5 -3 6 9 15 15 21 12
5 -4 9 -1 9 4 0 6 12 11 26 11 19 0 25 -4 20 -15 -5 -13 -1 -12 19 2 13 10 25
21 25 26 0 14 20 7 20 -8 0 -20 17 -19 28 2 9 14 10 14 17 -6 4 -13 12 -20 20
-17 8 3 16 0 19 -7 2 -7 5 -4 5 6 1 20 21 24 21 3 0 -8 9 -13 23 -12 12 1 28
-2 35 -8 9 -7 12 -5 10 5 -2 8 6 14 22 16 15 1 18 0 7 -3 -14 -5 -16 -9 -6
-20 6 -8 15 -14 20 -14 15 0 50 -40 44 -50 -4 -6 1 -10 10 -10 10 0 13 5 9 13
-5 8 -2 8 9 -2 9 -7 17 -19 17 -26 0 -16 45 -28 71 -20 14 5 19 2 19 -13 0
-11 7 -25 15 -32 9 -8 15 -8 15 -2 0 6 -6 12 -12 15 -7 3 -3 4 10 4 14 -1 21
-6 18 -14 -6 -15 -1 -16 42 -4 18 6 32 6 32 1 0 -5 16 -12 35 -16 38 -7 75 15
75 43 0 8 5 13 12 11 25 -9 84 72 67 89 -7 7 -5 12 5 16 10 4 13 1 9 -9 -6
-16 14 -19 36 -5 9 6 10 11 2 15 -19 12 -12 28 9 21 14 -4 18 -2 15 7 -2 7 6
21 19 30 20 15 30 16 56 6 26 -8 34 -8 41 3 4 7 11 10 15 6 4 -4 13 -2 20 4
14 11 34 4 34 -12 0 -5 -8 -9 -17 -9 -13 0 -14 -3 -6 -11 14 -14 50 9 153 101
85 76 116 91 128 63 6 -16 12 -13 51 25 42 40 43 42 18 42 -26 0 -57 -23 -57
-41 0 -6 -4 -7 -10 -4 -16 10 -12 35 6 35 8 0 13 4 10 9 -4 5 -3 11 1 13 24
10 92 99 87 113 -3 8 -11 12 -17 8 -6 -4 -8 0 -4 10 5 14 3 15 -15 4 -16 -9
-22 -9 -25 1 -3 6 -9 12 -14 12 -4 0 -6 -7 -2 -16 5 -14 1 -15 -24 -10 -24 6
-32 3 -37 -11 -6 -15 -8 -15 -16 -3 -8 12 -13 13 -29 3 -12 -7 -22 -9 -26 -3
-3 5 3 13 12 19 17 9 17 11 1 27 -16 16 -18 16 -24 1 -8 -22 -24 -22 -25 1 0
13 -3 12 -11 -5 -6 -13 -18 -23 -27 -23 -14 0 -14 2 -1 10 12 8 11 10 -7 10
-12 0 -24 4 -27 9 -3 5 -15 7 -26 4 -14 -4 -20 0 -20 12 0 16 -2 16 -25 1 -24
-16 -24 -16 -21 11 2 16 1 20 -1 11 -5 -22 -33 -24 -33 -3 0 8 -4 15 -9 15 -5
0 -16 2 -24 5 -9 4 -18 -5 -25 -27 l-11 -33 2 38 c2 23 -1 36 -7 34 -6 -3 -10
-14 -9 -26 2 -11 -2 -21 -7 -21 -9 0 -14 27 -11 56 1 6 -6 11 -14 11 -10 0
-13 -6 -9 -19 4 -13 -2 -21 -21 -28 -14 -5 -33 -10 -41 -10 -21 0 -17 21 6 27
11 3 20 10 20 15 0 6 -9 7 -22 3 -13 -4 -31 -7 -42 -6 -18 0 -18 0 0 -14 21
-15 13 -31 -11 -21 -8 3 -18 19 -21 36 -4 16 -11 30 -15 30 -5 0 -7 -11 -3
-24 8 -33 -20 -41 -68 -18 -38 19 -38 19 -38 -1 l0 -21 -15 21 c-21 30 -74 34
-98 8 -12 -14 -17 -16 -15 -5 2 9 -5 15 -17 16 -48 2 -55 5 -55 19 0 8 -7 15
-16 15 -9 0 -12 5 -8 12 4 7 3 8 -4 4 -7 -4 -12 -15 -12 -24 -1 -15 -2 -15
-11 1 -6 9 -14 15 -20 12 -5 -4 -9 -1 -9 4 0 13 -22 10 -32 -4 -4 -5 -24 -10
-44 -11 -33 -1 -35 0 -19 12 12 9 15 19 10 31 -7 17 -8 17 -15 -2 -5 -15 -16
-20 -46 -20 -43 0 -59 12 -42 32 6 7 7 13 4 13 -12 0 -36 -27 -30 -33 3 -3 -2
-4 -13 -3 -10 2 -26 -1 -35 -5 -11 -6 -22 -4 -33 8 -13 13 -18 14 -25 3 -6
-10 -13 -9 -31 4 -26 18 -69 22 -69 6 0 -5 9 -14 20 -20 11 -6 18 -16 14 -22
-4 -7 -9 -6 -15 3 -8 12 -10 12 -18 0 -6 -9 -11 -10 -15 -2 -4 6 -2 11 4 11
19 0 -17 30 -37 30 -10 0 -26 7 -36 15 -11 7 -25 11 -32 9 -7 -3 -16 0 -20 6
-5 8 -11 8 -21 -1 -12 -10 -13 -9 -8 5 4 10 0 18 -10 22 -9 3 -14 10 -11 14 3
4 -4 10 -15 13 -19 5 -20 14 -20 151 0 121 3 148 15 152 9 4 15 19 15 39 0 19
4 36 10 40 5 3 7 12 3 20 -3 8 0 15 6 15 6 0 11 -7 11 -15 0 -18 5 -19 38 -1
63 32 120 56 136 56 9 0 25 9 37 21 13 13 28 19 41 16 26 -7 85 23 92 47 4 14
11 17 31 14 14 -3 28 -1 31 4 3 4 9 6 14 3 15 -9 50 19 50 40 1 20 1 20 15 0
15 -19 15 -19 31 3 8 12 21 22 27 21 30 -4 48 3 64 21 10 11 28 20 41 20 20 0
22 3 13 14 -9 11 -8 15 6 20 10 4 19 2 21 -3 2 -6 11 -11 19 -11 9 0 13 6 9
15 -3 8 -1 15 5 15 6 0 8 4 4 9 -9 16 15 24 30 11 15 -13 20 -4 16 28 -1 6 3
12 9 12 5 0 10 -7 10 -15 0 -10 10 -15 30 -15 22 0 28 -4 24 -15 -4 -8 -2 -15
4 -15 5 0 13 8 17 18 6 16 7 16 16 0 5 -10 9 -20 9 -23 -2 -18 33 -66 45 -61
8 3 17 1 21 -5 4 -7 10 -6 19 1 15 12 30 -3 20 -20 -8 -12 5 -13 24 -1 10 7
19 4 29 -7 10 -13 15 -14 18 -4 8 17 17 15 43 -9 l23 -22 -6 49 c-8 67 -16
293 -10 272 3 -10 14 -18 25 -18 16 0 19 4 14 23 -6 18 -5 20 6 10 18 -17 29
-16 29 3 0 8 5 12 11 9 6 -4 17 1 24 11 8 11 15 14 15 9 0 -16 40 -13 40 2 0
7 7 13 15 13 8 0 15 -7 15 -15 0 -8 5 -15 10 -15 14 0 12 38 -2 43 -7 2 4 12
26 21 46 19 47 19 44 4 -2 -7 4 -13 12 -13 8 0 16 6 16 13 1 6 2 17 3 22 0 6
21 10 46 10 32 0 45 4 45 14 0 14 44 27 92 26 15 0 33 8 40 18 7 10 21 21 31
25 10 4 15 11 12 17 -3 5 1 10 9 10 9 0 16 4 16 9 0 4 11 6 24 4 13 -3 32 0
43 6 13 7 14 10 4 11 -11 0 -9 4 5 15 26 20 34 19 34 -4 0 -11 5 -23 10 -26 6
-4 10 6 10 23 0 38 5 41 46 32 32 -7 34 -6 29 13 -2 12 -2 16 1 10 9 -19 32
-15 44 7 6 11 18 20 26 20 8 0 12 5 9 10 -8 13 6 13 39 0 20 -7 24 -6 19 5 -6
17 12 21 22 5 10 -17 25 -11 25 10 0 18 12 24 48 23 11 -1 16 11 13 30 -2 11
17 9 24 -3 11 -17 25 -11 37 15 10 22 13 23 20 10 11 -19 37 -19 44 0 4 10 13
13 24 10 10 -3 21 -1 25 5 3 5 18 10 33 10 15 0 35 9 45 20 9 11 25 20 36 20
10 0 21 9 24 20 5 20 37 29 37 10 0 -5 9 -10 20 -10 12 0 20 7 20 16 0 12 6
15 25 10 19 -5 23 -3 19 9 -4 10 -2 13 8 10 9 -4 19 3 27 17 6 13 10 16 7 7
-3 -12 2 -16 19 -15 13 0 21 5 18 9 -3 5 4 17 16 28 17 16 21 17 21 4 0 -8 7
-15 15 -15 8 0 15 9 15 20 0 13 5 18 15 14 8 -4 27 1 41 11 14 9 31 14 37 11
7 -3 3 -8 -10 -11 -28 -9 -40 -35 -12 -28 10 3 19 9 19 14 0 5 7 9 15 9 8 0
15 6 15 14 0 16 24 28 44 20 21 -8 32 17 12 28 -9 5 -14 14 -10 20 4 7 9 6 14
-2 6 -9 12 -9 29 0 17 9 26 9 37 -1 13 -10 18 -6 15 14 0 4 5 7 13 7 7 0 21
10 29 23 14 19 16 20 16 4 1 -17 3 -17 28 3 30 23 41 14 23 -19 -6 -12 -7 -21
-2 -21 5 0 15 12 23 28 21 41 35 52 60 47 12 -3 28 0 34 5 7 5 31 17 55 25 32
11 46 12 56 4 11 -9 14 -6 14 17 1 25 2 26 11 12 16 -27 32 -22 25 8 -4 15 -3
23 3 20 13 -9 58 17 54 31 -5 14 40 28 62 19 18 -7 20 5 3 23 -11 11 -9 11 10
2 13 -7 28 -10 35 -7 7 2 4 5 -5 5 -25 1 -23 21 1 21 11 0 26 9 35 21 l14 21
4 -23 c4 -32 22 -31 26 1 6 47 11 55 25 38 8 -11 18 -13 32 -8 17 7 17 9 3 9
-11 1 -18 9 -18 22 0 17 3 19 13 11 7 -6 23 -9 35 -6 13 4 28 0 37 -10 9 -9
22 -16 28 -16 6 0 4 7 -5 17 -16 15 -16 17 0 29 16 13 16 13 0 14 -9 0 -20 -5
-23 -10 -11 -18 -36 10 -30 34 3 12 2 15 -1 9 -3 -7 -15 -13 -27 -13 -22 -1
-22 -1 -3 -15 16 -12 17 -15 4 -15 -17 0 -28 20 -28 48 0 15 2 15 10 2 16 -24
32 8 24 50 -6 38 -19 51 -41 43 -7 -3 -13 -3 -13 0 0 11 47 57 59 57 16 0 14
11 -6 26 -15 10 -16 15 -5 25 17 18 15 26 -8 32 -11 3 -20 1 -20 -4 0 -5 5 -9
11 -9 8 0 8 -5 -1 -15 -7 -8 -25 -14 -43 -12 -17 1 -32 -3 -34 -10 -3 -9 6
-13 26 -13 17 0 31 -4 31 -10 0 -5 -16 -9 -35 -7 -20 1 -35 7 -35 15 0 7 -13
12 -31 12 -24 0 -30 4 -25 15 3 9 0 15 -9 15 -8 0 -15 5 -15 10 0 6 -8 10 -17
10 -13 0 -14 -3 -5 -12 15 -15 16 -38 2 -38 -5 0 -10 7 -10 15 0 17 -16 20
-25 5 -8 -13 -46 6 -42 22 1 6 -4 13 -10 15 -7 3 -13 0 -13 -6 0 -18 -47 -61
-66 -60 -16 0 -16 2 4 9 12 5 22 14 22 20 0 16 -47 12 -54 -5 -3 -8 -10 -15
-16 -15 -14 0 -13 27 2 33 7 2 -6 4 -29 4 -37 0 -44 -3 -57 -31 -9 -17 -16
-26 -16 -21 0 6 -7 1 -15 -9 -14 -18 -16 -19 -27 -3 -17 22 -52 12 -69 -19 -7
-14 -18 -23 -25 -20 -6 2 -17 -1 -23 -7 -8 -8 -11 -5 -11 10 0 12 5 25 10 28
6 3 10 11 10 16 0 5 -12 -2 -27 -16 -29 -26 -53 -33 -53 -14 0 5 -5 7 -10 4
-6 -4 -8 -15 -5 -26 7 -20 -9 -27 -20 -9 -4 6 -11 8 -16 5 -13 -9 -11 9 4 24
10 11 9 13 -3 9 -8 -3 -20 -15 -26 -27 -14 -27 -61 -54 -70 -40 -3 5 -10 7
-15 3 -5 -3 -7 -9 -5 -13 3 -4 -9 -7 -27 -6 -25 0 -32 -5 -38 -25 -5 -18 -7
-20 -8 -6 -1 14 -4 16 -14 7 -10 -8 -17 -7 -25 1 -17 17 -42 1 -43 -29 -1 -17
-3 -21 -6 -10 -2 9 -9 14 -15 11 -6 -4 -13 -2 -17 3 -3 6 -18 13 -33 17 -21 5
-26 3 -22 -8 6 -16 -33 -26 -88 -21 -41 4 -52 -11 -15 -18 12 -3 3 -4 -20 -2
-32 2 -43 0 -43 -11 0 -8 -4 -14 -10 -14 -5 0 -10 5 -10 10 0 6 -5 10 -11 10
-6 0 -9 -9 -6 -20 3 -11 1 -23 -4 -26 -5 -3 -9 2 -9 11 0 10 -7 15 -17 13 -11
-2 -17 -11 -15 -23 2 -17 1 -18 -10 -5 -16 19 -85 26 -70 7 11 -14 12 -47 1
-47 -4 0 -10 7 -13 17 -6 14 -8 14 -21 -3 -11 -15 -16 -17 -26 -6 -18 17 -40
15 -33 -3 7 -17 -11 -21 -21 -5 -10 16 -28 11 -21 -6 3 -8 2 -13 -3 -10 -5 3
-11 -1 -15 -9 -3 -8 -17 -15 -31 -15 -14 0 -25 -5 -25 -10 0 -7 -7 -7 -22 1
-18 10 -20 9 -15 -6 5 -12 2 -15 -11 -13 -9 2 -16 10 -14 16 1 7 -1 12 -5 12
-12 0 -89 -29 -79 -30 5 0 3 -7 -4 -15 -10 -12 -10 -15 3 -15 8 0 21 10 30 23
8 12 18 18 23 13 5 -5 4 -11 -3 -13 -7 -3 -13 -14 -13 -25 0 -16 -5 -19 -27
-14 -105 20 -145 18 -87 -5 15 -5 24 -12 21 -15 -3 -3 -14 -1 -25 5 -32 17
-60 13 -67 -9 -8 -26 -21 -26 -28 1 -8 30 -25 15 -21 -18 3 -25 3 -24 -6 5
-10 29 -40 46 -40 22 0 -5 7 -10 15 -10 9 0 15 -9 15 -22 -1 -22 -1 -23 -15
-4 -8 11 -15 16 -15 10 0 -5 -5 -2 -10 6 -8 12 -10 12 -10 -5 0 -13 -3 -16 -8
-8 -6 10 -14 9 -36 -2 -35 -18 -62 -19 -72 -3 -6 9 -10 5 -14 -11 -5 -23 -6
-23 -23 -7 -16 17 -17 16 -17 -7 0 -14 3 -27 8 -30 4 -2 0 -2 -8 1 -24 7 -73
5 -93 -3 -16 -7 -38 -4 -84 11 -15 5 -15 4 -3 -5 10 -7 11 -11 3 -11 -7 0 -13
-7 -13 -15 0 -20 -20 -19 -36 3 -13 16 -15 16 -32 -7 -13 -16 -22 -20 -26 -12
-4 6 -12 11 -18 11 -7 0 -7 -4 0 -13 12 -14 5 -57 -9 -57 -5 0 -6 6 -3 14 3 7
-3 16 -12 20 -22 8 -30 0 -16 -16 8 -10 5 -16 -13 -24 -19 -9 -22 -9 -18 2 6
16 -13 19 -22 3 -4 -5 -17 -9 -30 -7 -12 1 -29 -3 -38 -10 -10 -9 -17 -9 -22
-3 -6 11 -43 -4 -56 -23 -4 -5 -19 -6 -33 -2 -19 5 -31 1 -46 -14 l-20 -20 0
25 c0 14 -5 25 -11 25 -6 0 -9 -7 -5 -15 4 -11 -1 -15 -19 -15 -14 0 -25 5
-25 10 0 6 -4 10 -10 10 -5 0 -10 -8 -10 -19 0 -14 6 -17 28 -13 31 5 20 -12
-14 -22 -17 -5 -23 -1 -29 16 -5 18 -8 19 -12 7 -3 -12 -16 -16 -55 -15 -33 1
-53 -3 -55 -12 -3 -8 1 -10 12 -6 15 6 15 4 4 -15 -8 -12 -15 -17 -17 -11 -2
6 -8 8 -13 5 -5 -4 -6 0 -3 8 3 9 -3 16 -15 20 -13 3 -18 1 -15 -8 4 -8 -6
-16 -26 -20 -21 -5 -30 -11 -26 -21 3 -8 -1 -14 -8 -14 -8 0 -17 6 -19 13 -3
7 -6 5 -6 -5 -1 -21 -40 -25 -59 -6 -9 9 -12 9 -12 0 0 -7 5 -12 10 -12 6 0
10 -4 10 -10 0 -5 -7 -10 -16 -10 -10 0 -14 -6 -10 -15 8 -22 -7 -18 -22 6 -7
12 -16 18 -19 15 -4 -3 -13 0 -21 7 -13 10 -14 8 -11 -18 4 -26 1 -30 -18 -31
-19 -2 -22 1 -12 12 7 8 9 17 5 21 -3 3 -6 1 -6 -5 0 -7 -5 -12 -11 -12 -6 0
-8 8 -5 18 5 15 4 15 -8 -2 -9 -11 -22 -16 -31 -12 -9 3 -14 2 -11 -2 2 -4 0
-14 -5 -22 -8 -13 -11 -12 -23 3 -9 12 -16 14 -21 8 -3 -6 0 -11 7 -12 7 0 2
-5 -12 -11 -14 -6 -29 -10 -34 -9 -4 1 -14 -6 -20 -15 -11 -15 -14 -15 -29 1
-16 15 -17 15 -17 -2 0 -15 -2 -16 -10 -3 -7 10 -12 12 -17 4 -23 -34 -103
-21 -103 16 0 12 -4 19 -9 16 -4 -3 -6 -18 -3 -33 l5 -28 -24 24 c-16 17 -24
20 -27 12 -3 -8 2 -17 9 -22 12 -8 12 -11 -1 -19 -8 -5 -10 -10 -5 -10 6 0 3
-4 -5 -10 -9 -6 -17 -5 -21 2 -6 9 -12 8 -23 -1 -9 -8 -16 -10 -17 -5 0 5 -4
0 -9 -11 -8 -18 -9 -18 -9 -2 -1 10 -5 15 -11 12 -5 -3 -10 -1 -10 4 0 6 -7
11 -15 11 -9 0 -12 6 -9 18 5 13 4 14 -4 3 -11 -16 -5 -41 10 -41 6 0 5 -6 -2
-15 -16 -20 -34 -19 -26 1 4 10 1 14 -6 11 -7 -2 -12 -12 -10 -22 2 -10 -1
-14 -7 -10 -6 3 -11 0 -11 -7 0 -8 -4 -7 -11 4 -5 10 -16 15 -24 12 -29 -12
-14 6 18 21 17 8 24 13 14 10 -10 -3 -27 -5 -38 -5 -10 0 -18 -3 -18 -7 3 -19
-2 -33 -12 -33 -6 0 -9 7 -6 14 4 10 1 13 -9 9 -16 -6 -18 -15 -4 -29 6 -6 -1
-9 -23 -9 -17 1 -43 -6 -56 -14 -16 -9 -26 -10 -28 -4 -2 6 -13 9 -23 6 -20
-5 -26 -18 -12 -26 4 -2 1 -2 -7 0 -7 2 -31 -2 -54 -8 -30 -8 -42 -8 -47 1 -4
7 -16 9 -29 5 -25 -7 -28 -22 -5 -27 13 -3 13 -5 -1 -23 -9 -11 -14 -14 -10
-7 8 16 -24 50 -33 35 -10 -16 -75 -24 -83 -11 -6 9 -12 8 -23 -1 -8 -7 -21
-9 -28 -5 -7 4 -10 4 -6 -1 15 -16 -12 -34 -40 -25 -23 6 -28 4 -28 -11 0 -21
11 -25 21 -9 8 12 25 13 25 1 0 -14 -51 -23 -65 -11 -8 7 -21 7 -38 1 -16 -6
-28 -6 -34 0 -7 7 -27 5 -59 -5 -27 -8 -43 -15 -36 -15 20 -1 13 -15 -15 -28
-33 -16 -46 -16 -38 -3 3 6 0 10 -7 10 -8 1 -5 7 7 17 18 14 18 15 2 9 -10 -3
-21 -6 -23 -6 -2 0 -4 -11 -4 -25 0 -31 -7 -31 -38 -2 l-24 22 6 -22 c8 -24
-8 -33 -17 -10 -4 9 -8 8 -17 -3 -9 -11 -13 -12 -17 -2 -7 18 -26 15 -19 -4 4
-9 2 -13 -5 -8 -6 4 -15 1 -19 -7 -7 -10 -12 -10 -26 2 -13 11 -18 11 -21 2
-3 -7 -12 -13 -21 -13 -15 0 -15 -2 -2 -10 13 -8 13 -10 -2 -10 -9 0 -20 5
-23 10 -11 18 -23 10 -30 -20 -9 -40 -20 -45 -38 -16 -15 23 -15 24 6 30 11 3
19 7 16 10 -10 10 -49 -6 -49 -20 0 -8 -7 -14 -15 -14 -9 0 -12 -6 -9 -15 6
-14 -6 -19 -43 -18 -6 0 -14 -6 -18 -14 -4 -11 -1 -13 12 -9 14 6 15 4 6 -5
-15 -15 -33 -3 -33 23 0 12 -3 18 -7 15 -3 -4 -12 -2 -20 4 -9 9 -13 8 -13 0
0 -6 5 -11 10 -11 6 0 10 -4 10 -10 0 -5 -8 -10 -17 -10 -15 0 -16 -2 -3 -10
8 -5 11 -12 7 -16 -3 -4 -13 -1 -22 6 -9 7 -19 10 -22 6 -4 -4 -2 -11 5 -15 9
-5 5 -11 -13 -19 -15 -7 -23 -17 -19 -23 4 -8 0 -9 -15 -4 -16 5 -23 1 -30
-17 l-9 -23 -11 25 -10 25 -7 -22 c-4 -16 -14 -23 -30 -23 -13 0 -35 -5 -48
-12 -24 -10 -57 -5 -112 18 -7 3 -17 -9 -22 -26 -11 -31 -32 -41 -32 -14 0 9
5 12 11 8 7 -4 10 -2 8 5 -3 7 -8 12 -12 12 -4 -1 -16 -1 -27 -1 -14 0 -18 -5
-13 -17 4 -10 2 -14 -4 -10 -6 4 -16 0 -23 -8 -11 -13 -16 -12 -36 10 -30 32
-36 32 -19 -2 13 -26 13 -28 -6 -35 -29 -11 -44 1 -22 18 17 14 16 15 -7 9
-61 -16 -90 -30 -90 -44 0 -11 -5 -9 -16 7 -8 12 -12 28 -9 35 4 6 0 4 -8 -5
-8 -10 -19 -18 -25 -18 -6 0 -9 -6 -6 -14 4 -10 -3 -13 -25 -10 -17 2 -36 -3
-44 -11 -10 -10 -17 -11 -25 -3 -8 8 -15 8 -26 -1 -11 -9 -15 -9 -19 1 -3 9
-10 6 -22 -11 -14 -18 -19 -20 -26 -10 -7 11 -14 11 -38 -4 -21 -12 -30 -14
-33 -5 -3 9 -15 10 -50 2 -38 -9 -47 -8 -57 5 -6 9 -9 11 -6 5 2 -7 -2 -15
-11 -18 -23 -9 -24 -8 -17 12 5 16 5 16 -8 1 -18 -22 -65 -37 -54 -18 6 10 5
11 -4 3 -7 -6 -31 -8 -60 -4 -37 5 -48 3 -44 -6 4 -10 -3 -11 -24 -6 -44 12
-71 3 -95 -31 -13 -18 -34 -44 -47 -60 -27 -30 -35 -67 -14 -67 7 0 13 4 13 8
0 5 10 8 23 6 12 -1 22 -3 22 -4 0 -1 16 -3 35 -5 70 -8 186 -24 233 -33 33
-6 47 -6 47 2 0 7 3 6 8 -2 5 -7 33 -13 65 -15 31 -1 57 -6 57 -11 0 -4 7 -6
15 -2 8 3 26 1 39 -4 13 -5 27 -6 31 -2 10 10 74 12 80 2 3 -5 13 -6 21 -3 9
3 20 0 25 -8 5 -8 9 -9 9 -3 0 6 7 11 15 11 8 0 15 -6 15 -13 0 -14 52 -14 63
1 4 6 10 5 16 -3 4 -8 14 -12 22 -11 21 3 69 -19 69 -32 0 -7 9 -9 25 -5 14 4
25 2 25 -4 0 -5 5 -10 11 -10 6 0 8 8 5 18 -4 12 0 18 13 19 27 2 21 -29 -9
-45 -25 -13 -24 -13 8 -8 36 6 39 2 17 -20 -8 -9 -15 -20 -15 -27 0 -6 9 -1
20 11 24 25 36 27 46 10 4 -7 4 -10 -1 -6 -11 10 -38 -29 -30 -42 11 -18 27
-11 22 10 -4 15 0 20 16 20 16 0 18 -3 9 -12 -7 -7 -12 -17 -12 -23 0 -7 3 -6
8 1 8 13 75 46 67 34 -3 -5 0 -12 6 -15 5 -4 8 -14 5 -22 -4 -11 -2 -13 9 -9
8 3 15 1 15 -5 0 -6 4 -8 9 -5 5 3 12 -1 15 -10 5 -13 9 -14 21 -4 10 8 15 9
15 2 0 -22 -20 -22 -63 -1 -29 14 -43 27 -40 36 3 7 0 13 -6 13 -6 0 -11 -5
-11 -11 0 -5 -5 -7 -10 -4 -7 4 -8 -3 -4 -22 8 -34 14 -42 14 -20 0 10 5 17
10 17 6 0 10 -8 10 -17 0 -14 2 -15 9 -4 5 7 14 10 20 7 18 -11 13 -26 -11
-36 -22 -9 -22 -9 3 -9 15 -1 29 5 32 13 7 18 47 9 47 -10 0 -16 -16 -19 -23
-4 -3 6 -4 5 -3 -2 1 -7 12 -14 24 -16 12 -2 20 -8 16 -13 -3 -5 -10 -7 -15
-4 -5 4 -9 1 -9 -6 0 -9 -3 -9 -14 0 -10 9 -16 9 -21 1 -5 -8 -11 -8 -19 -1
-7 6 -27 9 -44 7 -18 -2 -32 1 -32 6 0 6 -7 8 -15 4 -8 -3 -15 -2 -15 2 0 5
-25 5 -55 2 -31 -3 -56 -2 -58 3 -1 5 -30 11 -62 12 -87 3 -155 16 -155 29 0
6 -4 5 -9 -3 -6 -9 -15 -11 -27 -6 -11 5 -21 8 -24 7 -3 0 -36 7 -72 17 -47
13 -70 15 -77 8 -8 -8 -11 -8 -11 0 0 6 -9 9 -20 6 -11 -3 -20 -1 -20 4 0 10
-4 11 -51 16 -14 2 -29 6 -35 9 -11 7 -94 20 -151 23 -24 1 -48 7 -55 12 -7 6
-26 13 -43 16 -108 20 -235 57 -235 69 0 12 -23 5 -37 -12 -10 -13 -12 -13
-18 2 -4 9 -2 25 4 37 14 25 14 41 1 21 -5 -8 -10 -10 -10 -4 0 5 14 20 30 33
17 12 29 25 26 29 -2 4 11 18 29 32 19 14 38 34 44 45 18 36 45 100 46 110 0
6 7 20 14 33 6 12 9 32 6 42 -4 12 -2 20 5 20 20 0 5 23 -24 40 -26 14 -34 38
-11 32 6 -1 3 3 -6 10 -9 7 -14 19 -12 25 3 7 -2 20 -11 28 -13 13 -14 13 -12
-8 1 -13 5 -28 9 -34 3 -5 4 -13 0 -17 -12 -11 -22 -6 -21 12 1 9 -2 29 -5 45
-7 26 -8 27 -32 11 -14 -9 -25 -25 -25 -35 0 -11 -5 -19 -11 -19 -5 0 -7 -6
-3 -12 4 -7 -2 -5 -13 5 -18 16 -21 16 -33 2 -18 -22 -56 -16 -52 9 2 11 -1
15 -8 11 -6 -4 -8 -15 -5 -25 4 -12 -2 -27 -14 -39 -12 -12 -21 -18 -21 -14 0
3 -8 -1 -18 -10 -10 -9 -39 -26 -65 -37 -25 -11 -61 -34 -79 -51 -18 -16 -34
-25 -36 -20 -2 5 -15 3 -30 -4 -15 -8 -63 -16 -107 -20 -43 -3 -84 -10 -91
-15 -6 -6 -13 -7 -17 -4 -3 3 -15 0 -27 -6 -16 -9 -25 -9 -36 1 -10 8 -14 8
-14 0 0 -6 -7 -11 -15 -11 -8 0 -15 4 -15 9 0 5 -19 9 -42 9 -30 1 -38 -2 -28
-8 13 -8 13 -10 -1 -10 -19 0 -42 24 -32 33 3 4 22 8 42 8 22 1 28 3 16 6 -11
3 -23 9 -26 14 -3 5 -30 12 -59 16 -30 3 -72 17 -94 29 -42 24 -96 32 -96 14
0 -12 44 -35 124 -65 56 -21 59 -24 34 -30 -15 -4 -32 -4 -39 1 -7 4 -9 3 -5
-4 14 -23 -13 -19 -79 12 -77 36 -95 34 -148 -19 l-25 -26 -63 31 c-35 16 -72
38 -83 48 -12 11 -36 25 -53 32 -21 8 -43 30 -62 60 -35 56 -33 60 50 90 l54
19 -42 -3 c-30 -2 -40 1 -36 10 3 8 -9 19 -29 28 -39 18 -64 34 -92 59 -11 9
-25 17 -32 17 -7 0 -17 6 -21 13 -13 20 -55 44 -93 52 -30 7 -32 9 -15 16 l20
8 -20 1 c-42 3 -55 9 -78 34 -13 14 -29 26 -36 26 -6 0 -11 4 -11 8 0 5 -27
23 -60 42 -33 19 -60 38 -60 43 0 5 -7 6 -16 3 -8 -3 -12 -2 -9 4 3 6 1 10 -6
10 -6 0 -22 11 -35 25 -13 14 -25 21 -29 16 -8 -13 -85 39 -85 57 0 9 -3 12
-7 9 -3 -4 -13 -1 -21 5 -19 16 -53 36 -74 44 -10 3 -18 10 -18 15 0 5 -9 9
-20 9 -11 0 -20 5 -20 11 0 5 -4 8 -9 4 -6 -3 -13 1 -18 8 -4 7 -37 32 -73 55
-36 23 -60 42 -55 42 6 0 -10 11 -35 24 -99 51 -110 58 -104 68 4 6 3 8 -3 5
-6 -4 -31 7 -56 24 -26 17 -51 28 -57 24 -6 -3 -7 0 -4 9 4 11 0 16 -15 16
-12 0 -31 11 -43 25 -12 14 -27 25 -34 25 -7 0 -17 6 -21 13 -4 7 -29 24 -55
36 -27 13 -48 27 -48 32 0 5 -7 9 -15 9 -8 0 -15 5 -15 10 0 6 -6 10 -14 10
-8 0 -16 7 -20 15 -3 8 -12 15 -21 15 -8 0 -15 4 -15 9 0 5 -13 11 -30 15 -16
3 -30 12 -30 20 0 7 -13 19 -29 26 -16 6 -37 20 -47 31 -9 10 -23 19 -29 19
-7 0 -18 7 -25 15 -7 9 -37 27 -67 41 -29 14 -53 29 -53 34 0 5 -11 15 -24 22
-14 7 -45 24 -70 37 -25 14 -46 28 -46 32 0 4 -12 14 -27 22 -91 46 -150 81
-163 96 -8 9 -36 27 -62 39 -25 12 -49 29 -52 37 -3 8 -15 15 -26 15 -11 0
-20 3 -20 8 0 4 -15 13 -32 21 -18 8 -47 25 -64 38 -17 13 -38 23 -47 23 -10
0 -17 5 -17 11 0 5 -4 7 -10 4 -6 -4 -7 1 -3 11 4 11 3 15 -5 10 -26 -16 -20
19 18 93 47 95 53 119 9 41 -55 -97 -56 -98 -83 -93 -14 3 -23 9 -20 14 3 5
-2 9 -11 9 -8 0 -18 6 -21 14 -4 9 -20 14 -50 14 -28 -1 -51 5 -63 16 -22 20
-69 48 -123 73 -21 10 -38 21 -38 25 0 5 -6 8 -13 8 -20 0 -104 68 -110 89 -3
12 -18 20 -43 24 -22 4 -51 18 -67 32 -18 18 -34 24 -47 20 -13 -4 -24 1 -36
20 -9 14 -23 24 -30 21 -8 -3 -14 -1 -14 5 0 6 -4 7 -10 4 -15 -10 -14 -5 46
119 31 65 54 119 52 121 -3 3 -15 -19 -29 -48 -47 -103 -127 -217 -117 -165 2
6 -6 14 -17 16 -11 2 -32 13 -47 23 -14 11 -31 19 -38 19 -7 0 -25 11 -42 25
-16 14 -37 25 -46 25 -9 0 -35 12 -57 25 -22 14 -47 25 -56 25 -9 0 -19 7 -23
15 -3 8 -12 15 -19 15 -8 0 -20 6 -26 13 -6 8 -29 20 -51 27 -22 7 -40 17 -40
22 0 4 -3 7 -7 7 -15 -3 -73 23 -73 32 0 5 -6 9 -14 9 -7 0 -43 15 -80 34 -36
19 -66 31 -66 28 0 -3 -5 -1 -12 6 -7 7 -20 12 -30 12 -10 0 -18 5 -18 10 0 6
-6 10 -12 10 -7 0 -51 20 -98 43 -47 24 -91 42 -97 40 -8 -3 -11 4 -8 18 4 20
3 20 -14 5 -9 -9 -22 -16 -27 -16 -5 0 -2 5 6 10 13 8 12 10 -3 10 -11 0 -31
8 -45 18 -46 29 -66 42 -82 49 -8 4 -21 13 -28 20 -7 7 -20 13 -28 13 -8 0
-14 5 -14 11 0 12 24 6 100 -28 106 -47 150 -63 150 -52 0 12 -68 43 -283 129
-108 43 -153 66 -145 73 11 7 11 10 0 14 -20 8 -80 75 -99 111 -10 17 -22 32
-27 32 -5 0 -20 10 -33 22 l-23 21 -21 -48z m2739 -2716 c43 -24 57 -28 63
-17 7 10 9 9 9 -5 0 -14 5 -17 23 -12 15 4 18 3 9 -3 -10 -7 -2 -16 33 -36 26
-14 52 -26 58 -26 40 0 611 -349 714 -437 12 -10 30 -24 40 -31 10 -7 4 -5
-14 3 -41 19 -43 19 -43 -5 0 -11 5 -20 10 -20 6 0 10 -4 10 -9 0 -5 -8 -8
-17 -7 -10 0 -17 -5 -16 -11 2 -7 -2 -13 -7 -13 -6 0 -10 -6 -10 -13 0 -7 -8
-29 -18 -49 -11 -20 -24 -56 -31 -80 -16 -55 -29 -72 -66 -85 -16 -5 -30 -14
-29 -19 0 -5 -4 -13 -8 -19 -29 -34 -117 -188 -113 -196 4 -5 3 -9 -2 -9 -10
0 -33 -49 -33 -71 0 -10 -3 -25 -6 -34 -6 -15 -8 -14 -25 1 -18 16 -18 18 -2
29 15 11 15 15 4 29 -7 9 -20 16 -28 16 -8 0 -11 5 -7 12 5 8 0 9 -17 5 -13
-4 -30 -7 -37 -7 -7 0 -17 -11 -22 -25 -5 -14 -13 -24 -17 -23 -13 5 -16 -6
-9 -29 4 -13 13 -24 19 -25 7 0 17 -2 22 -3 6 -2 14 -3 18 -4 5 0 2 -8 -7 -16
-14 -15 -28 -13 -86 12 -8 4 -22 7 -30 9 -8 1 -31 4 -50 8 -26 5 -41 2 -60
-13 -23 -19 -24 -20 -7 -39 31 -34 18 -34 -25 1 -24 19 -53 38 -65 41 -24 8
-86 88 -98 127 -4 13 -21 40 -36 60 -16 20 -29 44 -29 53 0 9 -6 16 -12 16 -8
0 -13 16 -14 44 -1 28 -8 51 -18 62 -10 9 -15 25 -13 35 3 11 0 19 -5 19 -7 0
-7 5 1 13 7 9 8 24 1 48 -13 43 -13 186 -1 194 5 3 8 25 6 50 -3 24 -1 46 4
49 4 3 7 44 6 91 -1 47 2 88 7 91 5 3 6 9 3 14 -3 5 -1 20 5 34 8 22 7 26 -7
26 -15 0 -15 1 0 13 10 7 20 31 23 57 3 24 7 47 10 51 2 4 0 10 -6 14 -5 3
-10 15 -10 26 0 10 -5 19 -12 19 -6 0 -3 6 8 14 10 8 16 18 12 22 -4 4 -16 1
-25 -7 -16 -13 -17 -12 -4 4 17 22 15 22 79 -14z m3160 -620 c81 -19 142 -40
142 -50 0 -5 -4 -9 -10 -9 -5 0 -10 -6 -10 -12 0 -9 -21 -13 -70 -14 -39 -1
-70 1 -70 5 0 3 -23 7 -50 8 -50 1 -73 11 -118 51 -16 14 -19 22 -10 25 24 10
149 7 196 -4z m3392 -364 c11 -13 10 -14 -4 -9 -11 4 -16 1 -16 -10 0 -9 3
-15 8 -15 28 5 33 -2 18 -23 -22 -31 -20 -45 3 -24 13 12 21 14 26 6 3 -6 1
-9 -6 -8 -6 2 -13 -2 -16 -8 -2 -7 7 -11 26 -9 20 2 28 -1 25 -10 -3 -7 1 -19
9 -26 10 -10 12 -22 6 -42 -7 -24 -6 -27 6 -17 14 12 20 7 16 -14 -1 -5 10 -1
25 9 23 15 26 15 21 2 -3 -9 3 -26 14 -39 19 -21 20 -21 15 -3 -6 19 -5 19 7
3 8 -10 16 -17 18 -15 2 1 16 -9 30 -23 22 -21 24 -27 13 -38 -11 -10 -14 -10
-14 0 0 7 -14 21 -31 30 -30 17 -30 17 -24 -2 4 -11 2 -20 -4 -20 -6 0 -11 5
-11 10 0 14 -47 12 -54 -2 -5 -10 -7 -10 -12 0 -3 6 -10 10 -15 6 -5 -3 -9 0
-9 5 0 6 10 11 23 12 21 0 21 1 2 9 -13 5 -24 4 -30 -4 -5 -6 -18 -10 -27 -8
-10 2 -18 -2 -18 -10 -1 -8 -4 -7 -10 4 -6 10 -29 20 -55 24 -25 3 -45 10 -45
15 0 18 -22 9 -27 -11 -3 -11 -10 -17 -15 -14 -5 3 -7 12 -4 20 3 8 1 14 -4
14 -17 0 -25 -5 -22 -12 4 -14 -26 -8 -42 8 -13 13 -17 13 -21 2 -7 -17 -65
-23 -65 -7 0 6 7 9 15 5 8 -3 14 -2 14 2 -3 19 2 33 10 28 14 -9 41 5 41 21 0
9 6 13 14 10 11 -4 13 1 10 19 -4 21 -1 25 14 20 13 -5 18 0 19 16 2 19 0 20
-8 8 -9 -13 -10 -13 -6 0 4 16 18 17 52 5 15 -5 17 -4 6 3 -12 8 -8 13 20 21
32 10 32 10 5 8 -17 -1 -31 4 -34 12 -3 9 1 11 16 7 27 -9 62 21 62 51 0 26
21 30 40 8z m-3045 -125 c33 12 69 4 61 -15 -6 -16 20 -40 28 -26 7 11 66 -8
66 -22 0 -4 5 -5 11 -2 6 5 4 12 -8 21 -17 13 -17 14 2 7 11 -3 24 -12 28 -20
4 -7 14 -13 21 -13 8 0 17 -7 20 -16 3 -8 10 -12 16 -9 5 3 10 2 10 -2 0 -5 8
-9 18 -10 41 -3 58 -9 68 -22 6 -8 16 -11 22 -7 15 9 42 -4 42 -21 0 -8 5 -11
10 -8 6 3 10 -1 10 -9 0 -9 5 -16 10 -16 6 0 10 5 10 12 0 6 6 4 13 -5 6 -10
26 -18 44 -20 17 -1 31 -4 31 -7 -1 -22 4 -29 19 -23 11 4 14 3 9 -5 -4 -7 -2
-12 5 -12 8 0 8 -5 -2 -17 -7 -10 -1 -7 14 6 20 18 27 21 27 9 0 -9 9 -14 23
-14 14 1 21 -4 19 -13 -2 -8 3 -11 12 -8 8 3 17 1 20 -6 3 -9 8 -8 15 3 7 10
11 11 11 3 0 -18 56 -44 76 -36 13 5 15 3 8 -8 -14 -23 -13 -39 2 -39 8 0 14
-9 14 -19 0 -19 14 -34 35 -37 27 -3 54 -17 49 -25 -9 -15 -34 -10 -34 7 0 10
-6 14 -15 10 -8 -3 -21 1 -29 9 -18 18 -26 19 -26 3 0 -6 -10 -22 -22 -35 -26
-28 -17 -41 17 -23 17 9 24 19 20 29 -5 12 -3 13 5 5 19 -19 -6 -54 -38 -54
-20 0 -23 -3 -12 -9 8 -6 18 -7 23 -4 4 3 15 -3 23 -13 9 -11 13 -13 9 -6 -3
6 0 12 7 12 10 0 13 10 10 36 -4 34 -3 35 16 25 11 -6 22 -15 24 -20 1 -5 17
-11 33 -13 17 -3 25 -3 19 -1 -17 6 -4 53 15 52 9 0 11 -3 4 -6 -22 -9 9 -43
39 -43 16 0 28 -4 28 -8 0 -5 10 -8 23 -8 15 1 23 -5 25 -20 2 -17 8 -21 25
-16 21 5 21 5 -2 -15 -21 -17 -22 -21 -8 -26 10 -4 17 -2 17 3 0 5 7 7 17 3
14 -5 13 -8 -6 -15 -12 -4 -20 -12 -16 -18 3 -6 -1 -7 -9 -4 -9 3 -16 2 -16
-4 0 -6 6 -13 13 -15 7 -3 5 -6 -5 -6 -10 -1 -18 -5 -18 -10 0 -5 8 -12 18
-16 15 -7 13 -9 -8 -15 -14 -4 -31 -2 -37 3 -9 6 -13 6 -13 -2 0 -7 -5 -9 -12
-5 -6 4 -8 3 -5 -3 3 -5 -3 -18 -15 -27 -19 -17 -22 -17 -30 -2 -5 9 -16 16
-24 16 -8 0 -17 6 -20 14 -3 7 -16 12 -32 10 -15 -2 -19 -1 -9 2 19 6 19 6 11
28 -8 22 -34 20 -35 -1 -1 -16 -2 -17 -6 -1 -2 9 -10 15 -17 12 -15 -6 -18 26
-3 44 7 9 6 11 -8 6 -13 -5 -16 -3 -13 7 3 8 14 13 26 11 12 -2 22 2 22 8 0 7
-6 10 -14 7 -8 -3 -20 1 -26 9 -7 8 -20 14 -29 14 -9 0 -22 5 -29 12 -9 9 -12
9 -12 -2 0 -13 -2 -13 -10 0 -7 10 -10 11 -10 2 0 -7 -12 -17 -27 -23 -21 -8
-34 -6 -60 8 -18 10 -33 22 -33 26 0 5 -6 7 -14 4 -8 -3 -17 1 -20 9 -3 8 -12
14 -21 14 -8 0 -15 5 -15 10 0 6 -7 10 -15 10 -8 0 -15 7 -15 16 0 14 -3 14
-15 4 -12 -10 -15 -10 -15 4 0 9 -6 16 -14 16 -7 0 -19 7 -26 15 -7 8 -16 13
-20 10 -4 -2 -16 5 -28 15 -12 11 -26 20 -32 20 -5 0 -10 4 -10 9 0 5 -13 12
-30 16 -16 4 -30 10 -30 15 0 5 -16 14 -35 21 -24 9 -31 16 -22 22 8 6 4 7
-12 3 -15 -3 -38 4 -63 20 -22 14 -49 24 -59 21 -11 -3 -19 0 -19 7 0 6 -9 17
-20 24 -13 8 -20 8 -20 1 0 -5 -5 -7 -10 -4 -6 4 -8 10 -5 15 8 13 -21 20 -34
7 -8 -8 -11 -8 -11 1 0 7 -6 12 -14 12 -21 0 -26 24 -15 65 6 19 9 45 7 57 -2
12 3 23 12 25 12 4 12 3 2 -5 -11 -7 -10 -11 3 -16 15 -5 17 -2 11 26 -3 19
-2 27 2 20 7 -10 15 -10 37 -2z m1274 -886 c-23 -24 -9 -45 16 -24 12 10 15 9
15 -3 0 -10 6 -13 20 -10 12 3 20 0 20 -6 0 -7 -4 -10 -8 -7 -4 2 -8 -4 -8
-15 0 -19 1 -19 13 -2 25 36 33 42 50 36 12 -5 15 -2 10 9 -6 16 20 35 31 23
3 -3 1 -5 -5 -5 -15 0 -12 -28 4 -34 9 -4 12 -16 8 -35 -3 -16 -1 -32 4 -35
13 -9 23 55 10 70 -6 7 -9 19 -6 26 4 9 6 8 6 -3 1 -9 7 -22 15 -28 11 -10 12
-19 4 -42 -13 -37 -22 -43 -49 -28 -17 8 -19 13 -9 19 8 5 14 18 15 29 1 16
-4 21 -24 21 -24 0 -24 0 -5 -15 18 -15 18 -17 2 -27 -14 -10 -14 -13 -2 -22
17 -13 27 -56 13 -56 -5 0 -9 5 -9 11 0 6 -8 18 -17 27 -16 16 -16 16 -11 -6
6 -22 5 -23 -11 -8 -10 9 -23 16 -30 16 -8 0 -11 6 -7 16 5 14 4 15 -9 4 -12
-10 -18 -10 -30 0 -8 7 -15 19 -15 26 0 8 -4 14 -10 14 -5 0 -10 8 -10 18 0
10 -5 23 -12 30 -9 9 -8 12 5 12 9 0 17 5 17 10 0 6 0 13 0 18 0 4 -4 8 -10 8
-23 3 -24 5 -10 14 10 6 20 4 32 -7 18 -16 17 -17 -3 -39z"/>
<path d="M7417 11798 c-3 -13 -9 -53 -13 -89 l-6 -66 78 -7 c44 -4 96 -9 117
-12 l38 -6 -7 54 c-3 29 -14 60 -23 69 -9 9 -47 29 -86 44 -38 15 -75 29 -81
32 -6 2 -14 -6 -17 -19z"/>
<path d="M8540 11070 c-6 -11 -11 -46 -11 -78 l-1 -59 -100 -49 c-55 -27 -102
-52 -104 -56 -3 -4 53 -41 122 -83 159 -93 190 -97 264 -26 9 9 35 33 58 53
32 30 42 47 48 84 7 48 -14 114 -36 114 -5 0 -28 17 -51 37 l-41 37 -23 -28
-23 -28 -12 36 c-19 58 -70 84 -90 46z"/>
<path d="M8915 10860 c-3 -5 -8 -37 -11 -72 -5 -55 -3 -67 16 -90 12 -16 28
-28 35 -28 25 0 45 43 45 98 0 43 -5 58 -25 77 -25 26 -49 32 -60 15z"/>
<path d="M9100 10745 c-6 -8 -13 -43 -13 -79 -2 -69 17 -106 54 -106 57 0 57
159 1 189 -26 14 -27 14 -42 -4z"/>
<path d="M9323 10682 c-4 -9 -17 -27 -30 -39 -13 -12 -23 -32 -23 -45 -1 -34
-32 -96 -84 -164 -25 -34 -46 -64 -46 -67 0 -2 18 -16 41 -31 46 -31 58 -27
85 28 37 77 32 77 149 0 l106 -69 -4 -88 -4 -88 43 -29 c23 -17 46 -30 50 -30
10 0 -4 251 -20 350 -17 104 -37 156 -65 165 -12 3 -21 11 -21 16 0 5 -4 9 -9
9 -6 0 -7 -15 -4 -34 4 -27 2 -34 -15 -38 -14 -4 -23 -17 -27 -42 -4 -20 -9
-36 -11 -36 -2 0 -20 10 -39 23 -38 24 -41 37 -22 93 30 86 30 90 -8 113 -33
19 -36 20 -42 3z"/>
<path d="M19999 10588 c-13 -25 -34 -48 -43 -48 -4 0 -1 9 6 20 16 24 1 41
-16 18 -7 -10 -16 -15 -19 -11 -12 11 -7 -11 7 -39 9 -18 11 -29 4 -36 -12
-12 -40 -4 -32 9 3 5 10 7 15 4 13 -9 11 2 -6 34 -8 16 -11 31 -8 35 4 3 1 6
-5 6 -12 0 -16 -18 -13 -52 1 -10 -4 -18 -13 -18 -9 0 -16 7 -16 15 0 8 -4 15
-10 15 -14 0 -12 -37 3 -43 9 -4 8 -8 -3 -16 -12 -8 -16 -6 -20 11 -3 12 -12
24 -19 26 -8 3 -11 0 -7 -7 5 -7 -3 -11 -24 -11 -20 0 -29 -4 -25 -11 4 -6 -2
-13 -14 -16 -12 -3 -21 -10 -21 -15 0 -6 -11 -7 -25 -4 -30 8 -33 -9 -5 -26
11 -7 20 -17 20 -22 0 -6 -5 -5 -11 1 -14 14 -109 5 -129 -12 -8 -7 -24 -15
-35 -18 -16 -4 -17 -5 -2 -6 18 -1 25 -21 7 -21 -21 0 -51 -37 -44 -54 3 -9 1
-30 -6 -47 -8 -18 -9 -34 -4 -37 19 -14 33 -49 23 -59 -6 -6 -4 -22 7 -44 38
-75 37 -72 20 -66 -11 5 -16 1 -16 -12 0 -10 7 -21 15 -25 21 -8 19 -53 -2
-59 -14 -4 -12 -5 5 -6 13 -1 22 -7 22 -17 0 -11 5 -14 16 -10 9 3 19 6 22 6
4 0 1 4 -7 9 -7 5 -10 14 -6 21 6 9 9 9 16 -1 4 -7 11 -10 16 -5 4 4 0 12 -10
17 -9 6 -17 15 -17 20 0 6 5 7 10 4 6 -3 10 1 10 9 0 9 4 16 9 16 12 0 34 -57
26 -69 -3 -6 1 -11 9 -11 10 0 16 9 16 21 0 15 4 19 16 15 9 -4 23 -1 30 5 11
9 18 8 32 -3 9 -9 29 -18 44 -22 26 -6 27 -5 22 24 -7 34 -3 37 20 14 14 -14
16 -12 14 25 -1 23 -6 39 -12 38 -6 -1 -9 9 -8 23 5 33 7 34 30 19 16 -10 22
-9 35 2 14 12 12 18 -21 52 -26 26 -31 37 -20 37 17 0 68 -58 68 -78 0 -6 -6
-15 -13 -19 -15 -10 -34 -49 -41 -88 l-6 -30 24 29 c13 16 22 35 19 43 -3 7
-1 13 5 13 6 0 12 -5 14 -12 3 -8 12 -4 26 10 26 26 32 27 32 7 0 -17 46 -20
70 -5 11 7 8 10 -16 10 -18 0 -34 6 -37 14 -4 11 2 12 31 5 20 -5 40 -9 43 -9
13 0 18 29 7 36 -7 4 -8 3 -4 -4 5 -8 -2 -12 -19 -12 -15 0 -23 4 -20 10 4 6
-13 9 -44 7 -29 -1 -51 2 -51 8 0 6 8 10 18 10 9 0 23 4 30 8 6 5 12 5 12 0 0
-4 5 -1 10 7 8 12 13 13 30 2 17 -10 20 -10 20 2 0 8 -4 17 -9 20 -5 3 -7 15
-4 26 3 11 1 20 -5 20 -5 0 -13 -11 -16 -25 -4 -14 -11 -25 -16 -25 -13 0 -13
37 0 45 6 3 7 17 4 31 -5 18 -2 24 11 24 9 0 13 5 10 10 -10 16 -23 12 -30
-11 -7 -21 -26 -22 -33 -1 -2 7 3 12 11 12 8 0 18 7 21 16 8 21 8 49 -1 41 -8
-8 -33 11 -33 25 0 6 6 6 14 -1 11 -9 19 -9 35 1 25 15 28 48 5 48 -9 0 -18 9
-21 20 -3 11 -10 20 -17 20 -6 0 2 7 18 15 16 9 36 13 43 11 18 -7 17 -34 -2
-38 -10 -2 -12 -8 -5 -17 7 -12 11 -12 23 -3 12 10 18 9 32 -4 11 -11 20 -13
26 -7 7 7 2 12 -14 17 -22 5 -25 11 -23 44 l2 38 -43 -2 c-45 -1 -52 10 -20
30 12 8 22 7 37 -2 11 -7 20 -10 20 -6 0 12 -29 33 -54 40 -32 8 -32 11 -3 35
18 15 19 18 5 19 -10 0 -23 -10 -29 -22z"/>
<path d="M9710 10399 l0 -41 -31 33 c-26 28 -32 30 -44 18 -8 -8 -18 -42 -21
-76 -8 -76 12 -118 52 -110 30 5 30 1 -1 -103 -14 -46 -24 -85 -22 -86 10 -10
80 -54 82 -52 6 6 45 178 46 200 1 17 4 13 11 -14 13 -48 43 -76 66 -62 20 13
37 91 28 128 -9 37 -44 69 -67 63 -23 -6 -23 -6 -4 40 16 38 7 63 -21 63 -8 0
-14 4 -14 8 0 8 -43 32 -55 32 -3 0 -5 -18 -5 -41z"/>
<path d="M9916 10331 c-4 -5 -2 -21 4 -36 5 -14 10 -50 10 -78 0 -57 -42 -274
-60 -306 -9 -18 -5 -24 30 -47 22 -15 42 -25 45 -23 2 3 12 37 22 77 15 61 21
72 40 72 40 0 57 103 27 162 -13 25 -14 36 -4 56 8 19 8 27 -2 33 -6 4 -17 5
-23 2 -5 -4 -7 -3 -3 2 7 7 -32 44 -49 47 -16 3 -34 28 -28 38 3 5 4 10 1 10
-3 0 -7 -4 -10 -9z"/>
<path d="M10147 10121 c3 -21 0 -48 -7 -61 -7 -12 -13 -59 -14 -104 -2 -44
-11 -110 -21 -145 l-18 -64 34 -28 c19 -16 37 -29 40 -29 9 0 46 151 59 247
13 84 8 156 -11 183 -9 12 -10 11 -5 -4 5 -14 -2 -10 -24 12 -16 18 -32 32
-34 32 -2 0 -2 -17 1 -39z"/>
<path d="M10303 9984 c-13 -44 -18 -92 -18 -184 0 -120 1 -127 30 -180 34 -62
92 -110 159 -133 52 -18 57 -14 69 51 6 27 4 32 -13 32 -99 0 -195 126 -160
210 7 17 14 30 16 30 3 0 20 -10 38 -22 27 -18 35 -31 39 -63 4 -24 14 -47 27
-57 29 -24 38 -23 52 7 9 20 14 22 30 14 27 -14 30 -9 31 58 1 39 -6 78 -22
120 -21 55 -28 65 -83 98 -32 20 -62 34 -65 31 -4 -3 -2 -6 3 -6 20 0 61 -47
77 -88 22 -56 22 -65 -4 -57 -13 4 -25 2 -29 -5 -10 -16 -87 34 -96 62 -3 11
-3 41 0 66 3 26 3 41 0 35 -9 -20 -24 -15 -17 5 3 9 2 14 -2 9 -5 -4 -16 0
-26 9 -17 15 -19 13 -36 -42z"/>
<path d="M10676 9812 c6 -64 5 -69 -14 -74 -16 -5 -22 -17 -28 -64 -4 -37 -3
-69 5 -91 10 -27 9 -44 -9 -109 -12 -42 -20 -77 -18 -78 34 -24 67 -46 71 -46
13 0 26 52 56 222 11 59 25 116 31 127 14 27 54 27 81 0 26 -26 30 -22 22 25
-4 28 -15 43 -42 62 -44 30 -56 30 -75 2 -9 -12 -16 -20 -17 -18 -11 71 -18
87 -44 98 l-26 12 7 -68z"/>
<path d="M10925 9587 c-1 -118 -10 -185 -39 -282 -2 -5 -5 -14 -6 -20 -1 -5
-6 -20 -11 -32 -6 -18 -1 -25 31 -47 22 -14 41 -26 43 -26 2 0 12 36 22 80 17
74 19 78 38 68 27 -14 43 8 52 72 7 51 -10 102 -38 113 -10 4 -16 29 -19 81
-4 60 -9 80 -24 91 -50 40 -49 43 -49 -98z"/>
<path d="M12496 9691 c-4 -6 -16 -11 -28 -11 -17 0 -19 -4 -13 -27 3 -15 11
-31 17 -34 5 -4 3 -9 -7 -13 -28 -10 -35 -7 -35 19 0 15 -8 29 -21 36 -20 10
-21 9 -17 -15 4 -21 1 -26 -14 -26 -16 0 -19 5 -15 23 4 12 2 29 -3 37 -7 11
-10 5 -10 -22 0 -31 -4 -38 -20 -38 -13 0 -22 -9 -26 -26 -4 -15 -12 -23 -19
-20 -7 2 -15 -4 -18 -15 -3 -13 0 -19 11 -19 8 0 12 -3 9 -7 -4 -3 -2 -12 4
-19 14 -17 2 -37 -17 -30 -8 3 -23 -3 -34 -14 -11 -11 -27 -20 -35 -20 -17 0
-20 -16 -5 -25 6 -3 10 -17 10 -30 0 -15 7 -26 20 -30 11 -3 20 -15 20 -26 0
-16 -5 -18 -25 -13 -26 6 -33 -4 -14 -23 8 -8 8 -17 -1 -33 -9 -17 -9 -25 4
-39 19 -20 21 -41 5 -41 -6 0 -9 7 -5 15 3 8 1 15 -5 15 -7 0 -8 -12 -4 -30 4
-17 3 -29 -2 -28 -4 2 -18 -7 -30 -19 l-22 -22 73 -50 c58 -40 76 -48 86 -38
10 10 12 9 7 -5 -3 -9 2 -23 14 -34 25 -22 12 -38 -46 -55 -24 -7 -42 -16 -39
-20 2 -4 -13 -10 -33 -14 -27 -5 -33 -9 -22 -16 11 -7 11 -9 -4 -9 -10 0 -15
-5 -12 -10 4 -7 -2 -9 -19 -4 -17 4 -26 2 -26 -6 0 -7 -8 -9 -20 -5 -11 4 -20
3 -19 -2 3 -20 -2 -33 -13 -30 -8 1 -14 -10 -16 -25 -2 -16 1 -28 7 -28 6 0
11 5 11 10 0 6 7 10 15 10 8 0 15 5 15 10 0 6 7 10 15 10 8 0 15 -4 15 -10 0
-5 7 -10 16 -10 8 0 13 4 10 9 -4 5 4 7 16 4 23 -4 23 -4 3 12 -11 10 -13 15
-5 11 8 -3 23 -9 33 -12 24 -9 22 -33 -3 -27 -12 3 -20 0 -20 -6 0 -7 5 -9 10
-6 6 3 10 2 10 -3 0 -5 14 -9 30 -10 33 -1 38 9 16 27 -21 17 -16 51 7 51 24
0 59 19 53 29 -3 4 14 14 37 21 23 8 47 16 52 19 19 10 39 10 52 -1 10 -8 13
-5 13 11 0 12 6 21 16 21 8 0 12 5 9 10 -3 6 1 10 10 10 9 0 15 6 12 13 -2 6
2 19 10 28 11 14 11 18 0 28 -19 15 -99 14 -123 -2 -16 -9 -75 3 -68 14 3 5 9
7 14 4 5 -3 11 -1 15 5 3 5 17 10 30 10 25 0 39 15 40 40 0 8 10 16 23 18 12
2 22 8 22 13 0 6 4 8 8 5 4 -2 23 9 42 26 39 33 49 69 19 61 -11 -3 -19 0 -19
6 0 6 7 11 15 11 8 0 15 7 15 15 0 9 -6 12 -15 9 -9 -4 -15 0 -15 10 0 9 8 16
21 16 11 0 17 5 14 10 -4 6 -11 8 -16 5 -7 -5 -12 40 -8 71 0 4 -5 10 -13 15
-10 6 -9 11 7 23 11 9 14 16 8 16 -23 0 -13 18 14 25 21 5 24 8 12 16 -12 8
-11 11 4 20 21 12 22 29 2 29 -8 0 -15 5 -15 12 0 9 -3 9 -12 0 -13 -13 -28
-16 -28 -4 0 12 49 31 56 21 7 -13 24 -11 24 2 0 14 -47 59 -61 59 -5 0 -8 5
-6 11 1 6 -8 12 -20 14 -42 3 -41 22 2 39 6 2 6 8 -1 16 -8 8 -14 9 -18 1z"/>
<path d="M11116 9537 c-31 -31 -51 -134 -51 -267 0 -94 3 -110 27 -156 61
-116 180 -167 201 -85 9 38 -1 51 -42 51 -14 0 -39 16 -61 38 -46 46 -57 102
-41 218 19 136 53 155 132 75 45 -44 49 -46 49 -24 0 48 -57 116 -129 152 -51
26 -57 26 -85 -2z"/>
<path d="M11400 9376 c0 -7 3 -28 6 -45 5 -25 11 -31 33 -31 63 0 151 -92 151
-158 0 -20 -1 -20 -56 9 -56 29 -117 38 -129 19 -13 -21 -23 -8 -18 23 6 41
-18 93 -48 102 -27 9 -35 -3 -43 -71 -7 -62 10 -108 43 -117 17 -4 18 -9 11
-43 -10 -44 2 -123 26 -163 30 -50 93 -74 151 -56 21 7 22 5 13 -23 -7 -27 -5
-33 16 -46 47 -32 56 -22 79 91 6 29 10 32 31 27 19 -5 26 -1 34 21 5 14 10
49 10 76 0 40 -5 55 -25 75 -14 14 -25 31 -25 39 0 84 -85 198 -188 253 -68
36 -72 37 -72 18z m137 -297 c48 -23 54 -44 29 -102 -29 -70 -78 -88 -115 -41
-29 36 -29 116 -1 144 25 25 33 25 87 -1z"/>
<path d="M11723 9169 c22 -90 16 -196 -20 -363 l-6 -30 37 22 c20 12 50 22 67
22 16 0 29 5 29 10 0 6 9 10 20 10 31 0 28 79 -5 118 -25 29 -25 30 -6 53 17
21 22 22 45 11 28 -13 65 -80 66 -119 0 -28 7 -28 39 -4 19 14 22 24 17 44 -9
37 -84 126 -128 151 -35 20 -37 20 -55 3 -26 -23 -28 -22 -31 10 -2 28 -25 58
-56 75 -16 9 -18 7 -13 -13z"/>
<path d="M18062 8327 c-12 -18 -42 -56 -67 -83 -24 -27 -44 -51 -44 -54 0 -5
143 -109 363 -265 54 -38 106 -76 116 -83 16 -12 22 -3 64 92 25 58 43 111 40
118 -3 7 -44 40 -92 73 -47 33 -125 89 -172 124 -88 67 -158 111 -175 111 -5
0 -20 -15 -33 -33z"/>
<path d="M17840 8085 c-38 -39 -60 -68 -55 -73 6 -5 24 -19 40 -32 l30 -23
-27 7 c-16 3 -28 2 -28 -3 0 -8 258 -202 278 -209 5 -1 18 16 31 39 l23 41
-23 16 c-13 9 -37 29 -54 45 l-30 28 28 -17 c20 -12 31 -14 39 -6 7 7 5 10 -8
9 -15 -2 -19 4 -17 28 1 17 -1 22 -4 13 -7 -28 -18 -21 -18 12 0 17 2 30 4 30
2 0 32 -20 67 -45 62 -43 64 -44 75 -23 10 18 8 24 -12 39 -44 33 -266 189
-271 189 -2 0 -33 -29 -68 -65z"/>
<path d="M17582 7826 c-40 -40 -72 -76 -72 -79 0 -3 17 -16 38 -28 40 -25 238
-163 339 -238 34 -25 85 -62 114 -81 28 -19 86 -63 130 -97 l78 -62 17 52 c9
29 20 54 23 57 9 8 28 51 41 93 6 20 16 37 22 37 6 0 8 7 5 15 -4 8 -2 17 3
20 28 17 2 47 -112 133 -122 92 -122 93 -139 71 l-16 -22 -69 48 c-174 122
-226 155 -237 148 -8 -5 -8 -8 1 -11 7 -2 12 -10 12 -18 0 -8 5 -14 12 -14 6
0 9 -3 5 -6 -3 -4 -29 8 -57 25 -28 17 -54 31 -58 31 -5 0 -40 -33 -80 -74z"/>
<path d="M17439 7684 c-11 -14 -10 -19 10 -35 21 -17 21 -19 5 -20 -11 -1 -24
-1 -30 0 -7 1 -14 -8 -17 -20 -3 -12 -10 -18 -16 -14 -6 3 -8 11 -5 17 13 20
-31 -10 -64 -45 l-33 -34 48 -28 c66 -39 259 -165 342 -224 l69 -49 29 36 c26
32 60 90 83 142 5 10 -15 31 -64 68 -98 77 -315 222 -331 222 -7 0 -19 -7 -26
-16z"/>
<path d="M17207 7459 c-20 -17 -37 -34 -37 -39 0 -4 -28 -36 -62 -70 -40 -39
-58 -64 -50 -67 23 -9 216 -128 326 -201 75 -50 112 -70 119 -63 8 8 3 19 -14
37 -13 15 -17 24 -9 19 12 -7 100 -67 120 -82 2 -2 -2 -13 -9 -25 -14 -23 -8
-30 59 -76 14 -9 87 -63 163 -120 77 -57 140 -102 142 -100 1 2 14 32 28 68
14 36 42 100 61 142 20 42 36 81 36 85 0 9 -246 200 -301 235 -27 16 -28 16
-44 -8 -9 -14 -20 -22 -25 -19 -6 3 -7 0 -4 -8 10 -26 -15 -29 -46 -6 -16 13
-28 25 -25 27 2 3 12 -1 20 -8 17 -14 39 -2 27 15 -24 36 -407 295 -434 295
-2 0 -20 -14 -41 -31z"/>
<path d="M17000 7232 c0 -10 38 -26 55 -22 6 1 7 -2 2 -6 -4 -4 12 -20 35 -36
66 -43 37 -33 -37 13 l-66 42 -40 -39 c-39 -38 -48 -54 -29 -54 19 0 131 -76
123 -84 -4 -4 0 -4 9 -1 9 4 19 2 23 -4 3 -6 0 -11 -7 -11 -8 0 -9 -3 -3 -8 6
-4 17 -15 25 -25 16 -22 -7 -10 -139 70 -69 42 -75 44 -90 28 -14 -15 -14 -18
-1 -26 8 -6 80 -51 160 -100 80 -50 203 -131 274 -180 118 -83 129 -88 142
-72 20 27 38 63 33 66 -29 19 -159 120 -159 123 0 3 12 1 28 -2 15 -4 24 -3
20 1 -4 5 -3 14 3 22 9 9 8 13 0 13 -6 0 -11 5 -11 10 0 27 82 -14 148 -73 22
-20 22 -20 37 -1 13 17 12 21 -18 47 -38 33 -280 195 -389 260 -79 48 -128 67
-128 49z"/>
<path d="M16780 7016 c0 -5 8 -18 18 -29 16 -19 16 -20 -5 -8 -12 6 -28 11
-36 11 -17 0 -127 -126 -126 -143 0 -8 2 -8 6 1 5 14 33 17 33 3 0 -12 -25
-32 -34 -26 -3 3 -2 0 4 -7 7 -9 15 -7 29 6 23 21 15 24 179 -82 83 -54 107
-75 52 -47 -17 9 -30 11 -30 5 0 -6 -26 4 -57 22 -84 46 -53 20 62 -52 84 -53
244 -164 465 -323 115 -83 307 -227 327 -246 12 -12 24 -21 26 -21 8 0 127
276 127 297 0 14 -99 95 -280 228 -106 78 -116 83 -124 65 -5 -11 -12 -20 -17
-20 -4 0 -58 36 -121 79 -95 67 -175 117 -398 250 -17 10 -12 3 13 -22 21 -20
43 -37 48 -37 5 0 8 -6 7 -12 -2 -7 2 -12 8 -11 7 1 20 -7 29 -17 10 -11 15
-20 10 -20 -20 0 -144 87 -177 124 -20 22 -37 37 -38 32z m481 -337 c54 -39
99 -73 99 -75 0 -3 -12 -25 -26 -50 l-26 -44 -52 37 c-126 91 -159 117 -134
108 11 -5 18 0 24 17 4 13 6 25 5 27 -2 2 3 7 10 12 10 6 6 15 -16 34 -47 42
1 15 116 -66z"/>
<path d="M16397 6587 c-8 -12 -49 -67 -91 -121 -43 -54 -76 -100 -74 -101 2
-2 48 -34 103 -71 55 -36 129 -88 165 -113 36 -26 182 -130 325 -231 143 -102
266 -190 274 -198 12 -12 26 -10 69 5 14 6 16 -13 2 -22 -5 -3 -10 -10 -10
-15 0 -4 56 -49 124 -99 143 -105 167 -112 191 -55 17 42 19 58 5 49 -5 -3
-10 1 -10 9 0 9 -4 16 -10 16 -5 0 -10 9 -10 19 0 11 -5 23 -12 27 -8 5 -9 2
-5 -11 7 -17 6 -17 -18 -1 -48 31 -63 49 -58 65 4 12 3 13 -5 3 -8 -12 -13
-12 -31 0 -12 7 -19 18 -17 24 3 7 -3 10 -12 8 -9 -2 -28 5 -40 16 l-24 20 22
45 c12 25 24 45 27 45 3 0 22 -15 43 -32 20 -18 62 -51 93 -73 32 -22 55 -45
53 -52 -3 -8 1 -10 12 -6 15 6 15 4 4 -10 -8 -9 -11 -21 -8 -26 4 -5 2 -12 -4
-16 -12 -7 -13 -35 -2 -35 5 0 14 10 20 23 11 20 11 18 7 -13 -4 -28 4 -18 39
50 l44 85 -21 24 c-41 45 -478 366 -717 528 -145 98 -407 263 -417 263 -6 0
-17 -10 -26 -23z"/>
<path d="M16329 6066 c-16 -39 -86 -154 -112 -183 l-20 -23 24 -22 c64 -59 91
-77 107 -72 12 4 13 3 4 -3 -10 -7 -9 -13 5 -25 10 -9 27 -19 39 -22 19 -6 22
-1 33 50 15 77 14 109 -4 124 -8 7 -15 19 -15 28 0 13 3 12 20 -3 20 -18 21
-18 18 12 -1 18 -6 29 -10 27 -4 -3 -8 2 -8 11 0 10 5 13 12 9 8 -5 9 -2 5 10
-4 10 -7 28 -7 40 0 15 -13 31 -39 48 l-39 26 -13 -32z"/>
<path d="M16457 5923 c-12 -12 -7 -41 8 -47 8 -3 15 -15 15 -27 0 -19 -2 -20
-17 -8 -15 13 -16 12 -11 -9 4 -12 3 -20 -2 -17 -9 6 -20 -68 -13 -95 4 -16 9
-18 25 -9 15 8 25 6 44 -6 28 -18 35 0 7 20 -10 7 -12 14 -6 18 6 4 19 -5 28
-20 14 -20 15 -30 7 -44 -9 -14 -9 -20 1 -25 6 -4 9 -4 5 1 -4 4 -3 14 2 21 6
6 15 38 20 70 9 54 8 60 -13 79 -12 11 -31 21 -41 23 -18 3 -18 2 -2 -13 25
-26 14 -87 -13 -71 -16 11 -13 26 4 20 17 -7 21 21 5 31 -5 3 -10 1 -10 -4 0
-6 -5 -11 -11 -11 -8 0 -8 4 -2 13 18 23 14 66 -7 77 -23 12 -27 32 -5 24 8
-4 15 -1 15 5 0 12 -23 15 -33 4z"/>
<path d="M16591 5728 c-7 -40 -19 -95 -27 -123 -14 -48 -14 -51 6 -67 116 -95
410 -397 410 -421 0 -3 -14 -19 -31 -36 -17 -17 -27 -31 -24 -31 4 0 2 -7 -5
-15 -9 -10 -9 -15 -1 -15 6 0 11 4 11 8 0 5 11 22 25 38 14 16 25 32 25 37 0
18 17 4 34 -28 11 -19 22 -35 27 -35 6 0 49 -74 49 -85 0 -3 -7 -5 -15 -5 -8
0 -15 -4 -15 -10 0 -5 7 -7 15 -4 9 4 15 0 15 -10 0 -13 13 -15 88 -12 48 2
97 6 109 9 11 3 42 9 67 12 26 4 49 11 52 16 3 5 13 9 23 9 18 0 51 29 51 46
0 5 -4 3 -9 -5 -13 -20 -31 -4 -31 29 0 27 25 50 32 29 4 -13 129 -15 1003
-23 358 -3 958 -9 1334 -12 441 -4 682 -3 678 3 -4 6 -46 35 -95 66 l-88 56
-170 21 c-190 22 -454 55 -1899 235 -555 69 -1068 132 -1140 141 -71 9 -139
22 -150 29 -11 7 -46 36 -78 64 -32 28 -61 51 -65 51 -4 0 -9 -10 -9 -22 -2
-16 0 -19 6 -9 7 10 24 -1 71 -45 34 -33 66 -60 71 -62 5 -2 9 -9 9 -15 0 -8
-4 -7 -12 1 -17 17 -28 15 -22 -5 5 -15 4 -15 -4 -3 -6 8 -8 18 -6 22 3 4 2 8
-3 9 -33 3 -50 11 -74 36 -14 15 -51 48 -80 73 -30 25 -66 56 -80 70 -70 68
-64 69 -78 -12z"/>
<path d="M16376 5617 c-42 -119 -122 -245 -149 -234 -8 3 -12 -7 -12 -28 0
-32 7 -42 80 -114 14 -13 22 -28 19 -32 -10 -18 36 -9 55 10 11 11 23 16 27
13 4 -4 5 1 1 10 -3 9 3 26 14 40 24 27 115 211 123 248 4 14 -3 5 -14 -20
-43 -95 -75 -150 -88 -150 -7 0 -12 -8 -10 -17 2 -11 -2 -17 -10 -15 -8 1 -11
-2 -7 -9 12 -19 -32 -50 -60 -43 -14 3 -25 11 -25 16 0 5 -10 18 -22 28 -13
10 -19 22 -15 26 4 5 13 2 18 -6 9 -13 10 -13 6 0 -2 8 -10 16 -18 16 -8 1
-18 2 -22 3 -4 0 -3 10 3 21 6 12 16 18 23 14 7 -4 9 -4 5 1 -4 4 3 28 16 54
33 66 90 211 84 216 -2 3 -12 -19 -22 -48z"/>
</g>
</svg>
