<?xml version="1.0" encoding="utf-8" ?>
<svg xmlns="http://www.w3.org/2000/svg" xmlns:xlink="http://www.w3.org/1999/xlink" width="1365" height="1024">
	<path fill="#FEFEFE" d="M0 0L1363.83 0C1366 3.79054 1365 11.8007 1365 16.2249L1365.01 810.316L1365 969.913C1365 977.573 1366.16 1017.87 1364.59 1022.54C1364.42 1023.05 1364.09 1023.55 1363.83 1024L0 1024L0 0ZM376.941 119.59C331.854 124.445 295.395 162.766 268.474 196.126C232.056 241.255 203.041 302.603 178.766 355.216C167.645 379.319 157.152 405.652 142.921 428.104C133.199 415.371 120.669 408.055 104.652 405.975C90.1527 404.092 73.6124 407.054 61.9689 416.296C54.7949 421.99 49.5966 429.76 48.5716 438.994Q48.4825 439.807 48.4337 440.624Q48.3848 441.441 48.3763 442.259Q48.3678 443.078 48.3997 443.895Q48.4315 444.713 48.5037 445.528Q48.5759 446.343 48.6882 447.154Q48.8004 447.964 48.9526 448.768Q49.1047 449.572 49.2963 450.368Q49.4879 451.163 49.7185 451.949Q49.9491 452.734 50.2182 453.507Q50.4872 454.279 50.794 455.038Q51.1009 455.796 51.4448 456.539Q51.7887 457.281 52.1688 458.006Q52.5488 458.731 52.9642 459.436Q53.3796 460.141 53.8292 460.824Q54.2789 461.508 54.7617 462.168Q55.2445 462.829 55.7593 463.465C62.2812 471.58 71.924 476.309 82.208 477.329C98.4994 478.946 114.261 471.911 126.608 461.696C132.299 456.988 137.168 451.562 141.868 445.894C149.082 471.131 141.34 496.268 129.041 518.464C95.8278 578.404 19.6241 657.824 40.7632 731.858C47.46 755.312 64.1469 773.22 85.2136 784.814C129.943 809.432 184.568 806.377 232.102 792.433C282.316 777.703 328.901 750.479 374.211 724.867C457.259 677.923 541.524 633.141 637.243 619.507C690.247 611.958 745.098 617.405 792.668 643.391C809.854 652.779 824.531 664.572 837.508 679.229C844.328 686.93 850.481 695.291 856.305 703.768C858.939 707.602 861.433 712.739 864.652 716.037C865.712 717.122 867.659 718.141 869.156 718.368C869.887 718.479 870.61 718.354 871.332 718.255C872.295 717.442 872.649 717.31 872.74 715.959C873.248 708.367 844.668 673.473 838.535 667.176C799.309 626.9 739.633 607.924 684.358 607.327C619.658 606.628 552.314 626.259 493.48 652.441C459.294 667.655 426.542 684.975 393.871 703.159C314.593 747.283 215.126 814.003 120.07 788.802C101.043 783.758 82.9928 776.034 68.8905 761.822C53.1417 745.951 46.1161 726.219 46.373 704.091C46.5816 686.127 51.601 668.633 58.7112 652.246C68.3868 629.648 80.7891 609.178 94.2665 588.705C120.306 549.151 169.301 491.218 149.103 440.696Q148.444 439.055 147.689 437.455C166.994 407.237 182.826 367.822 198.444 335.05C230.078 268.674 292.125 146.844 369.826 129.732C385.749 126.226 402.03 128.612 415.757 137.636C431.101 147.724 440.138 165.594 443.597 183.23C446.765 199.38 445.634 217.388 442.348 233.452C421.814 228.206 401.257 227.414 382.448 238.591C365.278 248.794 352.64 266.388 347.728 285.703C344.669 297.729 344.979 311.302 351.506 322.182C355.447 328.751 361.449 333.598 368.944 335.417C379.099 337.883 389.254 334.819 397.905 329.395C426.147 311.686 440.995 274.876 449.359 244.18C510.466 264.005 566.585 295.131 626.445 318.057C660.144 330.964 693.797 342.196 729.19 349.509C858.576 376.245 995.268 354.229 1112.4 294.374C1148.25 276.057 1181.42 254.051 1213.34 229.599C1218.3 225.798 1230.47 218.095 1232.17 212.045C1232.61 210.495 1232.33 210.18 1231.67 208.795C1230.07 207.826 1228.46 207.102 1226.55 207.68C1225.02 208.144 1198.57 228.956 1193.75 232.559Q1175.96 245.848 1157.26 257.817Q1138.56 269.787 1119.04 280.374C989.944 348.75 842.933 370.609 700.831 333.172C656.111 321.39 613.153 303.636 571.09 284.617C532.007 266.946 492.884 247.423 451.515 235.616C456.081 204.503 457.281 172.829 437.536 145.98Q436.588 144.67 435.575 143.408Q434.563 142.147 433.489 140.938Q432.415 139.728 431.282 138.574Q430.148 137.42 428.959 136.324Q427.77 135.228 426.527 134.192Q425.285 133.157 423.992 132.185Q422.7 131.213 421.36 130.307Q420.021 129.4 418.638 128.562Q417.255 127.723 415.832 126.955Q414.408 126.187 412.949 125.491Q411.489 124.794 409.996 124.172Q408.504 123.549 406.982 123.002Q405.46 122.455 403.913 121.984Q402.366 121.514 400.797 121.121Q399.228 120.728 397.642 120.414Q396.055 120.1 394.455 119.866C388.811 119.058 382.618 119.018 376.941 119.59ZM746.192 388.203C740.093 389.435 734.532 391.977 731.076 397.444Q730.829 397.843 730.602 398.253Q730.375 398.664 730.169 399.086Q729.963 399.507 729.779 399.939Q729.595 400.37 729.432 400.811Q729.27 401.251 729.13 401.699Q728.99 402.146 728.872 402.601Q728.755 403.055 728.661 403.515Q728.566 403.974 728.495 404.438Q728.424 404.902 728.377 405.369Q728.329 405.835 728.305 406.304Q728.281 406.773 728.281 407.242Q728.28 407.711 728.303 408.18Q728.327 408.648 728.373 409.115Q728.42 409.582 728.49 410.046Q728.56 410.51 728.654 410.97Q728.747 411.429 728.864 411.884Q728.98 412.342 729.118 412.793Q729.257 413.244 729.418 413.688Q729.579 414.132 729.763 414.567Q729.946 415.002 730.151 415.427Q730.357 415.852 730.583 416.267Q730.809 416.681 731.057 417.083Q731.304 417.486 731.571 417.875Q731.838 418.264 732.124 418.64Q732.411 419.015 732.716 419.375Q733.021 419.735 733.344 420.08Q733.666 420.424 734.006 420.752Q734.346 421.08 734.702 421.39Q735.058 421.7 735.429 421.992Q735.8 422.283 736.186 422.556Q736.571 422.828 736.97 423.081Q737.369 423.334 737.78 423.566C743.031 426.586 749.21 426.986 755.118 426.303C761.2 424.766 766.517 422.636 769.911 417.002C772.53 412.656 773.07 407.364 771.673 402.518C770.197 397.399 766.592 393.22 761.899 390.759C756.88 388.126 751.739 387.904 746.192 388.203ZM445.025 389.572C438.38 390.264 432.565 391.81 428.196 397.303Q427.656 397.987 427.186 398.721Q426.717 399.455 426.322 400.233Q425.928 401.01 425.613 401.823Q425.298 402.635 425.065 403.475Q424.833 404.315 424.685 405.174Q424.537 406.033 424.475 406.903Q424.413 407.772 424.438 408.643Q424.463 409.515 424.574 410.379Q424.631 410.838 424.712 411.294Q424.792 411.75 424.896 412.201Q424.999 412.652 425.125 413.097Q425.251 413.542 425.399 413.981Q425.547 414.419 425.718 414.849Q425.888 415.28 426.08 415.701Q426.271 416.122 426.484 416.533Q426.697 416.944 426.93 417.344Q427.163 417.743 427.416 418.131Q427.669 418.518 427.942 418.892Q428.214 419.266 428.505 419.626Q428.796 419.986 429.104 420.331Q429.413 420.676 429.739 421.004Q430.065 421.333 430.406 421.645Q430.748 421.957 431.105 422.251Q431.462 422.545 431.834 422.821C436.538 426.361 441.619 427.131 447.351 427.484C454.029 426.342 459.679 424.701 463.724 418.793C466.534 414.688 467.473 409.503 466.525 404.64Q466.44 404.196 466.332 403.756Q466.224 403.317 466.093 402.884Q465.963 402.45 465.811 402.024Q465.659 401.598 465.485 401.18Q465.311 400.762 465.117 400.354Q464.922 399.946 464.707 399.548Q464.492 399.15 464.256 398.763Q464.021 398.377 463.766 398.003Q463.512 397.629 463.239 397.268Q462.965 396.907 462.674 396.561Q462.383 396.215 462.074 395.884Q461.765 395.553 461.44 395.239Q461.115 394.924 460.775 394.626Q460.434 394.328 460.079 394.048Q459.723 393.768 459.354 393.507Q458.985 393.245 458.603 393.003C454.397 390.277 449.899 389.723 445.025 389.572ZM644.026 392.245C640.617 392.809 637.214 393.532 635.096 396.577C633.685 398.605 633.333 401.205 633.186 403.616C631.946 423.95 633.261 447.424 633.247 468.09L633.219 515.27C633.211 525.985 632.075 537.734 634.499 548.196C636.597 557.254 641.78 565.192 649.818 570.03C659.848 576.066 673.523 577.104 684.731 574.282C687.625 573.554 690.559 572.566 693.289 571.357C697.145 569.356 700.693 567.246 703.945 564.343Q702.568 558.683 700.668 553.176Q698.768 547.67 696.361 542.365C690.917 545.003 683.798 547.939 677.662 545.945C674.958 545.067 673.545 543.47 672.394 540.94C670.921 537.703 670.322 533.749 670.061 530.228C669.209 518.717 669.842 506.776 669.841 495.21L669.852 428.399C669.86 419.486 671.289 408.14 668.989 399.594C668.177 396.576 666.424 394.782 663.549 393.56C657.853 391.138 650.093 392.126 644.026 392.245ZM588.244 442.819C571.228 445.67 557.068 456.857 546.907 470.458C545.431 462.632 544.787 451.558 537.817 446.423C533.386 443.16 526.418 442.903 521.168 443.882C518.675 444.348 515.639 445.307 514.066 447.458C513.035 448.869 513.118 450.623 513.048 452.307C512.599 463.045 513.315 473.977 513.313 484.738L513.221 562.155C513.204 565.305 512.92 568.387 515.2 570.892C518.988 575.056 525.776 575.664 531.07 575.645C536.094 575.627 542.269 575.147 546.08 571.454C547.617 569.964 548.231 567.915 548.555 565.85C549.282 561.219 548.85 556.212 548.797 551.53C548.662 539.707 547.885 527.526 548.888 515.754C549.336 510.502 550.402 505.259 552.609 500.447C563.508 476.678 596.224 475.971 597.764 472.346C599.401 468.495 598.831 461.788 598.743 457.681C598.656 453.629 598.549 447.387 595.618 444.245C594.093 442.61 592.37 442.642 590.298 442.714Q589.27 442.751 588.244 442.819ZM893.476 442.917C875.491 444.65 863.752 453.328 852.457 467.014L852.07 467.488C851.486 460.931 851.618 451.673 846.282 446.996C841.328 442.654 831.675 443.287 825.44 443.961C823.334 444.189 820.753 445.082 819.47 446.884C817.96 449.004 817.793 452.883 817.627 455.423C816.283 475.931 817.431 497.277 817.457 517.847C817.472 528.922 815.893 557.546 818.377 567.214C819.062 569.881 820.139 571.661 822.631 572.945C827.561 575.484 841.848 575.642 847.006 573.568C849.604 572.523 851.056 570.388 851.99 567.83C853.965 562.422 853.414 555.973 853.412 550.297L853.383 524.49C853.37 508.9 852.621 494.009 863.985 481.821C871.186 475.804 879.423 472.087 888.998 472.931C896.229 473.568 903.215 476.996 907.834 482.627C911.198 486.728 913.28 491.789 914.394 496.941C917.24 510.101 915.754 537.03 915.555 551.567C915.477 557.235 914.382 565.361 917.415 570.403C919.355 573.627 923.061 574.57 926.564 574.959C932.748 575.647 942.503 576.102 947.608 571.855C950.499 569.45 951.189 565.134 951.406 561.563C951.987 551.993 951.288 542.082 951.347 532.456C951.501 507.336 954.699 478.455 936.516 458.268C926.943 447.64 913.723 443.393 899.744 442.8C897.647 442.711 895.569 442.777 893.476 442.917ZM1047.91 442.99C1028.24 446.249 1011.69 454.729 999.822 471.298C989.278 486.022 985.739 504.574 988.737 522.325Q989.018 523.91 989.376 525.478Q989.735 527.047 990.169 528.597Q990.604 530.146 991.114 531.673Q991.623 533.199 992.207 534.699Q992.791 536.198 993.447 537.667Q994.104 539.137 994.831 540.572Q995.558 542.008 996.355 543.406Q997.151 544.804 998.016 546.161Q998.88 547.519 999.809 548.833Q1000.74 550.146 1001.73 551.413Q1002.72 552.68 1003.78 553.896Q1004.83 555.113 1005.94 556.277Q1007.05 557.44 1008.22 558.548Q1009.39 559.656 1010.61 560.706Q1011.82 561.755 1013.09 562.744Q1014.36 563.733 1015.68 564.658C1033.9 577.458 1056.98 580.241 1078.49 576.293C1090.27 574.129 1108.09 566.781 1115.08 556.467C1116.29 554.674 1117.09 552.481 1116.56 550.308C1115.48 545.842 1106.25 539.64 1102.17 537.619C1101.21 537.144 1100.23 536.81 1099.2 536.53C1097.91 536.252 1097.68 536.15 1096.5 536.92C1093.88 538.62 1091.88 541.456 1089.32 543.352C1079.53 550.587 1066.43 553.463 1054.45 551.631C1044.63 550.129 1035.35 544.836 1029.46 536.767C1025.91 531.904 1024.21 526.75 1022.92 520.928Q1052.44 520.814 1081.96 521.138C1092.66 521.193 1104.03 521.917 1114.64 520.796C1117.24 520.523 1120.72 520.085 1122.69 518.254C1125.53 515.614 1125.99 511.412 1125.91 507.746C1125.5 490.137 1117.79 472.409 1104.83 460.459C1089.4 446.234 1070.95 441.822 1050.49 442.803Q1049.2 442.852 1047.91 442.99ZM444.948 444.277C440.298 444.681 433.827 444.768 430.483 448.583C428.8 450.503 428.583 454.417 428.422 456.895C427.018 478.499 428.319 501.977 428.279 523.78C428.256 536.651 426.586 552.675 428.163 565.086C428.543 568.078 429.192 570.722 431.776 572.58C436.136 575.714 443.242 575.238 448.352 575.315C452.781 574.892 459.219 574.889 462.225 570.996C463.802 568.953 464.051 565.752 464.203 563.242C465.089 548.696 464.02 533.564 464.049 518.945L464.085 474.752C464.062 467.213 464.744 458.917 463.341 451.528C462.902 449.217 462.267 447.962 460.333 446.615C456.186 443.729 449.799 444.006 444.948 444.277ZM306.118 444.92C289.111 446.729 271.507 451.498 258.341 462.912C262.152 470.532 266.31 479.265 272.018 485.609C286.313 475.831 305.874 469.693 323.232 472.896C330.443 474.226 337.494 477.53 341.759 483.714C345.87 489.673 346.033 496.099 346.077 503.087C321.986 498.884 286.973 494.488 265.727 509.212C258.877 513.959 254.176 520.786 252.8 529.065C251.111 539.232 252.756 549.291 258.992 557.629Q259.624 558.47 260.305 559.272C271.571 570.811 285.435 575.898 301.497 576.035C319.757 576.191 335.159 568.831 348.104 556.297C348.74 561.367 348.736 569.052 353.061 572.466C357.474 575.95 368.253 575.558 373.63 574.623C376.652 574.098 378.895 573.126 380.767 570.659C382.098 565.953 381.964 495.466 380.945 486.557C380.286 480.796 378.769 475.242 375.888 470.181C369.009 458.102 355.892 450.586 342.785 447.152C331.628 444.229 317.637 443.238 306.118 444.92ZM737.696 444.842C734.767 446.373 732.765 447.579 731.75 450.924C730.048 456.538 730.594 546.848 731.221 558.651C731.415 562.298 731.689 566.687 733.245 570.026C737.61 574.216 743.391 574.82 749.185 574.73C752.86 574.673 756.544 574.428 760.152 573.71C762.912 572.37 765.495 570.979 766.554 567.88C768.109 563.334 767.78 469.302 767.233 458.697C767.092 455.981 766.848 450.207 765.329 447.971C763.14 444.749 756.424 444.201 752.837 444.228C747.813 444.265 742.704 444.437 737.696 444.842ZM917.903 592.211C909.852 593.364 895.385 596.661 890.239 603.651C889.445 604.73 888.638 606.751 888.996 608.116C891.12 616.228 997.86 684.907 1012.26 697.613C975.11 717.132 938.961 738.214 902.425 758.824C882.662 747.795 857.905 729.352 837.938 721.311C827.282 717.019 814.547 714.181 803.2 717.305C798.535 718.589 791.133 722.26 788.548 726.49C788.023 727.35 787.98 728.114 787.938 729.095C791.092 736.541 796.635 743.732 800.914 750.621C810.485 766.031 820.46 781.445 829.476 797.165C824.094 800.062 815.667 804.258 813.821 810.673C813.176 812.916 813.441 815.218 814.649 817.224C817.589 822.11 824.629 823.897 829.844 824.975Q836.562 826.303 843.375 826.994C838.533 834.117 825.085 851.65 826.406 859.972C826.561 860.946 827.084 861.671 827.628 862.466C830.793 864.431 834.343 863.844 837.798 863.001C855.58 858.666 871.638 833.39 885.204 820.935C939.518 816.531 988.349 805.623 1039.34 786.424C1045.33 784.168 1058.81 779.975 1063.2 775.571C1063.29 775.48 1063.36 775.368 1063.44 775.266C1064.5 776.524 1065.07 777.811 1065.47 779.393C1067.45 787.26 1078.58 847.622 1078.1 851.7C1078.03 852.218 1077.92 852.49 1077.77 853.013C1077.94 853.255 1078.13 853.492 1078.3 853.74C1079.5 855.527 1079.86 858.657 1080.29 860.791C1082.99 874.252 1081.27 900.071 1097.08 903.915C1104.48 905.716 1113.06 902.589 1119.25 898.615C1131.6 890.693 1133.83 877.162 1136.62 863.781C1138.43 855.127 1148.29 801.019 1147.14 795.76C1158.26 802.067 1164.85 803.091 1177.36 799.697C1190.12 796.236 1209.48 788.238 1216.14 776.227C1219.88 769.483 1219.98 761.457 1217.85 754.174C1214.98 744.33 1207.1 734.742 1198.05 729.967C1192.58 727.082 1183.48 726.113 1179.28 722.858C1179.38 721.787 1179.15 721.879 1180.08 721.11C1184.51 717.454 1198.82 713.33 1204.88 710.862C1244.59 694.674 1292.49 679.661 1320.97 645.702C1325.48 640.316 1330.4 633.693 1331.33 626.497C1332.03 621.03 1330.41 615.956 1326.98 611.722C1322.38 606.022 1315.25 601.774 1307.89 601.108C1301.94 600.569 1295.87 601.91 1289.95 601.002C1279.83 599.448 1270.59 595.266 1260.25 594.433C1231.44 592.114 1197.51 607.195 1171.73 618.855C1163.72 622.478 1138.39 635.333 1132.37 636.657C1131.31 630.42 1122 619.655 1116.85 616.017C1111.88 612.503 1106.34 611.303 1100.36 612.444C1089.06 614.599 1078.4 622.05 1071.49 631.09C1045.4 622.613 1018.81 615.456 992.413 607.974C975.116 603.071 957.549 597.13 939.905 593.737C932.847 592.38 925.056 591.242 917.903 592.211Z"/>
	<path fill="#1E293A" d="M142.921 428.104C157.152 405.652 167.645 379.319 178.766 355.216C203.041 302.603 232.056 241.255 268.474 196.126C295.395 162.766 331.854 124.445 376.941 119.59C382.618 119.018 388.811 119.058 394.455 119.866Q396.055 120.1 397.642 120.414Q399.228 120.728 400.797 121.121Q402.366 121.514 403.913 121.984Q405.46 122.455 406.982 123.002Q408.504 123.549 409.996 124.172Q411.489 124.794 412.949 125.491Q414.408 126.187 415.832 126.955Q417.255 127.723 418.638 128.562Q420.021 129.4 421.36 130.307Q422.7 131.213 423.992 132.185Q425.285 133.157 426.527 134.192Q427.77 135.228 428.959 136.324Q430.148 137.42 431.282 138.574Q432.415 139.728 433.489 140.938Q434.563 142.147 435.575 143.408Q436.588 144.67 437.536 145.98C457.281 172.829 456.081 204.503 451.515 235.616C492.884 247.423 532.007 266.946 571.09 284.617C613.153 303.636 656.111 321.39 700.831 333.172C842.933 370.609 989.944 348.75 1119.04 280.374Q1138.56 269.787 1157.26 257.817Q1175.96 245.848 1193.75 232.559C1198.57 228.956 1225.02 208.144 1226.55 207.68C1228.46 207.102 1230.07 207.826 1231.67 208.795C1232.33 210.18 1232.61 210.495 1232.17 212.045C1230.47 218.095 1218.3 225.798 1213.34 229.599C1181.42 254.051 1148.25 276.057 1112.4 294.374C995.268 354.229 858.576 376.245 729.19 349.509C693.797 342.196 660.144 330.964 626.445 318.057C566.585 295.131 510.466 264.005 449.359 244.18C440.995 274.876 426.147 311.686 397.905 329.395C389.254 334.819 379.099 337.883 368.944 335.417C361.449 333.598 355.447 328.751 351.506 322.182C344.979 311.302 344.669 297.729 347.728 285.703C352.64 266.388 365.278 248.794 382.448 238.591C401.257 227.414 421.814 228.206 442.348 233.452C445.634 217.388 446.765 199.38 443.597 183.23C440.138 165.594 431.101 147.724 415.757 137.636C402.03 128.612 385.749 126.226 369.826 129.732C292.125 146.844 230.078 268.674 198.444 335.05C182.826 367.822 166.994 407.237 147.689 437.455Q148.444 439.055 149.103 440.696C169.301 491.218 120.306 549.151 94.2665 588.705C80.7891 609.178 68.3868 629.648 58.7112 652.246C51.601 668.633 46.5816 686.127 46.373 704.091C46.1161 726.219 53.1417 745.951 68.8905 761.822C82.9928 776.034 101.043 783.758 120.07 788.802C215.126 814.003 314.593 747.283 393.871 703.159C426.542 684.975 459.294 667.655 493.48 652.441C552.314 626.259 619.658 606.628 684.358 607.327C739.633 607.924 799.309 626.9 838.535 667.176C844.668 673.473 873.248 708.367 872.74 715.959C872.649 717.31 872.295 717.442 871.332 718.255C870.61 718.354 869.887 718.479 869.156 718.368C867.659 718.141 865.712 717.122 864.652 716.037C861.433 712.739 858.939 707.602 856.305 703.768C850.481 695.291 844.328 686.93 837.508 679.229C824.531 664.572 809.854 652.779 792.668 643.391C745.098 617.405 690.247 611.958 637.243 619.507C541.524 633.141 457.259 677.923 374.211 724.867C328.901 750.479 282.316 777.703 232.102 792.433C184.568 806.377 129.943 809.432 85.2136 784.814C64.1469 773.22 47.46 755.312 40.7632 731.858C19.6241 657.824 95.8278 578.404 129.041 518.464C141.34 496.268 149.082 471.131 141.868 445.894C137.168 451.562 132.299 456.988 126.608 461.696C114.261 471.911 98.4994 478.946 82.208 477.329C71.924 476.309 62.2812 471.58 55.7593 463.465Q55.2445 462.829 54.7617 462.168Q54.2789 461.508 53.8292 460.824Q53.3796 460.141 52.9642 459.436Q52.5488 458.731 52.1688 458.006Q51.7887 457.281 51.4448 456.539Q51.1009 455.796 50.794 455.038Q50.4872 454.279 50.2181 453.507Q49.9491 452.734 49.7185 451.949Q49.4879 451.164 49.2963 450.368Q49.1047 449.572 48.9526 448.768Q48.8004 447.964 48.6881 447.154Q48.5759 446.343 48.5037 445.528Q48.4315 444.713 48.3997 443.895Q48.3678 443.078 48.3763 442.259Q48.3848 441.441 48.4337 440.624Q48.4825 439.807 48.5716 438.994C49.5966 429.76 54.7949 421.99 61.9689 416.296C73.6124 407.054 90.1527 404.092 104.652 405.975C120.669 408.055 133.199 415.371 142.921 428.104ZM411.026 238.92C394.51 240.763 380.657 247.993 370.175 261.014C360.392 273.167 353.641 289.881 355.527 305.689C356.301 312.17 358.838 318.999 364.028 323.23C368.709 327.047 374.464 327.869 380.3 327.124C381.666 326.95 382.991 326.66 384.314 326.28C406.227 317.628 421.263 293.54 430.309 272.694C434.621 262.758 437.648 252.415 440.633 242.022C430.724 239.916 421.228 238.035 411.026 238.92ZM88.4634 414.831C78.2446 416.605 68.1571 420.121 61.8703 428.901C58.0809 434.193 56.5196 440.621 57.6523 447.045C58.8613 453.901 63.1855 459.835 68.9139 463.67C76.9336 469.04 86.3204 469.723 95.5689 467.756C98.8865 467.051 102.079 465.897 105.265 464.75C119.432 457.83 128.644 448.531 138.166 436.232C129.14 424.288 120.413 417.014 105.049 414.912C99.5439 414.158 93.9826 414.35 88.4634 414.831Z"/>
	<path fill="#FEFEFE" d="M384.314 326.28C382.991 326.66 381.666 326.95 380.3 327.124C374.464 327.869 368.709 327.047 364.028 323.23C358.838 318.999 356.301 312.17 355.527 305.689C353.641 289.881 360.392 273.167 370.175 261.014C380.657 247.993 394.51 240.763 411.026 238.92C421.228 238.035 430.724 239.916 440.633 242.022C437.648 252.415 434.621 262.758 430.309 272.694C421.263 293.54 406.227 317.628 384.314 326.28Z"/>
	<path fill="#1E293A" d="M755.118 426.303C749.21 426.986 743.031 426.586 737.78 423.566Q737.369 423.334 736.97 423.081Q736.571 422.828 736.186 422.556Q735.8 422.283 735.429 421.992Q735.058 421.7 734.702 421.39Q734.346 421.08 734.006 420.752Q733.666 420.424 733.344 420.08Q733.021 419.735 732.716 419.375Q732.411 419.015 732.124 418.64Q731.838 418.264 731.571 417.875Q731.304 417.486 731.057 417.083Q730.809 416.681 730.583 416.267Q730.357 415.852 730.151 415.427Q729.946 415.002 729.763 414.567Q729.579 414.132 729.418 413.688Q729.257 413.244 729.118 412.793Q728.98 412.342 728.864 411.884Q728.747 411.429 728.654 410.97Q728.56 410.51 728.49 410.046Q728.42 409.582 728.373 409.115Q728.327 408.648 728.303 408.18Q728.28 407.711 728.281 407.242Q728.281 406.773 728.305 406.304Q728.329 405.835 728.377 405.369Q728.424 404.902 728.495 404.438Q728.566 403.974 728.661 403.515Q728.755 403.055 728.872 402.601Q728.99 402.146 729.13 401.699Q729.27 401.251 729.432 400.811Q729.595 400.37 729.779 399.939Q729.963 399.507 730.169 399.086Q730.375 398.664 730.602 398.253Q730.829 397.843 731.076 397.444C734.532 391.977 740.093 389.435 746.192 388.203C751.739 387.904 756.88 388.126 761.899 390.759C766.592 393.22 770.197 397.399 771.673 402.518C773.07 407.364 772.53 412.656 769.911 417.002C766.517 422.636 761.2 424.766 755.118 426.303Z"/>
	<path fill="#1E293A" d="M447.351 427.484C441.619 427.131 436.538 426.361 431.834 422.821Q431.462 422.545 431.105 422.251Q430.748 421.957 430.406 421.645Q430.065 421.333 429.739 421.004Q429.413 420.676 429.104 420.331Q428.796 419.986 428.505 419.626Q428.214 419.266 427.942 418.892Q427.669 418.518 427.416 418.131Q427.163 417.743 426.93 417.344Q426.697 416.944 426.484 416.533Q426.271 416.122 426.08 415.701Q425.888 415.28 425.718 414.849Q425.547 414.419 425.399 413.981Q425.251 413.542 425.125 413.097Q424.999 412.652 424.896 412.201Q424.792 411.75 424.712 411.294Q424.631 410.838 424.574 410.379Q424.463 409.515 424.438 408.643Q424.413 407.772 424.475 406.903Q424.537 406.033 424.685 405.174Q424.833 404.315 425.065 403.475Q425.298 402.635 425.613 401.823Q425.928 401.01 426.322 400.233Q426.717 399.455 427.186 398.721Q427.656 397.987 428.196 397.303C432.565 391.81 438.38 390.264 445.025 389.572C449.899 389.723 454.397 390.277 458.603 393.003Q458.985 393.245 459.354 393.507Q459.723 393.768 460.079 394.048Q460.434 394.328 460.775 394.626Q461.115 394.924 461.44 395.239Q461.765 395.553 462.074 395.884Q462.383 396.215 462.674 396.561Q462.965 396.907 463.239 397.268Q463.512 397.629 463.766 398.003Q464.021 398.377 464.256 398.763Q464.492 399.15 464.707 399.548Q464.922 399.946 465.117 400.354Q465.311 400.762 465.485 401.18Q465.659 401.598 465.811 402.024Q465.963 402.45 466.093 402.884Q466.224 403.317 466.332 403.756Q466.44 404.196 466.525 404.64C467.473 409.503 466.534 414.688 463.724 418.793C459.679 424.701 454.029 426.342 447.351 427.484Z"/>
	<path fill="#1E293A" d="M693.289 571.357C690.559 572.566 687.625 573.554 684.731 574.282C673.523 577.104 659.848 576.066 649.818 570.03C641.78 565.192 636.597 557.254 634.499 548.196C632.075 537.734 633.211 525.985 633.219 515.27L633.247 468.09C633.261 447.424 631.946 423.95 633.186 403.616C633.333 401.205 633.685 398.605 635.096 396.577C637.214 393.532 640.617 392.809 644.026 392.245C650.093 392.126 657.853 391.138 663.549 393.56C666.424 394.782 668.177 396.576 668.989 399.594C671.289 408.14 669.86 419.486 669.852 428.399L669.841 495.21C669.842 506.776 669.209 518.717 670.061 530.228C670.322 533.749 670.921 537.703 672.394 540.94C673.545 543.47 674.958 545.067 677.662 545.945C683.798 547.939 690.917 545.003 696.361 542.365Q698.768 547.67 700.668 553.176Q702.568 558.683 703.945 564.343C700.693 567.246 697.145 569.356 693.289 571.357Z"/>
	<path fill="#FEFEFE" d="M105.265 464.75C102.079 465.897 98.8865 467.051 95.5689 467.756C86.3204 469.723 76.9336 469.04 68.9139 463.67C63.1855 459.835 58.8613 453.901 57.6523 447.045C56.5196 440.621 58.0809 434.193 61.8703 428.901C68.1571 420.121 78.2446 416.605 88.4634 414.831C93.9826 414.35 99.5439 414.158 105.049 414.912C120.413 417.014 129.14 424.288 138.166 436.232C128.644 448.531 119.432 457.83 105.265 464.75Z"/>
	<path fill="#1E293A" d="M546.907 470.458C557.068 456.857 571.228 445.67 588.244 442.819Q589.27 442.751 590.298 442.714C592.37 442.642 594.093 442.61 595.618 444.245C598.549 447.387 598.656 453.629 598.743 457.681C598.831 461.788 599.401 468.495 597.764 472.346C596.224 475.971 563.508 476.678 552.609 500.447C550.402 505.259 549.336 510.502 548.888 515.754C547.885 527.526 548.662 539.707 548.797 551.53C548.85 556.212 549.282 561.219 548.555 565.85C548.231 567.915 547.617 569.964 546.08 571.454C542.269 575.147 536.094 575.627 531.07 575.645C525.776 575.664 518.988 575.056 515.2 570.892C512.92 568.387 513.204 565.305 513.221 562.155L513.313 484.738C513.315 473.977 512.599 463.045 513.048 452.307C513.118 450.623 513.035 448.869 514.066 447.458C515.639 445.307 518.675 444.348 521.168 443.882C526.418 442.903 533.386 443.16 537.817 446.423C544.787 451.558 545.431 462.632 546.907 470.458Z"/>
	<path fill="#1E293A" d="M852.07 467.488L852.457 467.014C863.752 453.328 875.491 444.65 893.476 442.917C895.569 442.777 897.647 442.711 899.744 442.8C913.723 443.393 926.943 447.64 936.516 458.268C954.699 478.455 951.501 507.336 951.347 532.456C951.288 542.082 951.987 551.993 951.406 561.563C951.189 565.134 950.499 569.45 947.608 571.855C942.503 576.102 932.748 575.647 926.564 574.959C923.061 574.57 919.355 573.627 917.415 570.403C914.382 565.361 915.477 557.235 915.555 551.567C915.754 537.03 917.24 510.101 914.394 496.941C913.28 491.789 911.198 486.728 907.834 482.627C903.215 476.996 896.229 473.568 888.998 472.931C879.423 472.087 871.186 475.804 863.985 481.821C852.621 494.009 853.37 508.9 853.383 524.49L853.412 550.297C853.414 555.973 853.965 562.422 851.99 567.83C851.056 570.388 849.604 572.523 847.006 573.568C841.848 575.642 827.561 575.484 822.631 572.945C820.139 571.661 819.062 569.881 818.377 567.214C815.893 557.546 817.472 528.922 817.457 517.847C817.431 497.277 816.283 475.931 817.627 455.423C817.793 452.883 817.96 449.004 819.47 446.884C820.753 445.082 823.334 444.189 825.44 443.961C831.675 443.287 841.328 442.654 846.282 446.996C851.618 451.673 851.486 460.931 852.07 467.488Z"/>
	<path fill="#1E293A" d="M1099.2 536.53C1100.23 536.81 1101.21 537.144 1102.17 537.619C1106.25 539.64 1115.48 545.842 1116.56 550.308C1117.09 552.481 1116.29 554.674 1115.08 556.467C1108.09 566.781 1090.27 574.129 1078.49 576.293C1056.98 580.241 1033.9 577.458 1015.68 564.658Q1014.36 563.733 1013.09 562.744Q1011.82 561.755 1010.61 560.706Q1009.39 559.656 1008.22 558.548Q1007.05 557.44 1005.94 556.277Q1004.83 555.113 1003.78 553.896Q1002.72 552.68 1001.73 551.413Q1000.74 550.146 999.809 548.833Q998.88 547.519 998.016 546.161Q997.152 544.804 996.355 543.406Q995.558 542.008 994.831 540.572Q994.104 539.137 993.447 537.667Q992.791 536.198 992.207 534.699Q991.623 533.199 991.114 531.673Q990.604 530.146 990.169 528.597Q989.735 527.047 989.377 525.478Q989.018 523.91 988.737 522.325C985.739 504.574 989.278 486.022 999.822 471.298C1011.69 454.729 1028.24 446.249 1047.91 442.99Q1049.2 442.852 1050.49 442.803C1070.95 441.822 1089.4 446.234 1104.83 460.459C1117.79 472.409 1125.5 490.137 1125.91 507.746C1125.99 511.412 1125.53 515.614 1122.69 518.254C1120.72 520.085 1117.24 520.523 1114.64 520.796C1104.03 521.917 1092.66 521.193 1081.96 521.138Q1052.44 520.814 1022.92 520.928C1024.21 526.75 1025.91 531.904 1029.46 536.767C1035.35 544.836 1044.63 550.129 1054.45 551.631C1066.43 553.463 1079.53 550.587 1089.32 543.352C1091.88 541.456 1093.88 538.62 1096.5 536.92C1097.68 536.15 1097.91 536.252 1099.2 536.53ZM1049.37 468.991C1039.21 472.248 1031.11 476.983 1026.1 486.781C1024.15 490.609 1023.02 494.691 1022.06 498.862Q1042.48 499.181 1062.91 499.209C1072.45 499.199 1082.1 499.498 1091.63 499.141C1092.88 494.717 1089.3 488.499 1087.17 484.752Q1086.77 484.054 1086.33 483.377Q1085.9 482.7 1085.43 482.046Q1084.96 481.391 1084.46 480.762Q1083.95 480.132 1083.42 479.528Q1082.89 478.925 1082.32 478.349Q1081.76 477.773 1081.17 477.226Q1080.58 476.679 1079.96 476.162Q1079.34 475.646 1078.7 475.161Q1078.06 474.676 1077.39 474.225Q1076.72 473.773 1076.04 473.355Q1075.35 472.938 1074.64 472.556Q1073.93 472.173 1073.2 471.827Q1072.48 471.481 1071.73 471.172Q1070.99 470.863 1070.23 470.591Q1069.47 470.32 1068.7 470.087Q1067.93 469.855 1067.15 469.661C1061.32 468.185 1055.31 468.291 1049.37 468.991Z"/>
	<path fill="#1E293A" d="M448.352 575.315C443.242 575.238 436.136 575.714 431.776 572.58C429.192 570.722 428.543 568.078 428.163 565.086C426.586 552.675 428.256 536.651 428.279 523.78C428.319 501.977 427.018 478.499 428.422 456.895C428.583 454.417 428.8 450.503 430.483 448.583C433.827 444.768 440.298 444.681 444.948 444.277C449.799 444.006 456.186 443.729 460.333 446.615C462.267 447.962 462.902 449.217 463.341 451.528C464.744 458.917 464.062 467.213 464.085 474.752L464.049 518.945C464.02 533.564 465.089 548.696 464.203 563.242C464.051 565.752 463.802 568.953 462.225 570.996C459.219 574.889 452.781 574.892 448.352 575.315Z"/>
	<path fill="#1E293A" d="M258.341 462.912C271.507 451.498 289.111 446.729 306.118 444.92C317.637 443.238 331.628 444.229 342.785 447.152C355.892 450.586 369.009 458.102 375.888 470.181C378.769 475.242 380.286 480.796 380.945 486.557C381.964 495.466 382.098 565.953 380.767 570.659C378.895 573.126 376.652 574.098 373.63 574.623C368.253 575.558 357.474 575.95 353.061 572.466C348.736 569.052 348.74 561.367 348.104 556.297C335.159 568.831 319.757 576.191 301.497 576.035C285.435 575.898 271.571 570.811 260.305 559.272Q259.624 558.47 258.992 557.629C252.756 549.291 251.111 539.232 252.8 529.065C254.176 520.786 258.877 513.959 265.727 509.212C286.973 494.488 321.986 498.884 346.077 503.087C346.033 496.099 345.87 489.673 341.759 483.714C337.494 477.53 330.443 474.226 323.232 472.896C305.874 469.693 286.313 475.831 272.018 485.609C266.31 479.265 262.152 470.532 258.341 462.912ZM312.641 517.584C304.75 518.466 296.149 520.012 290.839 526.582C288.563 529.398 287.29 532.991 287.667 536.628C288.121 541.012 290.65 544.745 294.142 547.325C301.624 552.855 312.511 553.563 321.392 552.067Q322.243 551.927 323.09 551.761C332.257 549.634 339.732 546.018 346.143 539.02Q346.389 529.738 346.189 520.454C335.727 517.753 323.412 516.162 312.641 517.584Z"/>
	<path fill="#1E293A" d="M760.152 573.71C756.544 574.428 752.86 574.673 749.185 574.73C743.391 574.82 737.61 574.216 733.245 570.026C731.689 566.687 731.415 562.298 731.221 558.651C730.594 546.848 730.048 456.538 731.75 450.924C732.765 447.579 734.767 446.373 737.696 444.842C742.704 444.437 747.813 444.265 752.837 444.228C756.424 444.201 763.14 444.749 765.329 447.971C766.848 450.207 767.092 455.981 767.233 458.697C767.78 469.302 768.109 563.334 766.554 567.88C765.495 570.979 762.912 572.37 760.152 573.71Z"/>
	<path fill="#FEFEFE" d="M1022.06 498.862C1023.02 494.691 1024.15 490.609 1026.1 486.781C1031.11 476.983 1039.21 472.248 1049.37 468.991C1055.31 468.291 1061.32 468.185 1067.15 469.661Q1067.93 469.855 1068.7 470.087Q1069.47 470.32 1070.23 470.591Q1070.99 470.863 1071.73 471.172Q1072.48 471.481 1073.2 471.827Q1073.93 472.173 1074.64 472.556Q1075.35 472.938 1076.04 473.355Q1076.72 473.773 1077.39 474.225Q1078.06 474.676 1078.7 475.161Q1079.34 475.646 1079.96 476.162Q1080.58 476.679 1081.17 477.226Q1081.76 477.773 1082.32 478.349Q1082.89 478.925 1083.42 479.528Q1083.95 480.132 1084.46 480.762Q1084.96 481.391 1085.43 482.046Q1085.9 482.7 1086.33 483.377Q1086.77 484.054 1087.17 484.752C1089.3 488.499 1092.88 494.717 1091.63 499.141C1082.1 499.498 1072.45 499.199 1062.91 499.209Q1042.48 499.181 1022.06 498.862Z"/>
	<path fill="#FEFEFE" d="M323.09 551.761Q322.243 551.927 321.392 552.067C312.511 553.563 301.624 552.855 294.142 547.325C290.65 544.745 288.121 541.012 287.667 536.628C287.29 532.991 288.563 529.398 290.839 526.582C296.149 520.012 304.75 518.466 312.641 517.584C323.412 516.162 335.727 517.753 346.189 520.454Q346.389 529.738 346.143 539.02C339.732 546.018 332.257 549.634 323.09 551.761Z"/>
	<path fill="#1E293A" d="M1012.26 697.613C997.86 684.907 891.12 616.228 888.996 608.116C888.638 606.751 889.445 604.73 890.239 603.651C895.385 596.661 909.852 593.364 917.903 592.211C925.056 591.242 932.847 592.38 939.905 593.737C957.549 597.13 975.116 603.071 992.413 607.974C1018.81 615.456 1045.4 622.613 1071.49 631.09C1078.4 622.05 1089.06 614.599 1100.36 612.444C1106.34 611.303 1111.88 612.503 1116.85 616.017C1122 619.655 1131.31 630.42 1132.37 636.657C1138.39 635.333 1163.72 622.478 1171.73 618.855C1197.51 607.195 1231.44 592.114 1260.25 594.433C1270.59 595.266 1279.83 599.448 1289.95 601.002C1295.87 601.91 1301.94 600.569 1307.89 601.108C1315.25 601.774 1322.38 606.022 1326.98 611.722C1330.41 615.956 1332.03 621.03 1331.33 626.497C1330.4 633.693 1325.48 640.316 1320.97 645.702C1292.49 679.661 1244.59 694.674 1204.88 710.862C1198.82 713.33 1184.51 717.454 1180.08 721.11C1179.15 721.879 1179.38 721.787 1179.28 722.858C1183.48 726.113 1192.58 727.082 1198.05 729.967C1207.1 734.742 1214.98 744.33 1217.85 754.174C1219.98 761.457 1219.88 769.483 1216.14 776.227C1209.48 788.238 1190.12 796.236 1177.36 799.697C1164.85 803.091 1158.26 802.067 1147.14 795.76C1148.29 801.019 1138.43 855.127 1136.62 863.781C1133.83 877.162 1131.6 890.693 1119.25 898.615C1113.06 902.589 1104.48 905.716 1097.08 903.915C1081.27 900.071 1082.99 874.252 1080.29 860.791C1079.86 858.657 1079.5 855.527 1078.3 853.74C1078.13 853.492 1077.94 853.255 1077.77 853.013C1077.92 852.49 1078.03 852.218 1078.1 851.7C1078.58 847.622 1067.45 787.26 1065.47 779.393C1065.07 777.811 1064.5 776.524 1063.44 775.266C1063.36 775.368 1063.29 775.48 1063.2 775.571C1058.81 779.975 1045.33 784.168 1039.34 786.424C988.349 805.623 939.518 816.531 885.204 820.935C871.638 833.39 855.58 858.666 837.798 863.001C834.343 863.844 830.793 864.431 827.628 862.466C827.084 861.671 826.561 860.946 826.406 859.972C825.085 851.65 838.533 834.117 843.375 826.994Q836.562 826.303 829.844 824.975C824.629 823.897 817.589 822.11 814.649 817.224C813.441 815.218 813.176 812.916 813.821 810.673C815.667 804.258 824.094 800.062 829.476 797.165C820.46 781.445 810.485 766.031 800.914 750.621C796.635 743.732 791.092 736.541 787.938 729.095C787.98 728.114 788.023 727.35 788.548 726.49C791.133 722.26 798.535 718.589 803.2 717.305C814.547 714.181 827.282 717.019 837.938 721.311C857.905 729.352 882.662 747.795 902.425 758.824C938.961 738.214 975.11 717.132 1012.26 697.613ZM1314.33 633.295C1314.13 633.42 1313.94 633.539 1313.75 633.669C1311.7 635.063 1311.94 635.996 1309.23 635.434C1309.11 635.41 1309 635.371 1308.88 635.34C1313.31 631.579 1318.19 623.711 1318.49 617.762C1318.59 615.786 1318.01 613.896 1316.61 612.466C1312.84 608.625 1305.41 608.425 1300.37 608.596C1296 608.744 1291.66 609.278 1287.3 609.551C1281.32 617.479 1273.09 629.582 1262.32 631.04C1259.1 631.476 1256.07 630.666 1253.5 628.675C1250.69 626.504 1248.61 623.047 1247.64 619.664C1247.81 617.389 1248.48 616.207 1250.19 614.673C1254.86 610.482 1261.58 608.373 1266.72 604.601L1266.37 603.886L1267.31 603.791C1254.45 597.593 1222.77 606.893 1209.43 611.549C1169.79 625.389 1131.18 645.776 1093.74 664.752C1062.34 680.673 1030.31 695.996 999.449 712.92Q952.458 738.931 905.885 765.685C890.723 774.487 875.927 783.939 860.64 792.524C850.613 798.156 829.111 804.305 822.572 811.375L822.068 813.121C823.676 815.763 828.193 816.58 831.029 817.267Q839.248 819.226 847.66 820.012L848.367 819.274C862.467 804.401 858.351 800.297 880.173 794.508C885.453 793.108 891.257 791.453 896.723 791.307C899.232 791.241 902.17 791.337 904.11 793.127C905.028 793.974 905.65 795.253 905.592 796.532C905.539 797.701 905.188 798.874 904.813 799.971L903.589 800.489C904.218 801.988 905.417 802.062 905.769 803.659C901.293 806.536 896.96 809.425 892.788 812.742C910.094 808.814 931.235 795.024 947.372 786.59C982.857 768.042 1018.93 750.315 1054.16 731.333L1103.11 705.37C1111.96 700.662 1121.42 694.56 1130.82 691.192C1134.44 689.895 1138.49 689.288 1142.05 691.122C1144.47 692.369 1146.08 694.694 1146.89 697.245C1147.83 700.186 1147.89 703.515 1147.63 706.571C1146.26 722.592 1125.81 867.525 1124 870.476C1120.13 876.807 1107 876.888 1100.42 878.824C1097.44 879.704 1093.24 881.121 1091.81 884.109C1090.95 885.893 1091.22 887.492 1091.86 889.284C1092.9 892.176 1094.39 894.9 1097.35 896.146C1101.61 897.935 1106.91 896.7 1111.01 894.993C1118.12 892.03 1122.72 887.663 1125.57 880.487C1131.5 865.537 1133.21 847.265 1136.08 831.441Q1143.65 789.368 1149.86 747.073C1151.81 733.558 1154.43 719.492 1154.89 705.836C1155.02 702.054 1154.63 698.15 1153 694.687C1151.13 690.719 1148.27 688.219 1144.17 686.696C1140.34 685.272 1136.75 685.048 1132.79 686.211C1118.11 690.522 1103.76 699.726 1090.07 706.518Q1044.46 729.377 999.242 752.984C984.103 760.941 969.215 769.755 953.778 777.083L952.805 776.827C951.625 777.243 950.604 777.581 949.356 777.745L949.063 776.328C950.003 775.725 950.937 775.146 951.921 774.614Q1003.9 746.769 1056.62 720.373C1078.94 708.922 1101.15 696.533 1123.89 685.987C1128.86 683.683 1150.69 673.735 1154.39 675.01C1156.04 675.58 1157.16 676.694 1157.8 678.318C1158.94 681.226 1158.44 685.743 1157.3 688.569C1166.41 687.135 1176.44 681.734 1184.84 677.943L1187.62 678.422L1188.29 679.41C1186.76 681.928 1162.82 690.81 1158.73 691.967C1161.08 694.555 1160.81 699.264 1162.23 702.552C1162.44 703.038 1162.34 703.032 1162.9 703.176C1166.17 704.029 1214.15 689.48 1220.04 687.339C1230.89 683.397 1242.72 678.858 1252.84 673.309L1255.23 673.641L1255.33 674.451L1250.92 677.574C1245.36 681.567 1236.98 684.317 1230.64 687.059L1181.36 708.079C1174.61 710.92 1166.54 713.34 1160.18 716.824C1159.2 717.363 1158.75 717.905 1158.24 718.921C1158.41 720.357 1158.3 720.549 1159.31 721.556C1164.21 720.387 1169.15 717.578 1173.83 715.586C1180.6 712.707 1187.48 710.064 1194.3 707.299C1233.46 691.418 1293.71 670.991 1319.11 636.167C1322.45 631.59 1325.06 626.745 1323.86 620.908C1323.52 619.276 1323.27 618.346 1321.9 617.454C1320.82 621.619 1319.12 630.343 1315.13 632.841C1314.87 633.005 1314.6 633.144 1314.33 633.295ZM1117.24 867.727C1118.15 866.551 1118.69 865.374 1119.02 863.92C1121.43 853.373 1122.55 842.238 1124.14 831.512Q1129.73 793.79 1134.04 755.9C1135.81 740.761 1139.23 725.433 1140.03 710.235C1140.19 707.3 1140.35 702.481 1138.59 700.005C1138.04 699.235 1137.9 699.125 1136.98 699.042C1131.14 698.513 1095.71 717.103 1089.84 721.431C1092.04 724.703 1093.64 734.165 1092.85 738.059C1092.77 738.45 1092.54 738.948 1092.4 739.296C1092.73 739.652 1092.9 739.801 1093.14 740.281C1095.52 745.203 1103.24 816.1 1104.6 826.686C1106.27 839.778 1108.7 852.953 1109.82 866.091C1109.93 867.333 1109.8 868.204 1109.51 869.401C1112.19 869.058 1114.73 868.823 1117.24 867.727ZM805.737 724.106C804.434 724.378 803.207 724.496 802.19 725.428L797.455 729.512L823.133 770.908C827.756 778.249 832.167 785.982 837.467 792.855C839.185 792.954 840.38 792.362 841.914 791.702C842.67 790.807 842.619 790.344 842.85 789.223Q844.307 789.852 845.747 790.517C850.628 790.634 886.818 768.372 894.436 763.896C868.425 749.188 836.142 722.128 805.737 724.106ZM1088.11 725.33L1088.36 723.282L1087.47 722.794C1085.1 723.594 1082.84 724.753 1080.46 725.463C1081.3 726.634 1081.56 727.428 1081.8 728.848C1083.54 739.2 1084.53 749.73 1086 760.13Q1091.99 805.578 1099.52 850.796C1100.09 854.179 1100.9 865.534 1102.01 867.954C1102.71 869.483 1103.59 869.571 1105.04 869.918C1105.8 869.572 1106.6 869.506 1106.88 868.64C1106.95 868.412 1092.39 753.036 1090.82 743.657C1090.57 742.154 1090.16 740.606 1089.5 739.229C1090.82 736.069 1089.33 728.496 1088.11 725.33ZM921.53 599.605C912.174 600.52 906.179 602.395 898.012 607.043C901.365 609.458 908.604 616.562 912.852 616.318L915.328 615.094C923.455 610.745 932.316 606.854 940.095 601.982C934.01 600.222 927.89 599.181 921.53 599.605ZM948.083 603.754L944.455 606.729L944.808 607.417C957.953 610.515 970.87 615.28 983.79 619.252L1066.89 644.906C1072.65 646.657 1092.9 653.885 1097.24 654.225C1097.98 654.284 1098.56 654.266 1099.2 653.869C1099.94 653.407 1100.69 653.01 1101.32 652.393C1103.12 651.659 1105.34 651.026 1106.37 649.257Q1048.44 631.006 989.872 614.929C980.617 612.328 956.362 604.354 948.083 603.754ZM937.69 609.276C937.48 610.273 937.095 610.732 937.684 611.637C939.224 614.005 1018.24 659.425 1028.09 665.14C1032.5 667.695 1048.07 675.695 1050.49 678.509C1057.76 675.15 1071.08 669.635 1077.1 665.207C1080.68 663.571 1090.32 660.251 1092.43 657.27C1086.49 653.245 1060.55 646.66 1052.54 644.225L996.081 626.779C978.952 621.497 962.006 615.486 944.789 610.505C942.46 609.831 940.128 609.245 937.69 609.276ZM933.119 612.795L927.777 616.722C939.82 623.993 1035.93 683.929 1039.74 684.079L1041.26 683.192C1043.28 682.419 1045.39 681.871 1046.85 680.212C1040.7 674.808 1029.45 670.019 1022.13 665.899C1001.51 654.296 981.234 641.987 960.871 629.937C953.048 625.308 939.488 618.788 933.119 612.795ZM1102.7 618.997C1103.03 619.742 1103.03 620.122 1103.72 620.567C1106.71 622.485 1109.85 625.918 1111.87 628.849C1113.94 631.866 1116.58 642.599 1120.11 643.052C1120.91 642.571 1121.91 642.128 1122.52 641.421L1125.05 640.518C1125.76 637.56 1123.75 634.59 1122.22 632.117C1119.2 627.206 1113.8 620.272 1107.89 618.876C1106.25 618.486 1104.34 618.613 1102.7 618.997ZM1092.11 621.66C1085.76 624.515 1082.19 628.578 1076.88 632.718C1078.92 633.319 1081.4 633.776 1083.22 634.871C1086.29 635.851 1089.41 636.733 1092.33 638.095C1093.26 635.909 1094.4 624.883 1094.84 621.777C1093.94 621.724 1093.02 621.629 1092.11 621.66ZM1169.99 722.997C1169.73 723.172 1169.47 723.353 1169.21 723.522C1165.14 726.122 1157.62 725.836 1156.6 731.349C1156.48 732.014 1156.58 732.745 1156.64 733.407C1157.71 733.472 1157.31 733.64 1157.93 733.188C1162.77 730.81 1168.58 728.601 1172.85 725.323L1173.18 724.143C1171.86 723.081 1171.7 723.112 1169.99 722.997ZM1181.77 731.664C1187.06 738.37 1203.71 772.69 1210.65 774.111C1211.09 773.226 1211.26 773.107 1211.21 772.079C1213.34 769.775 1213.56 766.438 1213.44 763.425C1213.09 754.49 1206.52 745.416 1200.02 739.777C1195.31 735.69 1188.69 731.276 1182.19 731.622C1182.05 731.629 1181.91 731.65 1181.77 731.664ZM1056.65 734.994C1040.11 744.784 1021.67 752.7 1004.37 761.158Q970.914 777.681 938.204 795.637C939.424 796.083 940.213 795.833 941.448 795.593C976.023 786.604 1010.02 777.438 1043.75 765.551C1048.71 763.802 1056.66 761.938 1060.75 758.793C1062.45 754.389 1059.43 740.061 1057.87 735.503L1056.65 734.994ZM1164.42 735.662C1161.7 738.38 1157.98 740.934 1156.05 744.247C1150.45 753.826 1153.12 776.646 1148.26 784.547C1148.37 784.646 1148.49 784.742 1148.6 784.842C1153.85 789.565 1156.58 795.758 1164.98 795.613C1168.36 795.555 1173.46 794.357 1176.51 792.912C1182.53 791.642 1190.76 789.034 1195.45 784.984C1195.29 784.858 1195.12 784.729 1194.96 784.604C1193.07 783.196 1190.63 782.694 1188.7 781.229C1180.92 775.309 1174.21 764.289 1171.3 755.076C1170.41 752.254 1167.74 736.089 1166.61 735.556C1166.34 735.427 1164.81 735.643 1164.42 735.662ZM1059.78 766.322C1055.02 770.388 1045.07 772.656 1039.04 774.758Q1013.35 783.797 987.154 791.208Q960.953 798.62 934.339 804.374C929.85 805.36 916.985 807.138 914.165 809.769L915.024 810.153C953.604 807.564 1010.84 790.587 1046.59 776.036C1050.17 774.577 1060.56 771.02 1062.5 767.991C1062.65 767.746 1062.75 767.469 1062.88 767.208L1061.29 766.382L1061.81 766.291L1059.78 766.322ZM896.483 798.219C890.401 799.525 884.369 800.866 878.374 802.536C874.424 807.466 857.046 828.198 856.678 832.894C857.314 834.358 857.966 835.617 858.87 836.934C868.285 829.759 888.739 808.159 896.826 798.895L896.483 798.219ZM853.053 836.976C852.284 838.585 851.309 839.72 851.838 841.487C853.058 841.95 854.03 842.259 855.342 842.405C856.298 840.986 856.89 840.606 856.731 838.864C855.468 837.934 854.544 837.463 853.053 836.976ZM851.179 845.712C846.975 846.067 842.944 846.098 838.731 845.876C837.317 848.664 835.53 851.555 835.097 854.686C835.356 855.254 835.525 855.809 835.977 856.25C842.015 854.289 847.45 851.416 851.543 846.419L851.179 845.712Z"/>
	<path fill="#FEFEFE" d="M898.012 607.043C906.179 602.395 912.174 600.52 921.53 599.605C927.89 599.181 934.01 600.222 940.095 601.982C932.316 606.854 923.455 610.745 915.328 615.094L912.852 616.318C908.604 616.562 901.365 609.458 898.012 607.043Z"/>
	<path fill="#FEFEFE" d="M1308.88 635.34C1305.67 640.591 1297.77 646.94 1292.35 650.022C1283.74 658.261 1263.96 668.892 1252.84 673.309C1242.72 678.858 1230.89 683.397 1220.04 687.339C1214.15 689.48 1166.17 704.029 1162.9 703.176C1162.34 703.032 1162.44 703.038 1162.23 702.552C1160.81 699.264 1161.08 694.555 1158.73 691.967C1162.82 690.81 1186.76 681.928 1188.29 679.41C1192.21 678.782 1195.76 676.859 1199.26 675.063C1203.68 672.798 1216.28 666.96 1217.75 662.393C1213.21 662.538 1191.64 675.126 1184.84 677.943C1176.44 681.734 1166.41 687.135 1157.3 688.569C1158.44 685.743 1158.94 681.226 1157.8 678.318C1157.16 676.694 1156.04 675.58 1154.39 675.01C1150.69 673.735 1128.86 683.683 1123.89 685.987C1101.15 696.533 1078.94 708.922 1056.62 720.373Q1003.9 746.768 951.921 774.614C950.937 775.146 950.003 775.725 949.063 776.328C942.462 779.452 908.528 799.532 904.813 799.971C905.188 798.874 905.539 797.701 905.592 796.532C905.65 795.253 905.028 793.974 904.11 793.127C902.17 791.337 899.232 791.241 896.723 791.307C891.257 791.453 885.453 793.108 880.173 794.508C858.351 800.297 862.467 804.401 848.367 819.274L847.66 820.012Q839.248 819.226 831.029 817.267C828.193 816.58 823.676 815.763 822.068 813.121L822.572 811.375C829.111 804.305 850.613 798.156 860.64 792.524C875.927 783.939 890.723 774.487 905.885 765.685Q952.458 738.931 999.449 712.92C1030.31 695.996 1062.34 680.673 1093.74 664.752C1131.18 645.776 1169.79 625.389 1209.43 611.549C1222.77 606.893 1254.45 597.593 1267.31 603.791L1266.37 603.886L1266.72 604.601C1261.58 608.373 1254.86 610.482 1250.19 614.673C1248.48 616.207 1247.81 617.389 1247.64 619.664C1248.61 623.047 1250.69 626.504 1253.5 628.675C1256.07 630.666 1259.1 631.476 1262.32 631.04C1273.09 629.582 1281.32 617.479 1287.3 609.551C1291.66 609.278 1296 608.744 1300.37 608.596C1305.41 608.425 1312.84 608.625 1316.61 612.466C1318.01 613.896 1318.59 615.786 1318.49 617.762C1318.19 623.711 1313.31 631.579 1308.88 635.34ZM1229.09 624.332C1225.39 626.648 1220.69 629.291 1219.69 633.907C1218.04 641.591 1226.59 655.007 1230.94 661.03C1233.56 664.668 1237.65 669.581 1242.26 670.48C1243.82 670.783 1245.68 670.648 1247.13 669.963C1250.89 669.006 1254.73 667.327 1256.72 663.789C1258.49 660.667 1258.43 656.981 1257.39 653.631C1254.81 645.3 1243.56 628.997 1235.87 624.887C1233.5 623.62 1231.68 623.929 1229.09 624.332ZM1200.7 643.665C1197.91 645.469 1195.69 647.142 1194.97 650.612C1194.45 653.134 1194.76 656.157 1196.2 658.337C1197.67 660.541 1200.03 661.624 1202.59 662.006C1203.74 662.178 1204.77 661.993 1205.88 661.716C1208.64 661.04 1211.22 659.779 1212.72 657.234Q1212.93 656.88 1213.1 656.507Q1213.27 656.134 1213.41 655.745Q1213.54 655.357 1213.63 654.957Q1213.73 654.557 1213.78 654.149Q1213.83 653.742 1213.85 653.331Q1213.86 652.92 1213.83 652.51Q1213.8 652.101 1213.73 651.696Q1213.66 651.291 1213.55 650.895C1212.8 648.103 1210.71 645.69 1208.12 644.437C1205.64 643.233 1203.35 643.376 1200.7 643.665ZM1174.04 656.998C1171.03 659.035 1168.41 660.835 1167.76 664.707C1167.31 667.379 1167.36 670.263 1169.09 672.491C1170.57 674.407 1173.7 675.265 1176.06 675.269C1176.6 675.271 1176.78 675.167 1177.23 675.002C1180.3 674.4 1182.94 673.248 1184.75 670.565Q1185 670.189 1185.22 669.789Q1185.43 669.389 1185.6 668.969Q1185.77 668.549 1185.9 668.113Q1186.02 667.678 1186.1 667.231Q1186.18 666.785 1186.22 666.333Q1186.25 665.88 1186.23 665.427Q1186.22 664.974 1186.16 664.525Q1186.1 664.075 1185.99 663.635C1185.39 661.192 1183.74 659.19 1181.56 657.983C1179.03 656.588 1176.83 656.657 1174.04 656.998Z"/>
	<path fill="#FEFEFE" d="M1101.32 652.393C1100.69 653.01 1099.94 653.407 1099.2 653.869C1098.56 654.266 1097.98 654.284 1097.24 654.225C1092.9 653.885 1072.65 646.657 1066.89 644.906L983.79 619.252C970.87 615.28 957.953 610.515 944.808 607.417L944.455 606.729L948.083 603.754C956.362 604.354 980.617 612.328 989.872 614.929Q1048.44 631.006 1106.37 649.257C1105.34 651.026 1103.12 651.659 1101.32 652.393Z"/>
	<path fill="#FEFEFE" d="M1050.49 678.509C1048.07 675.695 1032.5 667.695 1028.09 665.14C1018.24 659.425 939.224 614.005 937.684 611.637C937.095 610.732 937.48 610.273 937.69 609.276C940.128 609.245 942.46 609.831 944.789 610.505C962.006 615.486 978.952 621.497 996.081 626.779L1052.54 644.225C1060.55 646.66 1086.49 653.245 1092.43 657.27C1090.32 660.251 1080.68 663.571 1077.1 665.207C1071.08 669.635 1057.76 675.15 1050.49 678.509Z"/>
	<path fill="#FEFEFE" d="M927.777 616.722L933.119 612.795C939.488 618.788 953.048 625.308 960.871 629.937C981.234 641.987 1001.51 654.296 1022.13 665.899C1029.45 670.019 1040.7 674.808 1046.85 680.212C1045.39 681.871 1043.28 682.419 1041.26 683.192L1039.74 684.079C1035.93 683.929 939.82 623.993 927.777 616.722Z"/>
	<path fill="#FEFEFE" d="M1314.33 633.295C1314.6 633.144 1314.87 633.005 1315.13 632.841C1319.12 630.343 1320.82 621.619 1321.9 617.454C1323.27 618.346 1323.52 619.276 1323.86 620.908C1325.06 626.745 1322.45 631.59 1319.11 636.167C1293.71 670.991 1233.46 691.418 1194.3 707.299C1187.48 710.064 1180.6 712.707 1173.83 715.586C1169.15 717.578 1164.21 720.387 1159.31 721.556C1158.3 720.549 1158.41 720.357 1158.24 718.921C1158.75 717.905 1159.2 717.363 1160.18 716.824C1166.54 713.34 1174.61 710.92 1181.36 708.079L1230.64 687.059C1236.98 684.317 1245.36 681.567 1250.92 677.574C1251.39 677.437 1251.85 677.29 1252.31 677.12C1259.02 674.615 1291.71 657.742 1294.32 652.086C1297.54 651.318 1300.55 648.334 1303.05 646.24C1306.19 643.597 1313.98 637.409 1314.33 633.295Z"/>
	<path fill="#FEFEFE" d="M1122.52 641.421C1121.91 642.128 1120.91 642.571 1120.11 643.052C1116.58 642.599 1113.94 631.866 1111.87 628.849C1109.85 625.918 1106.71 622.485 1103.72 620.567C1103.03 620.122 1103.03 619.742 1102.7 618.997C1104.34 618.613 1106.25 618.486 1107.89 618.876C1113.8 620.272 1119.2 627.206 1122.22 632.117C1123.75 634.59 1125.76 637.56 1125.05 640.518L1122.52 641.421Z"/>
	<path fill="#FEFEFE" d="M1076.88 632.718C1082.19 628.578 1085.76 624.515 1092.11 621.66C1093.02 621.629 1093.94 621.724 1094.84 621.777C1094.4 624.883 1093.26 635.909 1092.33 638.095C1089.41 636.733 1086.29 635.851 1083.22 634.871C1081.4 633.776 1078.92 633.319 1076.88 632.718Z"/>
	<path fill="#1E293A" d="M1247.13 669.963C1245.68 670.648 1243.82 670.783 1242.26 670.48C1237.65 669.581 1233.56 664.668 1230.94 661.03C1226.59 655.007 1218.04 641.591 1219.69 633.907C1220.69 629.291 1225.39 626.648 1229.09 624.332C1231.68 623.929 1233.5 623.62 1235.87 624.887C1243.56 628.997 1254.81 645.3 1257.39 653.631C1258.43 656.981 1258.49 660.667 1256.72 663.789C1254.73 667.327 1250.89 669.006 1247.13 669.963ZM1229.55 627.665C1227.35 629.384 1223.2 631.926 1222.83 634.883C1221.85 642.651 1231.1 656.487 1235.9 662.06C1237.62 664.069 1240.33 667.013 1243.06 667.359C1244.18 667.5 1245.48 667.468 1246.51 666.994C1249.37 665.87 1252.95 664.171 1254.2 661.132C1255.52 657.922 1254.39 654.164 1252.93 651.211C1250.47 646.204 1238.85 628.691 1233.68 627.422C1232.42 627.115 1230.81 627.473 1229.55 627.665Z"/>
	<path fill="#FEFEFE" d="M1246.51 666.994C1245.48 667.468 1244.18 667.5 1243.06 667.359C1240.33 667.013 1237.62 664.069 1235.9 662.06C1231.1 656.487 1221.85 642.651 1222.83 634.883C1223.2 631.926 1227.35 629.384 1229.55 627.665C1230.81 627.473 1232.42 627.115 1233.68 627.422C1238.85 628.691 1250.47 646.204 1252.93 651.211C1254.39 654.164 1255.52 657.922 1254.2 661.132C1252.95 664.171 1249.37 665.87 1246.51 666.994Z"/>
	<path fill="#1E293A" d="M1308.88 635.34C1309 635.371 1309.11 635.41 1309.23 635.434C1311.94 635.996 1311.7 635.063 1313.75 633.669C1313.94 633.539 1314.13 633.42 1314.33 633.295C1313.98 637.409 1306.19 643.597 1303.05 646.24C1300.55 648.334 1297.54 651.318 1294.32 652.086C1291.71 657.742 1259.02 674.615 1252.31 677.12C1251.85 677.29 1251.39 677.437 1250.92 677.574L1255.33 674.451L1255.23 673.641L1252.84 673.309C1263.96 668.892 1283.74 658.261 1292.35 650.022C1297.77 646.94 1305.67 640.591 1308.88 635.34Z"/>
	<path fill="#1E293A" d="M1205.88 661.716C1204.77 661.993 1203.74 662.178 1202.59 662.006C1200.03 661.624 1197.67 660.541 1196.2 658.337C1194.76 656.157 1194.45 653.134 1194.97 650.612C1195.69 647.142 1197.91 645.469 1200.7 643.665C1203.35 643.376 1205.64 643.233 1208.12 644.437C1210.71 645.69 1212.8 648.103 1213.55 650.895Q1213.66 651.291 1213.73 651.696Q1213.8 652.101 1213.83 652.51Q1213.86 652.92 1213.85 653.331Q1213.83 653.742 1213.78 654.149Q1213.73 654.557 1213.63 654.957Q1213.54 655.357 1213.41 655.745Q1213.27 656.134 1213.1 656.507Q1212.93 656.88 1212.72 657.234C1211.22 659.779 1208.64 661.04 1205.88 661.716Z"/>
	<path fill="#1E293A" d="M1177.23 675.002C1176.78 675.167 1176.6 675.271 1176.06 675.269C1173.7 675.265 1170.57 674.407 1169.09 672.491C1167.36 670.263 1167.31 667.379 1167.76 664.707C1168.41 660.835 1171.03 659.035 1174.04 656.998C1176.83 656.657 1179.03 656.588 1181.56 657.983C1183.74 659.19 1185.39 661.192 1185.99 663.635Q1186.1 664.075 1186.16 664.525Q1186.22 664.974 1186.23 665.427Q1186.25 665.88 1186.22 666.333Q1186.18 666.785 1186.1 667.231Q1186.02 667.678 1185.9 668.113Q1185.77 668.549 1185.6 668.969Q1185.43 669.389 1185.22 669.789Q1185 670.189 1184.75 670.565C1182.94 673.248 1180.3 674.4 1177.23 675.002Z"/>
	<path fill="#1E293A" d="M1184.84 677.943C1191.64 675.126 1213.21 662.538 1217.75 662.393C1216.28 666.96 1203.68 672.798 1199.26 675.063C1195.76 676.859 1192.21 678.782 1188.29 679.41L1187.62 678.422L1184.84 677.943Z"/>
	<path fill="#FEFEFE" d="M953.778 777.083C969.215 769.755 984.103 760.941 999.242 752.984Q1044.46 729.376 1090.07 706.518C1103.76 699.726 1118.11 690.522 1132.79 686.211C1136.75 685.048 1140.34 685.272 1144.17 686.696C1148.27 688.219 1151.13 690.719 1153 694.687C1154.63 698.15 1155.02 702.054 1154.89 705.836C1154.43 719.492 1151.81 733.558 1149.86 747.073Q1143.65 789.368 1136.08 831.441C1133.21 847.265 1131.5 865.537 1125.57 880.487C1122.72 887.663 1118.12 892.03 1111.01 894.993C1106.91 896.7 1101.61 897.935 1097.35 896.146C1094.39 894.9 1092.9 892.176 1091.86 889.284C1091.22 887.492 1090.95 885.893 1091.81 884.109C1093.24 881.121 1097.44 879.704 1100.42 878.824C1107 876.888 1120.13 876.807 1124 870.476C1125.81 867.525 1146.26 722.592 1147.63 706.571C1147.89 703.515 1147.83 700.186 1146.89 697.245C1146.08 694.694 1144.47 692.369 1142.05 691.122C1138.49 689.288 1134.44 689.895 1130.82 691.192C1121.42 694.56 1111.96 700.662 1103.11 705.37L1054.16 731.333C1018.93 750.315 982.857 768.042 947.372 786.59C931.235 795.024 910.094 808.814 892.788 812.742C896.96 809.425 901.293 806.536 905.769 803.659C910.362 801.997 949.247 780.511 953.778 777.083Z"/>
	<path fill="#FEFEFE" d="M1089.84 721.431C1095.71 717.103 1131.14 698.513 1136.98 699.042C1137.9 699.125 1138.04 699.235 1138.59 700.005C1140.35 702.481 1140.19 707.3 1140.03 710.235C1139.23 725.433 1135.81 740.761 1134.04 755.9Q1129.73 793.79 1124.14 831.512C1122.55 842.238 1121.43 853.373 1119.02 863.92C1118.69 865.374 1118.15 866.551 1117.24 867.727C1114.73 868.823 1112.19 869.058 1109.51 869.401C1109.8 868.204 1109.93 867.333 1109.82 866.091C1108.7 852.953 1106.27 839.778 1104.6 826.686C1103.24 816.1 1095.52 745.203 1093.14 740.281C1092.9 739.801 1092.73 739.652 1092.4 739.296C1092.54 738.948 1092.77 738.45 1092.85 738.059C1093.64 734.165 1092.04 724.703 1089.84 721.431Z"/>
	<path fill="#FEFEFE" d="M1080.46 725.463C1082.84 724.753 1085.1 723.594 1087.47 722.794L1088.36 723.282L1088.11 725.33C1089.33 728.496 1090.82 736.069 1089.5 739.229C1090.16 740.606 1090.57 742.154 1090.82 743.657C1092.39 753.036 1106.95 868.412 1106.88 868.64C1106.6 869.506 1105.8 869.572 1105.04 869.918C1103.59 869.571 1102.71 869.483 1102.01 867.954C1100.9 865.534 1100.09 854.179 1099.52 850.796Q1091.99 805.578 1086 760.13C1084.53 749.73 1083.54 739.2 1081.8 728.848C1081.56 727.428 1081.3 726.634 1080.46 725.463Z"/>
	<path fill="#FEFEFE" d="M1157.93 733.188C1157.31 733.64 1157.71 733.472 1156.64 733.407C1156.58 732.745 1156.48 732.014 1156.6 731.349C1157.62 725.836 1165.14 726.122 1169.21 723.522C1169.47 723.353 1169.73 723.172 1169.99 722.997C1171.7 723.112 1171.86 723.081 1173.18 724.143L1172.85 725.323C1168.58 728.601 1162.77 730.81 1157.93 733.188Z"/>
	<path fill="#242D36" d="M802.19 725.428C803.207 724.496 804.434 724.378 805.737 724.106C810.727 736.222 818.558 747.112 825.49 758.181C832.235 768.953 838.606 780.001 845.747 790.517Q844.307 789.852 842.85 789.223C842.619 790.344 842.67 790.807 841.914 791.702C840.626 786.544 807.53 734.836 802.19 725.428Z"/>
	<path fill="#FEFEFE" d="M805.737 724.106C836.142 722.128 868.425 749.188 894.436 763.896C886.818 768.372 850.628 790.634 845.747 790.517C838.606 780.001 832.235 768.953 825.49 758.181C818.558 747.112 810.727 736.222 805.737 724.106Z"/>
	<path fill="#FEFEFE" d="M797.455 729.512L802.19 725.428C807.53 734.836 840.626 786.544 841.914 791.702C840.38 792.362 839.185 792.954 837.467 792.855C832.167 785.982 827.756 778.249 823.133 770.908L797.455 729.512Z"/>
	<path fill="#FEFEFE" d="M1211.21 772.079C1211.26 773.107 1211.09 773.226 1210.65 774.111C1203.71 772.69 1187.06 738.37 1181.77 731.664C1181.91 731.65 1182.05 731.629 1182.19 731.622C1188.69 731.276 1195.31 735.69 1200.02 739.777C1206.52 745.416 1213.09 754.49 1213.44 763.425C1213.56 766.438 1213.34 769.775 1211.21 772.079Z"/>
	<path fill="#FEFEFE" d="M941.448 795.593C940.213 795.833 939.424 796.083 938.204 795.637Q970.914 777.681 1004.37 761.158C1021.67 752.7 1040.11 744.784 1056.65 734.994L1057.87 735.503C1059.43 740.061 1062.45 754.389 1060.75 758.793C1056.66 761.938 1048.71 763.802 1043.75 765.551C1010.02 777.438 976.023 786.604 941.448 795.593Z"/>
	<path fill="#FEFEFE" d="M1148.26 784.547C1153.12 776.646 1150.45 753.826 1156.05 744.247C1157.98 740.934 1161.7 738.38 1164.42 735.662C1164.81 735.643 1166.34 735.427 1166.61 735.556C1167.74 736.089 1170.41 752.254 1171.3 755.076C1174.21 764.289 1180.92 775.309 1188.7 781.229C1190.63 782.694 1193.07 783.196 1194.96 784.604C1195.12 784.729 1195.29 784.858 1195.45 784.984C1190.76 789.034 1182.53 791.642 1176.51 792.912C1173.46 794.357 1168.36 795.555 1164.98 795.613C1156.58 795.758 1153.85 789.565 1148.6 784.842C1148.49 784.742 1148.37 784.646 1148.26 784.547Z"/>
	<path fill="#FEFEFE" d="M915.024 810.153L914.165 809.769C916.985 807.138 929.85 805.36 934.339 804.374Q960.953 798.62 987.154 791.209Q1013.35 783.797 1039.04 774.758C1045.07 772.656 1055.02 770.388 1059.78 766.322L1061.81 766.291L1061.29 766.382L1062.88 767.208C1062.75 767.469 1062.65 767.746 1062.5 767.991C1060.56 771.02 1050.17 774.577 1046.59 776.036C1010.84 790.587 953.604 807.564 915.024 810.153Z"/>
	<path fill="#1E293A" d="M904.813 799.971C908.528 799.532 942.462 779.452 949.063 776.328L949.356 777.745C950.604 777.581 951.625 777.243 952.805 776.827L953.778 777.083C949.247 780.511 910.362 801.997 905.769 803.659C905.417 802.062 904.218 801.988 903.589 800.489L904.813 799.971Z"/>
	<path fill="#FEFEFE" d="M878.374 802.536C884.369 800.866 890.401 799.525 896.483 798.219L896.826 798.895C888.739 808.159 868.285 829.759 858.87 836.934C857.966 835.617 857.314 834.358 856.678 832.894C857.046 828.198 874.424 807.466 878.374 802.536Z"/>
	<path fill="#FEFEFE" d="M855.342 842.405C854.03 842.259 853.058 841.95 851.838 841.487C851.309 839.72 852.284 838.585 853.053 836.976C854.544 837.463 855.468 837.934 856.731 838.864C856.89 840.606 856.298 840.986 855.342 842.405Z"/>
	<path fill="#FEFEFE" d="M838.731 845.876C842.944 846.098 846.975 846.067 851.179 845.712L851.543 846.419C847.45 851.416 842.015 854.289 835.977 856.25C835.525 855.809 835.356 855.254 835.097 854.686C835.53 851.555 837.317 848.664 838.731 845.876Z"/>
</svg>
