<?xml version="1.0" standalone="no"?>
<!DOCTYPE svg PUBLIC "-//W3C//DTD SVG 20010904//EN"
 "http://www.w3.org/TR/2001/REC-SVG-20010904/DTD/svg10.dtd">
<svg version="1.0" xmlns="http://www.w3.org/2000/svg"
 width="983.000000pt" height="553.000000pt" viewBox="0 0 983.000000 553.000000"
 preserveAspectRatio="xMidYMid meet">
<metadata>
Created by potrace 1.16, written by Peter Selinger 2001-2019
</metadata>
<g transform="translate(0.000000,553.000000) scale(0.100000,-0.100000)"
fill="#000000" stroke="none">
<path d="M0 2765 l0 -2765 1245 0 c1176 0 1245 1 1245 18 0 13 -2 14 -9 4 -5
-8 -7 0 -7 22 2 37 16 64 16 29 0 -11 6 -25 13 -31 19 -16 36 17 31 59 -2 19
-4 41 -5 49 -2 35 -8 40 -33 30 -20 -7 -24 -6 -20 4 6 15 73 25 101 15 21 -7
43 -1 43 12 0 5 -17 9 -37 9 -53 1 -114 16 -124 32 -14 22 -10 38 10 38 11 0
23 5 27 11 5 8 -1 10 -20 7 -25 -5 -26 -4 -26 43 0 26 -3 55 -6 64 -5 13 -2
15 20 9 30 -7 35 8 11 33 -27 26 -14 48 30 51 32 2 37 0 22 -8 -9 -6 -15 -16
-11 -22 4 -7 9 -6 14 2 4 6 27 14 51 18 38 5 41 7 19 13 -14 4 -46 7 -72 8
-27 1 -48 6 -48 11 0 6 -7 10 -15 10 -8 0 -15 7 -15 16 0 10 6 14 15 11 8 -4
17 -1 21 5 4 7 3 8 -4 4 -7 -4 -12 -1 -12 8 0 9 -4 16 -8 16 -4 0 -8 18 -9 41
-2 33 1 38 11 30 11 -9 13 -3 12 31 -1 24 -5 49 -10 56 -4 7 -5 16 -1 20 4 4
10 1 12 -6 4 -10 9 -9 24 4 10 9 20 14 20 11 1 -4 2 -13 3 -19 1 -7 9 -12 19
-12 13 2 15 -1 7 -11 -7 -9 -8 -15 -1 -19 10 -7 34 28 25 36 -2 3 9 8 26 11
32 7 44 38 13 35 -30 -4 -137 14 -150 24 -7 6 -13 18 -13 27 0 13 11 16 60 15
59 -1 60 -1 60 28 0 15 4 28 9 28 12 0 24 -37 16 -50 -3 -5 -1 -10 4 -10 6 0
11 5 11 10 0 6 7 10 15 10 8 0 15 4 15 10 0 5 -7 7 -15 4 -11 -5 -15 1 -15 21
0 20 -4 26 -15 22 -8 -4 -17 -2 -20 3 -8 13 14 52 26 45 5 -4 9 -1 9 4 0 6 -4
11 -8 11 -5 0 -14 12 -20 26 -7 14 -16 23 -21 20 -5 -3 -14 1 -21 9 -11 13 -6
14 38 9 30 -3 53 -1 57 5 4 7 -9 12 -37 13 -57 2 -61 2 -77 12 -8 5 -28 12
-44 15 -28 6 -29 8 -13 23 15 16 15 18 -3 30 -23 16 -31 49 -13 56 7 2 13 -2
11 -9 -3 -24 1 -43 7 -36 4 3 13 0 21 -8 16 -16 103 -21 103 -6 0 5 10 11 23
15 l22 6 -22 15 c-12 8 -25 30 -29 48 -6 28 -8 29 -15 12 -8 -22 -10 -17 -13
50 -1 39 -3 40 -39 43 -36 3 -50 19 -24 26 51 16 69 17 64 2 -4 -9 -2 -16 3
-16 6 0 10 4 10 8 0 5 30 9 68 11 101 3 107 5 107 34 0 14 3 29 8 33 4 4 7 2
7 -5 0 -7 5 -9 11 -6 11 8 3 -165 -10 -220 -5 -17 -7 -46 -5 -65 5 -63 5 -332
0 -475 -2 -77 -5 -205 -5 -284 -1 -79 -4 -142 -7 -138 -3 3 -6 63 -5 134 0 70
-4 120 -8 109 -10 -26 -2 -250 9 -254 6 -2 9 -54 9 -120 -1 -85 -4 -106 -9
-77 l-8 40 2 -45 1 -45 103 -3 c86 -2 103 0 108 13 9 22 -12 65 -31 65 -12 0
-13 4 -6 18 5 9 7 30 4 45 -3 16 -1 27 6 27 6 0 11 -9 11 -21 0 -15 5 -19 15
-15 8 3 15 1 15 -4 0 -6 5 -10 10 -10 6 0 10 7 10 15 0 8 -4 15 -10 15 -5 0
-10 11 -10 25 0 23 4 25 41 25 l41 0 -2 -52 c-2 -29 -2 -74 -1 -100 l1 -48 58
0 c31 0 68 3 82 7 25 7 25 7 -5 13 l-30 5 -2 88 -2 88 26 -16 c30 -20 39 -14
21 14 -8 13 -19 19 -30 15 -10 -3 -18 -1 -18 4 0 5 22 14 50 19 61 12 62 12
59 -127 l-2 -105 74 -2 c44 -1 66 1 55 6 -19 7 -19 8 3 14 l23 6 -26 33 c-29
39 -26 69 11 106 19 18 27 21 43 12 16 -9 20 -8 20 5 0 9 -9 15 -24 15 -14 0
-28 5 -31 10 -4 6 13 10 42 11 82 1 98 17 18 18 -38 1 -77 6 -85 11 -12 8 -11
10 7 10 27 0 38 16 17 24 -8 3 -12 11 -9 17 4 5 0 18 -8 27 -8 9 -18 28 -21
42 -6 19 -5 22 3 10 8 -11 9 -7 5 18 -4 21 -3 32 5 32 6 0 11 6 11 14 0 8 6
16 13 19 7 3 2 9 -13 15 -21 8 -13 11 51 17 121 11 114 19 117 -119 2 -86 -1
-122 -10 -127 -9 -6 -9 -11 0 -21 6 -8 12 -59 14 -119 l3 -104 90 -1 c50 0 68
1 41 3 -43 4 -46 6 -30 18 15 11 16 15 5 29 -11 13 -11 19 -1 31 9 11 9 22 1
46 -7 21 -7 37 -1 50 6 10 9 24 8 31 -2 9 12 14 44 16 25 2 51 8 56 15 8 9 -5
12 -51 11 l-62 -1 2 65 c1 36 5 72 7 79 3 7 -1 16 -9 21 -22 12 3 64 28 56 9
-3 17 0 17 7 0 8 -11 10 -35 6 -20 -3 -33 -2 -30 2 2 5 33 12 67 16 65 8 64
10 -12 20 -35 4 -48 11 -57 31 -11 25 -11 25 20 19 22 -4 28 -3 18 3 -8 6 -12
19 -9 30 3 11 -3 35 -14 53 -18 29 -18 33 -4 41 9 5 16 22 16 37 0 30 15 41
56 41 13 0 24 5 24 10 0 10 -22 13 -90 11 -19 0 -30 2 -23 5 7 3 10 11 7 18
-3 8 2 16 10 19 9 4 16 13 16 21 0 8 6 17 13 19 8 4 7 6 -3 6 -23 1 -45 68
-30 86 7 8 9 22 6 32 -8 21 10 33 52 33 22 0 31 4 26 11 -5 8 1 10 20 7 15 -3
24 -2 19 2 -4 5 -37 10 -73 12 -60 3 -65 5 -63 25 2 13 12 32 23 43 22 22 19
68 -7 83 -18 11 -16 24 8 48 15 15 23 18 29 9 5 -8 9 -7 13 4 5 12 0 16 -24
16 -18 0 -28 4 -24 10 3 5 26 10 50 10 69 0 62 18 -11 25 -47 6 -64 11 -60 20
5 15 -17 38 -27 28 -4 -3 -7 1 -7 10 0 17 34 32 50 22 15 -9 12 7 -5 29 -16
21 -21 76 -7 76 4 0 13 -5 20 -12 12 -12 12 -12 12 20 0 4 -6 7 -13 7 -6 0
-18 4 -26 9 -12 8 -12 11 0 20 8 6 19 25 24 41 9 27 15 31 63 35 29 3 58 2 65
-2 9 -6 12 -197 14 -815 1 -444 2 -814 2 -820 1 -10 62 -13 272 -13 177 0 268
3 264 10 -8 13 8 13 21 0 6 -6 18 -8 27 -4 15 5 15 8 -3 31 -21 27 -26 53 -11
53 16 0 23 34 8 45 -21 16 -29 45 -12 45 9 0 15 -9 15 -21 0 -19 2 -20 17 -8
15 13 16 10 10 -26 -3 -22 -3 -32 -1 -22 3 9 15 17 26 17 17 0 20 5 16 30 -3
17 0 31 8 34 6 2 13 20 16 40 3 29 1 36 -17 38 -15 2 -20 10 -20 36 0 17 4 32
8 32 5 0 5 5 2 10 -5 8 -11 7 -21 -1 -11 -9 -14 -7 -14 10 0 11 5 21 10 21 23
0 8 32 -20 42 -33 11 -35 31 -4 37 10 1 27 10 36 18 16 14 16 17 1 39 -14 22
-14 24 2 30 10 4 26 2 36 -4 13 -9 19 -8 22 1 3 7 6 0 6 -15 1 -23 -3 -28 -21
-28 -21 -1 -21 -2 -5 -11 9 -5 17 -21 17 -35 0 -14 3 -23 8 -20 8 5 8 -7 11
-256 l1 -168 49 0 c30 0 51 5 54 13 4 9 6 9 6 0 1 -7 13 -13 27 -13 l27 0 -7
72 c-3 39 -11 77 -17 85 -7 7 -7 13 -2 13 6 0 10 36 9 85 -1 50 3 85 9 85 6 1
11 -8 13 -20 2 -11 9 -20 17 -20 9 0 13 -16 12 -60 0 -32 -4 -57 -8 -55 -12 8
-17 -19 -14 -69 4 -50 9 -61 28 -61 7 0 13 -9 16 -20 2 -11 8 -23 15 -27 16
-11 64 -10 87 2 13 7 19 7 19 0 0 -7 92 -10 276 -10 l276 0 -7 171 c-6 144 -5
171 6 167 11 -4 15 -40 17 -171 l2 -167 356 0 c234 0 353 3 349 10 -3 5 -1 10
4 10 6 0 11 -5 11 -10 0 -7 30 -10 81 -9 l80 2 -6 27 c-4 17 -1 31 5 35 16 10
20 3 23 -34 l2 -31 105 2 105 3 1 50 c0 28 -5 53 -10 57 -7 5 -7 8 2 8 6 0 12
9 12 19 0 34 -10 49 -31 44 -16 -4 -19 0 -19 26 0 37 29 45 31 9 1 -22 1 -22
9 2 5 17 3 29 -8 37 -15 12 -13 60 4 128 5 20 2 25 -12 25 -15 0 -19 8 -19 38
0 33 3 37 27 40 l26 3 2 -178 c2 -98 4 -207 5 -243 l2 -65 35 -3 c22 -2 39 3
48 12 8 10 9 16 2 16 -6 0 -9 7 -6 15 4 8 14 15 23 15 14 0 14 -2 1 -10 -13
-9 -13 -11 0 -20 11 -7 11 -10 2 -10 -7 0 -10 -5 -7 -10 3 -6 50 -10 106 -10
l99 0 -5 35 c-3 30 -1 35 15 35 16 0 20 -7 20 -35 0 -31 3 -35 25 -35 22 0 23
3 15 24 -10 28 14 70 36 62 7 -3 16 -1 19 4 4 6 -8 10 -25 10 -24 0 -31 4 -27
14 3 8 3 17 -1 21 -4 3 -7 24 -7 46 0 30 3 39 17 39 9 0 20 5 23 10 4 6 -7 10
-27 10 -21 0 -28 3 -20 9 12 7 11 24 -5 84 -3 14 2 17 31 17 20 0 36 5 36 10
0 6 -15 10 -34 10 -28 0 -34 4 -38 24 -3 14 -1 29 4 34 6 6 6 12 -1 16 -8 5
-8 13 0 28 10 18 9 20 -5 15 -11 -5 -16 -1 -16 13 0 18 7 20 68 20 l68 0 1
-210 c0 -185 -1 -210 -16 -213 -14 -4 -14 -5 2 -6 13 -1 17 -10 17 -46 0 -43
1 -45 30 -45 26 0 30 4 30 28 0 22 6 29 35 38 38 12 45 5 45 -43 0 -24 2 -25
37 -20 41 7 57 25 41 44 -8 10 -6 13 10 13 11 0 23 -6 25 -12 3 -8 6 -6 6 5 1
24 31 22 31 -3 0 -11 -6 -20 -14 -20 -8 0 -17 -4 -20 -9 -3 -4 6 -6 21 -3 18
3 24 1 19 -7 -6 -9 7 -12 51 -10 56 2 59 4 55 24 -3 18 2 24 24 29 22 6 25 9
13 17 -7 5 -26 9 -41 9 -16 0 -28 5 -28 10 0 6 6 10 14 10 8 0 16 7 20 15 3 8
1 15 -5 15 -17 0 11 40 29 41 10 0 2 7 -18 17 -26 11 -30 17 -17 19 17 4 25
23 9 23 -4 0 -9 14 -10 30 -2 25 2 30 19 30 12 0 19 5 16 13 -2 6 -10 11 -16
9 -7 -1 -19 4 -27 13 -14 13 -13 15 3 15 17 1 17 1 -1 11 -15 9 -16 13 -5 20
10 6 11 9 2 9 -7 0 -13 5 -13 10 0 6 10 10 22 10 21 0 21 0 2 15 -15 12 -16
16 -6 23 11 7 10 10 -3 16 -30 11 -5 26 38 23 l42 -4 1 -149 c0 -82 2 -189 2
-237 l2 -88 48 3 c34 2 46 7 44 17 -2 8 0 21 4 30 13 26 11 70 -3 75 -7 3 -13
16 -13 29 0 18 9 28 33 38 l32 14 -30 5 c-26 4 -30 10 -33 44 -2 25 2 44 13
56 15 17 15 19 -2 23 -13 3 -11 5 7 6 25 2 25 2 5 19 -26 21 -39 52 -22 53 7
0 2 4 -9 9 -14 5 -23 20 -26 40 -4 29 -3 31 19 27 14 -2 31 2 39 10 13 14 17
13 29 -3 14 -18 14 -18 15 -1 0 10 4 16 8 13 5 -3 7 -80 6 -173 -1 -92 0 -205
3 -250 l6 -83 51 1 c28 1 44 3 36 5 -12 4 -14 15 -12 44 4 38 6 40 37 40 33 0
33 0 30 -45 l-3 -45 47 0 c45 0 46 1 48 32 2 18 7 34 13 36 16 6 12 22 -5 22
-8 0 -15 5 -15 11 0 5 5 7 10 4 6 -3 10 1 10 10 0 9 -4 13 -10 10 -5 -3 -10 3
-10 15 0 12 4 19 9 16 5 -3 11 0 14 8 4 10 0 12 -14 9 -30 -8 -22 14 9 25 17
7 21 11 10 11 -10 1 -18 6 -18 12 0 5 5 7 10 4 6 -3 10 3 10 14 0 12 -5 21
-11 21 -5 0 -7 -4 -4 -10 3 -5 2 -10 -4 -10 -14 0 -23 18 -11 22 22 7 23 73 2
117 -12 23 -19 48 -16 56 3 7 -4 22 -16 33 -16 15 -18 21 -8 29 14 11 102 15
132 6 17 -5 17 -7 4 -14 -13 -7 -16 -32 -15 -152 0 -79 -3 -149 -7 -155 -4 -7
-2 -12 3 -12 14 0 14 -80 1 -115 -12 -31 -39 -43 -51 -24 -6 10 -9 11 -9 1 0
-23 50 -32 176 -32 l124 0 1 42 c1 24 1 90 1 148 0 58 2 92 5 75 5 -29 18 -45
37 -45 5 0 3 6 -3 14 -6 7 -8 22 -4 31 4 13 3 16 -5 11 -8 -5 -13 3 -14 26 -3
59 4 123 13 126 11 4 2 22 -12 22 -5 0 -9 -21 -9 -47 0 -25 -3 -43 -7 -39 -5
4 -8 34 -8 66 l-1 57 31 -10 c16 -5 43 -10 58 -11 l28 -1 3 -90 c2 -50 4 -154
5 -232 1 -141 1 -143 24 -143 l22 0 0 242 c0 184 -3 242 -12 245 -31 11 -8 23
41 23 l55 0 6 -42 c3 -24 2 -64 -3 -89 -6 -30 -5 -61 3 -92 6 -25 8 -52 4 -59
-5 -7 -8 -61 -8 -120 0 -102 1 -108 21 -108 19 0 20 4 14 83 -4 50 -3 88 4 97
7 11 10 -14 10 -82 l0 -98 51 0 c30 0 48 4 44 10 -3 6 1 7 9 4 13 -5 16 2 16
35 0 34 -3 41 -19 41 -34 0 -34 31 1 61 19 18 26 29 17 30 -8 0 -3 4 9 10 13
5 28 7 33 3 5 -3 9 0 9 5 0 6 -17 11 -37 11 -63 0 -76 26 -35 70 27 31 24 42
-16 54 -30 8 -45 26 -22 26 5 0 8 12 7 27 -2 23 3 28 28 33 20 4 26 8 17 13
-7 5 -10 13 -7 18 4 5 -5 9 -19 9 -14 0 -27 4 -31 9 -7 13 49 23 105 19 l45
-3 1 -197 c0 -109 -2 -198 -5 -198 -4 0 -5 -20 -3 -45 l4 -46 84 2 c47 2 79 6
72 11 -7 4 -23 8 -35 8 -16 0 -21 4 -17 15 4 8 1 15 -6 15 -7 0 -10 6 -7 14 4
10 0 12 -14 9 -10 -3 -19 0 -19 6 0 7 25 11 70 11 l70 0 0 -39 c0 -22 -5 -42
-12 -44 -7 -3 5 -6 28 -6 47 -1 59 6 42 26 -8 10 -8 17 -1 21 12 8 13 162 1
162 -5 0 -6 5 -2 12 12 19 14 91 3 104 -6 7 -6 15 -1 18 9 6 7 116 -3 157 -7
26 -5 27 39 30 67 6 74 -3 65 -81 -4 -36 -5 -150 -3 -255 5 -195 14 -266 14
-112 l0 87 48 0 c39 1 44 3 31 13 -8 7 -18 20 -22 30 -3 9 -18 22 -32 29 -26
11 -26 14 -24 97 2 47 6 97 10 111 7 24 7 24 9 -5 1 -16 2 -39 1 -50 -1 -19
-1 -19 10 -2 6 11 8 33 5 49 -3 17 -1 37 5 44 8 10 5 11 -13 7 -18 -4 -20 -3
-8 6 8 6 26 11 40 11 20 0 22 2 10 10 -12 8 -10 10 8 10 13 0 20 -4 17 -10 -3
-5 0 -10 9 -10 8 0 17 6 19 13 3 6 6 -26 7 -73 2 -111 8 -242 16 -357 l6 -93
61 1 c54 1 57 3 27 9 -19 4 -27 8 -17 9 20 1 23 17 5 24 -10 3 -10 7 1 20 16
20 38 22 43 5 3 -7 7 -6 11 5 5 14 0 17 -34 17 -24 0 -38 4 -34 10 3 6 28 10
56 10 l49 0 0 -55 0 -55 70 0 c40 0 70 4 70 10 0 6 7 10 15 10 8 0 15 -4 15
-10 0 -6 50 -10 130 -9 l130 0 0 223 0 223 -37 7 c-75 12 -83 9 -79 -26 4 -29
3 -31 -10 -14 -7 11 -11 23 -8 28 3 4 -2 11 -10 14 -26 10 -18 21 12 18 15 -2
51 -5 80 -7 l52 -4 0 2534 0 2535 -147 -6 c-82 -4 -206 -10 -278 -14 l-130 -8
197 -2 c108 -1 203 -5 212 -8 22 -9 21 -54 -1 -55 -28 -1 16 -17 48 -18 15 -1
29 -7 32 -15 10 -25 7 -248 -4 -316 -15 -94 -16 -115 -19 -333 -1 -120 2 -202
8 -210 5 -6 10 -34 10 -60 2 -69 -19 -87 -104 -87 l-65 0 1 113 c0 61 0 121 0
132 -4 115 2 228 11 215 8 -12 9 -9 4 10 -4 14 -9 63 -12 110 -4 65 -1 92 11
115 9 18 12 32 5 35 -5 4 -9 64 -10 143 0 75 -1 137 -3 137 -2 0 -17 -7 -32
-15 l-29 -15 -5 -487 -5 -487 -35 -9 c-19 -5 -57 -6 -85 -2 -43 5 -50 9 -51
28 -15 334 -20 750 -10 787 5 17 4 21 -2 11 -6 -9 -10 14 -10 68 0 46 4 81 9
81 6 0 7 5 3 11 -3 6 -10 7 -15 2 -5 -5 -10 -229 -11 -498 l-3 -490 -86 -3
c-64 -2 -86 0 -87 10 -1 7 -3 123 -6 258 -3 135 -9 290 -13 345 -8 106 -9 162
-4 288 3 81 -1 99 -21 79 -8 -8 -9 -146 -6 -496 5 -555 16 -496 -94 -496 -53
0 -58 2 -64 25 -3 14 -3 237 0 495 l6 470 -35 0 -35 0 0 -322 c-1 -311 -8
-642 -14 -663 -2 -6 -40 -8 -101 -5 -88 4 -99 7 -102 25 -3 11 -5 211 -6 445
-1 299 1 438 10 469 9 35 9 47 -2 57 -11 11 -14 11 -19 -3 -4 -8 -6 -232 -6
-497 0 -264 0 -485 0 -491 0 -9 -211 -14 -288 -7 l-24 2 4 480 c3 264 7 483
11 487 12 11 8 23 -7 23 -8 0 -17 -8 -20 -17 -4 -10 -10 -235 -13 -500 l-6
-483 -175 2 -176 3 -4 35 c-5 50 -12 51 -12 2 l0 -42 -79 0 -80 0 -7 48 c-4
26 -5 238 -2 472 3 234 2 398 -2 365 -4 -33 -8 -246 -9 -472 l-2 -413 -69 0
-70 0 1 293 c1 160 4 379 8 485 3 105 3 192 -1 192 -5 0 -8 4 -8 10 0 5 6 7
13 5 30 -11 39 11 36 86 l-4 74 255 4 c140 1 257 5 259 7 2 2 -124 4 -281 4
l-285 0 -8 -52 c-7 -47 -9 -50 -14 -24 l-6 30 -15 -30 c-8 -16 -17 -38 -21
-49 -5 -15 -7 -12 -8 13 -1 18 -6 43 -12 54 -8 14 -8 23 0 31 19 19 12 27 -20
27 -18 0 -28 -4 -24 -10 13 -21 -17 -40 -61 -40 -24 0 -44 -4 -44 -9 0 -10
-48 -2 -56 10 -3 5 27 9 65 9 39 0 71 4 71 8 0 14 -199 32 -228 21 -18 -7 -35
-6 -54 2 -22 9 -35 9 -54 0 -31 -14 -64 -14 -64 -1 0 6 -50 10 -131 10 -114 0
-134 -2 -145 -17 -13 -17 -13 -17 -14 0 0 32 -37 20 -46 -15 l-8 -33 -3 33 -4
32 -84 0 -84 0 -11 -39 c-10 -39 -4 -97 11 -107 20 -12 7 -23 -17 -14 -14 6
-58 10 -97 11 -40 0 -94 4 -122 7 -27 4 -63 5 -80 2 -30 -6 -29 -6 10 -13 22
-4 74 -7 115 -7 41 0 96 -7 122 -14 25 -8 48 -13 50 -11 1 2 3 -29 3 -69 l1
-72 -71 3 c-135 4 -264 25 -268 42 -4 14 -5 14 -6 0 -1 -14 -8 -14 -62 -3 -33
7 -64 15 -67 19 -9 8 -7 87 2 110 5 15 9 15 23 4 13 -11 17 -11 20 -1 3 6 12
12 21 12 10 0 1 8 -18 18 -33 16 -35 19 -35 70 l1 52 -1609 0 -1609 0 5 -22
c4 -14 0 -29 -10 -41 -11 -12 -17 -35 -17 -65 2 -160 14 -668 20 -838 4 -123
3 -204 -3 -207 -5 -3 -19 -3 -31 0 -17 4 -21 10 -16 29 3 13 2 24 -2 24 -5 0
-9 49 -8 110 1 75 -3 110 -11 114 -8 3 -10 19 -6 47 5 35 2 105 -9 214 -1 6 2
33 6 60 3 28 6 60 5 73 0 12 3 22 8 22 10 0 3 39 -11 57 -9 11 -12 133 -5 193
2 14 -1 31 -7 39 -7 9 -5 17 7 26 18 13 25 71 7 60 -5 -3 -10 1 -10 10 0 8 -7
18 -15 21 -9 4 -15 19 -15 40 l0 34 -765 0 c-421 0 -765 -3 -765 -7 0 -5 14
-23 31 -40 17 -19 24 -33 17 -34 -7 0 -26 -2 -43 -4 -16 -2 -34 0 -40 5 -7 5
-11 -10 -13 -46 -1 -32 2 -54 8 -54 5 0 10 -7 10 -16 0 -10 -6 -14 -14 -11
-25 10 -38 -35 -31 -104 6 -59 10 -356 7 -544 -1 -44 1 -126 4 -182 5 -91 4
-103 -11 -103 -9 0 -13 -5 -10 -10 4 -6 11 -8 16 -5 5 4 9 2 9 -3 0 -13 -60
-18 -155 -12 l-80 5 70 9 c64 9 67 10 35 17 -21 4 -26 7 -13 8 32 2 34 12 13
58 -21 48 -11 82 14 48 12 -15 15 -16 16 -5 0 24 -13 35 -45 38 -16 2 -37 11
-45 20 -14 16 -23 92 -11 92 3 0 19 11 35 25 18 15 23 25 15 25 -8 0 -20 -5
-26 -11 -13 -13 -43 -5 -43 11 0 6 14 17 32 24 29 13 30 14 10 20 -12 4 -22
16 -22 26 0 21 30 36 40 20 5 -7 11 -6 19 4 9 11 9 15 -1 19 -9 3 -5 10 11 24
20 16 25 30 25 69 1 41 -2 49 -16 46 -10 -2 -18 2 -18 8 0 5 -18 10 -41 10
-22 0 -38 4 -35 9 3 4 37 6 76 3 42 -3 70 -1 70 5 0 5 -8 10 -17 10 -54 -1
-74 4 -67 15 5 8 0 9 -14 6 -12 -4 -24 -3 -27 2 -2 4 10 11 28 16 l32 8 -37 3
c-41 4 -47 18 -25 53 10 17 9 22 -2 29 -22 14 -3 31 34 31 39 0 57 19 27 27
-26 6 -36 30 -16 37 10 4 13 13 9 25 -3 10 1 24 10 31 13 10 15 9 15 -9 0 -20
14 -29 23 -13 10 15 -33 54 -53 49 -11 -3 -30 3 -42 13 -18 15 -20 20 -10 33
7 8 20 14 30 12 9 -1 11 0 5 2 -7 3 -13 11 -13 19 0 17 -12 18 -27 3 -15 -15
-25 4 -17 36 6 24 34 36 34 14 0 -5 3 -8 8 -5 4 2 6 25 4 50 l-4 46 -54 0 -54
0 -1 -82 c0 -46 -2 -225 -4 -398 -2 -173 -7 -389 -11 -480 -4 -91 -6 -172 -5
-182 3 -25 -15 -31 -72 -22 -29 4 -44 9 -34 12 21 4 21 14 1 54 -9 17 -14 39
-11 49 3 11 1 22 -4 25 -14 8 0 24 16 17 21 -8 19 27 -2 43 -10 7 -28 14 -40
14 -32 0 -29 16 5 25 23 6 24 8 9 14 -10 4 -18 11 -17 15 1 5 -4 12 -12 17
-10 6 -10 11 0 21 16 16 16 58 0 58 -7 0 -13 13 -14 30 -1 27 2 30 30 30 51 0
62 15 26 32 -32 16 -26 34 8 24 27 -9 44 9 49 52 4 33 1 42 -18 56 -26 18 -94
22 -102 6 -3 -6 -4 -5 -3 2 1 8 21 14 47 16 52 4 78 22 34 23 -17 0 -39 4 -50
9 -19 8 -19 9 3 9 26 1 29 16 6 29 -13 7 -15 18 -10 45 4 20 12 38 19 40 7 3
2 6 -10 6 -25 1 -30 20 -11 39 9 9 6 12 -15 12 -15 0 -27 5 -27 10 0 6 7 10
15 10 10 0 15 10 15 29 0 20 8 36 23 46 l22 16 -26 -6 c-26 -7 -27 -6 -34 70
-4 42 -4 79 -1 82 3 4 6 -7 6 -23 l0 -28 17 24 c12 17 13 25 5 28 -7 2 -12 8
-12 14 0 6 6 8 14 5 17 -7 40 18 31 33 -4 7 -12 7 -26 0 -16 -9 -19 -7 -19 10
0 20 -5 20 -320 20 l-320 0 0 -2765z m3477 2710 c9 -3 12 -59 12 -213 0 -114
3 -251 6 -303 3 -52 8 -175 11 -274 3 -99 6 -213 7 -253 l2 -73 -40 5 c-22 3
-49 5 -61 5 -27 1 -65 37 -58 56 4 10 20 15 45 15 21 0 39 5 39 10 0 11 -8 13
-54 14 -16 1 -31 7 -34 15 -2 8 -1 11 4 8 5 -3 10 7 10 21 1 15 -1 21 -3 15
-7 -20 -23 -15 -23 7 0 11 5 20 11 20 12 0 59 46 59 58 0 4 -4 14 -10 22 -6 9
-5 17 3 23 8 6 7 7 -4 4 -9 -3 -23 3 -33 14 -18 22 -21 33 -5 23 7 -4 10 5 7
26 -3 31 0 34 37 44 26 8 36 14 28 19 -7 5 -18 5 -23 2 -6 -3 -13 1 -17 10 -3
10 0 21 8 26 10 6 7 9 -13 9 -15 0 -30 5 -33 10 -3 6 1 10 9 10 25 0 18 17 -9
24 -23 6 -24 8 -10 22 8 8 15 20 15 25 0 5 13 9 29 9 39 0 50 18 14 22 -43 5
-28 23 18 22 24 0 35 2 27 7 -7 5 -24 9 -38 9 -42 1 -51 12 -40 49 7 27 7 32
-5 27 -9 -3 -15 1 -15 9 0 9 10 15 23 16 21 0 21 1 2 9 -15 7 -10 9 23 9 37 1
42 4 41 24 -1 16 -2 18 -6 5 -3 -12 -14 -18 -33 -18 -31 0 -48 15 -28 23 8 3
6 6 -4 6 -12 1 -18 9 -18 27 0 14 4 22 10 19 6 -3 7 1 4 9 -3 9 -10 14 -14 11
-4 -3 -10 2 -14 10 -6 18 22 35 58 35 14 0 26 5 26 11 0 6 -9 9 -20 6 -27 -7
-36 11 -14 28 18 13 17 14 -9 20 -15 4 -27 12 -27 18 0 6 -3 8 -6 4 -8 -7 -34
17 -34 32 0 6 4 11 9 11 14 0 26 63 12 68 -6 2 -9 8 -5 13 7 12 54 12 54 -1 0
-5 5 -10 10 -10 6 0 10 7 10 15 0 14 31 14 77 0z m-431 -1 c20 -5 21 -12 20
-82 -1 -56 -4 -76 -13 -74 -17 3 -17 3 8 -47 15 -31 20 -62 20 -114 -1 -74 2
-149 15 -512 9 -256 10 -283 2 -290 -10 -10 -78 6 -72 17 4 7 -9 9 -35 6 -40
-3 -42 -2 -38 19 2 12 -1 24 -7 26 -8 3 -7 8 1 19 11 12 8 17 -13 28 -23 13
-24 15 -9 26 10 8 12 14 6 19 -6 3 -11 10 -11 15 0 12 78 34 115 32 29 -2 29
-1 6 8 -18 8 -21 13 -12 24 15 17 4 26 -32 26 -41 0 -26 12 26 21 l42 6 -52 2
c-42 1 -53 -2 -53 -15 0 -8 -5 -12 -10 -9 -6 4 -8 10 -5 15 3 4 1 10 -3 12 -5
1 -11 19 -14 38 -6 34 -4 36 33 48 21 7 50 12 64 12 18 0 25 5 25 19 0 14 -6
17 -25 13 -14 -2 -32 2 -41 9 -15 12 -14 14 7 20 20 6 18 7 -13 8 -20 1 -43 4
-52 7 -17 7 -22 44 -6 44 6 0 10 -4 10 -10 0 -5 8 -10 18 -10 14 0 14 2 3 9
-20 13 -22 39 -3 50 8 5 33 6 54 4 47 -7 51 11 6 22 -18 5 -39 8 -45 8 -7 0
-13 5 -13 12 0 8 -9 17 -21 20 -24 8 -21 41 4 37 19 -3 22 9 6 25 -14 14 10
27 66 38 22 4 44 9 48 12 14 9 -15 23 -46 23 -20 0 -30 6 -34 18 -3 14 -11 18
-28 15 -32 -7 -42 15 -10 23 33 8 32 20 -1 19 -18 0 -28 6 -30 18 -1 12 5 17
19 17 30 1 131 36 120 42 -4 3 -37 5 -71 6 -35 0 -69 5 -75 11 -8 8 -7 11 4
11 22 0 18 39 -5 46 -19 6 -19 7 -2 19 10 8 13 16 7 19 -6 4 -8 13 -4 21 3 8
0 15 -7 15 -9 0 -10 3 -1 14 9 10 8 16 -4 26 -8 7 -12 16 -9 21 6 10 136 12
170 3z m238 -206 c3 -112 9 -268 11 -348 12 -353 14 -536 7 -546 -8 -12 -102
-6 -102 6 0 5 -9 6 -20 3 -14 -4 -20 0 -20 11 0 10 9 16 23 17 21 0 21 1 2 9
-11 5 -17 9 -12 11 22 6 29 7 47 8 32 2 23 21 -10 21 -38 0 -40 20 -2 21 17 1
21 3 9 6 -14 4 -16 11 -12 41 5 28 4 33 -4 22 -6 -8 -11 -25 -11 -37 0 -13 -4
-23 -10 -23 -5 0 -10 18 -10 40 l0 40 43 0 c32 0 39 3 27 11 -11 8 -12 12 -2
16 22 9 2 23 -34 23 -36 0 -47 15 -16 23 13 4 13 5 -4 6 -19 1 -21 7 -20 46 1
29 6 45 14 45 6 0 11 6 10 13 -2 7 5 11 16 9 10 -2 25 0 35 4 11 5 -4 11 -44
19 l-60 12 55 10 55 11 -42 1 c-44 1 -61 14 -46 34 5 7 8 25 7 40 -2 18 3 30
12 33 46 14 48 18 14 23 -34 6 -35 8 -33 46 1 22 2 52 2 67 1 15 5 29 11 33
16 10 11 26 -7 23 -25 -4 -32 61 -8 75 13 7 14 11 5 17 -19 11 -4 40 20 40 31
0 24 17 -11 24 -41 8 -32 28 15 32 64 6 65 21 0 26 -33 3 -39 7 -39 26 0 13
-7 27 -15 32 -10 6 -11 12 -2 22 7 9 8 19 2 28 -17 27 -11 30 69 30 l78 0 7
-202z m3470 26 c14 -5 16 -53 16 -434 0 -235 -3 -442 -6 -459 -5 -26 -11 -31
-34 -31 -35 0 -39 17 -47 218 -5 144 -5 152 13 153 14 1 13 3 -6 9 l-25 7 25
11 c19 8 20 11 7 11 -16 1 -18 10 -15 79 2 55 7 76 16 75 6 -2 12 2 12 7 0 6
-8 11 -17 11 -17 1 -17 2 0 6 14 4 17 15 15 76 l-2 72 -3 -67 c-6 -108 -23
-80 -23 38 0 76 3 103 11 98 8 -5 10 3 5 28 -7 40 10 98 29 98 7 0 20 -3 29
-6z m162 -8 c0 0 -2 -208 -5 -461 l-6 -460 -30 3 c-16 2 -32 6 -34 8 -10 9
-11 177 -1 189 6 8 9 45 7 92 l-3 78 -2 -82 c-1 -53 -6 -83 -13 -83 -7 0 -10
29 -7 90 2 73 0 91 -12 96 -12 5 -11 8 5 13 20 8 21 22 10 136 -2 26 1 35 12
35 8 0 12 3 10 8 -3 4 -1 32 3 62 4 30 4 64 -1 75 -5 13 -8 0 -8 -42 -1 -64
-8 -96 -20 -88 -4 2 -4 28 0 57 4 29 8 81 8 116 1 34 5 62 10 62 5 0 7 18 4
40 -8 59 0 73 39 65 18 -4 33 -8 34 -9z m177 -443 c-2 -252 -6 -463 -7 -468
-2 -6 -22 -9 -46 -7 -29 3 -40 8 -36 18 3 7 1 37 -5 66 -5 29 -12 115 -16 191
-4 114 -3 137 8 135 9 -2 15 8 17 27 2 17 8 35 14 42 7 9 5 17 -6 28 -15 15
-16 13 -16 -24 0 -23 -4 -41 -9 -41 -5 0 -8 24 -5 53 2 28 6 104 8 167 3 64 8
123 12 133 3 9 1 24 -6 32 -9 10 -9 15 -1 15 6 0 11 17 11 39 0 42 7 47 62 50
l26 1 -5 -457z m-4594 437 c14 0 16 -43 18 -466 l1 -466 -51 6 c-29 3 -60 6
-69 6 -10 1 -18 5 -18 10 0 14 27 19 39 7 8 -8 14 -8 23 1 9 9 9 12 1 12 -13
0 -28 38 -24 60 1 8 10 21 18 27 9 7 13 16 10 20 -4 4 -13 1 -19 -5 -7 -7 -21
-12 -33 -11 -17 1 -16 2 5 9 l25 8 -23 7 c-18 6 -20 10 -10 16 11 7 10 11 -2
20 -12 9 -11 10 7 6 33 -7 35 3 14 62 -15 44 -19 49 -24 30 -10 -36 -16 -18
-10 27 4 35 8 41 25 36 17 -4 19 -2 13 19 -4 13 -12 30 -19 38 -6 7 -11 19
-11 25 -1 6 -5 19 -9 29 -6 13 -3 24 8 35 15 15 16 15 16 -3 0 -30 13 -8 14
25 1 23 -3 29 -16 24 -10 -3 -18 2 -20 13 -6 27 3 64 13 57 5 -3 9 0 9 5 0 6
-4 11 -10 11 -5 0 -10 5 -10 11 0 6 7 9 15 5 9 -3 15 0 15 8 0 24 -12 46 -24
46 -7 0 -13 13 -13 29 0 17 3 29 6 29 19 -3 38 15 34 32 -3 11 4 31 16 46 16
21 19 29 9 35 -7 4 -17 4 -23 0 -5 -5 -21 -4 -35 1 -24 9 -24 10 -6 24 17 12
18 14 3 14 -9 0 -17 4 -17 9 0 12 54 20 94 15 16 -2 36 -4 45 -4z m1533 -32
c6 -17 336 -24 403 -10 45 10 47 9 40 -12 -8 -21 -8 -205 0 -622 l4 -232 -22
-6 c-44 -12 -57 -7 -57 19 0 14 7 28 15 31 11 4 15 21 15 55 0 40 -3 49 -17
49 -17 1 -17 1 0 11 23 14 26 139 2 139 -8 0 -15 7 -15 15 0 9 6 12 15 9 12
-5 15 4 17 47 0 30 1 61 0 69 -3 35 -4 90 -2 159 0 46 -3 77 -10 81 -8 5 -7 9
4 13 12 5 16 20 16 60 0 30 -2 56 -5 58 -2 3 -47 1 -99 -4 -67 -6 -110 -5
-143 3 -56 13 -82 17 -140 19 -41 1 -43 3 -43 31 0 30 15 41 22 18z m3236 -24
c11 -3 12 -25 8 -101 -4 -54 -8 -243 -10 -420 -3 -177 -7 -326 -9 -330 -7 -11
-137 -3 -137 8 0 5 10 9 23 10 12 0 16 3 10 6 -16 6 -17 35 -1 51 7 7 13 43
13 88 1 65 -2 78 -19 90 -12 8 -15 14 -7 14 11 0 11 3 1 15 -13 16 -11 56 10
167 11 59 15 66 30 58 13 -7 20 -6 23 4 4 10 -6 16 -34 21 -37 6 -39 8 -21 20
14 10 19 27 21 65 1 28 2 54 2 58 1 4 1 9 -1 12 -8 23 -7 60 3 60 8 0 8 3 2 8
-13 9 -35 58 -35 77 0 8 9 15 20 15 11 0 20 4 20 9 0 9 55 6 88 -5z m149 -2
c10 -6 12 -90 8 -383 -3 -206 -5 -395 -5 -421 l-1 -48 -71 0 c-65 0 -70 1 -52
15 17 13 17 14 2 15 -27 0 -25 50 1 50 25 0 36 17 21 34 -8 11 -8 16 2 20 10
5 10 7 1 12 -18 8 -16 24 3 24 13 0 14 3 5 14 -9 11 -9 15 1 19 8 3 5 6 -7 6
-18 1 -18 3 5 21 22 16 23 20 8 25 -9 4 -14 13 -11 21 3 8 0 14 -6 14 -12 0
-9 143 4 194 6 21 5 27 -4 22 -6 -4 -11 -2 -11 3 0 6 5 11 11 11 8 0 7 5 -1
15 -10 13 -10 19 4 33 19 22 21 42 4 42 -13 1 21 24 35 25 4 0 7 3 7 8 0 4 0
14 0 22 0 8 -9 15 -20 15 -21 0 -29 33 -10 45 15 9 12 62 -4 68 -17 7 -27 55
-12 61 19 8 80 6 93 -2z m-1230 -427 l2 -413 -62 5 c-34 3 -63 10 -65 14 -2 5
-13 9 -24 9 -19 0 -20 4 -14 43 7 45 25 71 33 50 9 -26 19 -12 15 21 l-4 35
-24 -26 c-24 -25 -24 -26 -24 -4 0 12 4 20 9 17 5 -3 11 1 15 9 3 9 19 15 38
16 18 1 25 3 16 6 -10 2 -18 11 -18 18 0 7 -13 16 -30 20 -17 4 -30 13 -30 21
0 9 4 12 10 9 5 -3 18 -1 27 4 16 9 14 10 -9 11 -39 0 -35 17 7 24 24 5 32 11
29 21 -5 11 -11 12 -24 5 -13 -7 -21 -7 -25 0 -3 5 -1 10 4 10 6 0 11 5 11 10
0 6 -7 10 -15 10 -10 0 -15 11 -15 35 0 21 5 35 13 35 19 0 18 48 -2 53 -11 3
-17 14 -16 33 0 24 5 30 28 32 15 2 27 8 27 13 0 6 -4 8 -9 5 -5 -4 -20 -2
-33 3 -17 7 -18 10 -5 10 21 1 23 21 2 21 -8 0 -15 5 -15 10 0 6 7 10 15 10 8
0 15 5 15 11 0 6 -7 9 -15 5 -9 -3 -15 0 -15 10 0 9 9 18 20 21 20 5 20 5 0
33 -11 15 -18 37 -15 49 2 11 0 21 -6 21 -20 0 -8 20 14 21 20 1 20 2 -5 12
-50 20 -29 27 70 26 l97 -2 2 -412z m-903 253 c3 -79 8 -264 11 -411 l6 -269
-53 7 c-62 8 -58 6 -64 38 -3 17 1 29 12 35 12 7 14 14 7 27 -12 21 -5 65 10
65 6 0 2 6 -8 14 -11 8 -23 12 -27 10 -4 -3 -5 2 -2 10 3 9 15 16 25 16 18 0
18 1 4 24 -13 19 -14 29 -5 45 9 17 7 23 -10 33 -23 15 -26 28 -6 28 11 0 14
14 14 55 0 30 -5 55 -9 55 -14 0 -11 28 4 34 9 5 9 7 0 12 -9 4 -10 11 -2 25
11 22 4 39 -17 39 -8 0 -14 4 -14 9 0 5 8 8 18 7 9 0 17 5 16 12 -1 6 -2 28
-2 48 -2 28 -6 35 -17 30 -19 -7 -19 -1 2 19 12 13 13 19 4 24 -8 5 -10 18 -5
36 4 18 2 30 -6 35 -23 15 -1 27 53 29 l55 2 6 -143z m177 105 c5 -195 7 -762
3 -776 -3 -9 -9 -15 -13 -13 -4 3 -31 6 -59 7 -42 2 -52 6 -52 20 0 10 6 20
13 22 7 3 4 6 -6 6 -26 1 -16 24 14 32 13 4 19 7 13 8 -20 2 -24 44 -7 64 15
15 15 20 3 27 -8 5 -18 6 -22 4 -4 -3 -16 0 -25 5 -16 9 -15 10 7 11 42 1 54
14 31 34 -16 15 -18 21 -8 37 6 10 18 19 25 19 10 0 9 4 -3 16 -9 9 -27 17
-41 17 -27 0 -34 17 -6 17 9 1 28 7 41 14 l23 13 -22 6 c-20 5 -22 10 -17 46
4 31 2 41 -9 41 -8 0 -14 7 -14 15 0 8 7 15 15 15 8 0 15 5 15 10 0 6 -4 10
-10 10 -6 0 -6 9 0 25 8 20 6 27 -5 31 -25 10 -18 37 8 31 20 -5 20 -5 5 7
-19 14 -24 46 -8 46 6 0 10 6 10 14 0 14 -28 15 -50 1 -16 -10 -11 12 6 30 12
12 15 28 12 65 -3 27 -3 52 0 55 3 3 34 5 69 5 l63 0 1 -37z m-345 16 c5 -8
11 -240 16 -584 l3 -219 -50 2 c-36 2 -55 9 -67 24 -19 22 -24 43 -8 33 6 -4
10 10 10 34 0 26 -5 41 -12 41 -7 1 -2 7 11 14 l24 14 -21 6 c-22 7 -31 26
-12 26 16 0 12 83 -5 107 -14 20 -14 22 6 28 17 6 19 9 8 16 -12 7 -12 9 1 9
11 0 11 3 2 12 -18 18 -15 38 6 39 15 1 15 2 1 6 -20 5 -29 34 -28 83 l1 35 8
-30 8 -30 1 27 c0 15 -3 29 -9 33 -5 3 -7 33 -3 71 5 53 3 64 -8 62 -11 -2
-15 14 -17 69 l-3 72 33 4 c54 6 99 4 104 -4z m470 -2 c5 -4 7 -452 4 -769 0
-27 -2 -28 -51 -28 -49 0 -51 1 -47 25 3 14 1 25 -6 25 -6 1 5 9 24 20 30 16
32 19 13 20 -14 0 -23 6 -23 16 0 8 -4 13 -9 10 -5 -4 -7 3 -4 13 3 11 12 22
21 26 15 6 15 8 -3 21 -15 11 -17 17 -8 22 9 5 11 24 8 55 -3 27 -1 47 5 47 6
0 10 5 10 10 0 6 -9 10 -20 10 -26 0 -26 17 0 25 17 5 18 10 9 27 -14 26 6 81
22 57 7 -12 9 -11 9 3 0 9 -9 18 -20 20 -31 5 -24 21 13 35 23 8 27 12 12 13
-19 1 -18 2 3 10 36 15 27 39 -18 46 -22 4 -40 10 -40 15 0 5 3 9 8 9 4 0 8
20 8 45 1 25 -2 45 -7 45 -19 0 5 30 25 31 19 2 19 2 -3 6 -20 4 -23 9 -18 39
3 19 2 34 -4 34 -5 0 -9 6 -9 13 0 9 14 13 45 12 25 -1 48 -5 51 -8z m-630
-104 c0 -60 4 -243 9 -407 8 -283 7 -299 -9 -293 -10 4 -38 7 -63 7 -40 0 -45
2 -40 20 3 11 0 20 -5 20 -6 0 -5 6 2 15 8 10 10 29 6 55 -5 34 -4 40 11 41
13 0 11 3 -7 10 -33 14 -35 16 -17 33 8 8 17 12 21 9 3 -4 6 1 6 10 0 10 -4
17 -10 17 -5 0 -10 9 -10 20 0 11 4 20 8 20 17 0 8 33 -10 38 -24 6 -23 18 2
25 17 4 19 9 11 29 -5 13 -7 36 -4 51 5 24 -9 38 -20 20 -2 -5 -2 -2 -1 5 2 6
-1 12 -6 12 -6 0 -10 5 -10 10 0 6 15 10 33 10 25 1 29 3 15 10 -9 6 -14 18
-11 29 3 10 0 22 -6 25 -6 4 -11 0 -11 -8 0 -9 -4 -16 -10 -16 -15 0 -12 60 4
66 18 7 15 66 -4 81 -13 10 -13 12 2 18 13 5 15 15 11 42 -4 24 -2 38 8 45 11
8 10 9 -3 4 -10 -3 -20 -1 -23 4 -13 21 9 30 68 30 l62 0 1 -107z m-4553 91
c4 -4 4 -11 0 -17 -4 -6 -8 -181 -9 -390 -1 -208 -4 -381 -7 -383 -2 -3 -23
-2 -46 2 -37 6 -39 8 -24 20 17 12 16 13 -4 14 -16 0 -21 4 -16 15 3 9 8 13
11 11 8 -9 31 27 32 49 0 17 -2 17 -10 5 -8 -13 -10 -13 -10 2 0 9 5 20 10 23
6 4 8 11 4 16 -3 6 3 13 15 16 12 3 21 10 21 15 0 6 -6 8 -14 5 -8 -3 -20 1
-28 10 -10 13 -10 17 0 20 14 5 16 33 2 33 -5 0 -10 7 -10 15 0 9 9 15 25 15
15 0 25 6 25 14 0 15 -21 26 -51 26 -23 0 -26 25 -3 34 8 3 12 2 9 -4 -3 -6 0
-10 8 -10 10 0 13 7 10 20 -3 11 -9 20 -14 20 -19 0 -8 16 12 17 40 3 40 20 1
26 -12 2 -28 9 -34 15 -9 9 -7 12 10 12 17 0 22 6 22 25 0 14 -4 25 -10 25 -5
0 -10 -5 -10 -11 0 -5 -4 -7 -10 -4 -17 10 12 32 37 27 17 -3 23 0 23 14 0 14
-2 16 -9 6 -7 -11 -9 -10 -15 3 -3 9 -10 13 -16 10 -14 -9 -12 14 3 29 7 7 19
15 27 19 12 4 12 6 -1 6 -9 1 -22 8 -29 16 -10 12 -9 15 7 15 11 0 22 3 25 6
13 12 -6 43 -33 54 -33 14 -40 35 -9 27 17 -4 20 0 20 24 0 16 -6 29 -12 30
-15 1 30 17 53 18 9 1 19 -2 22 -5z m1562 -4 c-3 -5 -23 -10 -43 -10 -20 0
-32 -4 -26 -8 6 -4 13 -15 17 -24 9 -25 26 -23 20 2 -4 15 0 20 15 20 11 0 27
3 36 6 24 9 49 -50 42 -105 -3 -25 -8 -66 -11 -91 -3 -32 -2 -39 4 -25 9 19
10 19 10 -2 1 -18 -5 -23 -23 -23 -14 0 -28 5 -31 10 -10 16 -32 11 -37 -8 -4
-16 1 -18 41 -18 l46 1 3 -70 c4 -98 -21 -181 -43 -145 -5 8 -12 7 -22 -1 -13
-11 -12 -14 6 -21 12 -4 27 -5 34 -2 11 4 15 -23 20 -133 4 -79 2 -142 -3
-147 -15 -15 -100 14 -100 34 0 10 -6 20 -12 23 -10 3 -10 9 -1 28 14 27 14
68 0 86 -5 7 -6 20 -3 30 3 10 6 37 8 60 1 23 5 40 8 38 4 -2 5 22 2 53 -3 33
-10 60 -18 65 -20 11 -17 27 4 27 13 0 14 2 3 9 -9 6 -10 10 -2 16 9 5 9 10 0
21 -9 11 -9 17 0 28 9 11 9 15 -1 19 -8 4 -5 8 10 12 12 4 22 14 22 21 0 8 7
17 15 20 10 4 13 14 9 29 -3 13 -1 26 5 29 21 13 11 26 -19 26 -16 0 -30 -5
-30 -11 0 -8 -5 -8 -15 1 -8 7 -15 28 -15 47 0 19 -4 43 -10 53 -8 15 -5 20
18 28 36 14 75 15 67 2z m2800 -2 c2 -7 6 -188 9 -402 l5 -389 -46 7 c-25 3
-55 6 -66 6 -16 0 -17 3 -7 15 10 12 10 15 -4 15 -9 0 -16 5 -16 11 0 5 5 7
10 4 15 -9 22 18 11 46 -6 16 -5 32 1 44 9 14 7 21 -8 32 -18 13 -18 14 3 19
19 5 20 10 12 31 -5 14 -7 34 -4 43 3 10 -1 25 -10 33 -19 19 -19 27 -1 27 11
0 13 12 9 58 -3 31 -9 59 -13 62 -14 9 -18 121 -4 127 12 4 16 73 3 73 -4 0
-9 9 -12 20 -3 11 -1 18 4 14 5 -3 9 15 9 40 0 25 -4 48 -10 51 -25 16 -5 25
55 25 44 0 67 -4 70 -12z m-3158 -401 c-2 -341 -4 -392 -17 -392 -8 0 -15 7
-15 15 0 8 -5 16 -10 17 -6 1 -9 -5 -7 -13 4 -19 -25 -29 -42 -14 -12 9 -15
69 -15 342 0 181 2 329 4 327 2 -2 5 -80 7 -172 4 -126 8 -171 18 -177 11 -7
10 -11 -3 -25 -10 -9 -17 -28 -17 -42 0 -21 2 -24 15 -13 13 11 15 6 15 -34 0
-31 -4 -45 -11 -41 -6 4 -5 -2 2 -13 12 -19 14 -19 26 -4 11 15 12 15 13 -6 0
-13 4 -20 10 -17 16 10 13 645 -3 645 -8 0 -7 4 3 9 8 6 17 8 21 5 4 -2 6
-181 6 -397z m569 301 c-3 -46 -5 -100 -5 -120 -1 -33 -4 -38 -23 -37 -22 0
-22 1 -3 9 16 7 12 9 -23 15 -26 5 -39 11 -32 15 7 4 10 12 6 18 -3 6 -2 13 4
17 6 4 8 10 5 15 -3 4 6 11 20 14 34 9 32 22 -4 29 -28 6 -29 8 -24 47 5 33 3
40 -11 40 -9 0 -16 5 -16 10 0 6 25 10 56 10 l56 0 -6 -82z m2427 -160 c4
-133 7 -304 7 -380 l0 -138 -35 0 c-40 0 -42 2 -48 88 -5 59 -4 62 19 68 32 8
30 20 -5 27 -26 5 -29 10 -28 42 1 19 5 35 10 35 9 0 37 25 37 34 0 3 -9 6
-20 6 -10 0 -24 9 -30 19 -14 26 -13 31 5 25 8 -4 15 -1 15 5 0 6 -4 11 -10
11 -5 0 -10 7 -10 15 0 8 7 15 15 15 8 0 15 5 15 10 0 6 -6 10 -14 10 -8 0
-15 14 -18 35 -4 37 13 57 57 67 17 4 16 6 -8 16 -16 7 -33 10 -38 7 -10 -7
-20 30 -17 63 1 13 9 22 18 22 9 0 25 7 36 16 10 8 13 13 7 9 -8 -4 -13 0 -13
9 0 8 -10 16 -22 18 -18 2 -23 10 -25 40 -3 39 3 45 63 47 l31 1 6 -242z
m2027 133 c3 -1 4 -18 2 -38 -2 -21 -4 -48 -4 -60 0 -13 -4 -23 -9 -23 -5 0
-4 -12 1 -26 18 -47 13 -64 -19 -64 -16 0 -42 3 -59 6 -27 6 -30 9 -21 25 7
15 6 21 -6 25 -26 10 -16 24 18 24 45 0 66 15 35 25 -22 7 -22 7 7 14 28 7 27
8 -20 16 -27 5 -43 10 -34 12 10 3 17 14 17 28 0 20 -6 25 -27 26 -18 1 -14 4
14 8 33 6 84 7 105 2z m-3934 -77 c-2 -21 -4 -42 -5 -47 -1 -4 -12 -5 -26 -1
-15 4 -25 2 -25 -5 0 -6 11 -11 24 -11 21 0 25 -6 31 -42 6 -34 4 -44 -11 -55
-17 -12 -17 -15 -4 -23 13 -7 16 -39 15 -207 l0 -198 -35 2 c-79 5 -77 4 -84
42 -9 54 -7 91 4 91 6 0 11 -10 11 -22 l2 -23 4 23 c3 13 12 22 22 22 12 0 17
7 16 23 -1 16 -9 23 -28 25 -35 4 -35 22 1 23 15 1 20 3 10 6 -35 9 -31 58 6
73 20 8 19 9 -5 9 -44 1 -53 51 -18 96 18 22 20 29 8 36 -8 5 -22 9 -31 9 -10
0 -18 5 -18 10 0 6 5 10 11 10 5 0 7 5 4 10 -12 20 5 50 28 47 16 -1 22 3 22
18 0 15 -7 20 -25 20 -22 0 -25 4 -25 43 0 47 8 53 58 45 22 -3 37 -1 42 7 13
21 25 -12 21 -56z m3705 -306 c0 -24 3 -81 5 -128 7 -115 2 -130 -40 -130 -30
0 -34 4 -40 31 -3 18 -2 37 4 43 5 7 12 31 16 55 4 23 13 45 20 48 11 4 11 8
-1 20 -8 8 -16 25 -16 39 -1 13 -2 30 -3 37 -1 6 5 15 14 19 33 14 40 8 41
-34z m-4446 -484 c13 -5 14 -8 3 -15 -10 -6 -14 -47 -15 -161 -2 -84 -4 -164
-6 -178 -16 -104 -27 -361 -16 -354 4 2 7 -73 6 -168 -1 -137 -2 -155 -7 -88
-5 68 -7 75 -9 35 -3 -49 -3 -50 -11 -15 -5 19 -6 38 -3 43 10 17 20 162 11
174 -9 11 -4 186 9 363 3 47 5 135 4 197 -3 98 4 173 14 173 2 0 11 -3 20 -6z
m3749 -22 c28 -7 31 -13 34 -52 6 -74 -5 -108 -40 -126 -28 -14 -103 -16 -673
-17 -353 0 -647 3 -653 7 -8 5 -12 41 -12 101 l0 94 33 3 c69 7 1283 -3 1311
-10z m-3540 -27 c3 -8 0 -14 -7 -12 -19 3 -23 -72 -8 -136 10 -43 17 -55 26
-47 9 7 16 5 26 -6 12 -14 14 -13 23 8 8 19 11 13 16 -42 8 -85 2 -362 -8
-369 -7 -5 -10 -53 -15 -283 -2 -72 -9 -99 -23 -85 -3 3 -8 34 -11 69 -5 62
-23 93 -63 112 -8 3 -3 4 12 3 20 -3 27 0 26 12 -1 9 0 36 1 61 2 35 4 41 11
25 8 -18 9 -17 9 8 1 15 -3 27 -9 27 -15 0 -12 27 3 33 10 4 14 25 13 79 -2
84 -16 122 -28 73 -5 -21 -6 -14 -4 25 1 30 -1 69 -5 85 -4 21 -7 4 -8 -52 0
-48 -5 -83 -11 -83 -12 0 -13 144 -1 245 5 41 4 80 -1 95 -17 43 -15 149 2
160 21 13 27 12 34 -5z m-715 -2 c21 -5 23 -10 17 -52 -6 -46 -6 -46 12 -23
16 20 25 23 72 20 l55 -3 6 -130 c4 -71 9 -139 12 -150 10 -35 16 -98 9 -91
-3 4 -9 28 -12 54 -3 26 -5 -83 -5 -243 0 -159 -1 -318 -3 -352 l-4 -63 -33 0
c-52 0 -94 11 -89 24 2 6 0 54 -5 106 l-8 95 -2 -107 -1 -108 -57 1 c-50 0
-55 2 -33 11 14 6 21 12 15 14 -6 2 -8 29 -6 61 9 150 9 283 0 283 -16 0 -11
123 7 148 8 12 11 22 6 22 -15 0 -21 51 -12 100 4 25 5 47 2 50 -4 3 -8 21
-10 40 -1 19 -6 37 -11 40 -12 8 -23 78 -12 82 12 4 16 77 6 101 -5 12 0 23
16 37 l24 19 -42 1 c-23 0 -45 5 -48 10 -7 11 95 14 134 3z m1385 -55 c-15
-165 -20 -304 -14 -368 l8 -75 -2 83 c0 45 2 82 6 82 5 0 8 51 8 114 0 122 8
206 20 206 4 0 6 -33 5 -72 -8 -181 -16 -403 -25 -635 -4 -139 -11 -257 -15
-263 -3 -6 -10 -8 -15 -5 -5 3 -10 -5 -12 -17 -3 -20 -10 -23 -52 -26 -27 -2
-54 2 -59 7 -8 8 0 11 26 11 34 0 38 3 44 30 3 17 9 30 14 30 5 0 9 15 9 33 0
18 5 38 12 45 9 9 8 12 -5 12 -20 0 -23 26 -4 33 6 2 10 7 7 10 -3 4 -30 0
-59 -8 -47 -12 -52 -12 -47 2 5 11 1 14 -12 11 -11 -3 -26 -1 -35 3 -10 6 -20
4 -30 -5 -10 -11 -29 -14 -63 -10 -27 2 -71 6 -97 8 -70 5 -87 24 -80 94 3 31
11 60 17 64 6 5 38 5 71 3 124 -12 340 -23 344 -19 3 2 -1 10 -7 16 -7 7 -12
20 -12 29 0 29 -20 33 -46 8 l-24 -22 0 21 c0 24 -15 30 -24 10 -5 -10 -7 -10
-12 0 -9 20 -24 14 -24 -10 0 -18 -2 -20 -10 -8 -8 12 -10 12 -15 -2 -8 -21
-62 -19 -177 8 l-78 18 1 36 c0 28 2 31 9 15 9 -20 10 -16 14 70 1 19 8 20
106 19 58 0 134 -5 170 -11 42 -7 69 -7 77 -1 7 5 17 7 23 3 15 -9 20 11 23
88 1 44 -2 67 -9 67 -7 0 -9 -11 -6 -26 3 -18 1 -25 -9 -22 -8 1 -15 0 -16 -5
-7 -18 -2 -26 12 -21 17 7 19 -4 6 -25 -6 -9 -20 -11 -50 -6 -29 5 -47 3 -58
-7 -13 -10 -17 -10 -20 0 -3 6 -12 12 -20 12 -13 0 -13 -3 -3 -15 11 -13 5
-15 -44 -15 -43 0 -56 3 -56 15 0 18 -11 19 -44 3 -21 -9 -29 -8 -44 5 -10 10
-26 17 -35 17 -13 0 -17 9 -17 40 0 22 5 40 10 40 6 0 10 13 10 30 0 25 4 30
35 36 19 3 72 3 117 0 46 -4 120 -9 166 -11 l83 -4 -7 36 c-5 26 -4 34 5 29 7
-5 11 2 11 18 0 16 -6 26 -15 26 -8 0 -15 -4 -15 -10 0 -11 -85 -50 -111 -50
-11 0 -19 -4 -19 -10 0 -13 -103 -13 -116 0 -8 8 -31 12 -126 22 -10 1 -18 3
-18 4 0 0 5 16 11 33 8 23 15 29 22 22 17 -17 27 -13 27 9 0 11 5 20 11 20 7
0 9 -10 7 -24 -3 -16 0 -27 9 -31 21 -7 33 3 26 21 -3 9 3 21 17 31 25 18 13
32 -30 34 l-25 1 25 8 c24 8 24 8 -6 9 -23 1 -33 7 -37 21 -4 16 0 20 16 19
12 0 16 -3 10 -6 -25 -10 -12 -23 22 -23 24 0 35 5 35 15 0 17 23 18 85 6 l40
-9 -40 -2 c-41 -2 -38 -4 29 -15 29 -5 36 -9 25 -16 -10 -6 -10 -9 -1 -9 6 0
12 -4 12 -10 0 -5 -16 -10 -35 -10 -19 0 -35 -4 -35 -10 0 -11 45 -20 125 -23
l59 -2 8 50 c10 71 17 95 27 95 5 0 7 -19 5 -42z m256 32 c14 -4 18 -8 11 -9
-12 -1 -12 -4 -3 -13 10 -10 15 -10 22 2 17 27 19 4 10 -86 -5 -49 -14 -183
-19 -297 -5 -115 -12 -211 -15 -215 -21 -21 -34 102 -17 163 6 22 7 43 3 47
-5 5 -5 41 0 81 4 39 9 87 10 105 1 17 4 32 7 32 6 0 4 111 -3 117 -2 2 -31 4
-65 5 -56 1 -60 2 -57 22 3 19 9 21 57 19 36 -1 49 1 39 7 -8 6 -23 10 -32 10
-10 0 -18 5 -18 10 0 12 34 12 70 0z m-2174 -35 c16 -8 23 -15 15 -15 -9 0
-10 -4 -4 -12 6 -7 16 -71 23 -141 10 -104 10 -131 0 -137 -10 -6 -9 -9 1 -13
8 -3 -8 -5 -36 -5 -42 1 -44 2 -15 6 l35 5 -29 6 c-17 3 -28 11 -25 16 2 6 7
9 10 8 4 -1 3 14 -2 35 -12 52 -12 52 22 52 20 0 29 4 26 13 -2 7 -20 11 -45
10 -37 -1 -41 1 -38 20 1 11 8 23 14 25 17 5 15 49 -3 56 -8 3 -15 12 -15 20
0 8 -6 17 -12 20 -7 4 5 4 27 1 28 -3 35 -2 25 5 -8 5 -25 10 -37 10 -32 0
-28 18 5 23 15 2 28 5 28 6 1 0 15 -6 30 -14z m1378 -190 c-3 -55 -5 -133 -5
-172 0 -42 -4 -73 -10 -73 -6 0 -6 -7 1 -19 6 -12 6 -22 1 -26 -6 -3 -10 -29
-9 -58 0 -28 -4 -77 -10 -107 -7 -40 -8 20 -5 215 4 279 18 429 35 370 4 -16
5 -75 2 -130z m5950 93 c3 -13 6 -69 6 -126 0 -102 0 -103 23 -97 12 4 24 7
27 7 60 1 83 -3 70 -12 -9 -6 -10 -10 -3 -10 8 0 11 -32 8 -120 -2 -68 1 -122
6 -126 5 -3 7 -9 4 -14 -5 -8 -6 -92 -3 -198 1 -26 -4 -47 -11 -51 -10 -7 -10
-9 1 -13 18 -7 23 -78 6 -78 -8 -1 -6 -6 5 -14 10 -8 14 -17 9 -20 -10 -6 -9
-56 2 -75 5 -8 3 -17 -5 -22 -12 -7 -11 -9 1 -9 12 0 12 -2 1 -9 -7 -5 -9 -11
-3 -14 5 -4 10 -71 10 -156 1 -138 -1 -151 -18 -156 -27 -8 -76 5 -58 16 9 6
7 9 -9 9 -13 0 -23 5 -23 10 0 6 5 10 10 10 6 0 9 15 9 33 -1 17 -3 24 -6 15
-11 -43 -19 -10 -20 83 -1 55 -4 103 -7 107 -13 12 -5 22 19 22 14 0 25 5 25
10 0 6 -9 10 -19 10 -11 0 -23 5 -26 10 -20 32 -24 -5 -21 -162 2 -105 0 -178
-7 -185 -12 -16 -56 -15 438 -12 722 4 898 3 957 -7 72 -13 84 -24 27 -26
l-44 -1 45 -7 c25 -4 38 -8 28 -8 -9 -1 -18 -7 -20 -13 -5 -14 -206 -18 -1040
-23 -532 -3 -638 -1 -638 10 0 11 -40 14 -202 16 -143 2 -167 3 -80 5 70 2
122 8 122 13 0 6 -17 10 -37 10 -21 0 -45 5 -53 10 -8 5 -13 10 -10 10 3 0 85
1 182 3 162 2 209 10 113 20 -22 2 -41 9 -43 16 -3 9 6 11 29 6 52 -9 62 3 45
51 -14 36 -15 37 -22 16 -9 -29 -30 -22 -27 9 2 21 3 143 2 192 0 10 -8 17
-19 17 -10 0 -21 4 -24 9 -7 10 17 21 47 21 17 0 19 3 8 9 -11 7 -10 14 5 41
14 23 16 34 7 37 -7 2 -9 11 -6 19 4 10 -2 17 -16 21 -23 6 -30 48 -8 56 6 3
2 6 -11 6 -49 2 -8 21 45 21 79 0 60 11 -27 15 -80 5 -108 15 -42 15 47 0 48
1 26 36 -23 35 -27 83 -9 120 8 18 12 39 9 48 -4 11 -1 16 10 16 18 0 21 16 5
26 -8 4 -7 9 2 15 11 8 10 12 -6 25 -16 12 -20 27 -20 80 0 47 4 67 15 74 12
8 13 13 2 30 -11 18 -10 20 15 21 l28 1 -30 7 c-26 5 -31 12 -38 51 -8 46 -5
86 11 151 9 34 8 36 -11 31 -14 -3 -18 -1 -13 6 4 7 1 12 -6 12 -9 0 -9 3 2
10 8 5 72 10 141 10 123 0 127 -1 133 -22z m444 -127 c-3 -23 -7 -25 -61 -26
-39 0 -61 -5 -67 -15 -7 -10 -10 3 -10 42 0 31 -2 63 -6 71 -4 11 6 14 50 13
33 0 61 5 68 12 11 11 14 5 21 -30 4 -24 6 -54 5 -67z m-3945 76 c24 -11 27
-17 27 -59 0 -49 -15 -66 -23 -25 -3 16 -5 14 -6 -10 0 -17 4 -33 10 -35 6 -2
13 -24 16 -49 5 -41 3 -45 -17 -45 -20 0 -21 4 -16 41 3 22 1 58 -3 80 -10 48
-14 34 -15 -60 l-1 -70 -137 -3 -136 -3 -7 63 c-4 35 -5 83 -3 108 l3 45 60 1
c113 2 126 4 120 14 -3 6 -22 10 -41 10 -19 0 -34 4 -34 8 0 12 170 3 203 -11z
m-4083 -46 c25 -5 41 -9 36 -10 -5 0 -3 -8 4 -16 11 -13 15 -13 21 -3 6 9 9 6
9 -10 0 -13 -4 -20 -10 -17 -6 3 -7 -1 -4 -9 4 -9 1 -16 -6 -16 -9 0 -9 -4 -2
-12 5 -7 13 -27 16 -44 6 -29 4 -32 -21 -39 -26 -6 -27 -8 -10 -20 18 -13 18
-14 -3 -25 -20 -11 -20 -13 -6 -29 9 -10 16 -23 16 -30 0 -7 7 -20 16 -29 15
-14 16 -12 13 30 -2 25 -1 44 3 42 4 -3 9 19 11 48 3 29 2 -80 0 -242 -3 -162
-5 -305 -5 -317 2 -26 -14 -31 -88 -29 -137 5 -155 7 -135 16 11 4 34 6 50 4
l30 -4 -30 11 c-40 16 -47 29 -30 56 16 24 10 53 -11 53 -18 0 -18 14 1 30 9
8 13 21 9 32 -4 15 -1 19 13 18 32 -4 44 0 38 10 -4 6 -16 10 -28 8 -18 -2
-23 3 -27 33 -4 20 -4 52 -2 72 4 33 7 37 33 37 16 0 29 4 29 10 0 5 -12 8
-27 7 -26 -2 -28 1 -29 38 -1 22 1 55 4 73 4 29 8 33 29 29 30 -5 43 12 14 20
-15 4 -21 13 -21 33 0 16 5 31 10 33 6 3 5 4 -2 3 -7 -1 -16 -18 -19 -37 -5
-29 -7 -30 -9 -9 -2 14 -3 31 -3 38 1 6 -5 12 -13 12 -24 0 -15 18 14 26 20 5
23 8 9 11 -13 3 -16 11 -11 31 4 21 3 24 -5 12 -8 -11 -11 -4 -11 33 l0 47 48
-1 c26 0 67 -4 92 -8z m5670 -106 c118 -7 271 -18 340 -24 69 -6 163 -13 209
-16 47 -3 85 -6 87 -8 1 -1 6 -22 11 -47 12 -58 -3 -101 -32 -90 -11 3 -58 8
-105 9 -46 1 -89 5 -95 9 -5 3 -55 6 -109 7 -68 0 -101 4 -103 12 -3 9 -41 11
-149 7 -85 -3 -144 -2 -144 4 0 5 -42 7 -100 5 l-100 -5 0 35 c0 19 3 55 6 80
6 45 7 46 38 41 17 -3 128 -12 246 -19z m2314 -1 c17 -6 23 -44 7 -44 -5 0 -5
-19 0 -43 10 -54 10 -265 0 -272 -4 -2 -5 -28 -1 -57 4 -29 8 -194 9 -367 1
-172 4 -318 7 -322 3 -5 -33 -9 -79 -9 l-84 0 5 25 c3 16 11 25 23 25 11 0 19
5 19 10 0 6 -7 10 -15 10 -18 0 -19 12 -3 28 9 9 8 18 -2 39 -17 37 -16 133 1
145 11 7 9 8 -5 6 -10 -2 -21 3 -23 10 -3 6 0 12 6 12 6 0 11 7 11 15 0 8 -4
15 -10 15 -19 0 -10 21 13 30 17 7 18 9 5 9 -26 1 -22 21 5 22 21 2 21 2 1 6
-24 5 -38 45 -21 62 7 7 5 16 -6 29 -22 24 -21 32 1 32 23 0 26 60 2 61 -10 0
-9 3 5 9 19 8 19 9 -2 9 -13 1 -23 6 -23 11 0 6 10 11 23 11 20 1 20 2 2 7
l-20 5 20 8 c19 7 18 8 -4 8 -20 1 -21 3 -11 16 8 10 10 30 6 60 -6 34 -4 45
6 45 8 0 9 3 3 8 -17 12 -17 62 0 62 19 0 19 29 0 36 -8 4 -13 10 -10 14 3 4
-3 11 -13 15 -16 6 -16 7 0 16 14 7 15 15 8 34 -5 14 -5 27 0 30 5 3 7 30 6
60 -2 42 1 55 13 58 25 7 108 8 125 1z m202 -4 c9 0 14 -10 14 -27 -2 -149 1
-233 9 -233 5 0 8 -11 7 -25 0 -14 -5 -25 -10 -25 -5 0 -2 -7 5 -17 11 -13 11
-17 2 -20 -15 -5 -17 -59 -3 -68 6 -4 7 -12 3 -18 -12 -19 -12 -36 -1 -43 6
-4 5 -10 -3 -15 -16 -9 -13 -80 4 -91 7 -4 4 -12 -7 -23 -12 -13 -14 -21 -6
-30 6 -8 7 -16 2 -19 -5 -3 -8 -18 -5 -33 9 -68 10 -123 1 -123 -5 0 -7 -8 -4
-17 3 -10 6 -67 7 -126 2 -59 6 -110 11 -113 17 -11 -35 -44 -66 -43 -17 0
-25 3 -18 6 24 10 11 23 -24 23 -21 0 -33 4 -29 10 3 6 16 10 28 10 18 0 19 2
7 10 -10 6 -11 13 -5 18 16 11 19 73 3 84 -10 7 -10 11 0 15 7 3 12 23 12 49
0 39 -3 44 -22 45 l-23 2 23 4 c26 5 20 23 -9 23 -10 0 -19 5 -19 10 0 6 21
10 47 10 43 0 45 1 27 15 -10 8 -29 15 -41 15 -30 0 -38 17 -12 25 15 5 18 10
10 18 -19 19 -13 47 12 48 15 0 9 5 -18 13 l-40 13 30 7 c17 4 35 9 40 11 6 1
-2 8 -17 15 -34 16 -36 28 -4 36 25 6 30 35 8 44 -8 3 -13 10 -13 15 0 6 -10
15 -22 21 -19 11 -15 13 34 22 33 6 43 10 26 11 -16 0 -35 7 -42 15 -12 12
-12 16 0 26 8 7 12 17 8 24 -12 18 -10 30 7 38 11 5 9 7 -7 7 -35 1 -36 18 0
25 l32 7 -30 14 c-30 13 -30 13 -5 16 21 1 19 3 -10 9 l-35 7 44 8 c42 8 43 8
20 21 -22 12 -22 13 -4 14 11 1 15 4 8 6 -7 3 -9 12 -6 20 4 10 -2 17 -16 21
-26 7 -26 10 2 33 l22 19 -22 -6 c-19 -4 -23 -1 -23 16 0 14 6 21 20 21 25 0
27 20 3 20 -17 1 -17 1 0 14 15 12 16 15 2 26 -9 7 -14 18 -12 24 4 13 46 26
65 20 8 -2 20 -4 28 -4z m241 -20 c1 -11 -4 -20 -13 -20 -19 0 -18 -17 4 -29
15 -9 15 -12 2 -22 -11 -8 -12 -12 -2 -16 15 -6 16 -90 1 -95 -8 -3 -9 -17 -1
-53 6 -27 7 -52 4 -55 -4 -3 -7 -49 -7 -104 0 -72 -3 -100 -12 -103 -9 -4 -10
-9 -4 -17 5 -6 13 -39 17 -73 6 -54 4 -64 -11 -69 -13 -5 -14 -9 -3 -15 21
-13 13 -287 -10 -313 -9 -11 -11 -16 -4 -12 9 5 12 -3 12 -28 0 -19 3 -41 6
-50 5 -14 -4 -16 -60 -16 -70 0 -67 -3 -49 50 3 8 6 63 7 122 1 78 -2 109 -11
113 -19 7 -16 25 4 25 13 0 14 3 5 12 -15 15 -16 64 -1 73 7 5 5 15 -5 30 -10
15 -12 26 -6 30 6 3 10 15 10 25 0 14 -5 18 -17 13 -17 -6 -17 -5 0 15 12 13
16 28 13 40 -4 13 0 27 11 38 17 17 17 17 1 11 -12 -4 -18 -2 -18 8 0 8 8 15
18 16 10 0 12 3 5 6 -7 2 -13 11 -13 19 0 8 -6 14 -12 14 -10 0 -9 3 1 9 9 6
11 18 7 34 -3 14 -1 29 4 32 8 5 7 11 -1 21 -10 12 -8 16 9 21 l21 5 -21 17
c-15 12 -18 22 -12 32 5 8 7 21 6 31 -2 9 2 19 8 23 6 4 5 12 -5 22 -14 14
-14 17 0 33 13 14 13 19 2 28 -8 7 -17 9 -20 5 -4 -3 -7 -1 -7 5 0 6 9 14 20
17 15 5 19 12 15 25 -3 10 -1 21 5 25 16 10 12 25 -7 25 -14 1 -13 4 6 14 18
10 20 15 10 19 -8 3 11 6 41 6 49 1 56 -1 57 -19z m-8126 -37 c2 -63 -4 -108
-14 -115 -9 -6 -9 -8 1 -8 8 0 12 -19 12 -60 l0 -60 -40 0 c-36 0 -40 2 -31
18 14 26 1 72 -23 82 -17 7 -15 9 16 9 43 1 62 21 21 22 l-28 1 25 8 c23 7 23
8 3 9 -22 1 -44 21 -24 21 6 0 11 7 11 16 0 9 -5 12 -12 8 -8 -5 -9 2 -5 24 6
28 4 32 -16 33 -21 1 -21 1 3 9 14 4 42 8 63 9 34 1 37 -1 38 -26z m8295 -15
c-2 -18 2 -39 7 -45 6 -8 6 -13 0 -13 -14 0 -9 -40 7 -50 9 -6 7 -10 -10 -15
-16 -5 -19 -9 -10 -15 8 -5 10 -17 6 -34 -5 -19 -2 -28 9 -32 12 -5 13 -9 4
-20 -13 -16 -114 -20 -104 -4 3 6 0 10 -7 10 -8 1 -7 5 5 14 13 10 16 21 11
40 -4 18 -2 26 7 27 8 0 3 5 -11 10 -24 10 -24 11 -5 22 21 13 26 37 10 49 -5
4 -2 10 8 14 9 3 17 12 17 19 0 7 9 15 20 18 11 3 20 9 19 14 -3 15 1 23 10
23 5 0 8 -15 7 -32z m-1746 -18 c0 -28 14 -32 116 -33 l87 -2 1 -505 1 -505
-47 -3 c-52 -3 -88 10 -88 34 0 8 3 13 8 11 4 -3 4 97 1 221 -4 125 -4 343 -2
485 3 173 1 257 -6 257 -9 0 -19 -721 -13 -926 1 -56 -1 -64 -23 -78 -14 -9
-25 -12 -25 -6 0 5 -11 10 -25 10 -16 0 -25 6 -25 15 0 9 9 15 23 15 16 0 18
3 8 9 -7 5 -11 13 -8 18 3 5 1 29 -4 53 -5 24 -6 46 -2 49 10 7 11 114 1 121
-4 3 -3 48 2 100 12 132 11 533 -1 541 -14 9 1 41 17 35 20 -8 17 3 -5 22 -14
13 -18 25 -14 50 6 35 23 44 23 12z m-135 -30 c3 -5 19 -10 35 -10 l28 0 -4
-257 c-6 -350 -5 -681 2 -709 6 -23 4 -24 -53 -24 -63 0 -79 6 -63 25 5 6 12
85 15 175 3 90 10 169 14 174 13 16 8 116 -5 116 -19 0 -23 26 -8 49 12 16 13
25 3 43 -9 16 -9 23 0 26 6 2 11 18 11 35 0 21 -3 28 -9 19 -5 -8 -6 8 -3 37
3 37 1 51 -8 51 -9 0 -9 4 1 17 11 13 11 17 2 20 -7 3 -13 12 -13 20 0 13 3
13 15 3 12 -10 15 -10 15 3 0 10 6 14 15 11 9 -4 15 0 15 9 0 8 -12 18 -27 22
-27 6 -27 7 -8 21 16 12 17 17 7 23 -8 5 -14 12 -14 17 -1 20 -18 54 -28 54
-5 0 -10 5 -10 10 0 6 12 10 26 10 14 0 23 4 19 10 -3 6 1 10 9 10 8 0 18 -4
21 -10z m-2121 -85 c5 -47 6 -155 5 -590 -1 -149 3 -242 10 -253 4 -7 6 -25 3
-39 -3 -18 -7 -21 -13 -11 -6 9 -9 7 -9 -9 0 -13 5 -23 10 -23 6 0 10 -12 10
-27 0 -37 7 -155 10 -168 5 -19 0 -35 -10 -35 -6 0 -10 6 -9 13 1 6 -1 20 -6
30 -4 10 -3 29 4 43 12 26 5 74 -10 74 -5 0 -9 17 -10 38 -1 37 -1 37 -9 8 -5
-16 -7 -33 -4 -37 2 -5 2 -19 -2 -33 -6 -25 -6 -25 -27 -5 -11 10 -27 18 -35
17 -8 -2 -18 7 -23 20 -7 18 -5 22 11 22 11 0 20 -3 20 -7 0 -5 11 -13 24 -19
20 -9 23 -8 19 6 -2 9 -20 22 -39 29 -20 7 -33 15 -30 18 3 4 1 12 -5 20 -9
10 -5 13 20 13 21 0 30 -4 25 -11 -7 -12 15 -31 28 -23 4 3 8 16 8 30 0 14 4
22 10 19 6 -3 10 -1 10 5 0 7 -7 10 -15 6 -8 -3 -25 -1 -37 4 l-23 9 22 0 c19
1 22 8 28 69 3 37 10 95 14 130 4 35 5 65 1 67 -4 2 -8 23 -9 47 -1 24 -5 70
-10 103 -4 32 -4 70 0 85 8 22 8 21 4 -7 -2 -18 0 -33 5 -33 5 0 11 -12 13
-27 2 -16 3 0 2 35 -2 38 -9 72 -20 88 -15 23 -22 25 -53 20 -44 -7 -76 8 -52
24 8 6 23 8 32 6 10 -2 21 0 24 5 9 15 32 10 37 -8 3 -10 5 -1 6 20 1 23 5 36
11 32 6 -3 10 3 10 15 0 12 -4 18 -10 15 -5 -3 -10 -1 -10 4 0 6 5 11 10 11 6
0 10 18 10 40 0 40 -15 55 -23 23 -4 -14 -5 -14 -6 3 -1 14 6 24 20 27 15 4
20 12 17 29 -2 13 -9 22 -16 21 -21 -5 -25 43 -6 65 10 12 21 19 24 17 4 -3
10 -30 14 -60z m-3544 28 c52 4 65 2 81 -14 25 -25 45 -24 54 4 6 16 10 1 16
-53 8 -82 1 -392 -9 -401 -4 -3 -53 -3 -110 0 l-103 6 -4 240 c-3 143 -1 234
4 226 7 -11 24 -13 71 -8z m3870 -138 c3 -55 5 -148 5 -207 0 -83 3 -109 14
-113 11 -4 10 -8 -4 -19 -14 -10 -17 -21 -12 -45 4 -18 2 -41 -3 -52 -7 -13
-7 -19 0 -19 14 0 13 -63 -2 -78 -9 -9 -8 -12 5 -12 9 0 17 -4 17 -9 0 -15
-30 -22 -50 -11 -14 8 -17 19 -15 57 7 86 4 126 -8 134 -6 4 0 10 12 14 21 6
26 16 14 28 -3 4 -12 2 -19 -4 -8 -7 -14 -7 -19 1 -8 13 4 32 16 25 5 -4 9 -1
9 4 0 6 -8 11 -17 12 -11 0 -13 3 -5 6 6 2 12 13 12 23 0 10 7 26 16 34 8 9
11 16 6 16 -5 0 -13 20 -19 44 -5 25 -7 45 -4 44 36 -4 41 14 9 30 -19 9 -20
11 -5 11 10 1 15 6 12 11 -4 6 -11 8 -16 5 -5 -4 -16 0 -24 9 -11 10 -12 17
-4 22 6 3 15 1 19 -5 4 -8 10 3 13 26 4 22 2 39 -3 41 -11 4 -13 42 -4 67 4 9
15 15 28 13 19 -3 21 -11 26 -103z m606 56 c32 12 54 12 54 -1 0 -5 -7 -7 -16
-3 -9 3 -19 1 -23 -5 -9 -15 -1 -102 10 -102 5 0 9 7 9 16 0 9 6 14 13 11 10
-4 13 2 9 21 -4 21 -2 24 12 19 10 -4 35 -7 56 -7 l39 0 0 -110 c0 -60 -3
-110 -7 -110 -4 0 -5 -48 -2 -107 7 -141 4 -421 -5 -461 -7 -35 -28 -41 -59
-17 -11 8 -29 15 -39 15 -15 0 -17 3 -9 13 6 7 9 23 5 35 -4 19 -2 21 13 15
16 -6 17 -4 6 9 -7 8 -9 24 -5 33 4 13 3 16 -6 10 -9 -5 -12 -2 -9 11 2 15 15
20 53 25 28 3 41 7 31 7 -43 4 -124 52 -87 52 5 0 11 9 14 21 4 15 2 19 -9 15
-8 -3 -14 -1 -14 3 0 13 27 21 67 21 41 0 41 7 2 12 -30 4 -67 37 -53 46 5 4
10 18 11 32 1 14 -1 19 -3 12 -3 -6 -10 -9 -15 -6 -14 8 10 34 26 28 7 -3 16
-1 20 5 3 6 -1 14 -9 17 -9 3 -16 12 -16 20 0 8 -7 14 -15 14 -8 0 -15 5 -15
10 0 6 5 10 10 10 6 0 10 6 10 14 0 8 6 17 13 20 6 3 2 3 -10 0 -13 -3 -23 -1
-23 5 0 6 11 13 25 17 29 7 34 24 8 24 -15 0 -15 2 -4 9 11 7 10 12 -8 22 -23
15 -29 31 -8 23 8 -3 13 3 13 16 0 11 -6 20 -14 20 -7 0 -10 5 -7 10 3 6 16
10 28 10 18 0 19 2 7 10 -8 5 -10 10 -5 10 6 0 -1 6 -15 14 -15 8 -29 9 -35 4
-6 -6 -12 -147 -15 -365 l-5 -357 -56 3 c-31 1 -73 8 -95 16 l-38 13 39 18
c40 19 40 19 43 84 2 41 9 71 19 82 14 16 13 18 -12 24 -15 4 -23 9 -17 13 5
3 12 29 15 56 3 28 8 57 12 66 4 10 -2 20 -17 28 -13 6 -16 10 -7 7 9 -2 31
-1 50 4 30 7 31 8 8 9 -42 2 -50 21 -48 110 2 79 2 81 28 87 43 10 47 12 19
13 -17 1 -28 7 -28 15 0 8 -6 17 -12 19 -8 3 -7 6 4 6 12 1 16 9 16 31 -1 16
5 36 12 45 9 11 9 15 1 15 -7 0 -11 10 -9 22 3 19 -3 23 -41 30 -25 4 -48 13
-52 20 -12 19 -4 21 35 7 28 -10 39 -10 48 -1 7 7 20 12 30 12 10 0 18 6 19
13 0 9 2 9 5 0 4 -9 13 -9 30 -2z m1648 -27 l46 -7 -2 -416 -3 -416 -30 -1
c-16 -1 -43 3 -58 9 -26 9 -28 13 -22 41 9 41 9 43 1 101 -4 31 -3 45 2 36 16
-22 22 4 8 31 -23 43 -17 77 13 84 43 10 47 12 19 13 -17 1 -28 7 -28 15 0 8
-4 16 -10 18 -5 2 -7 19 -3 41 5 34 8 37 42 38 34 2 34 2 6 6 -42 7 -57 22
-50 51 4 16 1 28 -7 33 -8 5 -3 11 17 19 l30 12 -28 24 c-24 20 -27 29 -22 54
4 17 10 30 15 30 16 0 20 33 6 44 -18 14 -26 101 -9 101 27 0 21 13 -9 19 -26
5 -30 9 -18 16 18 12 32 12 94 4z m-794 -24 c0 -5 10 -10 23 -10 22 0 22 -2
19 -77 -3 -43 -9 -80 -14 -82 -6 -2 -4 -7 3 -12 12 -8 11 -11 -1 -19 -8 -5
-10 -10 -4 -10 7 0 8 -17 4 -50 -4 -27 -2 -50 2 -50 10 0 8 -199 -2 -205 -10
-6 -12 -96 -2 -108 5 -7 8 -55 8 -107 -1 -76 -4 -94 -15 -92 -8 2 -18 -3 -23
-10 -7 -10 -9 -10 -5 2 3 11 -10 18 -52 26 -50 10 -52 12 -20 13 48 1 69 25
39 41 -18 9 -21 19 -18 46 3 29 1 34 -17 34 -16 1 -14 4 10 15 l30 13 -30 2
c-29 2 -29 2 -5 9 21 6 26 14 31 56 7 59 5 65 -24 66 -21 0 -21 1 3 11 l25 11
-25 7 c-15 5 -18 8 -8 9 14 1 15 6 5 37 -9 29 -8 37 4 46 11 8 11 9 -3 4 -10
-3 -18 -1 -18 3 0 5 -3 16 -6 25 -4 10 -1 16 10 16 9 0 13 6 10 14 -3 8 3 16
16 19 18 5 21 12 19 56 -3 50 -3 51 -33 52 l-31 0 25 11 c25 11 25 12 3 15
-19 4 -21 8 -13 28 14 37 9 85 -9 86 -10 0 -12 2 -3 6 6 2 12 9 12 14 0 4 -7
6 -15 3 -20 -8 -19 5 3 27 18 19 92 26 92 9z m-535 -8 c6 -4 9 -146 7 -399
l-2 -393 -28 0 c-33 0 -64 31 -51 51 4 8 6 24 3 35 -3 12 -1 25 5 28 5 4 8 13
4 21 -4 11 3 15 26 15 38 0 42 20 4 21 l-28 1 30 8 c30 8 30 8 -7 9 -31 1 -38
5 -38 21 0 11 -7 20 -15 20 -8 0 -15 5 -15 10 0 6 9 10 20 10 13 0 18 5 14 15
-5 12 2 15 32 15 29 0 35 3 24 10 -8 5 -25 10 -38 10 -13 0 -20 4 -17 10 3 6
-3 10 -14 10 -11 0 -22 4 -25 9 -3 4 7 6 22 4 23 -3 24 -2 7 6 -18 8 -17 9 10
13 l30 5 -32 2 c-18 0 -33 6 -33 11 0 6 5 10 11 10 5 0 7 5 4 10 -4 6 7 10 27
10 18 0 40 5 48 10 11 7 5 10 -25 11 l-40 2 40 7 40 7 -35 2 c-19 1 -44 6 -54
10 -19 7 -18 8 5 16 l24 8 -22 4 c-13 2 -23 11 -23 19 0 11 6 13 20 9 15 -5
18 -3 14 9 -5 12 1 16 22 17 l29 1 -30 8 c-16 4 -23 9 -15 10 8 1 2 8 -15 15
-16 8 -23 14 -15 15 11 0 11 3 2 12 -19 19 -15 26 23 44 19 9 35 20 35 25 0 5
-16 9 -35 9 -19 0 -35 2 -35 4 0 2 -3 11 -6 20 -4 10 -1 16 10 16 8 0 20 9 26
19 13 25 13 41 0 41 -5 0 -7 -7 -4 -15 4 -9 0 -15 -10 -15 -24 0 -20 16 10 39
27 21 61 27 79 13z m210 -144 c-3 -78 -8 -144 -10 -147 -3 -2 0 -10 6 -18 9
-10 8 -13 -1 -13 -9 0 -9 -4 -2 -13 6 -7 9 -44 6 -92 -5 -79 -5 -146 -1 -300
l2 -80 -44 3 c-49 3 -93 21 -53 22 12 0 22 5 22 10 0 6 -5 10 -11 10 -5 0 -8
4 -4 9 3 5 0 13 -6 16 -5 4 -8 13 -5 20 3 8 -3 15 -15 17 -11 2 -19 7 -19 12
1 5 -4 13 -12 17 -9 6 -3 10 20 15 26 5 30 9 21 20 -9 11 -7 14 10 14 19 0 21
6 21 55 0 53 -1 55 -27 55 -26 0 -26 1 -7 15 18 13 16 14 -22 15 -28 0 -44 5
-48 15 -3 8 -1 15 3 15 5 0 11 -6 14 -12 3 -7 3 7 1 32 -3 35 -2 41 6 25 9
-17 10 -15 7 13 -2 18 1 33 7 33 6 1 -2 5 -19 9 l-30 8 30 2 c17 1 39 5 50 10
18 8 18 9 -5 10 -23 1 -22 3 9 14 25 9 31 15 22 21 -9 5 -12 21 -7 51 5 40 4
44 -17 45 -17 1 -18 2 -4 6 27 7 10 23 -26 24 -20 1 -25 3 -13 6 15 4 16 7 5
14 -10 6 -10 9 -1 9 17 0 15 75 -3 94 -8 8 -15 17 -15 20 0 7 45 13 113 15
l57 1 -5 -142z m188 -263 c-1 -290 -5 -401 -13 -403 -6 -2 -32 2 -58 9 -41 11
-44 14 -24 22 25 12 27 19 10 47 -9 14 -10 23 -3 28 17 12 11 37 -10 44 -19 6
-19 7 3 13 21 7 21 8 5 21 -15 11 -15 13 -3 14 12 0 14 11 12 55 -2 30 -8 55
-14 55 -6 0 -5 6 2 15 10 13 9 15 -11 16 -23 0 -23 1 -3 9 26 10 36 34 21 49
-7 7 -7 18 1 36 10 22 9 27 -4 32 -15 6 -15 8 2 20 17 12 17 13 -2 13 -15 0
-16 2 -4 10 9 5 14 27 15 59 1 40 -3 51 -17 55 -10 2 -17 10 -16 17 2 7 -8 16
-22 20 l-25 7 24 1 c21 1 23 4 17 44 -3 23 -6 49 -7 58 0 11 -7 15 -25 11 -24
-4 -34 13 -11 21 6 2 46 3 87 3 l75 -1 -2 -400z m371 396 c4 -1 5 -49 2 -108
-8 -129 -8 -137 -2 -280 4 -75 2 -113 -5 -113 -6 0 -8 -4 -5 -9 4 -5 8 -70 11
-145 l5 -135 -35 -7 c-41 -7 -88 2 -80 16 3 6 15 10 25 10 31 0 17 35 -15 38
-16 2 -35 11 -42 20 -11 15 -12 13 -13 -14 0 -16 6 -36 13 -43 10 -11 9 -13
-3 -9 -11 3 -16 22 -18 69 -1 39 1 59 6 51 8 -11 10 -11 15 2 4 9 15 16 26 16
14 0 19 5 15 15 -4 10 0 15 14 15 18 0 19 4 11 38 -4 20 -6 45 -3 55 4 14 -1
17 -33 18 l-38 1 30 13 30 13 -35 4 -35 3 0 65 c0 60 2 65 23 68 23 4 31 21
10 23 -7 0 1 6 17 12 28 11 30 16 30 60 0 43 -3 48 -25 53 -45 10 -46 12 -6
13 50 1 41 10 -21 21 l-48 8 40 1 c28 1 36 4 26 10 -13 8 -13 15 -2 49 16 47
8 66 -26 59 -15 -3 -22 0 -20 7 4 12 76 24 122 20 17 -1 34 -3 39 -3z m1996
-1 c13 -8 13 -10 0 -15 -15 -5 -19 -72 -5 -94 3 -6 0 -11 -7 -11 -8 0 -14 -9
-15 -20 -1 -14 4 -20 20 -20 22 -1 22 -1 2 -12 -30 -16 -31 -18 -15 -28 11 -7
12 -11 0 -24 -11 -14 -10 -19 4 -35 15 -16 15 -20 1 -31 -8 -7 -12 -16 -9 -22
3 -5 7 -36 7 -70 2 -56 0 -61 -23 -71 -25 -11 -25 -11 -2 -14 17 -4 21 -9 17
-26 -3 -12 -7 -42 -9 -67 -2 -25 -6 -57 -10 -72 -5 -14 -3 -35 3 -46 8 -15 8
-23 0 -27 -6 -5 -4 -12 8 -21 16 -12 16 -15 3 -24 -8 -5 -10 -10 -5 -11 26 -2
-35 -18 -70 -18 -40 0 -40 0 -15 14 l25 14 -28 1 c-16 0 -26 4 -22 10 3 6 15
10 25 10 13 0 17 5 14 15 -4 9 0 15 7 15 11 0 11 2 -1 10 -12 7 -15 29 -13
102 1 60 -3 95 -10 100 -7 4 2 13 23 22 33 14 33 15 9 16 -35 0 -42 10 -23 31
10 12 15 29 12 48 -2 17 0 33 6 35 6 2 3 5 -6 5 -28 1 -21 21 6 21 14 0 27 4
30 9 3 4 -5 6 -18 4 -25 -5 -43 21 -28 41 5 6 7 30 6 54 -2 31 1 42 12 42 7 0
14 5 14 10 0 6 -5 10 -11 10 -6 0 -17 7 -25 15 -13 12 -12 15 6 25 11 6 18 15
14 21 -3 5 -7 25 -9 44 -2 28 1 35 19 38 39 8 71 7 86 -3z m-4492 -238 l3
-217 -48 5 c-46 4 -47 5 -10 8 23 2 37 8 37 17 0 8 -7 11 -20 8 -14 -4 -20 0
-20 11 0 9 -7 16 -15 16 -10 0 -15 10 -15 33 0 17 -3 42 -6 55 -6 19 0 25 35
40 22 9 41 20 41 24 0 4 -23 10 -50 14 -61 8 -59 16 4 16 33 0 46 4 46 14 0 7
-8 13 -17 12 -43 -3 -81 3 -99 17 -10 8 -14 15 -9 14 28 -4 37 1 26 14 -16 20
18 96 44 98 11 1 0 5 -25 9 -42 7 -40 7 25 8 l70 2 3 -218z m-1152 -69 c-7
-18 -21 -16 -41 4 -13 13 -19 13 -25 4 -6 -10 -13 -9 -34 4 -30 20 -29 35 3
51 15 8 18 13 9 16 -7 3 -13 19 -13 36 0 31 2 32 42 32 23 0 45 6 50 13 9 13
17 -138 9 -160z m-1124 144 c92 7 120 -4 112 -46 -5 -23 -2 -29 15 -34 21 -5
29 7 11 18 -5 3 -10 11 -10 16 0 6 5 7 11 3 8 -4 9 0 4 15 -6 19 -3 20 25 14
22 -4 35 -1 42 8 7 11 9 9 5 -7 -4 -17 0 -20 19 -16 27 5 41 -17 28 -45 -6
-15 -8 -13 -14 12 l-8 30 -1 -32 c-1 -28 -5 -33 -33 -38 -18 -3 -48 -4 -67 -2
-18 3 -45 1 -60 -3 -21 -7 -22 -8 -5 -9 33 -2 35 -11 6 -38 -26 -24 -31 -25
-120 -20 -52 3 -96 7 -98 10 -11 11 10 38 27 34 10 -3 20 0 21 5 2 6 22 11 45
12 27 0 39 5 36 12 -6 16 -47 26 -78 18 -22 -5 -25 -3 -25 20 0 14 -4 26 -8
26 -7 0 -8 32 -3 47 1 1 12 -2 25 -7 13 -5 57 -6 98 -3z m1828 -364 c0 -104 3
-199 5 -213 5 -22 4 -22 -4 -5 -5 11 -10 16 -10 10 -1 -6 -36 -9 -88 -9 -68 1
-89 5 -91 16 -4 18 15 34 50 43 23 6 29 3 39 -19 13 -27 49 -35 77 -17 10 6 7
10 -13 15 -19 5 -25 11 -21 22 3 9 6 40 6 71 0 46 3 56 20 60 27 7 26 23 -2
23 -21 0 -21 0 -2 14 19 15 19 15 0 29 -16 12 -19 25 -17 73 3 57 11 74 39 74
9 0 12 -44 12 -187z m-2195 41 c13 -5 14 -8 3 -15 -10 -7 -10 -9 0 -9 6 0 12
-7 12 -15 0 -9 6 -12 15 -9 11 5 13 2 9 -10 -5 -12 1 -16 22 -17 85 -4 -72
-15 -204 -14 -84 0 -152 -3 -152 -7 0 -5 11 -8 25 -8 13 0 32 -9 43 -20 15
-17 37 -20 146 -26 l127 -7 -5 -199 c-4 -172 -3 -199 9 -194 19 7 20 -10 1
-21 -10 -6 -15 -51 -19 -188 -4 -99 -6 -181 -7 -183 0 -1 -55 0 -122 4 -68 4
-131 8 -140 8 -10 0 -18 6 -18 13 0 9 9 11 30 7 33 -7 34 -7 19 56 -15 71 -18
77 -29 60 -7 -11 -10 -8 -11 15 -2 23 -4 20 -9 -15 -5 -35 -7 -24 -8 50 0 62
3 86 8 70 l8 -25 7 22 c4 13 11 20 16 17 5 -3 9 2 9 10 0 9 -6 15 -12 14 -7
-2 -14 7 -16 20 -3 18 0 21 20 18 13 -3 23 -5 23 -6 0 -1 27 -3 60 -5 l60 -3
-67 16 c-52 12 -68 20 -68 34 0 9 -4 20 -10 23 -5 3 -10 -1 -10 -9 0 -9 -7
-16 -15 -16 -16 0 -20 12 -8 23 3 4 7 51 7 104 1 54 5 99 10 100 17 3 22 22
17 65 l-5 43 -7 -35 c-5 -26 -7 -15 -8 43 -1 57 -4 77 -15 77 -10 0 -14 -65
-20 -342 -3 -189 -9 -369 -12 -400 l-6 -58 -87 0 c-123 0 -314 12 -304 19 4 3
9 15 10 26 2 11 6 36 10 55 3 19 7 60 7 90 2 60 12 100 27 100 5 0 9 -5 9 -11
0 -6 9 -8 20 -4 12 4 20 2 20 -6 0 -8 -10 -9 -31 -5 -21 4 -29 2 -27 -6 2 -6
12 -12 22 -14 9 -1 24 -8 33 -16 9 -7 26 -12 37 -10 12 1 4 -6 -16 -15 -21
-10 -38 -24 -38 -31 0 -7 4 -11 9 -7 15 8 24 -14 12 -29 -6 -6 -9 -25 -8 -42
1 -19 -2 -28 -10 -27 -7 2 -13 -2 -13 -7 0 -6 -8 -10 -17 -11 -15 0 -15 -2 2
-8 11 -5 23 -7 28 -4 4 2 7 -1 7 -6 0 -6 7 -11 15 -11 10 0 12 6 8 18 -6 15
-5 15 10 3 15 -12 17 -11 17 13 0 18 4 25 12 20 8 -5 9 -2 3 12 -15 36 -17 64
-7 77 5 7 9 58 7 117 -1 58 2 111 8 118 6 8 6 12 -1 12 -16 0 -6 99 11 128 5
7 3 12 -7 12 -9 0 -16 3 -16 8 -1 4 -2 47 -3 95 -2 62 -7 91 -17 97 -11 7 -11
13 4 35 9 14 15 34 12 43 -5 16 1 17 63 15 71 -3 92 5 66 27 -9 8 -20 8 -31 2
-37 -21 -77 22 -41 45 33 22 437 44 482 27z m1561 -15 c13 -12 21 -26 18 -30
-3 -5 0 -9 5 -9 6 0 11 -4 11 -10 0 -5 -25 -10 -55 -10 -51 0 -55 -2 -55 -23
0 -21 4 -23 36 -19 27 3 39 0 46 -12 5 -9 18 -16 28 -16 11 0 24 -9 30 -20 8
-16 6 -24 -10 -40 -11 -11 -25 -18 -29 -15 -13 7 -19 -16 -11 -45 4 -17 8 -21
14 -12 6 9 13 6 27 -12 19 -24 19 -26 2 -60 -9 -20 -23 -36 -30 -36 -7 0 -13
-3 -14 -7 0 -5 -5 -62 -9 -128 -4 -66 -11 -159 -14 -206 -4 -48 -2 -106 4
-132 5 -25 7 -52 5 -59 -6 -16 -42 -21 -50 -7 -4 5 -16 2 -29 -7 -19 -12 -53
-14 -182 -12 l-159 3 -4 55 -5 55 -5 -55 -6 -55 -67 -3 -66 -3 -9 78 c-4 43
-8 237 -8 431 l0 354 -55 -3 c-89 -4 -90 -3 -90 36 l0 35 53 1 c28 1 120 4
202 8 83 3 219 7 304 9 147 3 155 2 177 -19z m1047 6 c37 14 39 -2 40 -381 l2
-369 -189 -3 c-120 -1 -194 -6 -203 -13 -9 -8 -13 -8 -13 0 0 6 11 13 25 17
23 6 26 11 24 50 -2 24 0 47 4 50 4 4 -2 21 -12 38 -12 21 -16 39 -11 56 7 23
8 24 15 6 8 -19 9 -19 16 0 6 16 8 15 8 -8 1 -16 6 -28 11 -28 15 0 1 72 -16
86 -8 6 -14 16 -14 23 0 6 -7 14 -15 17 -8 4 -15 12 -15 19 0 7 -4 15 -9 17
-5 2 -6 45 -2 103 l7 100 14 -45 14 -44 8 34 c4 19 5 43 2 53 -3 9 -1 17 5 17
6 0 11 -9 11 -19 0 -11 5 -23 11 -27 6 -3 10 1 9 12 -4 35 0 42 20 37 11 -3
20 0 20 5 0 7 24 10 65 9 36 -1 65 -6 65 -10 0 -4 9 -3 19 3 11 5 38 10 60 10
23 0 41 5 41 10 0 6 -6 10 -12 8 -20 -3 -56 11 -60 25 -3 7 -3 42 0 79 3 52 8
68 21 70 9 2 17 0 19 -4 2 -4 9 -5 15 -3z m-3789 -38 c-2 -64 -3 -67 -21 -68
-10 0 -4 -5 12 -10 32 -10 215 -10 215 0 0 3 53 5 117 4 106 -1 118 -3 116
-19 -1 -9 -5 -135 -8 -278 -8 -264 -12 -387 -15 -396 -1 -3 -1 -31 0 -63 l1
-57 -110 1 c-125 1 -121 -2 -121 87 0 42 -3 53 -10 42 -6 -8 -9 -42 -8 -75 l2
-60 -125 0 -124 0 -6 55 c-6 55 -6 55 -13 -27 -1 -7 -5 -14 -10 -15 -10 -3 -8
160 1 176 4 5 7 52 7 103 1 59 6 97 14 105 6 6 12 21 11 32 0 12 -3 15 -6 8
-8 -20 -23 -3 -23 28 0 31 15 48 23 28 3 -7 5 60 5 150 1 134 -2 162 -14 162
-8 0 -14 5 -14 11 0 5 -5 7 -10 4 -6 -4 -4 -12 5 -21 21 -21 19 -25 -12 -22
-25 3 -28 -1 -31 -29 -2 -19 1 -33 7 -33 6 0 11 -7 11 -16 0 -8 -4 -12 -10 -9
-5 3 -10 -1 -10 -10 0 -10 5 -13 12 -9 6 4 8 3 4 -4 -3 -6 -2 -13 4 -17 5 -3
10 -21 9 -38 -1 -33 -3 -31 -24 31 -6 18 -10 20 -16 10 -5 -7 -6 2 -3 23 4 20
1 46 -5 58 -8 14 -8 21 -1 21 5 0 10 5 10 10 0 17 -28 11 -39 -7 -7 -14 -13
-15 -22 -6 -14 14 -77 6 -99 -12 -8 -7 -53 -15 -100 -18 -47 -4 -99 -9 -116
-13 -19 -3 -34 -2 -38 5 -4 6 -14 11 -22 11 -8 0 -12 -4 -9 -10 4 -6 -24 -10
-76 -10 -106 0 -99 -8 11 -12 69 -3 84 -6 81 -18 -1 -8 -5 -159 -7 -335 -3
-176 -7 -326 -9 -332 -5 -15 -202 -17 -245 -3 -14 4 -19 8 -11 9 9 1 11 8 6
24 -4 12 -9 82 -10 154 -2 73 -6 137 -9 142 -4 5 -1 11 5 13 7 2 7 17 0 47 -7
31 -6 49 2 62 8 13 8 24 -2 42 -9 17 -11 43 -6 85 4 37 2 74 -5 100 -11 36
-11 43 9 71 12 16 30 32 40 36 20 6 34 52 18 58 -6 2 -7 9 -3 16 5 7 14 10 21
7 7 -2 26 -1 42 4 24 7 25 8 6 9 -36 1 -27 17 10 18 243 4 577 15 632 22 118
14 110 16 109 -32z m560 -23 c-5 -38 -4 -45 7 -38 19 11 49 13 55 2 3 -4 -4
-8 -15 -8 -18 0 -21 -6 -21 -40 0 -22 3 -40 8 -40 4 0 8 -29 10 -65 3 -74 -11
-85 -53 -39 -24 26 -24 54 1 54 17 0 18 14 4 41 -8 14 -7 19 2 19 10 0 10 2
-1 9 -7 5 -10 14 -7 20 5 7 -4 11 -23 11 -18 0 -31 -5 -32 -12 0 -7 -4 -4 -9
7 -13 29 -12 35 5 35 8 0 15 6 16 13 0 10 2 10 6 0 2 -7 12 -13 20 -13 14 0
14 2 0 18 -17 19 -22 53 -10 65 3 4 15 7 25 7 17 0 18 -5 12 -46z m880 -92 c3
-5 40 -8 83 -8 l79 2 -1 -381 c0 -227 -4 -383 -9 -387 -6 -4 -17 -3 -26 2 -9
5 -25 7 -36 4 -11 -3 -30 -1 -44 5 -23 9 -22 10 13 10 44 1 47 6 50 92 1 35 8
70 15 77 17 19 16 45 -3 38 -8 -3 -15 -1 -15 4 0 6 6 10 13 10 10 0 13 14 9
58 -3 31 -9 60 -15 64 -6 4 -4 12 7 23 17 17 13 56 -5 63 -14 6 -11 72 3 70 6
-2 14 6 16 16 3 14 0 17 -12 13 -9 -4 -16 -2 -16 4 0 6 -4 7 -10 4 -11 -7 -13
6 -4 29 3 9 12 16 20 16 8 0 14 7 14 15 0 8 -7 15 -15 15 -9 0 -17 14 -21 38
-5 30 -13 40 -43 54 -21 11 -37 14 -39 8 -2 -6 -8 -8 -13 -4 -5 3 -10 -23 -11
-58 -1 -35 -2 -72 -3 -83 -1 -11 -3 -147 -4 -303 l-1 -283 -89 2 c-66 1 -91 5
-95 15 -7 18 9 21 55 9 23 -6 27 -3 33 19 3 14 11 26 16 26 13 0 13 27 0 32
-7 2 -7 15 0 38 6 22 6 36 1 38 -12 4 -3 31 17 54 13 15 12 19 -2 33 -22 22
-20 46 4 52 29 8 24 23 -7 24 -24 2 -25 2 -5 6 24 5 28 13 11 30 -15 15 -2 33
24 33 14 0 18 3 10 8 -16 10 -33 57 -33 89 0 34 -27 63 -57 63 -13 0 -22 4
-19 9 3 4 17 6 31 3 19 -3 25 0 25 14 1 23 24 56 33 47 4 -3 7 1 7 10 0 11 -5
14 -17 10 -13 -5 -15 -2 -9 18 21 68 23 64 -51 81 l-68 15 102 2 c56 0 104 -3
107 -7z m678 -381 c-1 -212 -4 -386 -6 -389 -2 -2 -25 0 -50 3 -39 6 -44 9
-31 19 16 11 28 82 18 99 -3 4 -16 1 -29 -8 -22 -14 -24 -14 -24 2 0 27 12 38
40 38 18 0 25 6 26 21 1 12 4 26 8 32 3 6 3 13 -2 16 -4 2 -6 33 -5 68 7 138
5 216 -6 236 -8 15 -7 29 4 56 14 33 12 66 -4 66 -4 0 -7 13 -6 29 1 25 -2 30
-27 33 -19 3 -27 1 -24 -7 3 -8 -4 -10 -19 -7 -18 3 -23 10 -23 32 1 24 6 29
36 34 20 3 42 1 49 -6 9 -7 13 -7 13 0 0 11 26 21 50 18 13 -1 15 -50 12 -385z
m-2551 270 c-11 -21 -22 -329 -12 -312 14 21 17 0 10 -69 -3 -36 -7 -58 -9
-50 -2 8 -7 -41 -10 -110 -5 -117 -6 -125 -25 -123 -11 1 -39 3 -63 4 -52 3
-55 28 -4 43 l32 9 0 116 c0 79 3 111 10 101 7 -11 9 -2 9 30 -1 40 -2 42 -8
15 l-7 -30 -5 38 c-3 21 -1 41 4 44 5 3 3 9 -4 14 -12 8 -11 11 1 19 13 9 13
10 0 10 -13 0 -13 1 0 10 12 8 10 10 -10 11 -18 1 -20 3 -7 6 11 3 16 11 13
19 -3 8 0 14 7 15 9 0 9 2 0 6 -19 7 -16 23 5 24 15 1 15 2 0 6 -10 2 -17 15
-18 31 0 15 -1 36 -2 47 -1 11 1 31 5 45 4 14 4 20 1 13 -4 -9 -11 -9 -29 -1
-41 19 -18 33 54 34 60 0 69 -2 62 -15z m3812 -121 l6 -95 -37 -33 -37 -32 22
-38 c38 -64 65 -126 70 -162 5 -29 3 -33 -8 -22 -8 8 -49 12 -119 13 -58 1
-130 4 -160 7 l-55 7 4 75 c3 41 5 102 4 136 0 38 4 61 11 61 6 0 34 5 61 12
55 13 93 5 127 -26 11 -10 18 -12 18 -5 0 7 20 17 45 23 26 7 45 17 45 25 0
17 -12 18 -28 2 -17 -17 -32 32 -29 97 2 43 6 56 22 63 28 13 31 3 38 -108z
m3895 -92 c-4 -35 -10 -76 -12 -93 -3 -16 -8 -68 -11 -115 -23 -359 -35 -488
-45 -514 -8 -22 -14 -24 -52 -20 -24 2 -37 1 -30 -2 6 -3 12 -10 12 -15 0 -5
-9 -4 -19 3 -11 7 -18 15 -15 19 7 12 -22 70 -31 62 -4 -5 -4 -1 1 7 4 8 11
33 14 55 4 34 8 40 28 37 16 -2 20 1 16 12 -3 9 -12 16 -20 16 -16 0 -18 37
-4 74 7 19 17 26 37 27 l28 0 -25 11 c-14 6 -28 10 -32 10 -5 -1 -8 23 -8 53
l0 55 33 1 c23 1 26 3 10 6 -13 2 -23 12 -23 21 0 15 -2 15 -10 2 -7 -11 -10
-5 -10 23 0 38 12 58 40 70 10 3 7 6 -7 6 -20 1 -23 6 -23 40 0 22 5 52 11 68
6 15 13 41 15 56 5 38 12 47 35 47 10 0 19 7 19 15 0 8 4 15 10 15 5 0 7 -7 3
-16 -5 -14 -3 -15 16 -5 12 7 26 9 31 6 6 -3 10 1 10 9 0 9 4 16 8 16 4 0 5
-28 0 -62z m764 -268 c1 -176 3 -357 3 -402 l0 -83 -27 2 c-27 2 -28 0 -27
-40 2 -38 2 -39 8 -12 l6 30 210 -1 c280 -1 339 -4 300 -14 -16 -4 -25 -8 -18
-9 7 0 10 -8 7 -16 -5 -12 -24 -15 -84 -15 -44 0 -82 5 -85 10 -3 6 -25 10
-48 11 -34 1 -37 2 -17 8 16 5 3 7 -40 7 -55 1 -60 -1 -35 -9 17 -5 48 -13 70
-18 34 -7 29 -8 -27 -5 -38 2 -68 0 -68 -5 0 -5 91 -10 203 -11 111 -2 -52 -3
-363 -3 -311 0 -457 1 -325 3 257 3 254 2 255 57 1 27 2 28 14 13 14 -18 26
-14 26 9 0 7 -7 13 -15 13 -12 0 -15 17 -15 90 0 50 -4 132 -10 183 -11 109
-20 491 -11 505 7 12 35 19 79 21 l32 1 2 -320z m356 258 c2 -47 -1 -61 -18
-78 -15 -15 -16 -20 -6 -20 11 0 15 -13 14 -49 0 -28 3 -55 7 -60 3 -6 -2 -11
-12 -12 -10 0 -13 -3 -5 -6 8 -3 12 -26 12 -64 l0 -59 -45 2 c-25 0 -50 7 -56
15 -6 7 -18 13 -25 13 -8 0 -14 5 -14 10 0 6 5 10 11 10 12 0 8 42 -5 52 -5 3
6 11 25 16 19 6 26 11 16 11 -10 1 -17 7 -15 13 3 7 -2 19 -9 27 -8 8 -13 28
-11 50 2 28 7 35 21 33 25 -4 21 11 -5 23 -24 10 -25 17 -12 97 l6 36 61 -2
62 -2 3 -56z m-3128 -353 c0 -212 -3 -385 -7 -385 -16 0 -33 53 -22 67 6 7 8
13 3 13 -5 0 -15 12 -21 27 -11 22 -10 30 1 42 7 9 11 22 9 29 -3 6 0 12 6 12
16 0 8 43 -11 61 -19 17 -25 55 -8 44 6 -3 10 0 11 7 0 7 2 28 5 46 3 23 -1
34 -11 38 -16 7 -21 44 -6 44 5 0 14 14 20 30 7 21 7 30 -1 30 -5 0 -8 7 -4
15 3 8 -2 19 -11 24 -14 8 -14 12 5 39 26 35 28 51 7 58 -17 7 -21 25 -4 22 6
-2 14 3 16 10 3 7 -4 12 -16 12 -27 0 -28 30 -1 37 14 4 20 14 20 34 0 16 4
29 9 29 6 0 10 -159 11 -385z m729 0 l0 -385 -35 0 c-27 0 -34 4 -34 20 0 11
5 20 10 20 6 0 10 9 10 20 0 11 -4 20 -10 20 -5 0 -10 -4 -10 -9 0 -5 -13 -3
-30 5 -24 13 -30 22 -29 47 0 18 3 26 6 20 7 -18 23 -16 23 2 0 18 16 20 23 3
3 -7 6 -3 6 10 1 21 10 26 39 23 6 -1 12 3 12 9 0 5 -16 10 -35 10 -34 0 -47
13 -22 23 6 3 1 6 -13 6 -14 1 -30 5 -37 9 -16 10 -5 52 13 52 8 0 14 5 14 11
0 6 7 9 15 5 8 -3 15 -1 15 4 0 6 12 10 27 10 39 0 22 10 -21 12 -40 1 -57 15
-35 28 10 7 10 14 1 35 -16 34 -15 35 7 35 11 0 22 6 25 13 3 6 3 2 0 -10 -3
-14 -1 -23 6 -23 6 0 8 -4 5 -10 -3 -5 3 -10 15 -10 18 0 21 5 18 32 -3 32
-45 85 -57 73 -3 -4 1 -10 9 -15 11 -7 8 -10 -12 -10 -20 0 -26 4 -22 15 4 8
-1 17 -10 21 -9 3 -16 17 -16 31 0 18 4 24 15 19 8 -3 15 -1 15 4 0 6 18 10
40 10 37 0 59 18 25 21 -8 1 -19 3 -25 4 -5 1 -16 3 -24 4 -9 1 -12 8 -9 22 5
18 7 19 15 5 10 -17 48 -22 48 -6 0 6 -9 10 -20 10 -11 0 -19 6 -17 13 1 6 -6
11 -15 9 -14 -2 -18 4 -18 27 0 28 1 29 30 18 21 -8 30 -18 30 -34 0 -13 4
-23 8 -23 5 0 9 26 10 58 1 75 1 72 12 72 6 0 9 -142 9 -385z m292 323 c5
-219 7 -693 3 -700 -7 -11 -34 2 -34 17 0 7 -6 16 -12 18 -10 4 -9 8 2 17 11
8 12 13 3 16 -7 3 -10 11 -7 18 3 8 -2 16 -10 19 -20 8 -21 27 -2 27 8 0 16 7
20 15 3 10 -1 15 -11 15 -9 0 -13 3 -9 8 7 7 12 8 38 11 7 0 2 8 -10 17 -13 9
-21 21 -19 27 2 7 -3 18 -12 25 -15 11 -14 13 2 26 9 7 17 18 17 25 0 6 8 11
18 12 13 0 11 3 -6 10 -18 7 -22 14 -17 29 4 13 1 22 -9 26 -24 9 -19 34 7 35
21 1 21 1 -3 8 -24 7 -24 8 10 15 l35 8 -27 12 c-20 9 -25 15 -18 26 8 13 10
13 10 1 0 -8 2 -12 5 -9 9 9 -7 38 -20 38 -8 0 -17 5 -20 10 -10 16 15 40 41
40 13 0 24 5 24 10 0 6 -7 10 -15 10 -8 0 -14 8 -13 18 3 39 -3 62 -16 62 -21
0 -30 20 -16 33 9 9 15 7 26 -7 14 -19 14 -19 14 2 0 12 -6 22 -12 22 -9 0 -9
3 -2 8 6 4 13 15 17 25 14 36 27 15 28 -45z m120 -40 c1 -57 3 -230 5 -385 l3
-283 -24 0 c-16 0 -25 6 -25 15 0 8 -7 15 -15 15 -24 0 -18 27 8 34 18 5 20 8
7 16 -8 5 -11 10 -5 10 5 0 4 5 -3 12 -19 19 -15 58 6 59 11 1 8 4 -8 9 -25 7
-24 9 20 23 9 3 5 6 -9 6 -16 1 -21 5 -17 16 3 8 1 26 -5 39 -9 20 -8 27 11
46 19 19 20 23 7 38 -14 16 -21 45 -18 85 1 11 9 17 24 17 19 1 20 2 7 13 -8
7 -21 28 -28 47 -10 30 -10 37 3 46 13 9 13 13 3 17 -7 3 -2 6 12 7 24 1 24 1
5 13 -22 13 -33 47 -15 47 6 0 6 7 -2 19 -9 16 -9 25 1 43 7 13 11 28 9 34 -3
10 22 43 35 44 4 0 7 -46 8 -102z m477 27 c-1 -43 -7 -75 -13 -75 -5 0 -3 -5
5 -10 9 -6 11 -13 5 -17 -6 -5 -10 -64 -11 -138 -1 -71 -2 -203 -3 -292 l-1
-161 -45 0 c-43 0 -45 1 -45 28 0 15 6 30 14 33 12 5 12 14 3 48 -10 40 -9 44
16 65 20 17 23 24 12 28 -9 3 -12 12 -8 22 3 9 0 20 -7 24 -19 12 9 70 35 70
16 1 13 4 -10 15 -16 7 -24 14 -17 14 17 1 15 21 -3 21 -10 0 -14 10 -13 35 1
32 4 35 32 36 29 0 30 1 8 10 -13 5 -20 13 -17 19 3 5 2 10 -3 10 -4 0 -8 21
-9 48 0 42 3 48 26 53 25 7 25 7 4 14 -29 9 -37 33 -12 40 22 7 26 25 4 25
-21 0 -19 39 3 47 16 6 34 28 38 46 3 15 4 17 9 17 3 0 4 -34 3 -75z m178 18
c-3 -32 -8 -110 -11 -173 -3 -63 -8 -164 -11 -225 -3 -60 -7 -154 -8 -208 -1
-53 -6 -101 -12 -105 -5 -5 -33 -7 -62 -4 -43 3 -51 6 -42 18 7 7 9 22 5 33
-9 29 14 101 31 94 18 -7 18 5 -1 23 -19 20 -19 48 1 68 14 15 14 16 0 16 -19
0 -22 35 -4 46 6 4 25 11 42 15 31 7 31 7 4 8 -18 1 -28 7 -28 16 0 8 5 15 10
15 6 0 10 5 10 11 0 8 -5 8 -15 -1 -15 -13 -14 -14 -30 35 -2 8 0 15 5 15 5 0
7 7 4 15 -5 11 1 13 32 8 28 -5 35 -3 29 6 -4 7 -16 11 -26 8 -11 -3 -19 -1
-19 4 0 5 -10 10 -22 10 -17 1 -19 2 -5 6 12 3 17 15 17 44 0 30 4 39 18 39
14 0 15 2 2 10 -12 8 -10 10 10 11 21 1 22 2 5 6 -11 3 -25 9 -31 14 -11 9
-12 44 -1 55 4 4 7 20 7 36 0 20 5 28 18 29 14 0 14 2 -3 9 -19 8 -18 9 5 11
24 2 24 2 3 6 -13 2 -23 11 -23 19 0 10 13 14 51 14 l51 0 -6 -57z m-2778 -67
c-7 -12 -7 -16 0 -12 18 11 52 -58 52 -107 0 -25 -4 -48 -9 -51 -14 -9 -383
-10 -409 -2 -24 8 -29 35 -9 55 10 10 8 15 -6 25 -16 13 -16 15 8 30 20 13 28
14 44 4 15 -9 23 -9 35 1 21 18 22 63 1 55 -18 -7 -20 7 -4 23 7 7 20 8 34 3
24 -9 129 16 121 29 -3 4 20 8 51 9 58 1 82 13 84 41 1 9 5 -6 9 -34 4 -28 3
-58 -2 -69z m887 -170 c2 -232 0 -276 -12 -276 -8 0 -13 8 -11 18 2 9 -3 16
-9 14 -7 -1 -13 2 -13 8 0 5 5 10 10 10 6 0 10 7 10 15 0 21 -9 19 -31 -7 -11
-11 -20 -19 -22 -17 -20 35 -26 49 -18 49 5 0 11 -6 14 -12 3 -9 9 -7 19 6 8
10 20 16 25 13 16 -10 24 20 8 33 -10 8 -14 8 -18 -2 -4 -9 -6 -8 -6 3 -1 9
-10 24 -21 34 -27 24 -25 35 5 35 14 0 29 8 35 21 12 22 6 54 -8 45 -5 -3 -9
1 -9 8 0 8 6 12 14 9 17 -7 17 14 1 20 -10 4 -9 8 2 16 22 15 2 27 -21 12 -24
-14 -34 -9 -26 13 3 8 16 16 29 18 17 2 23 10 23 28 1 33 -14 47 -44 43 -22
-3 -23 -2 -6 5 19 9 19 9 -4 21 -22 12 -22 14 -6 29 16 16 18 15 32 -5 9 -13
20 -23 26 -23 8 0 8 3 0 11 -8 8 -6 21 6 49 9 21 17 37 19 35 2 -2 5 -128 7
-279z m465 -180 c-4 -231 -8 -300 -18 -304 -7 -2 -12 0 -11 5 3 18 -3 47 -8
36 -2 -7 -11 -13 -18 -13 -7 0 -16 6 -19 13 -5 10 -7 10 -12 0 -3 -7 -12 -13
-20 -13 -17 0 -18 19 0 43 15 20 33 22 39 5 3 -9 11 -4 24 12 23 27 19 55 -6
45 -26 -10 -29 -10 -31 0 0 6 9 12 21 15 26 6 38 30 15 30 -9 0 -16 5 -16 10
0 6 8 10 17 10 13 0 14 3 5 12 -6 6 -8 16 -3 22 5 6 11 30 14 53 5 41 4 42
-26 45 -34 3 -51 28 -18 28 11 0 23 5 27 11 5 8 9 7 14 -1 5 -8 7 -3 7 14 -2
19 -6 25 -17 20 -26 -11 -43 -9 -47 4 -3 8 7 12 29 13 18 1 25 3 16 6 -10 2
-18 9 -18 15 0 6 9 8 20 5 11 -3 22 -1 25 4 3 5 -12 12 -35 15 -23 4 -40 12
-40 20 0 9 10 11 35 7 30 -5 35 -3 35 13 0 16 -2 17 -10 4 -9 -13 -10 -13 -10
1 0 8 5 20 11 26 17 17 3 43 -23 44 l-23 2 23 4 c24 5 31 23 7 23 -9 0 -12 6
-9 15 5 11 -2 15 -27 16 l-34 2 35 7 c23 5 27 8 13 9 -15 1 -25 9 -29 25 -8
35 3 48 36 41 16 -3 31 -2 35 4 4 7 0 8 -10 5 -10 -4 -15 -2 -13 7 2 8 12 16
23 20 19 5 20 -1 25 -75 3 -45 3 -216 0 -380z m174 448 c3 -9 6 -106 5 -215
l-1 -199 -28 0 c-36 0 -46 31 -17 56 16 13 18 19 8 22 -11 4 -11 6 0 13 10 6
8 9 -8 9 -25 0 -29 -10 -11 -28 9 -9 5 -12 -20 -12 -18 0 -32 2 -32 5 0 12 53
55 68 55 33 0 -11 20 -48 21 l-35 2 38 6 37 6 -30 20 c-36 24 -39 45 -5 45 19
0 25 -5 25 -21 0 -18 3 -19 14 -10 16 13 19 71 4 71 -5 0 -6 9 -3 20 5 17 2
20 -27 21 -23 1 -26 3 -11 6 15 3 26 14 30 31 l7 27 7 -30 c5 -22 7 -14 8 33
1 60 12 80 25 46z m724 -264 l-3 -280 -30 6 c-37 8 -43 13 -26 23 10 6 9 11
-3 24 -17 17 -22 52 -6 42 6 -3 10 1 10 9 0 10 9 16 23 17 16 1 18 2 5 6 -10
2 -18 11 -18 18 0 7 -6 16 -12 19 -7 3 -2 3 12 0 l25 -6 -21 18 c-17 15 -19
24 -13 42 10 27 1 102 -12 102 -5 0 -9 9 -9 21 0 11 5 17 10 14 6 -3 10 -1 10
5 0 6 10 15 23 20 17 7 18 9 5 9 -10 1 -18 5 -18 10 0 5 8 12 18 14 13 4 12 5
-4 6 -19 1 -22 7 -20 44 0 26 5 41 13 40 6 -1 14 4 17 12 3 9 0 12 -10 8 -9
-3 -14 2 -14 16 0 16 6 21 25 21 l26 0 -3 -280z m1373 145 c4 -60 9 -226 13
-367 l7 -258 -61 0 c-56 0 -60 2 -60 23 0 18 2 19 10 7 8 -12 10 -10 10 9 0
13 -3 21 -7 17 -14 -14 -32 120 -34 254 0 74 -4 199 -8 277 l-6 142 40 4 c95
9 89 16 96 -108z m-3521 33 c7 -18 9 -19 9 -5 1 15 3 16 15 5 8 -7 12 -16 9
-21 -2 -4 3 -10 11 -13 9 -3 16 -14 16 -23 0 -25 37 -41 136 -58 18 -3 35 0
38 6 10 16 24 13 29 -6 3 -11 5 -6 6 11 2 45 13 23 17 -32 l3 -49 -46 -7
c-113 -15 -259 1 -270 30 -9 25 17 84 38 84 25 0 24 8 -6 36 -14 13 -25 32
-25 44 0 26 8 26 20 -2z m3805 10 c1 -2 5 -153 8 -335 l6 -333 -47 0 c-48 0
-89 17 -65 27 10 3 9 8 -2 20 -11 10 -15 38 -16 101 0 107 2 260 4 287 1 11
-3 19 -10 18 -7 -2 -13 4 -13 12 0 8 5 15 11 15 7 0 8 31 3 97 -5 71 -4 94 5
89 6 -4 11 -2 11 4 0 8 16 10 51 7 28 -3 52 -7 54 -9z m-1551 -375 c-2 -192
-6 -289 -13 -291 -6 -2 -11 8 -11 23 0 14 -4 24 -9 20 -17 -10 -21 12 -6 25
18 15 20 51 3 45 -7 -3 -20 0 -28 5 -13 9 -13 11 0 20 8 5 21 8 28 5 18 -7 14
13 -5 24 -10 6 -12 11 -5 11 17 0 15 20 -3 20 -8 0 -15 5 -15 10 0 6 8 10 18
10 14 0 15 2 2 10 -13 9 -13 10 0 11 9 0 7 4 -7 11 -31 15 -29 36 5 50 22 9
24 12 9 15 -13 3 -17 11 -14 23 3 10 -2 29 -11 41 -11 16 -12 24 -4 27 7 2 12
10 12 18 0 8 7 14 15 14 8 0 15 5 15 10 0 6 -7 10 -16 10 -8 0 -12 5 -9 10 4
6 11 8 16 5 5 -4 8 14 8 42 -1 29 -4 37 -6 21 -5 -30 -10 -33 -32 -19 -12 8
-12 12 2 26 10 9 17 21 17 26 0 5 11 9 24 9 l23 0 -3 -287z m776 187 c12 -12
19 -24 17 -28 -2 -4 -7 -16 -11 -27 -6 -16 -9 -17 -16 -5 -7 11 -10 5 -9 -20
0 -29 2 -32 9 -15 6 12 8 -28 5 -108 -3 -71 -7 -132 -9 -136 -3 -4 -6 -38 -7
-74 -1 -37 -6 -64 -11 -61 -17 11 -72 13 -110 5 -43 -10 -57 2 -43 37 4 9 8
44 10 77 3 66 12 173 25 280 10 81 23 95 87 95 30 0 49 -6 63 -20z m140 -22
c19 -20 20 -33 18 -182 l-1 -161 -7 157 c-3 87 -9 161 -13 164 -4 4 -7 -74 -7
-174 0 -164 -2 -181 -17 -185 -14 -4 -12 -5 5 -6 26 -1 30 -21 5 -22 -11 0
-13 -3 -5 -6 27 -11 10 -23 -32 -23 -25 0 -46 -5 -48 -12 -3 -7 -12 -9 -22 -5
-12 5 -16 13 -11 25 3 9 11 106 16 216 5 109 14 207 20 217 14 27 72 25 99 -3z
m185 -123 c2 -77 7 -182 10 -234 6 -88 6 -93 -12 -87 -33 14 -101 17 -108 7
-10 -17 -25 -13 -25 5 0 9 8 23 18 30 16 13 16 13 -1 14 -16 0 -17 14 -17 173
1 94 6 186 12 202 10 28 13 30 65 30 l54 0 4 -140z m642 -210 l0 -125 -63 0
-63 0 2 60 c2 57 3 60 32 66 l30 7 -40 17 c-31 14 -36 19 -23 25 13 5 15 15
11 41 l-6 34 60 0 59 0 1 -125z m-4326 -72 c7 -94 -16 -909 -27 -961 -4 -20
-9 -22 -47 -17 -96 13 -107 16 -107 30 0 9 6 12 15 9 12 -5 15 4 16 42 1 40 3
44 9 24 l8 -25 1 28 c1 15 -3 27 -8 27 -7 0 -8 16 -2 77 1 6 10 9 21 6 11 -3
20 0 20 6 0 6 -6 11 -14 11 -16 0 -20 57 -5 76 5 6 8 46 6 87 -2 42 0 80 5 85
10 10 0 42 -13 42 -5 0 -9 14 -9 31 0 27 3 30 27 27 15 -2 28 2 30 10 3 6 0
12 -6 12 -8 0 -24 51 -23 77 0 5 -3 13 -8 18 -4 6 -11 25 -15 44 l-7 33 32 -7
c30 -7 32 -5 27 14 -3 13 1 24 10 30 22 12 5 19 -55 23 l-52 3 0 47 c0 92 13
104 118 107 43 1 52 -2 53 -16z m-195 -245 c-4 -122 -9 -279 -11 -348 -3 -69
-7 -178 -9 -242 -3 -65 -8 -123 -12 -129 -9 -16 -79 -5 -99 15 -15 15 -15 16
5 16 17 0 19 3 11 19 -8 14 -6 23 9 36 15 13 20 31 20 67 0 41 3 48 20 48 14
0 20 7 20 21 0 16 -4 19 -20 14 -15 -5 -20 -2 -20 10 0 9 8 19 18 22 23 6 18
53 -6 53 -14 0 -9 14 6 16 4 0 15 4 25 9 16 6 14 10 -13 30 -30 22 -30 24 -11
30 23 7 27 20 11 30 -6 4 -8 10 -5 15 3 5 -2 13 -11 18 -13 7 -9 11 22 17 41
8 39 9 -21 30 -19 7 -19 7 -1 14 22 8 33 51 13 51 -8 0 -7 4 3 10 12 8 10 10
-10 11 -22 1 -21 2 8 10 17 5 32 14 32 19 0 6 -15 10 -32 11 -18 0 -27 3 -20
6 6 2 10 9 6 14 -3 5 4 9 15 9 26 0 28 26 4 52 -15 17 -15 20 -3 28 8 6 23 10
33 10 9 0 17 4 17 8 0 5 -10 8 -22 8 -13 -1 -22 4 -20 12 1 7 -8 12 -22 12
-15 0 -26 7 -28 18 -8 35 4 51 46 61 l41 9 -38 1 c-21 1 -45 8 -53 16 -14 13
-12 15 18 16 18 0 42 4 53 9 11 5 24 9 29 9 4 1 5 -99 2 -221z m-605 195 c1
-32 -4 -535 -7 -658 -1 -66 -3 -153 -3 -192 -1 -80 -1 -80 -63 -63 -40 12 -43
23 -15 54 22 26 22 34 -5 57 l-23 18 23 1 c12 0 22 5 22 10 0 6 -10 10 -22 11
-20 0 -19 2 7 11 53 19 55 41 5 51 -23 5 -30 12 -30 29 0 50 11 67 46 74 19 3
34 10 34 16 0 5 -4 7 -9 4 -4 -3 -17 1 -27 9 -10 8 -27 15 -38 15 -14 0 -17 5
-12 23 3 12 6 32 6 45 0 15 6 22 19 22 27 0 51 10 51 22 0 5 -4 6 -10 3 -5 -3
-10 1 -10 9 0 10 -9 16 -23 16 -20 0 -22 4 -19 44 4 41 6 44 44 55 51 16 39
28 -28 30 -19 1 -21 6 -19 48 3 45 4 47 40 57 35 11 39 26 6 26 -37 1 -43 15
-36 84 7 61 9 66 32 66 13 0 21 4 18 10 -4 6 5 10 19 10 18 0 26 -6 27 -17z
m218 -95 c-8 -132 -19 -565 -19 -720 l1 -108 -34 0 c-46 0 -97 11 -97 20 0 4
16 11 35 14 19 4 35 11 35 17 0 6 -8 5 -21 -1 -16 -9 -25 -8 -40 6 -22 20 -26
46 -4 38 10 -4 13 1 12 23 -1 20 3 28 15 28 31 0 29 12 -4 19 -28 6 -31 8 -15
17 9 6 22 7 27 4 6 -3 17 1 26 10 22 21 2 45 -37 45 -29 0 -38 13 -18 26 7 4
9 21 6 40 -5 31 -4 34 21 35 15 0 36 4 47 9 19 8 19 9 -3 9 -12 1 -21 6 -20
13 2 6 -8 12 -22 12 -21 1 -24 6 -26 41 -1 48 7 54 66 56 l45 1 -35 12 c-24 9
-30 15 -20 19 8 3 0 6 -17 6 -32 1 -33 3 -33 41 0 22 -1 43 -2 48 -2 4 13 8
32 10 36 3 68 22 38 22 -9 0 -19 7 -22 15 -3 9 -14 15 -23 13 -15 -2 -19 6
-21 45 -3 42 -1 48 15 47 10 -1 31 -2 46 -1 38 1 24 21 -15 21 l-30 0 3 58 c3
80 1 90 -18 95 -10 3 16 5 57 6 l75 1 -6 -112z m187 -115 c-4 -166 -9 -229
-18 -235 -10 -6 -10 -8 0 -8 10 0 11 -46 6 -227 -3 -126 -9 -231 -13 -235 -10
-11 -83 11 -76 23 4 5 1 9 -6 9 -10 0 -10 3 -1 12 17 17 15 43 -3 58 -11 9
-13 16 -5 24 7 7 14 4 23 -9 10 -13 16 -15 21 -6 13 21 -2 41 -31 42 -27 1
-27 1 6 11 18 5 40 15 47 22 10 11 9 15 -9 24 -12 5 -29 12 -38 15 -10 3 -15
14 -13 29 1 12 3 33 3 46 1 17 5 22 19 18 20 -7 50 9 38 21 -4 4 -11 9 -14 9
-41 9 -48 16 -44 50 5 39 22 46 22 8 0 -14 4 -23 10 -19 20 13 10 43 -17 52
-27 9 -26 10 17 17 l44 7 -29 24 c-15 14 -32 25 -37 25 -4 0 -8 18 -8 40 0 35
3 40 23 40 24 1 63 25 50 33 -4 2 -20 7 -34 10 -21 5 -26 13 -27 39 -2 41 4
49 48 69 l35 17 -47 7 c-47 7 -59 17 -37 31 6 3 7 10 2 15 -11 11 -4 89 8 89
5 0 9 -13 9 -29 0 -40 11 -66 20 -51 4 7 2 32 -6 55 l-13 44 32 4 c18 2 36 5
41 5 5 1 6 -97 2 -225z m-1375 18 c0 -84 -2 -156 -5 -158 -8 -9 -146 9 -146
18 0 5 23 9 52 9 55 0 62 8 10 12 -24 2 -29 5 -20 15 6 8 13 11 16 8 8 -8 32
16 32 32 0 12 -3 12 -16 -1 -21 -22 -41 -20 -49 4 -8 25 12 63 31 56 8 -3 14
-1 14 4 0 4 -13 11 -30 15 -33 7 -37 19 -16 41 10 9 12 26 9 53 l-5 40 43 4
c88 8 81 21 80 -152z m297 -8 l3 -153 -88 1 c-91 0 -136 10 -115 23 7 4 16 5
21 2 5 -4 20 -2 33 3 23 10 23 10 -4 10 -16 1 -28 6 -28 11 0 6 -7 10 -15 10
-8 0 -15 5 -15 10 0 15 21 12 34 -5 6 -9 16 -11 24 -7 9 6 7 14 -9 30 -12 14
-21 38 -22 60 -1 20 -6 40 -11 43 -5 4 -6 15 -1 25 6 18 8 17 16 -3 12 -32 29
-28 29 7 0 17 -7 33 -17 39 -16 9 -15 11 7 12 l25 1 -25 8 c-24 7 -23 7 10 13
56 11 93 14 120 13 l25 -1 3 -152z m-514 115 c11 -56 15 -237 5 -243 -7 -5 -6
-11 2 -21 6 -8 9 -17 6 -20 -8 -9 -99 -8 -127 1 l-23 7 27 23 c14 12 26 26 26
30 0 4 9 14 20 23 15 13 17 21 10 32 -7 11 -10 11 -10 2 0 -21 -47 -65 -60
-57 -15 10 -33 57 -23 64 17 13 35 60 27 72 -5 9 -11 3 -19 -21 l-11 -33 -17
34 c-9 19 -12 38 -8 42 15 15 62 -5 72 -31 5 -13 12 -22 15 -19 7 6 -22 63
-36 72 -19 12 -10 26 12 19 21 -6 22 -5 8 11 -14 16 -13 17 8 11 17 -6 21 -4
16 8 -5 13 2 16 35 16 34 0 41 -4 45 -22z m-973 -27 c17 26 29 -11 29 -86 1
-38 3 -100 5 -137 3 -39 1 -69 -5 -73 -6 -3 -7 1 -4 10 5 11 2 14 -9 9 -12 -4
-16 2 -19 28 -4 39 -22 44 -26 6 -4 -33 -20 -40 -68 -26 l-38 10 58 33 c69 39
77 46 77 71 -2 78 -3 84 -18 84 -9 0 -13 -6 -9 -15 9 -24 -4 -45 -28 -44 -18
1 -19 2 -2 6 15 4 18 12 13 50 -7 61 1 87 20 71 11 -9 16 -9 24 3z m348 -83
c-2 -51 -9 -101 -15 -112 -10 -14 -9 -27 2 -58 20 -56 18 -64 -13 -62 -16 1
-48 3 -73 4 l-45 2 53 8 c58 9 79 19 41 21 -13 1 -28 2 -34 4 -5 1 -23 3 -40
3 l-30 2 25 23 c14 13 40 30 58 38 31 14 47 34 17 23 -18 -7 -20 7 -3 24 10
10 5 15 -20 24 -18 7 -32 18 -32 25 0 7 -4 13 -10 13 -19 0 -10 21 15 32 19 9
23 16 19 35 -5 19 -2 23 17 23 13 0 31 5 39 10 29 19 32 9 29 -82z m4953 -48
c-1 -19 -3 -75 -6 -125 -16 -325 -16 -328 -31 -507 -2 -18 -3 -41 -4 -50 -1
-15 -10 -18 -50 -18 -47 0 -75 15 -54 29 14 9 16 107 3 131 -14 25 4 64 26 56
9 -3 12 -1 9 5 -4 5 -15 7 -26 4 -13 -4 -19 -2 -19 9 0 12 10 16 40 16 22 0
40 5 40 10 0 6 -13 10 -30 10 -30 0 -41 14 -17 23 7 4 6 6 -4 6 -25 1 -31 29
-13 56 9 13 13 28 10 34 -3 5 -9 33 -12 63 -3 29 -7 61 -10 71 -3 9 0 17 6 17
8 0 10 8 7 21 -4 15 1 23 21 31 22 9 24 12 9 15 -28 7 -18 48 11 47 17 0 22 5
22 23 0 13 -6 23 -14 23 -15 0 -39 24 -31 31 2 3 30 5 62 4 l57 0 -2 -35z
m-637 -302 c-5 -263 -11 -388 -18 -394 -1 -1 -18 -4 -37 -6 -30 -3 -35 0 -38
20 -2 12 2 22 9 22 8 0 8 4 -1 15 -10 12 -10 19 -2 27 8 8 8 17 0 32 -8 15 -8
21 0 24 8 2 9 9 2 22 -6 11 -6 21 -1 24 5 4 4 19 -2 38 -10 25 -9 32 2 36 10
3 10 6 1 12 -9 6 -9 12 0 29 9 17 9 26 -1 37 -6 8 -8 14 -3 14 5 0 9 45 9 99
0 54 -4 97 -9 94 -4 -3 -5 9 -1 27 4 18 7 55 7 82 l0 48 45 0 45 0 -7 -302z
m857 87 c-5 -110 -8 -271 -8 -357 l1 -158 -37 0 c-40 0 -64 19 -26 21 23 1 22
1 -2 8 -30 8 -35 30 -22 98 6 33 5 55 -2 67 -8 14 -8 20 2 23 14 6 16 69 2 78
-6 4 -7 11 -4 17 4 6 10 26 15 46 6 28 4 38 -9 49 -11 8 -12 12 -4 13 14 0 17
70 2 70 -5 0 -10 5 -10 11 0 5 4 8 9 5 12 -8 19 72 7 84 -6 6 -5 15 3 24 7 8
8 17 4 19 -5 3 -8 23 -8 44 0 37 1 38 40 43 22 3 43 3 47 0 4 -3 4 -96 0 -205z
m-761 15 c-2 -96 -4 -243 -5 -325 -1 -83 -5 -155 -9 -162 -8 -13 -45 -12 -67
3 -11 7 -5 11 25 15 l40 6 -37 2 c-31 1 -35 4 -31 21 3 12 14 20 27 21 19 1
19 2 -3 8 -22 6 -44 34 -24 30 4 -1 22 0 38 1 22 2 25 4 10 7 -37 10 -44 34
-16 62 19 19 19 19 -7 26 -26 6 -26 7 -8 21 15 10 16 16 7 27 -9 11 -8 17 4
27 14 12 14 15 -1 31 -16 18 -16 19 -1 19 19 0 23 15 7 25 -5 3 -7 19 -4 34 4
16 1 32 -5 35 -15 10 -14 26 2 26 8 0 12 14 12 40 0 26 -4 40 -12 40 -15 0
-17 16 -4 24 15 10 19 76 4 76 -13 0 -18 22 -7 32 3 4 20 5 37 5 l32 -2 -4
-175z m122 163 c5 -3 6 -44 3 -92 -3 -47 -6 -140 -6 -206 0 -66 -3 -177 -7
-247 -5 -112 -8 -127 -24 -131 -11 -3 -19 -2 -19 2 0 4 -13 6 -30 3 -18 -3
-30 0 -30 7 0 6 8 11 18 11 9 0 24 5 32 11 13 9 13 10 0 8 -34 -3 -37 2 -37
65 1 36 4 63 9 60 4 -3 8 11 8 30 0 20 5 36 10 36 6 0 10 7 10 16 0 8 -4 13
-8 10 -4 -2 -14 -1 -22 5 -8 5 -10 9 -5 10 48 4 66 16 45 29 -13 8 -12 10 2
10 9 0 19 -8 21 -17 4 -14 5 -13 6 4 1 16 -6 23 -26 26 l-28 4 25 9 25 8 -24
6 c-18 4 -25 13 -28 35 -1 17 -5 47 -7 67 -2 21 -1 37 2 36 4 0 10 1 15 2 4 1
12 3 17 4 24 3 6 52 -23 60 -19 6 -20 8 -6 19 20 16 20 57 -1 57 -10 0 -15 10
-16 31 l-1 31 46 -7 c25 -4 50 -9 54 -12z m1838 5 c12 7 22 12 24 10 1 -2 5
-127 9 -278 4 -151 9 -303 12 -337 6 -61 6 -62 -20 -69 -15 -3 -30 -4 -33 -1
-3 4 -7 37 -9 74 -1 37 -5 102 -8 143 -3 41 -6 134 -7 205 -1 72 -5 135 -8
140 -10 17 -7 75 4 75 6 0 2 5 -7 11 -10 5 -18 17 -18 25 0 12 3 12 20 2 16
-10 24 -10 41 0z m-1707 -240 c-4 -134 -7 -256 -6 -273 0 -16 -2 -58 -4 -92
l-6 -63 -41 0 c-48 0 -62 8 -62 32 0 19 12 33 28 33 5 0 12 6 15 13 5 16 -35
16 -41 0 -3 -7 -6 -3 -6 9 -1 12 4 25 10 29 7 4 9 22 6 45 -5 37 -4 39 23 39
49 0 55 7 52 55 -3 36 -8 45 -23 45 -11 0 -19 7 -19 16 0 13 3 14 14 5 11 -10
15 -4 18 29 3 35 1 40 -17 41 -19 0 -18 1 3 9 24 10 30 22 10 19 -26 -3 -39 1
-33 11 4 6 12 10 18 9 27 -3 33 3 35 37 3 43 -12 64 -44 64 -21 0 -23 4 -18
29 4 17 1 32 -5 36 -9 5 -9 10 0 21 9 11 8 14 -2 14 -24 0 5 18 36 23 74 10
67 35 59 -235z m131 174 c-9 -80 -16 -213 -20 -387 -4 -244 2 -216 -50 -214
-43 3 -65 18 -27 20 15 0 14 1 -3 8 -19 8 -19 8 0 19 11 6 14 12 8 12 -16 0
-17 30 -2 30 6 0 9 14 6 35 -3 20 0 36 7 40 8 3 7 7 -1 11 -20 9 -15 20 8 21
12 1 23 4 26 6 9 10 5 85 -6 103 -6 11 -11 13 -11 7 0 -7 -5 -13 -11 -13 -6 0
-8 9 -4 20 4 13 1 22 -9 26 -21 8 -20 24 2 25 16 1 16 2 0 6 -20 5 -25 23 -7
23 8 0 7 5 -2 16 -11 14 -10 16 6 14 52 -6 55 -3 55 54 0 54 -1 55 -31 58
l-30 3 21 23 c22 24 19 45 -5 35 -11 -4 -15 3 -15 25 0 30 1 31 51 30 l50 0
-6 -56z m252 -47 c-4 -55 -9 -158 -12 -230 -4 -120 -11 -259 -14 -295 -3 -33
-16 -41 -50 -29 -24 8 -29 14 -20 20 9 5 14 29 15 61 0 28 6 54 12 56 6 2 8
10 5 18 -3 7 2 17 11 20 16 6 23 44 9 44 -5 0 -9 12 -10 28 -2 15 -5 51 -9 81
-4 36 -2 56 6 61 12 7 13 179 0 210 -1 3 -3 17 -4 32 -1 26 1 27 33 25 l34 -2
-6 -100z m603 55 l0 -49 31 6 31 6 -7 -279 c-4 -153 -10 -283 -14 -287 -4 -4
-15 -5 -24 -1 -15 5 -16 27 -12 207 3 111 7 233 10 270 3 48 1 67 -7 65 -14
-5 -18 -29 -21 -143 -2 -101 -9 -119 -32 -89 -19 25 -19 98 0 114 18 15 20 77
4 82 -7 2 -13 32 -14 75 l-2 70 29 1 c27 1 28 -1 28 -48z m1182 40 c14 0 16
-12 11 -102 -3 -57 -10 -109 -16 -115 -6 -8 -6 -13 0 -13 6 0 10 -87 11 -220
l1 -220 -34 0 c-58 0 -64 6 -59 63 2 29 9 65 16 81 9 23 9 31 0 34 -20 6 -14
34 6 28 12 -4 21 2 29 21 7 15 11 29 8 31 -3 3 -5 0 -5 -6 0 -25 -15 -11 -17
15 0 15 -8 32 -17 39 -17 12 -22 69 -6 79 5 3 7 12 3 21 -3 8 1 22 9 32 23 26
22 89 0 103 -16 10 -18 18 -11 46 4 19 10 37 13 40 3 4 1 12 -5 19 -15 19 -1
37 25 30 11 -3 28 -6 38 -6z m-3689 -35 c3 -19 2 -47 -2 -63 -5 -15 -5 -65 -1
-110 4 -45 3 -105 -1 -133 -4 -28 -9 -99 -10 -157 -2 -111 -5 -135 -20 -127
-4 3 -6 12 -2 20 3 8 1 15 -5 15 -6 0 -18 3 -28 7 -13 5 -15 3 -9 -7 6 -10 4
-12 -8 -7 -9 3 -18 1 -21 -6 -5 -13 -6 -2 -10 86 -1 32 2 60 6 64 5 3 7 11 4
19 -3 8 0 11 9 8 11 -5 13 11 11 81 -1 47 2 92 6 98 6 9 8 9 8 -1 0 -7 5 -10
10 -7 6 4 8 15 5 26 -9 29 4 79 21 79 9 0 14 8 13 18 -1 9 1 25 6 34 4 10 5
36 3 58 -4 49 7 53 15 5z m3837 -32 c0 -34 -5 -65 -10 -68 -7 -4 -9 -28 -5
-63 3 -32 6 -61 5 -67 0 -5 -2 -47 -4 -91 -2 -45 -7 -88 -11 -95 -5 -7 -4 -14
2 -16 6 -2 8 -24 5 -53 -2 -27 -1 -57 3 -67 5 -10 9 -33 11 -50 l2 -33 -52 0
-52 0 1 36 c1 19 6 39 13 43 8 5 9 22 3 60 -8 49 -7 54 11 59 15 3 16 7 7 13
-8 5 -12 23 -10 48 2 29 -2 42 -16 50 -17 10 -17 10 0 11 20 0 25 55 5 63 -10
4 -10 8 1 15 9 7 10 12 2 16 -19 12 -12 26 11 23 14 -1 23 4 23 13 2 24 -17
74 -31 86 -10 8 -11 19 -3 49 6 20 8 48 4 62 -5 23 -4 24 40 21 l45 -3 0 -62z
m-3242 -265 c-3 -278 -5 -311 -19 -313 -9 -2 -23 1 -30 6 -8 5 -9 9 -3 9 15 0
14 270 -1 270 -5 0 -4 4 4 9 12 8 12 12 2 25 -10 12 -11 19 -2 30 8 9 10 57 9
145 -3 130 -3 131 20 131 l22 0 -2 -312z m94 269 c2 -23 1 -163 -2 -312 l-5
-270 -22 -3 c-13 -2 -23 1 -23 7 0 6 7 11 15 11 8 0 15 7 15 15 0 9 -6 12 -15
9 -10 -4 -15 0 -15 16 0 11 5 18 10 15 6 -3 10 -2 10 4 0 5 -6 12 -12 15 -9 4
-10 8 -2 11 7 4 10 23 6 51 -3 33 -1 49 9 55 11 7 10 9 -3 9 -14 0 -18 8 -17
33 0 27 2 29 9 12 5 -13 6 0 3 35 -8 81 -3 192 9 207 8 10 6 13 -6 13 -9 0
-16 5 -16 10 0 6 7 10 15 10 8 0 15 5 15 10 0 6 -6 10 -14 10 -8 0 -15 13 -18
34 -3 30 -1 33 24 34 25 1 27 -3 30 -41z m1585 29 c2 -1 3 -104 1 -161 -1 -22
-1 -51 0 -65 1 -14 0 -45 -3 -70 -7 -83 -8 -296 -1 -308 5 -8 -3 -12 -23 -12
-17 0 -31 5 -31 10 0 6 4 10 9 10 6 0 8 9 6 20 -2 11 0 22 6 25 15 10 10 28
-5 22 -11 -4 -14 2 -14 21 1 15 -2 37 -6 49 -6 18 -4 22 7 17 26 -10 33 35 8
52 -18 13 -19 18 -8 42 6 15 16 30 21 33 10 8 8 13 -28 76 -13 24 -20 45 -15
49 5 3 9 0 9 -5 0 -6 5 -11 11 -11 11 0 5 72 -8 106 -3 8 1 14 11 14 9 0 16 5
16 10 0 6 -3 10 -7 10 -5 0 -13 11 -19 24 -16 35 0 58 34 50 15 -4 28 -7 29
-8z m583 -217 c-5 -107 -11 -239 -13 -293 -4 -102 -9 -115 -45 -101 -15 6 -15
8 -2 18 17 14 24 37 12 37 -5 0 -10 54 -11 120 -2 91 1 120 10 120 9 0 8 4 -3
13 -13 10 -14 24 -8 82 5 39 6 73 3 78 -2 4 -1 21 2 39 5 20 10 26 15 18 12
-20 28 -3 22 25 -3 16 -10 24 -20 23 -8 -2 -17 2 -19 9 -4 12 46 23 60 13 4
-4 3 -94 -3 -201z m-5166 165 c3 -9 6 -69 6 -135 l0 -119 -34 0 c-18 0 -47 7
-62 16 l-29 16 38 -7 c27 -4 37 -3 32 4 -3 6 -17 11 -30 11 -13 0 -27 5 -30
10 -3 6 4 10 17 10 13 0 32 9 41 21 24 28 16 34 -11 9 -34 -32 -51 -26 -32 11
12 21 1 25 -19 7 -11 -11 -12 -10 -6 1 14 24 23 81 14 87 -5 3 -9 0 -9 -7 0
-7 -3 -9 -7 -6 -3 4 2 16 13 28 17 19 19 19 31 3 12 -17 13 -17 13 0 0 10 -9
20 -20 23 -32 8 -23 20 16 21 20 1 39 4 42 7 10 9 20 5 26 -11z m306 -124 l0
-130 -62 0 c-35 0 -80 5 -100 10 -34 10 -36 13 -25 30 6 11 21 20 32 21 11 0
14 3 8 6 -7 2 -13 11 -13 19 0 9 -4 13 -9 10 -13 -8 -21 32 -14 68 3 17 12 35
20 39 18 11 17 27 -2 27 -8 0 -15 4 -15 9 0 10 43 16 133 19 l47 2 0 -130z
m2504 104 l25 6 3 -152 c2 -84 2 -210 0 -279 l-3 -126 -24 5 c-28 5 -33 20
-10 28 20 8 19 24 -2 25 -17 1 -17 2 0 6 23 6 25 83 2 83 -8 0 -15 4 -15 10 0
5 7 7 15 4 11 -5 15 1 15 19 0 14 -7 27 -15 31 -9 3 -15 18 -15 37 0 27 2 30
15 19 12 -10 15 -10 15 0 0 7 -6 18 -14 24 -15 12 -29 119 -14 110 4 -3 8 2 8
11 0 9 -4 13 -10 10 -6 -4 -10 8 -10 29 0 20 5 36 10 36 6 0 10 10 10 22 0 12
-3 18 -7 15 -3 -4 -12 1 -19 11 -18 23 -17 37 1 22 8 -7 25 -10 39 -6z m2156
-26 c0 -22 -5 -152 -11 -287 -11 -259 -16 -280 -58 -266 -33 10 -25 25 12 20
17 -3 25 -2 17 2 -43 19 -44 25 -31 216 6 100 11 212 11 249 0 43 4 68 13 72
10 5 10 7 0 12 -23 10 -13 24 17 24 29 0 30 -2 30 -42z m762 -135 c0 -93 0
-175 0 -183 -1 -8 -2 -61 -3 -117 0 -99 -1 -103 -22 -103 -20 1 -21 2 -4 14
21 16 22 30 2 46 -17 14 -21 35 -5 25 6 -3 10 -2 10 4 0 5 -4 12 -9 15 -9 6
-7 63 4 127 4 22 2 46 -5 59 -9 16 -9 25 1 36 10 13 10 17 0 24 -15 9 -23 137
-9 146 12 8 10 42 -4 46 -17 6 0 28 23 28 18 0 19 -9 21 -167z m-5935 46 c-1
-61 1 -113 5 -115 17 -11 -5 -24 -38 -24 -23 0 -33 4 -28 11 5 8 1 8 -14 0
-25 -14 -43 -14 -22 -1 10 6 11 10 3 10 -19 0 -16 12 12 42 14 15 25 29 25 32
0 3 -11 0 -25 -6 -14 -6 -25 -19 -25 -30 0 -10 -4 -18 -10 -18 -5 0 -10 6 -10
14 0 7 -7 19 -15 26 -19 16 -20 31 -1 24 10 -4 15 6 18 36 2 23 0 44 -4 46 -9
6 1 34 13 34 5 0 9 -6 9 -13 0 -13 39 -42 46 -34 3 2 -7 18 -21 35 -14 16 -25
33 -25 36 0 3 25 6 55 6 l55 0 -3 -111z m5861 -11 c1 -68 3 -194 6 -280 5
-149 4 -158 -13 -158 -10 0 -24 7 -31 15 -9 10 -9 15 -1 15 6 0 11 12 11 26 0
14 -3 23 -7 21 -5 -3 -9 42 -11 99 -3 73 0 104 8 104 13 0 9 42 -5 52 -6 5 -5
8 3 8 6 0 12 5 12 10 0 6 -7 10 -16 10 -9 0 -12 5 -8 12 11 17 13 108 3 102
-5 -3 -5 6 0 19 6 14 7 27 4 31 -11 10 7 36 25 36 16 0 18 -11 20 -122z m190
-135 c-2 -264 -3 -283 -20 -283 -5 0 -7 4 -4 9 8 12 -19 33 -29 23 -4 -4 -5
34 -2 83 3 50 2 81 -2 70 -7 -17 -9 -14 -13 15 -10 64 16 63 33 -2 7 -27 8
-25 3 15 -3 26 -12 59 -20 75 -15 29 -17 51 -8 76 11 28 20 17 16 -18 -2 -18
0 -36 5 -39 5 -3 8 13 7 36 -2 23 -3 57 -3 75 -1 28 -4 32 -28 33 -23 1 -25 2
-8 7 11 4 20 14 20 22 0 8 6 16 13 16 25 3 27 5 12 14 -13 9 -13 11 0 20 8 5
18 10 23 10 4 0 6 -116 5 -257z m-7018 163 c0 -34 -5 -77 -11 -94 -11 -33 -9
-32 -113 -24 -16 2 -12 8 18 37 21 19 34 40 31 45 -4 6 -1 17 5 25 10 12 9 15
-5 15 -11 0 -15 5 -11 15 3 9 0 15 -9 15 -7 0 -17 5 -21 12 -5 8 -2 9 9 5 9
-3 27 -2 39 3 13 5 33 9 46 9 21 1 22 -3 22 -63z m6516 38 c-3 -8 -8 -121 -12
-252 -4 -130 -8 -238 -9 -240 -1 -2 -24 1 -51 5 -46 8 -48 10 -50 41 -2 31 0
32 40 34 l41 1 -45 7 c-46 6 -40 16 15 23 24 3 23 4 -10 6 -34 1 -41 5 -42 22
-2 18 3 20 37 18 22 -2 42 0 46 4 4 4 -8 7 -27 7 -19 0 -41 5 -49 10 -11 7 -2
10 33 10 26 0 47 5 47 10 0 6 -18 10 -39 10 -22 0 -43 5 -46 11 -10 15 -5 17
42 21 57 6 67 18 15 18 -22 0 -44 5 -47 10 -4 6 12 10 41 10 26 0 44 3 40 7
-8 8 -13 9 -63 11 -22 1 -33 7 -33 17 0 12 8 14 39 9 24 -4 41 -2 45 5 5 7 -3
11 -21 12 -15 0 -37 4 -48 9 -15 7 -10 9 23 9 29 1 42 5 42 15 0 11 -10 13
-42 9 -29 -4 -39 -3 -34 5 4 7 1 12 -6 12 -9 0 -9 3 2 10 8 5 22 7 30 5 8 -3
29 -1 45 4 28 9 27 9 -17 10 -62 1 -75 21 -14 21 25 0 46 4 46 9 0 10 -35 21
-69 21 -43 0 -7 23 47 30 54 7 66 4 58 -16z m-6202 -85 c-4 -60 -1 -95 6 -104
20 -24 1 -35 -53 -34 -47 1 -49 2 -22 10 17 5 38 7 48 5 10 -2 17 2 17 11 0 8
-8 13 -17 12 -10 -1 -38 -1 -63 0 l-45 2 36 32 c19 17 44 37 55 44 18 12 18
12 0 6 -16 -5 -18 -3 -12 20 5 23 2 28 -19 33 -14 3 -25 10 -25 14 0 5 -7 16
-16 24 -14 15 -10 16 49 16 l65 0 -4 -91z m4097 49 c3 -47 0 -306 -4 -318 -8
-23 -5 -54 6 -68 8 -10 7 -16 -2 -22 -9 -5 -10 -10 -2 -14 24 -15 9 -26 -36
-25 -65 1 -105 17 -45 18 23 1 42 6 42 11 0 6 -11 10 -25 10 -14 0 -25 5 -25
10 0 6 12 10 26 10 23 0 25 3 22 37 -3 33 -7 39 -33 43 l-30 6 36 7 c31 6 37
12 41 38 4 27 1 31 -23 36 -31 6 -30 23 2 23 12 0 19 7 19 19 0 11 3 26 6 35
5 13 -1 16 -25 16 -17 0 -31 5 -31 10 0 6 3 9 8 9 44 -7 54 33 16 68 -23 21
-23 23 -5 23 28 0 52 11 45 21 -3 5 0 9 5 9 6 0 11 -6 12 -12z m-3317 -170
l17 -23 -4 22 c-4 19 -1 21 32 19 l36 -2 3 -121 3 -121 -50 1 c-54 2 -98 27
-47 27 15 0 25 4 21 10 -3 5 -12 7 -19 4 -8 -3 -17 -1 -21 5 -4 7 4 11 19 11
14 0 28 5 31 11 11 17 -3 23 -20 9 -9 -7 -18 -11 -20 -8 -3 3 -6 41 -6 84 -1
48 -5 82 -12 86 -8 5 -6 8 4 8 9 0 24 -10 33 -22z m386 -70 c1 -51 3 -170 6
-264 l6 -171 -28 -7 c-31 -8 -152 2 -174 15 -11 6 -11 8 -2 9 7 0 12 8 10 18
-2 12 3 16 20 15 28 -3 28 0 -4 34 -22 23 -25 34 -20 66 4 22 13 46 21 54 20
20 19 26 -4 20 -14 -3 -18 -1 -14 9 4 10 27 14 89 14 107 0 110 14 4 17 -44 1
-87 6 -97 12 -15 9 -14 11 12 12 17 1 23 3 13 6 -9 2 -19 10 -21 17 -4 9 2 11
21 8 l26 -5 -32 40 c-17 22 -29 43 -25 46 3 4 7 19 9 34 1 15 8 29 13 31 6 2
11 11 11 19 0 9 -6 13 -14 10 -9 -4 -13 -1 -10 7 3 7 25 13 52 15 25 1 48 4
51 7 2 2 22 4 43 4 l38 0 0 -92z m-506 -37 c-3 -53 -7 -101 -9 -108 -2 -6 1
-14 8 -16 9 -3 9 -7 0 -17 -8 -9 -27 -10 -70 -5 -32 5 -49 10 -38 13 26 5 44
22 24 22 -8 0 -29 -4 -47 -9 -24 -7 -32 -7 -32 4 0 7 6 13 13 12 48 -1 97 24
97 52 0 15 -11 13 -34 -4 -27 -21 -39 -19 -31 5 3 11 2 20 -3 20 -5 0 -7 11
-4 25 2 14 -1 32 -8 40 -22 27 18 31 43 5 14 -16 22 -19 25 -11 3 8 -1 17 -8
21 -6 4 -11 11 -10 16 0 5 -14 12 -32 15 -31 5 -31 6 17 13 28 4 57 8 65 10
37 6 40 -3 34 -103z m4994 -47 c-2 -72 -7 -118 -13 -117 -5 1 -13 12 -16 25
-5 20 -6 19 -11 -10 -2 -18 0 -36 5 -39 22 -13 -32 -18 -133 -13 l-105 6 103
2 c83 2 104 5 109 18 3 8 1 20 -6 27 -8 8 -11 5 -11 -11 0 -18 -6 -22 -29 -22
-32 0 -46 13 -35 31 3 6 7 37 8 68 1 31 5 61 8 66 3 6 4 24 3 42 -2 24 2 34
16 38 10 4 23 4 27 1 5 -3 7 -48 6 -100 -3 -79 0 -96 11 -96 8 0 15 5 15 10 0
6 7 10 15 10 8 0 15 4 15 10 0 5 -6 7 -14 4 -18 -7 -28 20 -17 49 4 12 7 45 5
74 -3 42 0 52 14 56 9 2 21 1 25 -3 4 -4 6 -60 5 -126z m-5658 22 c3 -48 2
-92 -1 -98 -8 -12 -101 -6 -106 7 -1 6 13 21 33 34 23 16 31 27 23 31 -6 4 -9
12 -5 18 7 12 -3 42 -15 42 -4 0 -19 11 -33 24 l-24 25 41 3 c88 6 81 13 87
-86z m874 -153 c3 -26 3 -75 0 -110 l-7 -63 -57 0 c-56 0 -57 0 -52 26 3 16
-1 30 -9 35 -11 7 -11 11 -2 17 7 4 13 34 14 69 2 61 2 62 33 66 75 9 73 11
80 -40z m-209 -91 c0 -57 -3 -106 -8 -109 -4 -3 -3 -11 4 -19 15 -18 12 -21
-31 -26 -28 -2 -35 0 -34 14 1 10 -2 16 -6 13 -5 -3 -11 -1 -15 5 -3 5 -15 10
-26 10 -12 0 -17 5 -14 10 4 6 0 22 -9 35 -20 31 -20 36 1 28 13 -5 15 -2 11
15 -6 22 6 30 17 12 12 -19 24 -10 23 18 -1 15 2 35 6 44 6 13 1 21 -20 30
l-28 13 44 6 c89 12 85 17 85 -99z m1720 -83 c4 -6 13 -8 20 -5 7 2 16 -1 18
-9 8 -19 -4 -27 -20 -14 -10 9 -13 6 -13 -13 0 -14 5 -39 11 -57 14 -39 5 -78
-19 -84 -10 -2 -1 -8 24 -15 38 -11 42 -15 48 -53 4 -23 4 -44 1 -47 -3 -3 -5
1 -5 10 0 20 -38 53 -77 66 -41 14 -42 4 -8 -60 25 -47 34 -118 15 -118 -5 0
-10 9 -10 19 0 11 -4 22 -9 25 -4 3 -11 28 -15 56 -7 54 -30 90 -57 90 -21 0
-31 37 -17 63 5 11 8 40 4 66 -6 54 13 92 37 72 11 -9 17 -8 27 4 15 18 36 20
45 4z m-1511 -71 c3 -13 6 -69 6 -124 0 -123 -5 -130 -82 -116 -52 9 -52 9
-25 20 15 6 27 14 27 17 0 4 -4 4 -8 1 -4 -2 -14 -1 -22 4 -12 7 -11 10 5 15
33 11 49 21 53 35 4 11 -2 9 -23 -4 -26 -17 -28 -17 -44 -1 -15 17 -15 17 2
12 18 -7 25 17 8 27 -8 5 -6 53 3 99 2 9 -1 18 -7 18 -12 2 52 15 84 18 10 0
19 -9 23 -21z m5671 -8 c4 -7 -3 -9 -19 -6 -14 3 -26 0 -26 -5 0 -9 3 -10 32
-13 9 -1 13 -20 12 -61 -1 -49 -4 -60 -18 -59 -9 0 -38 1 -66 2 -27 1 -50 5
-50 10 0 4 19 7 43 5 l42 -2 -47 11 c-29 7 -48 17 -48 25 0 8 -5 11 -12 7 -8
-5 -9 -2 -5 10 4 10 7 21 7 26 0 4 9 10 20 13 15 4 20 0 20 -13 0 -13 5 -17
20 -13 21 5 30 53 10 53 -5 0 -10 5 -10 10 0 13 87 13 95 0z m-1638 -26 c3 3
1 6 -5 6 -7 0 -12 5 -12 10 0 6 13 10 29 10 l29 0 -5 -77 c-7 -105 -7 -106 -2
-123 3 -10 -3 -15 -18 -14 -15 1 -20 -3 -16 -13 3 -8 13 -13 22 -10 14 3 16
-2 13 -22 -3 -24 -8 -27 -48 -27 -24 -1 -44 3 -44 7 0 5 10 9 23 10 16 0 18 2
7 7 -8 4 -16 21 -16 40 -2 28 1 32 23 32 22 0 24 2 13 15 -7 9 -21 13 -31 10
-15 -5 -17 0 -15 34 1 23 5 44 9 47 12 12 8 24 -8 24 -20 0 -19 10 3 27 16 13
15 14 -5 10 -13 -3 -23 -1 -23 3 0 16 25 17 48 2 12 -8 25 -12 29 -8z m-4239
-22 c2 -19 -1 -47 -7 -63 -6 -19 -7 -29 0 -29 6 0 8 -21 6 -51 -2 -27 1 -52 5
-55 29 -18 -47 -33 -86 -18 -15 6 -15 8 1 19 16 12 15 13 -10 8 -16 -3 -27 -1
-27 6 0 6 8 11 18 11 9 0 25 14 34 30 16 28 16 30 -1 30 -9 0 -26 -8 -37 -19
-21 -19 -21 -18 -20 31 1 27 -2 52 -6 54 -16 10 -7 34 13 34 11 0 18 -4 15 -8
-3 -5 4 -16 15 -25 17 -15 19 -15 19 -1 0 33 -20 54 -52 54 -45 0 -31 8 33 19
77 13 84 11 87 -27z m-682 -77 c1 -55 3 -106 5 -114 3 -11 -7 -14 -46 -12 -64
4 -72 11 -12 11 34 0 47 4 47 14 0 11 -9 13 -34 9 -42 -7 -89 4 -81 17 4 6 16
8 28 6 12 -1 16 -1 10 1 -20 7 -15 19 10 30 32 15 34 70 3 79 -17 6 -56 40
-56 49 0 2 18 3 41 3 23 1 44 3 47 7 3 3 13 4 21 3 13 -3 16 -22 17 -103z
m7033 -32 c-1 -16 1 -64 5 -108 l8 -80 -28 -12 c-15 -7 -33 -13 -38 -12 -6 0
-2 4 9 9 16 7 10 9 -25 10 -25 1 -37 4 -27 7 12 3 16 11 12 22 -7 22 19 45 41
37 10 -4 14 -2 11 6 -2 7 -16 12 -31 11 -22 -2 -25 1 -17 11 6 7 8 16 4 19 -3
4 1 7 11 7 9 0 14 5 11 10 -3 6 -18 10 -33 10 -16 0 -22 3 -15 8 7 4 10 21 8
40 l-4 32 50 0 c48 0 49 -1 48 -27z"/>
<path d="M1741 2703 c-1 -6 -9 -13 -18 -15 -15 -3 -17 -18 -19 -119 -1 -63 -4
-124 -8 -135 -8 -25 32 -54 45 -33 11 19 3 110 -12 119 -19 13 -2 40 23 37 22
-4 39 -27 19 -27 -6 0 -11 -5 -11 -10 0 -6 11 -3 25 6 l25 16 -22 19 c-21 19
-21 20 -2 35 18 15 18 15 -3 11 -13 -3 -23 -1 -23 3 0 5 -3 17 -6 27 -5 15 -4
16 5 3 10 -13 12 -13 21 0 7 11 5 17 -8 21 -9 3 -20 17 -23 30 -4 13 -7 19 -8
12z"/>
<path d="M1281 2606 c12 -13 14 -28 9 -62 -4 -25 -6 -62 -4 -82 1 -20 -1 -41
-6 -47 -10 -12 -7 -78 5 -137 5 -26 4 -38 -4 -38 -6 0 -11 -9 -11 -20 0 -13 5
-18 15 -14 10 4 15 0 15 -11 0 -10 6 -15 18 -13 14 3 18 16 20 66 3 56 1 62
-17 62 -11 0 -23 5 -26 10 -4 6 5 10 19 10 29 0 35 17 33 85 -2 33 -6 41 -24
43 -26 4 -30 20 -8 28 8 4 15 14 16 23 0 12 2 11 8 -4 6 -15 9 -9 12 28 2 26
1 47 -3 47 -5 0 -8 7 -8 15 0 8 -6 15 -12 15 -7 0 -24 3 -38 6 -23 6 -24 5 -9
-10z"/>
</g>
</svg>
