<?xml version="1.0" standalone="no"?>
<!DOCTYPE svg PUBLIC "-//W3C//DTD SVG 20010904//EN"
 "http://www.w3.org/TR/2001/REC-SVG-20010904/DTD/svg10.dtd">
<svg version="1.0" xmlns="http://www.w3.org/2000/svg"
 width="275.000000pt" height="183.000000pt" viewBox="0 0 275.000000 183.000000"
 preserveAspectRatio="xMidYMid meet">
<metadata>
Created by potrace 1.16, written by Peter Selinger 2001-2019
</metadata>
<g transform="translate(0.000000,183.000000) scale(0.100000,-0.100000)"
fill="#000000" stroke="none">
<path d="M8 1711 c-2 -65 0 -137 3 -160 3 -23 3 -44 0 -46 -3 -1 -5 -156 -3
-343 l3 -339 61 -7 c34 -3 65 -12 70 -19 5 -8 8 -7 8 6 0 22 27 22 265 2 258
-22 315 -28 281 -33 -22 -3 -26 -6 -15 -13 9 -5 10 -9 2 -9 -6 0 -15 4 -18 10
-3 5 -20 -5 -37 -23 -17 -17 -28 -26 -24 -19 4 7 1 12 -8 12 -9 0 -16 -3 -16
-7 0 -5 -37 -8 -83 -9 -45 0 -71 2 -58 5 44 11 37 31 -11 30 l-43 -2 35 -6 35
-7 -47 -5 c-25 -2 -44 -1 -41 4 2 4 -15 7 -39 8 -33 0 -38 2 -23 9 13 6 -3 7
-45 5 -52 -3 -57 -2 -25 4 22 5 30 9 18 10 -12 0 -23 7 -26 14 -3 9 -9 7 -24
-6 -11 -9 -26 -17 -34 -17 -12 0 -11 2 1 11 11 8 9 9 -10 4 -14 -4 -29 -11
-34 -15 -4 -5 -33 -6 -62 -3 l-54 6 -1 -47 c0 -25 0 -66 0 -91 0 -25 0 -175 0
-335 l1 -290 1370 0 1370 0 0 915 0 915 -39 0 c-28 0 -45 -7 -62 -25 -13 -13
-27 -25 -31 -25 -4 0 -18 -11 -32 -25 -20 -20 -35 -25 -75 -25 -73 0 -81 5
-81 56 l0 44 -1209 0 -1210 0 -3 -119z m1379 84 c19 -13 24 -23 20 -42 -4 -24
-3 -24 37 -17 22 3 44 11 47 17 4 5 11 7 17 3 15 -9 93 5 86 15 -3 5 4 9 15 9
29 0 36 -18 9 -25 -13 -3 -71 -14 -130 -25 -74 -13 -113 -25 -127 -39 -66 -66
-176 -111 -279 -113 -30 -1 -52 -6 -52 -12 0 -8 -3 -8 -8 0 -4 6 -23 16 -43
23 -20 6 -45 21 -54 31 -15 17 -147 92 -257 148 -15 7 -31 19 -35 25 -4 7 0 6
10 -2 9 -7 24 -11 32 -7 9 3 13 2 10 -4 -5 -8 122 -80 140 -80 22 0 25 -1 19
-12 -4 -7 -3 -8 4 -4 7 4 12 14 12 22 0 8 5 12 10 9 6 -3 10 -1 10 4 0 6 7 11
15 11 8 0 15 4 15 9 0 9 70 46 82 43 4 -1 20 3 35 9 44 17 64 19 83 9 13 -7
21 -5 30 5 17 21 211 13 247 -10z m520 -376 c2 -48 -23 -119 -42 -119 -10 0
-12 -10 -8 -34 7 -42 -18 -61 -89 -70 l-48 -6 0 37 c0 44 -11 38 -12 -6 l-1
-31 -87 0 c-93 0 -125 12 -118 46 2 10 10 18 16 17 7 -2 11 0 10 5 -3 9 25 52
34 52 4 0 5 -6 2 -14 -3 -8 3 -16 15 -19 14 -3 21 0 21 9 0 20 33 34 80 34 25
0 39 4 35 10 -4 6 -11 7 -17 4 -7 -5 -8 -2 -4 5 13 20 48 -19 43 -46 -5 -28
-3 -29 25 -1 12 12 17 23 11 25 -7 3 -6 17 5 44 14 37 16 38 29 19 16 -23 33
-26 33 -6 0 8 11 28 25 44 13 16 22 32 18 36 -3 3 0 6 8 6 10 0 15 -13 16 -41z
m339 -393 c14 4 15 3 6 -4 -11 -7 -11 -10 2 -15 9 -4 16 -1 16 5 0 6 8 1 19
-10 10 -12 25 -22 34 -22 8 0 28 -7 43 -15 l29 -15 -39 0 c-55 0 -42 -7 29
-15 76 -9 83 -15 16 -15 -39 0 -50 -3 -45 -12 6 -9 3 -9 -9 0 -14 12 -19 12
-32 -2 -15 -15 -15 -16 0 -16 9 0 24 -7 33 -17 16 -15 15 -16 -11 -11 -27 5
-38 -6 -14 -15 6 -3 1 -6 -12 -6 -17 -1 -22 3 -17 15 5 14 4 15 -9 4 -8 -7
-21 -10 -29 -7 -10 4 -16 -2 -19 -16 -2 -12 -5 -1 -6 25 -1 43 1 46 21 40 15
-4 19 -2 13 8 -5 8 -21 10 -49 7 -22 -3 -35 -3 -28 0 10 4 8 11 -10 30 -20 22
-21 23 -3 17 19 -6 19 -6 2 8 -18 14 -18 15 4 40 16 18 27 23 35 17 6 -5 20
-7 30 -3z m-301 -580 l-7 -33 51 -7 c63 -8 83 -15 75 -27 -3 -5 -14 -5 -25 1
-17 10 -41 15 -103 23 -10 1 -20 -2 -22 -8 -2 -5 23 -18 56 -29 34 -10 59 -20
57 -23 -3 -2 -34 6 -70 18 l-67 22 -49 -22 c-27 -11 -57 -21 -66 -21 -9 0 -14
-3 -12 -7 3 -5 -9 -9 -26 -9 -18 -1 -75 -5 -127 -9 -62 -5 -128 -3 -190 6 -52
7 -107 13 -122 13 -16 1 -28 4 -28 9 0 4 -4 7 -9 7 -24 0 -62 21 -56 31 5 7
12 6 23 -3 10 -8 31 -15 47 -17 17 -1 46 -6 65 -12 55 -14 88 -11 93 9 3 12 5
11 6 -6 1 -24 1 -24 124 -21 118 3 222 23 211 41 -7 11 -14 48 -9 48 15 0 34
-14 29 -21 -3 -5 0 -9 5 -9 6 0 11 7 11 15 0 8 5 15 10 15 6 0 10 -7 10 -15 0
-8 9 -15 20 -15 26 0 92 59 86 76 -3 8 -1 14 5 14 6 0 7 -13 4 -34z"/>
</g>
</svg>
