<?xml version="1.0" encoding="utf-8" ?>
<svg xmlns="http://www.w3.org/2000/svg" xmlns:xlink="http://www.w3.org/1999/xlink" width="1365" height="1024">
	<path fill="#FEFEFE" d="M0 0L1265.54 0C1265.24 0.350168 1265.02 0.79366 1264.64 1.0505C1263.61 1.74728 1230.24 13.0806 1225.43 14.9606C1165.77 38.2921 1069.75 84.1643 1041.55 144.038C1034.37 159.291 1032.02 175.624 1033.36 192.328C1036.69 234.055 1070.93 289.568 1089.9 328.084C1100.03 348.635 1109.09 369.94 1115.36 392.009C1117.05 397.953 1120.29 407.118 1119.4 413.287C1115.12 411.168 1110.14 410.294 1105.47 409.447C1087.2 406.139 1069.57 406.777 1051.9 412.75C1043.23 415.681 1036.34 420.633 1029.17 423.236C1026.76 415.557 1001.68 395.454 994.415 390.371Q984.267 383.349 973.335 377.626Q971.558 376.706 969.76 375.829Q967.961 374.953 966.141 374.121Q964.322 373.288 962.482 372.501Q960.643 371.714 958.785 370.972Q956.926 370.23 955.051 369.533Q953.175 368.837 951.283 368.187Q949.39 367.537 947.483 366.933Q945.575 366.329 943.653 365.772Q941.731 365.216 939.797 364.706Q937.862 364.197 935.915 363.735Q933.968 363.273 932.011 362.859Q930.053 362.444 928.086 362.078Q926.119 361.712 924.144 361.394Q922.168 361.076 920.186 360.807Q918.203 360.538 916.214 360.317Q914.226 360.096 912.232 359.924Q910.239 359.752 908.242 359.629Q906.245 359.506 904.245 359.432Q902.246 359.358 900.245 359.333Q898.245 359.308 896.244 359.331Q894.244 359.355 892.244 359.428Q890.245 359.501 888.247 359.623Q886.25 359.745 884.257 359.915Q882.263 360.086 880.275 360.305Q878.286 360.525 876.303 360.793Q874.32 361.061 872.345 361.378Q870.369 361.694 868.402 362.059Q866.434 362.424 864.477 362.837Q862.519 363.25 860.572 363.71Q858.625 364.171 856.69 364.679Q854.754 365.188 852.832 365.743Q850.91 366.299 849.002 366.901C810.631 379.066 780.259 402.878 759.094 437.002Q750.372 403.614 739.432 370.886C727.907 335.673 715.733 301.831 711.815 264.711C715.54 263.874 720.832 263.216 723.189 259.817C724.682 257.664 724.562 254.885 723.974 252.449C723.323 249.746 722.386 247.079 721.523 244.437C725.254 243.326 730.335 242.579 732.425 238.984C733.67 231.636 727.676 218.146 723.312 212.254C720.303 208.19 713.334 207.227 708.615 206.701C693.941 205.067 624.388 202.63 613.964 210.421C609.519 213.744 604.189 230.134 603.61 235.693C603.423 237.486 603.672 239.244 604.831 240.684C606.743 243.057 610.928 244.24 613.759 245.304C612.121 249.141 609.317 254.109 611.181 258.34C612.325 260.937 615.032 262.369 617.604 263.208C619.501 263.827 621.48 264.26 623.422 264.713C620.213 313.772 601.044 357.294 585.254 403.087C577.49 425.602 570.149 448.735 565.99 472.21C556.328 526.74 558.19 611.443 567.504 666.212C551.129 675.306 534.275 684.092 518.487 694.18C512.639 685.92 505.118 679.063 494.792 677.382C488.682 676.388 482.755 677.431 476.871 679.115C468.592 654.338 454.855 634.583 430.993 622.581Q430.054 622.105 429.103 621.652Q428.152 621.199 427.19 620.77Q426.229 620.341 425.257 619.936Q424.284 619.531 423.303 619.15Q422.321 618.769 421.33 618.413Q420.339 618.056 419.339 617.725Q418.34 617.393 417.332 617.087Q416.325 616.78 415.31 616.498Q414.295 616.217 413.274 615.96Q412.252 615.704 411.225 615.473Q410.197 615.242 409.164 615.037Q408.132 614.832 407.094 614.652Q406.056 614.473 405.014 614.319Q403.973 614.165 402.927 614.037Q401.882 613.909 400.834 613.807Q399.786 613.706 398.735 613.63Q397.685 613.554 396.633 613.504Q395.581 613.455 394.528 613.431Q393.475 613.407 392.422 613.41Q391.369 613.413 390.317 613.441Q389.264 613.47 388.212 613.525Q387.161 613.58 386.111 613.661Q385.061 613.742 384.013 613.849Q382.965 613.955 381.921 614.088Q380.876 614.221 379.835 614.38Q378.794 614.539 377.757 614.724Q376.72 614.908 375.689 615.119Q374.657 615.329 373.63 615.565Q372.604 615.801 371.584 616.062Q370.564 616.323 369.55 616.61Q368.537 616.896 367.531 617.208Q366.525 617.52 365.527 617.856C350.142 623.08 338.565 632.67 328.604 645.288C316.498 626.882 301.759 612.735 279.431 608.129C262.245 604.585 243.726 607.734 229.052 617.498Q224.795 620.353 220.823 623.593C203.499 586.928 170.267 559.142 132.358 545.556C100.459 534.124 65.0214 533.489 32.3706 542.223C21.4284 545.15 10.9041 549.671 0 552.539L0 0ZM112.924 58.827C98.4176 61.3557 86.3775 67.7753 77.8446 80.0711Q77.1472 81.0765 76.5007 82.1154Q75.8542 83.1542 75.2602 84.224Q74.6662 85.2938 74.1262 86.3918Q73.5862 87.4899 73.1015 88.6135Q72.6169 89.737 72.1888 90.8834Q71.7607 92.0297 71.3901 93.1959Q71.0196 94.3622 70.7076 95.5454Q70.3956 96.7286 70.1429 97.9259Q69.8902 99.1232 69.6974 100.332Q69.5047 101.54 69.3723 102.757Q69.2399 103.973 69.1683 105.195Q69.0966 106.416 69.0859 107.64Q69.0751 108.864 69.1253 110.086Q69.1755 111.309 69.2865 112.528Q69.3975 113.746 69.569 114.958Q69.7406 116.169 69.9722 117.371C72.3027 129.913 79.6585 140.641 90.2407 147.681C100.751 154.673 111.67 156.74 124.126 155.922C138.261 153.697 150.14 147.612 158.639 135.793C166.366 125.049 169.06 111.158 166.752 98.1955Q166.544 97.0366 166.278 95.8894Q166.013 94.7422 165.691 93.6096Q165.369 92.477 164.991 91.3617Q164.613 90.2464 164.181 89.1512Q163.749 88.0559 163.263 86.9835Q162.777 85.911 162.238 84.8639Q161.7 83.8168 161.11 82.7977Q160.52 81.7785 159.881 80.7899Q159.241 79.8012 158.554 78.8454Q157.866 77.8896 157.132 76.969Q156.398 76.0484 155.619 75.1653Q154.841 74.2822 154.019 73.4387Q153.198 72.5953 152.336 71.7935Q151.473 70.9918 150.573 70.2337Q149.672 69.4756 148.735 68.7631Q147.797 68.0506 146.826 67.3853C137.118 60.6986 124.643 57.6015 112.924 58.827Z"/>
	<path fill="#D83B3D" d="M1265.54 0L1281.4 0C1281.24 0.164884 1281.08 0.335051 1280.91 0.494651C1278.89 2.41658 1243.23 14.6421 1236.09 17.549C1184.56 38.5232 1105.83 77.4618 1069.08 118.545C1054.52 134.831 1043.44 154.153 1041.88 176.362C1040.09 201.814 1049.21 226.051 1059.45 248.842C1093.29 324.176 1141.52 386.724 1127.9 474.116C1126.36 483.975 1123.65 503.95 1117.14 511.315C1123.18 509.84 1172.46 488.048 1175.23 485.491C1180 476.337 1171.11 443.388 1167.89 433.197C1158.48 403.382 1143.21 374.371 1128.12 347.017C1097.17 290.895 1057.02 227.595 1090.34 162.942C1101.12 142.023 1117.61 123.783 1135.59 108.787C1181.76 70.2933 1260.82 35.1306 1317.94 14.062C1323 12.1931 1354.01 2.32148 1355.66 0L1364.83 0L1364.82 0.693528C1311.27 19.7418 1259.04 40.8276 1208.99 67.9324C1185.39 80.7094 1162.08 94.522 1141.5 111.869C1123.38 127.142 1106.12 146.471 1095.86 168.01C1081 199.217 1083.25 231.742 1094.55 263.549C1099.04 276.189 1104.77 288.414 1110.84 300.364C1130.63 339.343 1153.16 375.725 1168.35 417.012C1170.01 421.509 1173.67 429.553 1173.07 434.298C1181.2 436.845 1199.79 449.324 1203.69 457.012C1203.95 457.528 1203.94 457.709 1204.01 458.216C1224.77 451.598 1248.52 444.728 1269.32 455.479C1270.52 456.095 1271.52 456.577 1272.46 457.57C1304.89 452.319 1331.46 451.767 1363.85 451.375C1364.54 452.945 1365.12 453.61 1364.55 455.365C1364.41 455.794 1364.1 456.365 1363.89 456.776C1318.41 456.78 1274.63 461.956 1231.24 476.107Q1214.81 481.503 1198.68 487.753C1192.34 490.138 1185.62 493.258 1179.03 494.683C1179.89 499.963 1177.53 507.038 1176.26 512.184C1163.52 563.829 1129.41 604.74 1105.13 651.014C1100.61 659.625 1096.15 668.501 1092.53 677.535C1090.18 683.423 1088.4 691.552 1085.13 696.818C1084.96 697.097 1084.58 697.539 1084.4 697.766C1086.64 700.64 1097.85 730.598 1097.47 733.364C1097.45 733.546 1097.4 733.724 1097.37 733.904C1119.06 726.792 1140.07 716.819 1161.66 709.192C1227.09 686.082 1294.46 669.941 1363.84 665.348C1364.61 667.268 1364.39 667.432 1363.83 669.334C1294.98 673.929 1226.49 692.334 1161.99 716.219C1148.47 721.222 1135.15 726.88 1121.9 732.556C1115.13 735.459 1108.02 739.182 1101 741.319C1111.61 750.673 1137.48 828.143 1141.51 845.081C1144.44 857.385 1146.06 870.265 1146.84 882.875C1148.65 911.904 1145.44 941.222 1125.35 963.987C1104.59 987.505 1067.87 999.122 1037.36 1000.87C1018.08 1001.98 998.963 999.196 980.54 993.563C956.148 1001.28 932.522 1007.57 907.03 1010.65C796.303 1024 679.323 981.681 579.672 937.171C545.965 922.115 512.913 905.641 479.168 890.64C327.158 823.065 165.323 771.908 0 825.074L0 819.088C22.5209 812.716 44.8017 806.665 67.975 803.018C157.002 789.007 250.67 802.354 336.091 829.509C350.261 814.427 367.218 801.095 383.367 788.167Q414.315 763.115 446.973 740.339Q479.632 717.563 513.835 697.181C511.255 693.08 508.504 689.511 504.458 686.752C494.548 679.993 486.787 683.012 476.02 684.402C472.946 684.799 472.675 683.731 471.685 681.069C470.166 676.983 469.212 672.688 467.598 668.636C462.306 655.346 451.8 642.867 440.355 634.454C423.535 622.09 401.69 616.356 380.99 619.563C356.756 623.318 343.619 634.263 329.744 653.461C327.274 654.254 325.976 651.132 324.807 649.366C315.859 635.844 307.058 624.747 291.94 617.706Q291.052 617.296 290.152 616.913Q289.252 616.53 288.34 616.176Q287.428 615.821 286.506 615.495Q285.584 615.169 284.652 614.872Q283.72 614.575 282.779 614.306Q281.839 614.038 280.89 613.799Q279.942 613.56 278.986 613.351Q278.031 613.141 277.069 612.962Q276.108 612.782 275.141 612.632Q274.174 612.483 273.204 612.363Q272.233 612.243 271.259 612.154Q270.285 612.064 269.308 612.005Q268.332 611.946 267.354 611.917Q266.377 611.888 265.399 611.89Q264.42 611.891 263.443 611.923Q262.465 611.955 261.489 612.017Q260.513 612.079 259.539 612.171Q258.565 612.264 257.595 612.386Q256.624 612.509 255.658 612.661Q254.692 612.814 253.731 612.996Q252.77 613.179 251.815 613.391Q250.86 613.603 249.913 613.845Q248.965 614.087 248.025 614.358Q247.085 614.629 246.154 614.929Q245.223 615.229 244.302 615.557Q243.381 615.886 242.47 616.243Q241.559 616.601 240.66 616.986Q239.761 617.371 238.874 617.784Q237.988 618.197 237.114 618.637Q236.241 619.078 235.381 619.545Q234.522 620.012 233.677 620.506Q232.833 620.999 232.004 621.519C227.755 624.135 224.666 628.705 219.917 630.436C216 629.004 215.342 623.703 213.519 620.295C194.996 585.669 161.267 559.903 124.056 548.349C89.5507 537.636 52.8842 539.845 19.0475 551.947C12.6103 554.249 6.0603 556.565 0 559.751L0 552.539C10.9041 549.671 21.4284 545.15 32.3706 542.223C65.0214 533.489 100.459 534.124 132.358 545.556C170.267 559.142 203.499 586.928 220.823 623.593Q224.795 620.353 229.052 617.498C243.726 607.734 262.245 604.585 279.431 608.129C301.759 612.735 316.498 626.882 328.604 645.288C338.565 632.67 350.142 623.08 365.527 617.856Q366.525 617.52 367.531 617.208Q368.537 616.896 369.55 616.61Q370.564 616.323 371.584 616.062Q372.604 615.801 373.63 615.565Q374.657 615.329 375.689 615.119Q376.72 614.908 377.757 614.724Q378.794 614.539 379.835 614.38Q380.876 614.221 381.921 614.088Q382.965 613.955 384.013 613.849Q385.061 613.742 386.111 613.661Q387.161 613.58 388.212 613.525Q389.264 613.47 390.317 613.441Q391.369 613.412 392.422 613.41Q393.475 613.407 394.528 613.431Q395.581 613.454 396.633 613.504Q397.685 613.554 398.735 613.63Q399.786 613.706 400.834 613.807Q401.882 613.909 402.927 614.037Q403.973 614.165 405.014 614.319Q406.056 614.473 407.094 614.652Q408.132 614.832 409.164 615.037Q410.197 615.242 411.225 615.473Q412.252 615.704 413.274 615.96Q414.295 616.217 415.31 616.498Q416.325 616.78 417.332 617.087Q418.34 617.393 419.339 617.725Q420.339 618.056 421.33 618.413Q422.321 618.769 423.303 619.15Q424.284 619.531 425.256 619.936Q426.229 620.341 427.19 620.77Q428.152 621.199 429.103 621.652Q430.054 622.105 430.993 622.581C454.855 634.583 468.592 654.338 476.871 679.115C482.755 677.431 488.682 676.388 494.792 677.382C505.118 679.063 512.639 685.92 518.487 694.18C534.275 684.092 551.129 675.306 567.504 666.212C558.19 611.443 556.328 526.74 565.99 472.21C570.149 448.735 577.49 425.602 585.254 403.087C601.044 357.294 620.213 313.772 623.422 264.713C621.48 264.26 619.501 263.827 617.604 263.208C615.032 262.369 612.325 260.937 611.181 258.34C609.317 254.109 612.121 249.141 613.759 245.304C610.928 244.24 606.743 243.057 604.831 240.684C603.672 239.244 603.423 237.486 603.61 235.693C604.189 230.134 609.519 213.744 613.964 210.421C624.388 202.63 693.941 205.067 708.615 206.701C713.334 207.227 720.303 208.19 723.312 212.254C727.676 218.146 733.67 231.636 732.425 238.984C730.335 242.579 725.254 243.326 721.523 244.437C722.386 247.079 723.323 249.746 723.974 252.449C724.562 254.885 724.682 257.664 723.189 259.817C720.832 263.216 715.54 263.874 711.815 264.711C715.733 301.831 727.907 335.673 739.432 370.886Q750.372 403.614 759.094 437.002C780.259 402.878 810.631 379.066 849.002 366.901Q850.91 366.299 852.832 365.743Q854.754 365.188 856.69 364.679Q858.625 364.171 860.572 363.71Q862.519 363.25 864.477 362.837Q866.434 362.424 868.402 362.059Q870.369 361.694 872.345 361.378Q874.32 361.061 876.303 360.793Q878.286 360.525 880.274 360.305Q882.263 360.086 884.257 359.915Q886.25 359.745 888.247 359.623Q890.245 359.501 892.244 359.428Q894.243 359.355 896.244 359.332Q898.245 359.308 900.245 359.333Q902.246 359.358 904.245 359.432Q906.245 359.506 908.242 359.629Q910.239 359.752 912.232 359.924Q914.226 360.096 916.214 360.317Q918.203 360.538 920.186 360.807Q922.168 361.076 924.144 361.394Q926.119 361.712 928.086 362.078Q930.053 362.444 932.011 362.858Q933.968 363.273 935.915 363.735Q937.862 364.197 939.797 364.706Q941.731 365.216 943.653 365.772Q945.575 366.329 947.483 366.933Q949.39 367.537 951.282 368.187Q953.175 368.837 955.051 369.533Q956.926 370.23 958.784 370.972Q960.643 371.714 962.482 372.501Q964.322 373.288 966.141 374.121Q967.961 374.953 969.76 375.829Q971.558 376.706 973.335 377.626Q984.267 383.349 994.415 390.371C1001.68 395.454 1026.76 415.557 1029.17 423.236C1036.34 420.633 1043.23 415.681 1051.9 412.75C1069.57 406.777 1087.2 406.139 1105.47 409.447C1110.14 410.294 1115.12 411.168 1119.4 413.287C1120.29 407.118 1117.05 397.953 1115.36 392.009C1109.09 369.94 1100.03 348.635 1089.9 328.084C1070.93 289.568 1036.69 234.055 1033.36 192.328C1032.02 175.624 1034.37 159.291 1041.55 144.038C1069.75 84.1643 1165.77 38.2921 1225.43 14.9606C1230.24 13.0806 1263.61 1.74728 1264.64 1.0505C1265.02 0.79366 1265.24 0.350168 1265.54 0ZM765.889 497.112Q764.72 483.351 762.957 469.654C746.362 470.545 729.888 473.704 713.32 475.113C667.595 479.001 619.033 477.62 574.389 466.336C572.296 478.741 567.004 514.376 568.246 525.653L568.892 525.865C567.577 531.201 565.939 538.091 567.994 543.449C567.784 546.427 566.805 556.625 568.536 558.848C567.216 560.809 567.519 562.89 567.551 565.159C567.034 575.808 567.427 587.56 568.607 598.163C633.463 626.336 700.754 585.132 766.286 584.684C767.245 557.104 767.727 529.681 766.264 502.108C766.391 500.429 766.1 498.775 765.889 497.112ZM630.962 214.283C626.551 214.565 622.285 214.86 618.114 216.446C615.786 220.652 614.232 225.196 613.151 229.876C620.2 230.148 627.066 230.587 633.766 233.021C638.408 234.707 643.398 237.283 648.254 238.128C652.711 238.904 687.632 238.488 693.215 237.706C696.471 237.25 699.181 236.091 702.109 234.661C709.131 231.234 715.373 229.717 723.169 229.094C721.699 225.248 719.841 218.088 715.877 216.317C707.308 212.489 643.562 213.236 630.962 214.283ZM620.992 246.539C620.738 249.372 620.421 252.213 620.343 255.058C624.219 256.468 628.111 258.058 632.133 258.989C632.827 256.287 634.174 252.506 632.489 249.945C631.178 247.955 628.714 247.489 626.522 247.189Q623.762 246.825 620.992 246.539ZM710.891 247.435C695.868 250.941 679.331 255.326 663.775 254.1C654.349 253.357 645.11 251.1 635.646 250.481C634.973 255.799 634.025 258.776 630.734 263.057C628.569 307.536 614.056 344.381 599.357 385.586C591.281 408.224 583.753 430.924 577.545 454.153L593.551 456.322C595.206 443.62 602.587 410.934 609.284 401.275C610.723 400.546 610.685 400.648 612.259 401.08C613.108 402.319 613.311 402.544 613.049 404.121C612.185 409.319 609.113 415.013 607.527 420.207Q601.962 438.466 598.155 457.171C603.789 457.569 609.442 457.886 615.05 458.569C616.416 450.623 619.242 428.49 624.896 423.366L626.298 423.175L627.573 424.295C627.852 431.043 624.136 439.212 622.496 445.79C621.4 450.187 620.644 454.7 619.78 459.148C641.874 460.007 663.826 459.9 685.93 459.781C684.602 426.947 678.152 394.31 673.434 361.857C673.07 359.357 672.13 356.964 671.801 354.47C671.54 352.487 671.721 350.805 672.444 348.95L673.59 348.212C675.481 349.353 676.079 350.906 676.609 353.055C679.374 364.283 680.742 376.437 682.519 387.904C686.194 411.627 690.144 435.85 690.607 459.896C696.6 459.601 702.596 459.242 708.598 459.191C706.304 438.998 702.974 419.14 699.199 399.186C696.532 386.319 683.608 337.141 685.339 327.837L686.323 326.608L687.677 327.003L686.912 327.776L687.909 327.203C690.082 329.799 691.456 341.814 692.382 345.916C700.852 383.451 709.729 420.429 713.275 458.86C719.576 458.528 725.784 457.911 732.047 457.152C729.351 443.088 726.675 428.964 723.218 415.063C719.731 401.04 699.74 332.199 700.481 323.632C701.496 322.328 701.563 322.398 703.192 322.028C704.467 323.114 704.561 323.371 705.069 324.95C708.532 335.7 710.596 347.351 713.497 358.327C719.433 380.779 725.927 403.262 730.953 425.929Q734.328 441.301 736.297 456.915C742.519 456.255 748.774 455.437 755.014 455.024C749.654 432.276 744.034 409.675 737.012 387.372C723.667 344.984 708.849 308.041 704.682 263.129C682.387 264.897 660.449 268.867 638.417 262.698C663.387 257.182 694.872 266.977 716.977 253.588C716.089 251.473 715.354 248.69 713.437 247.329C712.594 247.339 711.722 247.293 710.891 247.435ZM889.137 364.943C844.996 368.522 805.224 387.271 776.323 421.247C770.269 428.364 764.72 436.039 760.978 444.642L762.992 455.058C770.57 461.246 771.047 470.142 771.983 479.315Q774.503 506.15 774.741 533.103C774.842 542.789 774.472 552.539 774.822 562.213C827.81 549.826 880.836 537.221 934.667 528.997C948.037 526.954 961.968 524.104 975.428 523.197C1013.3 517.792 1071.03 512.086 1108.86 515.317C1111.32 512.462 1112.36 507.838 1113.52 504.305C1121.2 481.071 1124.65 455.034 1122.84 430.599C1122.57 426.993 1122.49 421.984 1120.7 418.871C1103.01 409.973 1072.42 411.583 1054.06 417.621Q1045.17 420.565 1036.88 424.923C1033.8 426.543 1030.74 428.681 1027.55 430.02C1024.4 418.059 990.044 393.218 978.867 386.681C952.845 371.46 919.466 361.735 889.137 364.943ZM1175.81 441.664C1178.73 449.909 1183.97 475.996 1180.63 483.609C1196.34 478.599 1211.93 473.29 1227.75 468.628C1235.5 466.344 1243.45 464.683 1251.17 462.382C1255.21 461.632 1260.08 461.206 1263.79 459.436C1256.63 453.861 1241.37 454.599 1232.93 455.63C1222.23 456.936 1213.3 461.485 1203.09 463.822C1199.02 457.503 1183.49 442.972 1176.65 441.783C1176.38 441.734 1176.09 441.704 1175.81 441.664ZM1172.72 497.665C1160.95 503.846 1148.6 508.939 1136.77 515.028C1127.66 519.719 1119.01 525.3 1110.04 530.263C1110.01 530.405 1109.98 530.548 1109.95 530.689C1107.91 539.638 1099.89 551.327 1095.57 559.714C1087.73 574.912 1081.81 591.649 1078.82 608.502Q1077.83 614.246 1077.21 620.042Q1076.58 625.837 1076.32 631.661Q1076.07 637.484 1076.18 643.312Q1076.29 649.14 1076.77 654.949C1077.2 660.26 1081.36 682.724 1080.63 685.019C1081.3 686.205 1081.92 687.337 1082.4 688.617L1082.83 688.714L1083.43 687.896L1083.15 688.352C1086.32 681.425 1088.68 674.191 1091.63 667.176C1095.74 657.406 1100.55 647.785 1105.53 638.435C1127.71 596.751 1156.93 559.338 1170.73 513.592C1172.1 509.016 1174.47 502.925 1174.03 498.149L1172.72 497.665ZM1069.25 519.665Q1044.1 521.154 1019.03 523.527Q993.949 525.9 968.97 529.154Q943.991 532.407 919.142 536.538Q894.293 540.668 869.605 545.67C837.845 551.989 806.47 560.225 774.737 566.664Q774.317 607.83 770.242 648.796C764.29 706.175 753.081 759.292 767.033 816.649Q773.086 810.86 778.699 804.644C812.693 766.769 844.453 726.772 879.042 689.484Q898.086 668.871 918.529 649.644Q938.972 630.417 960.712 612.672Q980.798 596.375 1001.8 581.274Q1022.8 566.173 1044.64 552.32C1051.87 547.676 1098.43 520.87 1099.48 519.35Q1084.36 519.184 1069.25 519.665ZM1097.14 536.327C1093.36 539.803 1087.47 542.413 1083 545.01Q1069.65 552.698 1056.51 560.731Q1019.77 583.865 985.557 610.593C939.175 647.221 897.997 687.993 858.908 732.233C844.367 748.69 830.732 765.954 816.238 782.475Q802.857 797.639 788.909 812.283C783.334 818.075 777.283 823.653 772.016 829.711C780.168 844.646 784.963 863.197 780.164 880.042C778.049 887.462 773.253 894.291 766.381 898.021C758.987 902.036 748.099 904.139 739.882 905.899C695.413 915.422 631.56 917.554 587.775 903.826C576.983 900.443 563.468 894.551 557.957 883.95C552.035 872.559 553.915 855.036 557.712 843.262C560.93 833.284 568.176 825.569 571.08 815.488C582.035 777.451 575.287 712.15 568.381 672.542C551.525 680.447 535.266 690.552 519.311 700.128C478.445 724.654 437.812 751.176 400.79 781.259C380.423 797.047 360.014 813.694 341.229 831.355C376.056 840.431 414.665 856.821 448.026 871.021C495.867 891.384 542.402 914.449 589.953 935.399Q620.519 949.203 651.893 961.055Q683.267 972.907 715.325 982.76C789.983 915.712 870.031 852.455 957.512 802.851Q993.214 782.767 1029.99 764.727C1041.49 759.177 1053.11 753.894 1064.55 748.211C1067.55 746.717 1071.44 745.389 1074.19 743.559C1074.95 741.602 1075.04 739.926 1075.13 737.853C1075.38 732.166 1075.2 726.266 1075.81 720.619C1076.47 714.544 1078.51 708.228 1077.91 702.11C1077.15 694.242 1073.79 686.36 1072.17 678.58C1067.97 658.489 1067.29 636.802 1069.76 616.445C1072.59 593.152 1080.88 572.043 1091.98 551.524C1094.24 547.338 1098.99 540.985 1099.08 536.337L1097.14 536.327ZM761.275 611.137C760.418 671.433 741.997 730.741 750.056 791.311C751.61 802.989 753.509 814.456 757.77 825.502C761.665 835.597 767.458 844.894 769.332 855.691C770.78 864.033 770.206 874.085 763.762 880.327C747.603 895.98 669.956 896.923 647.314 895.905C631.342 895.188 582.472 891.195 571.738 879.378C567.152 874.329 566.686 866.004 567.202 859.564C568.17 847.492 575.081 840.357 579.257 829.763C582.152 822.417 583.75 813.852 585.131 806.09C594.403 753.959 583.859 708.627 577.4 657.479C576.379 649.391 575.021 641.115 574.365 633.007C573.901 627.277 574.471 621.391 573.197 615.76C572.066 614.575 572.134 614.674 570.486 614.605C569.305 615.829 569.35 616.323 569.404 618.004C569.517 621.481 570.021 625.036 570.354 628.503C573.764 679.622 586.323 727.581 583.117 779.555C582.316 792.551 581.128 807.048 576.959 819.454C570.072 839.948 558.719 844.168 561.315 870.71C561.953 877.231 564.357 882.712 569.373 887.02C594.964 908.998 669.894 907.964 701.802 905.174C717.75 903.78 758.54 899.483 769.108 887.085C775.003 880.171 775.646 868.987 774.831 860.37C773.473 846.024 765.878 835.238 761.194 822.085C754.82 804.183 753.326 783.316 752.978 764.435C752.255 725.196 759.468 685.979 763.215 646.998C764.238 636.357 766.886 622.343 765.738 611.786C764.359 610.942 762.836 611.134 761.275 611.137ZM750.261 613.569C745.908 614.161 741.517 614.653 737.183 615.357Q736.179 650.67 731.643 685.705C728.509 711.884 724.444 737.663 725.453 764.155C726.204 783.845 729.192 804.824 735.53 823.52C736.863 827.45 742.32 835.451 740.072 839.033C738.479 839.432 738.438 839.479 736.945 838.822C733.12 833.082 731.495 826.209 729.426 819.714C715.212 775.117 721.359 731.165 726.777 685.763Q731.188 651.16 732.481 616.3C726.946 616.922 721.395 617.668 715.849 618.161Q715.358 642.839 712.832 667.392C709.511 698.037 704.392 729.099 705.014 759.98Q705.322 773.382 706.943 786.689Q708.564 799.996 711.484 813.079C713.111 820.637 716.931 829.581 717.192 837.177C716 838.236 716.032 838.369 714.462 838.397C711.262 835.188 710.199 828.525 709.08 824.193Q706.808 815.673 705.096 807.023Q703.384 798.373 702.24 789.63Q701.097 780.886 700.526 772.087Q699.955 763.288 699.959 754.47C700.035 726.991 704.429 699.63 707.515 672.38Q710.357 645.491 711.485 618.475L694.506 619.977Q693.909 651.662 690.474 683.165C687.529 710.294 683.138 737.262 683.94 764.646Q684.623 784.665 687.886 804.427C688.784 810.047 695.022 833.741 694.092 837.039L692.742 838.036C691.153 837.413 690.774 836.46 690.111 834.902C686.843 827.217 685.451 816.764 683.944 808.475Q682.421 800.398 681.374 792.246Q680.328 784.094 679.762 775.894Q679.196 767.694 679.112 759.475Q679.029 751.257 679.428 743.047C681.394 701.989 690.18 662.135 689.841 620.398C667.695 621.051 645.858 621.217 623.703 620.739C624.567 658.419 631.157 695.315 634.043 732.771Q634.496 738.653 634.697 744.549Q634.897 750.445 634.845 756.345Q634.792 762.244 634.486 768.135Q634.181 774.027 633.622 779.9Q633.064 785.773 632.254 791.617Q631.444 797.46 630.385 803.264Q629.325 809.067 628.017 814.82Q626.709 820.573 625.156 826.264C624.044 830.242 623.071 836.458 620.465 839.616L620.759 839.313L618.007 840.557L617.74 840.144L619.094 840.616L617.573 839.573C617.057 833.022 623.29 814.041 624.799 806.182Q627.102 794.446 628.37 782.553Q629.638 770.661 629.861 758.703C630.317 712.587 619.003 666.892 619.426 620.695Q610.579 620.337 601.739 619.822C602.716 637.313 604.018 654.652 606.377 672.021C610.208 700.224 615.654 728.669 615.556 757.211C615.489 776.589 612.544 796.473 608.069 815.314C606.579 821.586 604.52 833.341 600.386 838.171C599.54 839.159 599.249 839.104 598.034 839.197C597.161 838.041 597.061 837.885 597.255 836.364C598.187 829.047 601.555 821.214 603.326 813.973Q606.186 801.988 607.929 789.79Q609.671 777.593 610.281 765.286C611.436 739.16 607.14 712.848 603.599 687.03C600.488 664.356 597.862 641.841 597.386 618.923Q588.597 618.215 579.865 616.988C584.304 679.222 602.059 739.971 592.354 802.746C590.978 811.641 589.652 820.621 586.592 829.126C584.721 834.326 581.928 839.117 579.345 843.984C574.874 852.411 569.721 868.4 578.43 875.853C584.125 880.728 593.5 882.176 600.664 883.651C636.907 891.11 675.339 891.811 712.074 887.689C723.691 886.386 752.455 883.844 760.02 874.415C763.589 869.966 763.847 864.203 763.093 858.798C761.49 847.307 755.123 838.253 750.922 827.754C748.06 820.603 746.324 812.578 744.935 805.015C735.02 751.061 746.477 697.208 752.098 643.555C752.603 638.732 755.066 618.853 754.633 615.426C754.472 614.149 754.152 613.973 753.223 613.216L750.261 613.569ZM1081.52 714.326C1081.51 721.446 1082.12 734.793 1079.77 741.146C1082.31 740.271 1085.25 739.488 1087.29 737.656C1088.92 737.114 1089.82 737.048 1090.93 735.703C1089.59 731.946 1084 715.557 1081.52 714.326ZM1093.75 744.33C1089.93 746.566 1084.99 749.435 1080.72 750.592C1083.13 755.907 1083.21 775.076 1083.86 781.933C1087.68 822.15 1098.11 873.347 1083.73 911.818C1069.38 950.224 1030.53 971.988 995.346 988.277C1008.13 991.522 1020.36 993.93 1033.58 994.206C1063 993.985 1096.35 986.404 1117.81 964.853C1135.96 946.619 1141.12 921.356 1140.86 896.511C1140.4 851.74 1123.8 806.962 1105.47 766.666C1102.58 760.305 1099.08 750.117 1094.96 744.769L1093.75 744.33ZM1071.98 754.321C1067.45 757.517 1061.6 759.777 1056.58 762.232Q1041.11 769.744 1025.72 777.414Q989.674 796.083 954.874 816.985C873.197 865.825 798.923 924.317 726.519 985.845C788.33 1002.61 855.266 1014.34 919.168 1004.48C937.022 1001.88 956.171 998.29 973.095 991.961C952.91 982.423 931.478 970.909 923.492 948.45C920.198 939.188 920.36 928.995 924.708 920.099C930.272 908.715 941.479 900.5 953.32 896.585C963.865 893.099 976.601 892.506 986.694 897.742C994.619 901.853 999.786 909.003 1002.42 917.418C1005.78 928.179 1004.21 940.043 998.937 949.943C993.882 959.425 985.436 965.286 975.279 968.35C971.595 969.461 967.809 970.035 963.979 970.301Q976.719 979.091 990.41 986.311C1024.3 971.587 1062.62 948.906 1076.93 912.824C1091.47 876.169 1081.03 828.811 1077.7 790.674C1077.1 783.877 1076.45 777.075 1076 770.269C1075.65 765.183 1076.09 759.793 1074.69 754.869C1073.55 754.152 1073.35 754.248 1071.98 754.321ZM965.076 902.08C956.863 904.3 950.202 908.219 945.838 915.762C941.492 923.275 940.756 932.686 943.044 940.972C945.636 950.361 951.662 958.692 958.406 965.563C963.832 965.324 969.01 964.882 974.323 963.639C983.873 959.982 990.864 955.153 995.231 945.59C999.064 937.197 999.571 927.573 996.18 918.94C993.579 912.319 988.698 906.804 982.068 904.055C976.622 901.796 970.884 901.576 965.076 902.08Z"/>
	<path fill="#FEFEFE" d="M1281.4 0L1355.66 0C1354.01 2.32148 1323 12.1931 1317.94 14.062C1260.82 35.1306 1181.76 70.2933 1135.59 108.787C1117.61 123.783 1101.12 142.023 1090.34 162.942C1057.02 227.595 1097.17 290.895 1128.12 347.017C1143.21 374.371 1158.48 403.382 1167.89 433.197C1171.11 443.388 1180 476.337 1175.23 485.491C1172.46 488.048 1123.18 509.84 1117.14 511.315C1123.65 503.95 1126.36 483.975 1127.9 474.116C1141.52 386.724 1093.29 324.176 1059.45 248.842C1049.21 226.051 1040.09 201.814 1041.88 176.362C1043.44 154.153 1054.52 134.831 1069.08 118.545C1105.83 77.4618 1184.56 38.5232 1236.09 17.549C1243.23 14.6421 1278.89 2.41658 1280.91 0.494651C1281.08 0.335051 1281.24 0.164884 1281.4 0Z"/>
	<path fill="#FEFEFE" d="M1173.07 434.298C1173.67 429.553 1170.01 421.509 1168.35 417.012C1153.16 375.725 1130.63 339.343 1110.84 300.364C1104.77 288.414 1099.04 276.189 1094.55 263.549C1083.25 231.742 1081 199.217 1095.86 168.01C1106.12 146.471 1123.38 127.142 1141.5 111.869C1162.08 94.522 1185.39 80.7094 1208.99 67.9324C1259.04 40.8276 1311.27 19.7418 1364.82 0.693528C1365.78 24.1828 1365.02 47.983 1365.02 71.5009L1365.03 203.791L1365.01 365.18C1365.01 392.352 1365.69 419.715 1364.95 446.869C1364.9 448.667 1364.73 449.771 1363.85 451.375C1331.46 451.767 1304.89 452.319 1272.46 457.57C1271.52 456.577 1270.52 456.095 1269.32 455.479C1248.52 444.728 1224.77 451.598 1204.01 458.216C1203.94 457.709 1203.95 457.528 1203.69 457.012C1199.79 449.324 1181.2 436.845 1173.07 434.298ZM1273.36 175.665C1225.03 191.96 1174.92 216.483 1151.06 264.431C1137.96 290.753 1137.28 320.017 1146.63 347.559C1150.81 359.87 1156.18 371.584 1163.29 382.49C1166.35 387.175 1184.42 409.379 1184.9 410.999C1185.03 411.085 1185.17 411.168 1185.3 411.256C1196.32 418.539 1207.74 437.67 1222.79 434.881C1239.33 431.816 1265.58 407.38 1275.06 393.329C1291.37 369.163 1292.43 340.221 1286.9 312.54C1284.59 300.962 1281.27 289.607 1278.92 278.046C1272.82 248.113 1271.45 216.407 1277.51 186.398C1278.18 183.057 1279.55 179.703 1277.69 176.62C1276.05 175.662 1275.24 175.525 1273.36 175.665Z"/>
	<path fill="#D83B3D" d="M124.126 155.922C111.67 156.74 100.751 154.673 90.2407 147.681C79.6585 140.641 72.3027 129.913 69.9722 117.371Q69.7406 116.169 69.569 114.958Q69.3975 113.746 69.2865 112.528Q69.1755 111.309 69.1253 110.086Q69.0751 108.864 69.0859 107.64Q69.0966 106.416 69.1683 105.195Q69.2399 103.973 69.3723 102.757Q69.5047 101.54 69.6975 100.332Q69.8902 99.1232 70.1429 97.9259Q70.3956 96.7286 70.7076 95.5454Q71.0196 94.3622 71.3901 93.1959Q71.7607 92.0297 72.1888 90.8834Q72.6169 89.737 73.1015 88.6135Q73.5862 87.4899 74.1262 86.3918Q74.6662 85.2938 75.2602 84.224Q75.8542 83.1542 76.5007 82.1154Q77.1472 81.0765 77.8446 80.0711C86.3775 67.7753 98.4176 61.3557 112.924 58.827C124.643 57.6015 137.118 60.6986 146.826 67.3853Q147.797 68.0506 148.735 68.7631Q149.672 69.4756 150.573 70.2337Q151.473 70.9918 152.336 71.7935Q153.198 72.5953 154.019 73.4387Q154.841 74.2822 155.619 75.1653Q156.398 76.0484 157.132 76.969Q157.866 77.8896 158.554 78.8454Q159.241 79.8012 159.881 80.7899Q160.52 81.7785 161.11 82.7977Q161.7 83.8168 162.238 84.8639Q162.777 85.911 163.263 86.9835Q163.749 88.0559 164.181 89.1512Q164.613 90.2464 164.991 91.3617Q165.369 92.477 165.691 93.6096Q166.013 94.7422 166.278 95.8894Q166.544 97.0366 166.752 98.1955C169.06 111.158 166.366 125.049 158.639 135.793C150.14 147.612 138.261 153.697 124.126 155.922ZM113.21 64.2065C100.774 66.3264 90.0556 72.0135 82.6771 82.4739Q82.0321 83.3742 81.4333 84.3059Q80.8345 85.2376 80.2834 86.1983Q79.7323 87.159 79.2303 88.1463Q78.7283 89.1336 78.2768 90.1449Q77.8252 91.1562 77.4251 92.1891Q77.0251 93.2219 76.6777 94.2735Q76.3302 95.3252 76.0362 96.3931Q75.7421 97.4609 75.5023 98.5423Q75.2625 99.6236 75.0775 100.716Q74.8924 101.808 74.7627 102.908Q74.633 104.008 74.5588 105.113Q74.4847 106.218 74.4663 107.325Q74.448 108.433 74.4855 109.54Q74.5229 110.647 74.6162 111.75Q74.7094 112.854 74.8582 113.952Q75.0069 115.049 75.2108 116.138C77.307 127.43 83.6525 137.008 93.1403 143.457C102.937 150.116 113.606 152.17 125.233 150.664C137.648 148.181 147.685 142.427 154.86 131.767C161.324 122.162 163.958 110.709 161.698 99.3093Q161.495 98.2442 161.24 97.1904Q160.984 96.1367 160.677 95.097Q160.369 94.0573 160.01 93.0342Q159.651 92.0111 159.242 91.0071Q158.833 90.0031 158.374 89.0207Q157.915 88.0383 157.408 87.08Q156.901 86.1217 156.347 85.1897Q155.793 84.2578 155.193 83.3546Q154.593 82.4514 153.949 81.5792Q153.305 80.7069 152.619 79.8678Q151.932 79.0287 151.205 78.2247Q150.478 77.4208 149.711 76.6541Q148.945 75.8873 148.141 75.1597Q147.337 74.432 146.499 73.7452Q145.66 73.0585 144.788 72.4143Q143.916 71.7701 143.013 71.1701C134.499 65.5129 123.362 62.9159 113.21 64.2065Z"/>
	<path fill="#FEFEFE" d="M125.233 150.664C113.606 152.17 102.937 150.116 93.1403 143.457C83.6525 137.008 77.307 127.43 75.2108 116.138Q75.0069 115.049 74.8582 113.952Q74.7094 112.854 74.6162 111.75Q74.5229 110.647 74.4855 109.54Q74.448 108.433 74.4663 107.325Q74.4847 106.218 74.5588 105.113Q74.633 104.008 74.7627 102.908Q74.8924 101.808 75.0775 100.716Q75.2625 99.6236 75.5023 98.5423Q75.7421 97.4609 76.0362 96.3931Q76.3302 95.3252 76.6777 94.2735Q77.0251 93.2219 77.4251 92.189Q77.8252 91.1562 78.2768 90.1449Q78.7283 89.1336 79.2303 88.1463Q79.7323 87.159 80.2834 86.1983Q80.8345 85.2376 81.4333 84.3059Q82.0321 83.3742 82.6771 82.4739C90.0556 72.0135 100.774 66.3264 113.21 64.2065C123.362 62.9159 134.499 65.5129 143.013 71.1701Q143.916 71.7701 144.788 72.4143Q145.66 73.0585 146.499 73.7452Q147.337 74.432 148.141 75.1597Q148.945 75.8873 149.711 76.6541Q150.478 77.4208 151.205 78.2248Q151.932 79.0287 152.619 79.8678Q153.305 80.7069 153.949 81.5792Q154.593 82.4514 155.193 83.3546Q155.793 84.2578 156.347 85.1897Q156.901 86.1217 157.408 87.08Q157.915 88.0383 158.374 89.0207Q158.833 90.0031 159.242 91.0071Q159.651 92.0111 160.01 93.0342Q160.369 94.0573 160.677 95.097Q160.984 96.1367 161.24 97.1904Q161.495 98.2442 161.698 99.3093C163.958 110.709 161.324 122.162 154.86 131.767C147.685 142.427 137.648 148.181 125.233 150.664Z"/>
	<path fill="#D83B3D" d="M1184.9 410.999C1184.42 409.379 1166.35 387.175 1163.29 382.49C1156.18 371.584 1150.81 359.87 1146.63 347.559C1137.28 320.017 1137.96 290.753 1151.06 264.431C1174.92 216.483 1225.03 191.96 1273.36 175.665C1275.24 175.525 1276.05 175.662 1277.69 176.62C1279.55 179.703 1278.18 183.057 1277.51 186.398C1271.45 216.407 1272.82 248.113 1278.92 278.046C1281.27 289.607 1284.59 300.962 1286.9 312.54C1292.43 340.221 1291.37 369.163 1275.06 393.329C1265.58 407.38 1239.33 431.816 1222.79 434.881C1207.74 437.67 1196.32 418.539 1185.3 411.256C1185.17 411.168 1185.03 411.085 1184.9 410.999ZM1267.51 186.332C1223.39 204.32 1177.36 228.118 1157.86 274.588C1146.32 302.059 1149.84 330.358 1160.86 357.189C1165.7 368.967 1172.69 380.366 1180.2 390.623C1182.55 393.835 1190.87 402.58 1191.58 405.665C1193.59 406.975 1217.14 428.618 1217.52 429.347C1241.04 420.912 1264.91 398.584 1275.57 376.327C1293.93 337.99 1273.78 295.701 1268.16 256.888Q1267.51 252.564 1267.04 248.215Q1266.58 243.867 1266.3 239.503Q1266.02 235.139 1265.93 230.766Q1265.84 226.394 1265.94 222.022Q1266.03 217.65 1266.31 213.286Q1266.6 208.922 1267.06 204.574Q1267.53 200.227 1268.19 195.903Q1268.84 191.579 1269.68 187.287C1268.88 186.242 1268.75 186.507 1267.51 186.332Z"/>
	<path fill="#FEFEFE" d="M1191.58 405.665C1190.87 402.58 1182.55 393.835 1180.2 390.623C1172.69 380.366 1165.7 368.967 1160.86 357.189C1149.84 330.358 1146.32 302.059 1157.86 274.588C1177.36 228.118 1223.39 204.32 1267.51 186.332C1268.75 186.507 1268.88 186.242 1269.68 187.287Q1268.84 191.579 1268.19 195.903Q1267.53 200.227 1267.06 204.574Q1266.6 208.922 1266.31 213.286Q1266.03 217.65 1265.94 222.022Q1265.84 226.394 1265.93 230.766Q1266.02 235.139 1266.3 239.503Q1266.58 243.867 1267.04 248.215Q1267.51 252.564 1268.16 256.888C1273.78 295.701 1293.93 337.99 1275.57 376.327C1264.91 398.584 1241.04 420.912 1217.52 429.347C1217.14 428.618 1193.59 406.975 1191.58 405.665ZM1226.15 245.664L1225.61 246.4C1220.9 252.693 1215.13 257.77 1210.99 264.611C1197.95 286.12 1196.71 316.962 1200.01 341.182C1202.59 360.103 1207.92 380.078 1216.59 397.16L1218.84 396.404L1219.33 395.418C1204.39 357.063 1197.12 310.773 1214.35 271.84C1216.87 266.133 1219.89 260.536 1223.78 255.636C1225.48 253.49 1228 251.48 1229.36 249.146C1230.08 247.901 1229.88 247.753 1229.4 246.504C1228.19 245.935 1227.53 245.6 1226.15 245.664Z"/>
	<path fill="#FEFEFE" d="M618.114 216.446C622.285 214.86 626.551 214.565 630.962 214.283C643.562 213.236 707.308 212.489 715.877 216.317C719.841 218.088 721.699 225.248 723.169 229.094C715.373 229.717 709.131 231.234 702.109 234.661C699.181 236.091 696.471 237.25 693.215 237.706C687.632 238.488 652.711 238.904 648.254 238.128C643.398 237.283 638.408 234.707 633.766 233.021C627.066 230.587 620.2 230.148 613.151 229.876C614.232 225.196 615.786 220.652 618.114 216.446Z"/>
	<path fill="#D83B3D" d="M1216.59 397.16C1207.92 380.078 1202.59 360.103 1200.01 341.182C1196.71 316.962 1197.95 286.12 1210.99 264.611C1215.13 257.77 1220.9 252.693 1225.61 246.4L1226.15 245.664C1227.53 245.6 1228.19 245.935 1229.4 246.504C1229.88 247.753 1230.08 247.901 1229.36 249.146C1228 251.48 1225.48 253.49 1223.78 255.636C1219.89 260.536 1216.87 266.133 1214.35 271.84C1197.12 310.773 1204.39 357.063 1219.33 395.418L1218.84 396.404L1216.59 397.16Z"/>
	<path fill="#FEFEFE" d="M620.343 255.058C620.421 252.213 620.738 249.372 620.992 246.539Q623.762 246.825 626.522 247.189C628.714 247.489 631.178 247.955 632.489 249.945C634.174 252.506 632.827 256.287 632.133 258.989C628.111 258.058 624.219 256.468 620.343 255.058Z"/>
	<path fill="#FEFEFE" d="M635.646 250.481C645.11 251.1 654.349 253.357 663.775 254.1C679.331 255.326 695.868 250.941 710.891 247.435C711.722 247.293 712.594 247.339 713.437 247.329C715.354 248.69 716.089 251.473 716.977 253.588C694.872 266.977 663.387 257.182 638.417 262.698C660.449 268.867 682.387 264.897 704.682 263.129C708.849 308.041 723.667 344.984 737.012 387.372C744.034 409.675 749.654 432.276 755.014 455.024C748.774 455.437 742.519 456.255 736.297 456.915Q734.328 441.301 730.953 425.929C725.927 403.262 719.433 380.779 713.497 358.327C710.596 347.351 708.532 335.7 705.069 324.95C704.561 323.371 704.467 323.114 703.192 322.028C701.563 322.398 701.496 322.328 700.481 323.632C699.74 332.199 719.731 401.04 723.218 415.063C726.675 428.964 729.351 443.088 732.047 457.152C725.784 457.911 719.576 458.528 713.275 458.86C709.729 420.429 700.852 383.451 692.382 345.916C691.456 341.814 690.082 329.799 687.909 327.203L686.912 327.776L687.677 327.003L686.323 326.608L685.339 327.837C683.608 337.141 696.532 386.319 699.199 399.186C702.974 419.14 706.304 438.998 708.598 459.191C702.596 459.242 696.6 459.601 690.607 459.896C690.144 435.85 686.194 411.627 682.519 387.904C680.742 376.437 679.374 364.283 676.609 353.055C676.079 350.906 675.481 349.353 673.59 348.212L672.444 348.95C671.721 350.805 671.54 352.487 671.801 354.47C672.13 356.964 673.07 359.357 673.434 361.857C678.152 394.31 684.602 426.947 685.93 459.781C663.826 459.9 641.874 460.007 619.78 459.148C620.644 454.7 621.4 450.187 622.496 445.79C624.136 439.212 627.852 431.043 627.573 424.295L626.298 423.175L624.896 423.366C619.242 428.49 616.416 450.623 615.05 458.569C609.442 457.886 603.789 457.569 598.155 457.171Q601.962 438.466 607.527 420.207C609.113 415.013 612.185 409.319 613.049 404.121C613.311 402.544 613.108 402.319 612.259 401.08C610.685 400.648 610.723 400.546 609.284 401.275C602.587 410.934 595.206 443.62 593.551 456.322L577.545 454.153C583.753 430.924 591.281 408.224 599.357 385.586C614.056 344.381 628.569 307.536 630.734 263.057C634.025 258.776 634.973 255.799 635.646 250.481Z"/>
	<path fill="#FEFEFE" d="M760.978 444.642C764.72 436.039 770.269 428.364 776.323 421.247C805.224 387.271 844.996 368.522 889.137 364.943C919.466 361.735 952.845 371.46 978.867 386.681C990.044 393.218 1024.4 418.059 1027.55 430.02C1030.74 428.681 1033.8 426.543 1036.88 424.923Q1045.17 420.565 1054.06 417.621C1072.42 411.583 1103.01 409.973 1120.7 418.871C1122.49 421.984 1122.57 426.993 1122.84 430.599C1124.65 455.034 1121.2 481.071 1113.52 504.305C1112.36 507.838 1111.32 512.462 1108.86 515.317C1071.03 512.086 1013.3 517.792 975.428 523.197C961.968 524.104 948.037 526.954 934.667 528.997C880.836 537.221 827.81 549.826 774.822 562.213C774.472 552.539 774.842 542.789 774.741 533.103Q774.503 506.15 771.983 479.315C771.047 470.142 770.57 461.246 762.992 455.058L760.978 444.642Z"/>
	<path fill="#FEFEFE" d="M1180.63 483.609C1183.97 475.996 1178.73 449.909 1175.81 441.664C1176.09 441.704 1176.38 441.734 1176.65 441.783C1183.49 442.972 1199.02 457.503 1203.09 463.822C1213.3 461.485 1222.23 456.936 1232.93 455.63C1241.37 454.599 1256.63 453.861 1263.79 459.436C1260.08 461.206 1255.21 461.632 1251.17 462.382C1243.45 464.683 1235.5 466.344 1227.75 468.628C1211.93 473.29 1196.34 478.599 1180.63 483.609Z"/>
	<path fill="#FEFEFE" d="M1179.03 494.683C1185.62 493.258 1192.34 490.138 1198.68 487.753Q1214.81 481.503 1231.24 476.107C1274.63 461.956 1318.41 456.78 1363.89 456.776C1364.75 458.336 1364.91 459.4 1364.96 461.154C1365.39 477.416 1365.01 493.794 1365.02 510.067L1365.02 605.41C1365.01 613.574 1366.18 658.953 1364.6 663.794C1364.39 664.42 1364.17 664.747 1363.84 665.348C1294.46 669.941 1227.09 686.082 1161.66 709.192C1140.07 716.819 1119.06 726.792 1097.37 733.904C1097.4 733.724 1097.45 733.546 1097.47 733.364C1097.85 730.598 1086.64 700.64 1084.4 697.766C1084.58 697.539 1084.96 697.097 1085.13 696.818C1088.4 691.552 1090.18 683.423 1092.53 677.535C1096.15 668.501 1100.61 659.625 1105.13 651.014C1129.41 604.74 1163.52 563.829 1176.26 512.184C1177.53 507.038 1179.89 499.963 1179.03 494.683ZM1245.48 495.664C1233.44 497.058 1194.62 503.554 1187.08 512.968C1186.7 513.442 1186.62 513.649 1186.31 514.219C1186.67 515.981 1186.78 515.858 1188.27 516.913C1194.65 516.879 1208.32 510.574 1215.19 508.546C1251.37 497.858 1290.5 499.702 1318.67 527.53C1330.66 539.371 1338.55 553.414 1345.81 568.464C1347.38 571.705 1350.49 577.429 1350.59 580.962C1350.62 581.819 1350.58 581.837 1350.41 582.555C1338.63 583.11 1327.09 584.332 1315.56 586.854C1279.93 594.646 1244.68 609.029 1213.27 580.721C1203.17 571.625 1195.76 560.455 1190.2 548.133C1188.39 544.118 1186.69 538.429 1183.92 535.066C1210.85 533.006 1237.08 534.821 1263.31 541.539C1267.91 542.717 1275.65 544.567 1279.4 547.563C1279.44 547.594 1279.47 547.634 1279.5 547.67C1279.72 547.737 1279.94 547.801 1280.15 547.872C1288.42 550.544 1295.6 556.126 1302.31 561.497C1303.85 562.731 1306.19 565.158 1307.97 565.872C1309.12 566.334 1309.5 566.045 1310.54 565.579C1310.55 563.057 1308.89 561.487 1307.18 559.758C1284.14 536.433 1247.2 530.551 1215.77 530.554C1207.21 530.555 1190.88 530.307 1183.41 533.882C1182.53 535.045 1182.52 535.205 1182.78 536.668C1183.31 539.702 1184.71 542.896 1185.73 545.804C1192.4 564.67 1204.18 582.627 1221.21 593.61C1244.1 608.372 1268.32 605.67 1293.45 600.08C1312.19 595.911 1331.14 590.191 1350.54 590.879C1353.95 591 1358.73 592.084 1361.38 589.672C1363.25 581.61 1345.99 550.702 1340.87 542.534C1327.44 521.068 1306.93 503.13 1281.77 497.316C1269.85 494.561 1257.6 494.989 1245.48 495.664Z"/>
	<path fill="#FEFEFE" d="M765.889 497.112C763.736 497.779 761.579 498.654 759.302 498.579C760.175 496.26 760.877 495.075 760.444 492.579C759.249 491.735 758.996 491.446 757.456 491.652C747.21 493.023 734.234 508.887 728.729 516.82C725.249 521.836 723.013 528.922 719.145 533.312L718.474 533.212C718.785 530.636 719.039 528.454 717.374 526.217C716.332 524.815 714.863 524.088 713.128 524.038C708.025 523.894 701.725 530.159 698.583 533.665C695.838 536.728 693.591 539.714 693.846 544.064C693.977 546.282 694.804 548.709 696.663 550.068C697.805 550.903 699.278 551.164 700.66 550.93C704.963 550.198 710.072 544.481 712.3 540.884C713.693 538.635 714.217 537.677 716.696 536.503C719.677 540.228 713.216 550.524 720.659 551.504C724.353 550.339 726.898 548.189 729.657 545.577L731.491 544.021C733.551 546.645 730.284 550.218 734.711 551.205C737.136 550.581 738.279 549.794 740.128 548.159C740.716 547.639 741.326 547.139 741.92 546.627L742.905 546.711C743.357 547.608 743.797 548.483 744.145 549.426C745.019 550.716 745.012 550.809 746.478 551.287C749.295 550.522 751.173 548.676 753.15 546.63C755.787 543.901 763.381 536.157 763.295 532.251C758.222 536.174 755.743 542.609 749.993 545.94L749.571 545.277C752.03 537.01 759.03 529.315 763.435 521.9C760.475 522.255 757.594 522.702 754.677 523.318C751.224 522.54 749.659 522.702 746.647 524.562C739.353 529.065 733.184 538.431 727.36 544.784C726.342 545.244 725.341 545.452 724.257 545.699L723.366 544.903C721.822 534.951 735.675 526.459 741.993 520.163C745.404 516.763 748.206 512.978 751.011 509.084C753.86 506.72 762.265 504.3 766.264 502.108C767.727 529.681 767.245 557.104 766.286 584.684C700.754 585.132 633.463 626.336 568.607 598.163C567.427 587.56 567.034 575.808 567.551 565.159C596.281 578.893 624.442 578.154 654.879 571.499C676.086 566.862 690.618 562.505 712.745 563.297C698.508 558.677 683.593 560.518 669.178 563.34C630.362 570.94 606.397 576.74 568.536 558.848C566.805 556.625 567.784 546.427 567.994 543.449C571.63 547.579 574.682 549.955 580.418 550.37C586.514 550.81 593.129 549.167 599.136 548.183Q604.146 547.495 609.184 547.05C616.631 546.385 624.576 546.039 630.628 551.101C641.093 548.396 647.743 549.83 657.584 553.841Q655.747 552.499 653.861 551.225C635.48 538.864 618.352 542.324 598.073 546.278C592.617 547.17 584.814 548.97 579.594 546.224C577.515 545.13 576.091 543.319 575.428 541.069C573.366 534.08 577.582 524.867 580.979 518.806C584.317 512.849 594.155 498.88 601.296 497.375C603.206 496.973 604.229 497.772 605.666 498.817L605.663 499.815C604.165 500.958 602.903 501.718 602.303 503.564C602.836 505.103 603.062 505.354 604.28 506.45C605.652 506.045 605.863 506 606.59 504.659C607.649 502.704 607.637 500.651 607.106 498.564C606.036 497.131 605.041 495.828 603.348 495.109C600.959 494.095 598.466 494.712 596.175 495.661C583.814 500.78 573.879 513.859 568.892 525.865L568.246 525.653C567.004 514.376 572.296 478.741 574.389 466.336C619.033 477.62 667.595 479.001 713.32 475.113C729.888 473.704 746.362 470.545 762.957 469.654Q764.72 483.351 765.889 497.112ZM714.278 493.673C704.678 491.972 697.062 494.985 689.177 500.463C678.327 508 664.861 523.903 662.647 537.342C662.009 541.213 662.398 545.49 664.669 548.797C665.941 550.648 667.731 552.06 669.972 552.487C674.478 553.345 679.633 550.369 683.141 547.788C688.596 543.775 694.775 536.737 695.892 529.829C696.175 528.081 696.067 526.023 694.976 524.548C694.175 523.465 692.869 522.793 691.547 522.617C688.421 522.2 685.109 524.278 682.83 526.231C679.98 528.675 676.37 532.406 676.075 536.295C675.96 537.81 675.842 538.374 676.64 539.647C682.99 537.818 686.809 523.266 694.245 524.871C695.184 526.364 695.768 527.212 695.474 529.09C694.614 534.57 687.026 541.94 682.432 544.726C680.015 546.191 676.105 548.163 673.256 547.666C671.973 547.443 671.104 546.836 670.398 545.745C668.633 543.02 669.536 538.13 670.326 535.11C673.951 521.251 689.272 504.873 701.758 497.728C704.038 496.424 706.107 495.667 708.771 495.595L710.161 496.222C708.758 497.503 706.829 497.944 705.179 498.851C700.933 501.184 696.055 507.123 695.917 512.174C695.877 513.661 696.153 514.108 696.906 515.388C698.883 516.266 700.104 516.499 702.22 515.711C706.965 513.943 710.508 509.352 712.306 504.739C713.6 501.423 714.041 497.993 714.061 494.448C723.526 495.421 731.792 503.699 736.069 503.835C737.536 503.882 737.661 503.647 738.621 502.674C738.714 502.075 738.825 501.495 738.724 500.887C738.32 498.447 735.641 496.241 733.654 495.074C727.539 491.481 720.857 491.835 714.278 493.673ZM654.113 510.038C650.85 508.584 648.777 508.253 645.389 509.582C635.042 513.641 631.942 525.632 623.565 531.722L622.729 532.007C620.928 532.612 618.712 533.527 616.847 532.721C615.403 532.097 614.446 531.158 614.073 529.599C613.227 526.063 617.173 520.8 619.166 518.137C621.352 515.216 624.229 511.579 627.7 510.215L629.108 510.317C629.635 512.446 627.566 515.453 627.13 517.788L627.764 518.137C629.733 517.219 631.834 516.153 632.613 513.968C632.985 512.925 632.709 512.586 632.444 511.555C630.93 509.967 629.527 509.322 627.297 509.255C622.229 509.101 617.422 512.067 613.957 515.554C610.149 519.385 607.289 524.703 607.285 530.227C607.283 532.316 607.806 534.55 609.46 535.957C611.291 537.516 614.042 537.73 616.326 537.333C619.525 536.777 622.634 534.778 625.049 532.662L626.273 531.875C628.706 533.778 627.389 537.465 632.162 536.684C634.479 536.305 636.879 534.621 638.855 533.386C638.934 533.914 638.952 534.156 639.128 534.702C639.66 536.356 640.321 536.692 641.786 537.503C642.87 537.52 643.819 537.527 644.852 537.152C648.388 535.867 655.875 529.572 657.432 526.057C654.309 528.208 650.933 531.003 647.369 532.278C645.535 530.286 658.662 514.569 658.556 509.938L657.4 509.1C655.957 509.154 655.343 509.176 654.113 510.038ZM603.134 507.892C595.015 512.775 588.362 518.365 585.99 528.032C585.453 530.219 585.409 532.194 586.097 534.342C587.267 535.713 588.693 536.482 590.53 536.648C591.325 536.719 592.137 536.512 592.904 536.353C600.089 532.064 603.97 525.381 609.679 519.517L609.373 520.199C608.815 519.333 608.91 519.243 607.908 518.804L608.191 514.358C608.324 512.448 608.238 511.318 607.331 509.618C605.704 508.327 605.205 508.228 603.134 507.892ZM665.902 509.492C664.438 510.916 663.89 512.376 663.14 514.252L663.603 515.729C665.09 516.026 666.253 515.729 667.698 515.414C669.213 514.26 670.287 513.308 671.358 511.725C671.162 510.849 671.322 510.57 670.517 510.05C669.302 509.266 667.3 509.497 665.902 509.492Z"/>
	<path fill="#340100" d="M759.302 498.579C761.579 498.654 763.736 497.779 765.889 497.112C766.1 498.775 766.391 500.429 766.264 502.108C762.265 504.3 753.86 506.72 751.011 509.084C748.206 512.978 745.404 516.763 741.993 520.163C735.675 526.459 721.822 534.951 723.366 544.903L724.257 545.699C725.341 545.452 726.342 545.244 727.36 544.784C733.184 538.431 739.353 529.065 746.647 524.562C749.659 522.702 751.224 522.54 754.677 523.318C757.594 522.702 760.475 522.255 763.435 521.9C759.03 529.315 752.03 537.01 749.571 545.277L749.993 545.94C755.743 542.609 758.222 536.174 763.295 532.251C763.381 536.157 755.787 543.901 753.15 546.63C751.173 548.676 749.295 550.522 746.478 551.287C745.012 550.809 745.019 550.716 744.145 549.426C743.797 548.483 743.357 547.608 742.905 546.711L741.92 546.627C741.326 547.139 740.716 547.639 740.128 548.159C738.279 549.794 737.136 550.581 734.711 551.205C730.284 550.218 733.551 546.645 731.491 544.021L729.657 545.577C726.898 548.189 724.353 550.339 720.659 551.504C713.216 550.524 719.677 540.228 716.696 536.503C714.217 537.677 713.693 538.635 712.3 540.884C710.072 544.481 704.963 550.198 700.66 550.93C699.278 551.164 697.805 550.903 696.663 550.068C694.804 548.709 693.977 546.282 693.846 544.064C693.591 539.714 695.838 536.728 698.583 533.665C701.725 530.159 708.025 523.894 713.128 524.038C714.863 524.088 716.332 524.815 717.374 526.217C719.039 528.454 718.785 530.636 718.474 533.212L719.145 533.312C723.013 528.922 725.249 521.836 728.729 516.82C734.234 508.887 747.21 493.023 757.456 491.652C758.996 491.446 759.249 491.735 760.444 492.579C760.877 495.075 760.175 496.26 759.302 498.579ZM757.966 497.215L758.668 494.839L758.008 493.996C754.35 494.317 750.101 498.853 747.819 501.567C747.006 502.533 746.236 503.497 745.538 504.551C749.308 501.742 755.732 500.876 757.966 497.215ZM743.981 506.695C738.931 508.286 732.918 520.779 730.425 525.591Q729.007 528.344 727.686 531.145C735.746 524.02 743.851 517.067 750.402 508.451C748.438 507.526 746.097 507.191 743.981 506.695ZM754.136 524.531C748.32 526.597 742.823 534.127 740.192 539.538C739.41 541.147 739 542.262 739.106 544.052L739.999 544.926C741.451 544.548 742.094 544.136 743.22 543.21C748.025 537.564 751.166 531.253 754.136 524.531ZM711.346 525.847C709.916 527.656 708.643 529 708.354 531.374C708.997 533.142 709.37 533.88 711.079 534.807C712.104 535.363 713.34 535.741 714.454 536.091C716.118 534.757 717.678 533.904 718.067 531.64Q718.112 531.365 718.124 531.087Q718.137 530.808 718.116 530.53Q718.096 530.252 718.043 529.979Q717.99 529.705 717.905 529.44Q717.82 529.174 717.705 528.92Q717.59 528.667 717.446 528.428Q717.301 528.19 717.13 527.97Q716.959 527.75 716.763 527.552C715.275 526.019 713.35 525.92 711.346 525.847ZM706.415 533.678C703.979 535.949 700.92 539.121 700.864 542.69C700.854 543.348 701.064 543.957 701.254 544.576C702.548 545.573 703.105 545.881 704.773 545.762C705.391 545.719 706.035 545.522 706.631 545.371C708.97 543.241 710.601 541.124 712.308 538.465C710.643 536.974 708.484 534.46 706.415 533.678Z"/>
	<path fill="#340100" d="M714.061 494.448C714.041 497.993 713.6 501.423 712.306 504.739C710.508 509.352 706.965 513.943 702.22 515.711C700.104 516.499 698.883 516.266 696.906 515.388C696.153 514.108 695.877 513.661 695.917 512.174C696.055 507.123 700.933 501.184 705.179 498.851C706.829 497.944 708.758 497.503 710.161 496.222L708.771 495.595C706.107 495.667 704.038 496.424 701.758 497.728C689.272 504.873 673.951 521.251 670.326 535.11C669.536 538.13 668.633 543.02 670.398 545.745C671.104 546.836 671.973 547.443 673.256 547.666C676.105 548.163 680.015 546.191 682.432 544.726C687.026 541.94 694.614 534.57 695.474 529.09C695.768 527.212 695.184 526.364 694.245 524.871C686.809 523.266 682.99 537.818 676.64 539.647C675.842 538.374 675.96 537.81 676.075 536.295C676.37 532.406 679.98 528.675 682.83 526.231C685.109 524.278 688.421 522.2 691.547 522.617C692.869 522.793 694.175 523.465 694.976 524.548C696.067 526.023 696.175 528.081 695.892 529.829C694.775 536.737 688.596 543.775 683.141 547.788C679.633 550.369 674.478 553.345 669.972 552.487C667.731 552.06 665.941 550.648 664.669 548.797C662.398 545.49 662.009 541.213 662.647 537.342C664.861 523.903 678.327 508 689.177 500.463C697.062 494.985 704.678 491.972 714.278 493.673C720.857 491.835 727.539 491.481 733.654 495.074C735.641 496.241 738.32 498.447 738.724 500.887C738.825 501.495 738.714 502.075 738.621 502.674C737.661 503.647 737.536 503.882 736.069 503.835C731.792 503.699 723.526 495.421 714.061 494.448ZM710.487 497.187C705.536 499.953 699.4 504.45 697.946 510.296C697.603 511.673 697.797 512.541 698.349 513.813L699.418 514.741C704.452 512.664 708.456 509.33 710.72 504.234C711.68 502.072 712.045 500.227 711.437 497.938L710.487 497.187Z"/>
	<path fill="#FEFEFE" d="M745.538 504.551C746.236 503.497 747.006 502.533 747.819 501.567C750.101 498.853 754.35 494.317 758.008 493.996L758.668 494.839L757.966 497.215C755.732 500.876 749.308 501.742 745.538 504.551Z"/>
	<path fill="#340100" d="M568.892 525.865C573.879 513.859 583.814 500.78 596.175 495.661C598.466 494.712 600.959 494.095 603.348 495.109C605.041 495.828 606.036 497.131 607.106 498.564C607.637 500.651 607.649 502.704 606.59 504.659C605.863 506 605.652 506.045 604.28 506.45C603.062 505.354 602.836 505.103 602.303 503.564C602.903 501.718 604.165 500.958 605.663 499.815L605.666 498.817C604.229 497.772 603.206 496.973 601.296 497.375C594.155 498.88 584.317 512.849 580.979 518.806C577.582 524.867 573.366 534.08 575.428 541.069C576.091 543.319 577.515 545.13 579.594 546.224C584.814 548.97 592.617 547.17 598.073 546.278C618.352 542.324 635.48 538.864 653.861 551.225Q655.747 552.499 657.584 553.841C647.743 549.83 641.093 548.396 630.628 551.101C624.576 546.039 616.631 546.385 609.184 547.05Q604.146 547.495 599.136 548.183C593.129 549.167 586.514 550.81 580.418 550.37C574.682 549.955 571.63 547.579 567.994 543.449C565.939 538.091 567.577 531.201 568.892 525.865Z"/>
	<path fill="#D83B3D" d="M1350.41 582.555C1350.58 581.837 1350.62 581.819 1350.59 580.962C1350.49 577.429 1347.38 571.705 1345.81 568.464C1338.55 553.414 1330.66 539.371 1318.67 527.53C1290.5 499.702 1251.37 497.858 1215.19 508.546C1208.32 510.574 1194.65 516.879 1188.27 516.913C1186.78 515.858 1186.67 515.981 1186.31 514.219C1186.62 513.649 1186.7 513.442 1187.08 512.968C1194.62 503.554 1233.44 497.058 1245.48 495.664C1257.6 494.989 1269.85 494.561 1281.77 497.316C1306.93 503.13 1327.44 521.068 1340.87 542.534C1345.99 550.702 1363.25 581.61 1361.38 589.672C1358.73 592.084 1353.95 591 1350.54 590.879C1331.14 590.191 1312.19 595.911 1293.45 600.08C1268.32 605.67 1244.1 608.372 1221.21 593.61C1204.18 582.627 1192.4 564.67 1185.73 545.804C1184.71 542.896 1183.31 539.702 1182.78 536.668C1182.52 535.205 1182.53 535.045 1183.41 533.882C1190.88 530.307 1207.21 530.555 1215.77 530.554C1247.2 530.551 1284.14 536.433 1307.18 559.758C1308.89 561.487 1310.55 563.057 1310.54 565.579C1309.5 566.045 1309.12 566.334 1307.97 565.872C1306.19 565.158 1303.85 562.731 1302.31 561.497C1295.6 556.126 1288.42 550.544 1280.15 547.872C1279.94 547.801 1279.72 547.737 1279.5 547.67C1279.47 547.634 1279.44 547.594 1279.4 547.563C1275.65 544.567 1267.91 542.717 1263.31 541.539C1237.08 534.821 1210.85 533.006 1183.92 535.066C1186.69 538.429 1188.39 544.118 1190.2 548.133C1195.76 560.455 1203.17 571.625 1213.27 580.721C1244.68 609.029 1279.93 594.646 1315.56 586.854C1327.09 584.332 1338.63 583.11 1350.41 582.555Z"/>
	<path fill="#FEFEFE" d="M699.418 514.741L698.349 513.813C697.797 512.541 697.603 511.673 697.946 510.296C699.4 504.45 705.536 499.953 710.487 497.187L711.437 497.938C712.045 500.227 711.68 502.072 710.72 504.234C708.456 509.33 704.452 512.664 699.418 514.741Z"/>
	<path fill="#FEFEFE" d="M1110.04 530.263C1119.01 525.3 1127.66 519.719 1136.77 515.028C1148.6 508.939 1160.95 503.846 1172.72 497.665L1174.03 498.149C1174.47 502.925 1172.1 509.016 1170.73 513.592C1156.93 559.338 1127.71 596.751 1105.53 638.435C1100.55 647.785 1095.74 657.406 1091.63 667.176C1088.68 674.191 1086.32 681.425 1083.15 688.352L1083.43 687.896L1082.83 688.714L1082.4 688.617C1081.92 687.337 1081.3 686.205 1080.63 685.019C1081.36 682.724 1077.2 660.26 1076.77 654.949Q1076.29 649.14 1076.18 643.312Q1076.07 637.484 1076.32 631.661Q1076.58 625.837 1077.21 620.042Q1077.83 614.246 1078.82 608.502C1081.81 591.649 1087.73 574.912 1095.57 559.714C1099.89 551.327 1107.91 539.638 1109.95 530.689C1109.98 530.548 1110.01 530.405 1110.04 530.263Z"/>
	<path fill="#FEFEFE" d="M727.686 531.145Q729.007 528.344 730.425 525.591C732.918 520.779 738.931 508.286 743.981 506.695C746.097 507.191 748.438 507.526 750.402 508.451C743.851 517.067 735.746 524.02 727.686 531.145Z"/>
	<path fill="#340100" d="M592.904 536.353C592.137 536.512 591.325 536.719 590.53 536.648C588.693 536.482 587.267 535.713 586.097 534.342C585.409 532.194 585.453 530.219 585.99 528.032C588.362 518.365 595.015 512.775 603.134 507.892C605.205 508.228 605.704 508.327 607.331 509.618C608.238 511.318 608.324 512.448 608.191 514.358L607.908 518.804C608.91 519.243 608.815 519.333 609.373 520.199L609.679 519.517C603.97 525.381 600.089 532.064 592.904 536.353ZM603.79 508.965C601.902 510.825 599.821 512.468 599.068 515.085C599.688 517.729 601.215 519.077 603.298 520.753C605.308 519.55 606.366 518.885 606.95 516.43C607.379 514.628 607.138 512.134 606.004 510.603C605.332 509.696 604.79 509.409 603.79 508.965ZM597.384 516.954C595.309 520.225 591.505 526.35 592.668 530.416C592.966 531.456 593.316 531.407 594.179 531.947C595.524 531.755 596.308 531.586 597.505 530.878C600.22 528.295 602.327 525.85 604.059 522.501C601.794 520.697 599.512 518.92 597.384 516.954Z"/>
	<path fill="#340100" d="M623.565 531.722C631.942 525.632 635.042 513.641 645.389 509.582C648.777 508.253 650.85 508.584 654.113 510.038C655.343 509.176 655.957 509.154 657.4 509.1L658.556 509.938C658.662 514.569 645.535 530.286 647.369 532.278C650.933 531.003 654.309 528.208 657.432 526.057C655.875 529.572 648.388 535.867 644.852 537.152C643.819 537.527 642.87 537.52 641.786 537.503C640.321 536.692 639.66 536.356 639.128 534.702C638.952 534.156 638.934 533.914 638.855 533.386C636.879 534.621 634.479 536.305 632.162 536.684C627.389 537.465 628.706 533.778 626.273 531.875L625.049 532.662C622.634 534.778 619.525 536.777 616.326 537.333C614.042 537.73 611.291 537.516 609.46 535.957C607.806 534.55 607.283 532.316 607.285 530.227C607.289 524.703 610.149 519.385 613.957 515.554C617.422 512.067 622.229 509.101 627.297 509.255C629.527 509.322 630.93 509.967 632.444 511.555C632.709 512.586 632.985 512.925 632.613 513.968C631.834 516.153 629.733 517.219 627.764 518.137L627.13 517.788C627.566 515.453 629.635 512.446 629.108 510.317L627.7 510.215C624.229 511.579 621.352 515.216 619.166 518.137C617.173 520.8 613.227 526.063 614.073 529.599C614.446 531.158 615.403 532.097 616.847 532.721C618.712 533.527 620.928 532.612 622.729 532.007L623.565 531.722ZM652.285 511.877C649.491 511.609 648.321 511.648 646.033 513.516C642.096 516.731 636.049 523.595 635.37 528.745C635.165 530.296 635.408 530.553 636.242 531.767C637.029 531.721 637.766 531.725 638.525 531.502C639.792 529.677 641.704 528.095 643.151 526.375C646.966 521.84 649.81 517.249 652.285 511.877Z"/>
	<path fill="#FEFEFE" d="M603.298 520.753C601.215 519.077 599.688 517.729 599.068 515.085C599.821 512.468 601.902 510.825 603.79 508.965C604.79 509.409 605.332 509.696 606.004 510.603C607.138 512.134 607.379 514.628 606.95 516.43C606.366 518.885 605.308 519.55 603.298 520.753Z"/>
	<path fill="#340100" d="M667.698 515.414C666.253 515.729 665.09 516.026 663.603 515.729L663.14 514.252C663.89 512.376 664.438 510.916 665.902 509.492C667.3 509.497 669.302 509.266 670.517 510.05C671.322 510.57 671.162 510.849 671.358 511.725C670.287 513.308 669.213 514.26 667.698 515.414Z"/>
	<path fill="#FEFEFE" d="M638.525 531.502C637.766 531.725 637.029 531.721 636.242 531.767C635.408 530.553 635.165 530.296 635.37 528.745C636.049 523.595 642.096 516.731 646.033 513.516C648.321 511.648 649.491 511.609 652.285 511.877C649.81 517.249 646.966 521.84 643.151 526.375C641.704 528.095 639.792 529.677 638.525 531.502Z"/>
	<path fill="#FEFEFE" d="M597.505 530.878C596.308 531.586 595.524 531.755 594.179 531.947C593.316 531.407 592.966 531.456 592.668 530.416C591.505 526.35 595.309 520.225 597.384 516.954C599.512 518.92 601.794 520.697 604.059 522.501C602.327 525.85 600.22 528.295 597.505 530.878Z"/>
	<path fill="#FEFEFE" d="M774.737 566.664C806.47 560.225 837.845 551.989 869.605 545.67Q894.293 540.668 919.142 536.538Q943.991 532.407 968.97 529.154Q993.949 525.9 1019.03 523.527Q1044.1 521.154 1069.25 519.665Q1084.36 519.184 1099.48 519.35C1098.43 520.87 1051.87 547.676 1044.64 552.32Q1022.8 566.173 1001.8 581.274Q980.798 596.375 960.712 612.672Q938.972 630.417 918.529 649.644Q898.086 668.871 879.042 689.484C844.453 726.772 812.693 766.769 778.699 804.644Q773.086 810.86 767.033 816.649C753.081 759.292 764.29 706.175 770.242 648.796Q774.317 607.83 774.737 566.664Z"/>
	<path fill="#FEFEFE" d="M743.22 543.21C742.094 544.136 741.451 544.548 739.999 544.926L739.106 544.052C739 542.262 739.41 541.147 740.192 539.538C742.823 534.127 748.32 526.597 754.136 524.531C751.166 531.253 748.025 537.564 743.22 543.21Z"/>
	<path fill="#FEFEFE" d="M714.454 536.091C713.34 535.741 712.104 535.363 711.079 534.807C709.37 533.88 708.997 533.142 708.354 531.374C708.643 529 709.916 527.656 711.346 525.847C713.35 525.92 715.275 526.019 716.763 527.552Q716.959 527.75 717.13 527.97Q717.301 528.19 717.446 528.428Q717.59 528.667 717.705 528.92Q717.82 529.174 717.905 529.44Q717.99 529.705 718.043 529.979Q718.096 530.252 718.116 530.53Q718.137 530.808 718.124 531.087Q718.112 531.365 718.067 531.64C717.678 533.904 716.118 534.757 714.454 536.091Z"/>
	<path fill="#FEFEFE" d="M706.631 545.371C706.035 545.522 705.391 545.719 704.773 545.762C703.105 545.881 702.548 545.573 701.254 544.576C701.064 543.957 700.854 543.348 700.864 542.69C700.92 539.121 703.979 535.949 706.415 533.678C708.484 534.46 710.643 536.974 712.308 538.465C710.601 541.124 708.97 543.241 706.631 545.371Z"/>
	<path fill="#FEFEFE" d="M772.016 829.711C777.283 823.653 783.334 818.075 788.909 812.283Q802.857 797.639 816.238 782.475C830.732 765.954 844.367 748.69 858.908 732.233C897.997 687.993 939.175 647.221 985.557 610.593Q1019.77 583.865 1056.51 560.731Q1069.65 552.698 1083 545.01C1087.47 542.413 1093.36 539.803 1097.14 536.327L1099.08 536.337C1098.99 540.985 1094.24 547.338 1091.98 551.524C1080.88 572.043 1072.59 593.152 1069.76 616.445C1067.29 636.802 1067.97 658.489 1072.17 678.58C1073.79 686.36 1077.15 694.242 1077.91 702.11C1078.51 708.228 1076.47 714.544 1075.81 720.619C1075.2 726.266 1075.38 732.166 1075.13 737.853C1075.04 739.926 1074.95 741.602 1074.19 743.559C1071.44 745.389 1067.55 746.717 1064.55 748.211C1053.11 753.894 1041.49 759.177 1029.99 764.727Q993.214 782.767 957.512 802.851C870.031 852.455 789.983 915.712 715.325 982.76Q683.267 972.907 651.893 961.055Q620.519 949.203 589.953 935.399C542.402 914.449 495.867 891.384 448.026 871.021C414.665 856.821 376.056 840.431 341.229 831.355C360.014 813.694 380.423 797.047 400.79 781.259C437.812 751.176 478.445 724.654 519.311 700.128C535.266 690.552 551.525 680.447 568.381 672.542C575.287 712.15 582.035 777.451 571.08 815.488C568.176 825.569 560.93 833.284 557.712 843.262C553.915 855.036 552.035 872.559 557.957 883.95C563.468 894.551 576.983 900.443 587.775 903.826C631.56 917.554 695.413 915.422 739.882 905.899C748.099 904.139 758.987 902.036 766.381 898.021C773.253 894.291 778.049 887.462 780.164 880.042C784.963 863.197 780.168 844.646 772.016 829.711Z"/>
	<path fill="#FEFEFE" d="M0 559.751C6.0603 556.565 12.6103 554.249 19.0475 551.947C52.8842 539.845 89.5507 537.636 124.056 548.349C161.267 559.903 194.996 585.669 213.519 620.295C215.342 623.703 216 629.004 219.917 630.436C224.666 628.705 227.755 624.135 232.004 621.519Q232.833 620.999 233.677 620.506Q234.522 620.012 235.381 619.545Q236.241 619.078 237.114 618.637Q237.988 618.197 238.874 617.784Q239.761 617.371 240.66 616.986Q241.559 616.601 242.47 616.243Q243.381 615.886 244.302 615.557Q245.223 615.229 246.154 614.929Q247.085 614.629 248.025 614.358Q248.965 614.087 249.913 613.845Q250.86 613.603 251.815 613.391Q252.77 613.179 253.731 612.996Q254.692 612.814 255.658 612.661Q256.624 612.509 257.595 612.386Q258.565 612.264 259.539 612.171Q260.513 612.079 261.489 612.017Q262.465 611.955 263.443 611.923Q264.42 611.891 265.399 611.89Q266.377 611.888 267.354 611.917Q268.332 611.946 269.308 612.005Q270.285 612.064 271.259 612.154Q272.233 612.243 273.204 612.363Q274.174 612.483 275.141 612.633Q276.108 612.782 277.069 612.962Q278.031 613.141 278.986 613.351Q279.942 613.56 280.89 613.799Q281.839 614.038 282.779 614.306Q283.72 614.575 284.652 614.872Q285.584 615.169 286.506 615.495Q287.428 615.821 288.34 616.176Q289.252 616.53 290.152 616.913Q291.052 617.296 291.94 617.706C307.058 624.747 315.859 635.844 324.807 649.366C325.976 651.132 327.274 654.254 329.744 653.461C343.619 634.263 356.756 623.318 380.99 619.563C401.69 616.356 423.535 622.09 440.355 634.454C451.8 642.867 462.306 655.346 467.598 668.636C469.212 672.688 470.166 676.983 471.685 681.069C472.675 683.731 472.946 684.799 476.02 684.402C486.787 683.012 494.548 679.993 504.458 686.752C508.504 689.511 511.255 693.08 513.835 697.181Q479.632 717.563 446.973 740.339Q414.315 763.115 383.367 788.167C367.218 801.095 350.261 814.427 336.091 829.509C250.67 802.354 157.002 789.007 67.975 803.018C44.8017 806.665 22.5209 812.716 0 819.088L0 559.751Z"/>
	<path fill="#340100" d="M567.551 565.159C567.519 562.89 567.216 560.809 568.536 558.848C606.397 576.74 630.362 570.94 669.178 563.34C683.593 560.518 698.508 558.677 712.745 563.297C690.618 562.505 676.086 566.862 654.879 571.499C624.442 578.154 596.281 578.893 567.551 565.159Z"/>
	<path fill="#FEFEFE" d="M570.354 628.503C570.021 625.036 569.517 621.481 569.404 618.004C569.35 616.323 569.305 615.829 570.486 614.605C572.134 614.674 572.066 614.575 573.197 615.76C574.471 621.391 573.901 627.277 574.365 633.007C575.021 641.115 576.379 649.391 577.4 657.479C583.859 708.627 594.403 753.959 585.131 806.09C583.75 813.852 582.152 822.417 579.257 829.763C575.081 840.357 568.17 847.492 567.202 859.564C566.686 866.004 567.152 874.329 571.738 879.378C582.472 891.195 631.342 895.188 647.314 895.905C669.956 896.923 747.603 895.98 763.762 880.327C770.206 874.085 770.78 864.033 769.332 855.691C767.458 844.894 761.665 835.597 757.77 825.502C753.509 814.456 751.61 802.989 750.056 791.311C741.997 730.741 760.418 671.433 761.275 611.137C762.836 611.134 764.359 610.942 765.738 611.786C766.886 622.343 764.238 636.357 763.215 646.998C759.468 685.979 752.255 725.196 752.978 764.435C753.326 783.316 754.82 804.183 761.194 822.085C765.878 835.238 773.473 846.024 774.831 860.37C775.646 868.987 775.003 880.171 769.108 887.085C758.54 899.483 717.75 903.78 701.802 905.174C669.894 907.964 594.964 908.998 569.373 887.02C564.357 882.712 561.953 877.231 561.315 870.71C558.719 844.168 570.072 839.948 576.959 819.454C581.128 807.048 582.316 792.551 583.117 779.555C586.323 727.581 573.764 679.622 570.354 628.503Z"/>
	<path fill="#FEFEFE" d="M737.183 615.357C741.517 614.653 745.908 614.161 750.261 613.569L753.223 613.216C754.152 613.973 754.472 614.149 754.633 615.426C755.066 618.853 752.603 638.732 752.098 643.555C746.477 697.208 735.02 751.061 744.935 805.015C746.324 812.578 748.06 820.603 750.922 827.754C755.123 838.253 761.49 847.307 763.093 858.798C763.847 864.203 763.589 869.966 760.02 874.415C752.455 883.844 723.691 886.386 712.074 887.689C675.339 891.811 636.907 891.11 600.664 883.651C593.5 882.176 584.125 880.728 578.43 875.853C569.721 868.4 574.874 852.411 579.345 843.984C581.928 839.117 584.721 834.326 586.592 829.126C589.652 820.621 590.978 811.641 592.354 802.746C602.059 739.971 584.304 679.222 579.865 616.988Q588.597 618.215 597.386 618.923C597.862 641.841 600.488 664.356 603.599 687.03C607.14 712.848 611.436 739.16 610.281 765.286Q609.671 777.593 607.929 789.79Q606.186 801.988 603.326 813.973C601.555 821.214 598.187 829.047 597.255 836.364C597.061 837.885 597.161 838.041 598.034 839.197C599.249 839.104 599.54 839.159 600.386 838.171C604.52 833.341 606.579 821.586 608.069 815.314C612.544 796.473 615.489 776.589 615.556 757.211C615.654 728.669 610.208 700.224 606.377 672.021C604.018 654.652 602.716 637.313 601.739 619.822Q610.579 620.337 619.426 620.695C619.003 666.892 630.317 712.587 629.861 758.703Q629.638 770.661 628.37 782.553Q627.102 794.446 624.799 806.182C623.29 814.041 617.057 833.022 617.573 839.573L619.094 840.616L617.74 840.144L618.007 840.557L620.759 839.313L620.465 839.616C623.071 836.458 624.044 830.242 625.156 826.264Q626.709 820.573 628.017 814.82Q629.325 809.067 630.385 803.264Q631.444 797.46 632.254 791.617Q633.064 785.773 633.622 779.9Q634.181 774.027 634.486 768.135Q634.792 762.244 634.845 756.345Q634.897 750.445 634.697 744.549Q634.496 738.653 634.043 732.771C631.157 695.315 624.567 658.419 623.703 620.739C645.858 621.217 667.695 621.051 689.841 620.398C690.18 662.135 681.394 701.989 679.428 743.047Q679.029 751.257 679.112 759.475Q679.196 767.694 679.761 775.894Q680.327 784.094 681.374 792.246Q682.421 800.398 683.944 808.475C685.451 816.764 686.843 827.217 690.111 834.902C690.774 836.46 691.153 837.413 692.742 838.036L694.092 837.039C695.022 833.741 688.784 810.047 687.886 804.427Q684.623 784.665 683.94 764.646C683.138 737.262 687.529 710.294 690.474 683.165Q693.909 651.662 694.506 619.977L711.485 618.475Q710.357 645.491 707.515 672.38C704.429 699.63 700.035 726.991 699.959 754.47Q699.955 763.288 700.526 772.087Q701.097 780.886 702.24 789.63Q703.384 798.373 705.096 807.023Q706.808 815.673 709.08 824.193C710.199 828.525 711.262 835.188 714.462 838.397C716.032 838.369 716 838.236 717.192 837.177C716.931 829.581 713.111 820.637 711.484 813.079Q708.564 799.996 706.943 786.689Q705.322 773.382 705.014 759.98C704.392 729.099 709.511 698.037 712.832 667.392Q715.358 642.839 715.849 618.161C721.395 617.668 726.946 616.922 732.481 616.3Q731.188 651.16 726.777 685.763C721.359 731.165 715.212 775.117 729.426 819.714C731.495 826.209 733.12 833.082 736.945 838.822C738.438 839.479 738.479 839.432 740.072 839.033C742.32 835.451 736.863 827.45 735.53 823.52C729.192 804.824 726.204 783.845 725.453 764.155C724.444 737.663 728.509 711.884 731.643 685.705Q736.179 650.67 737.183 615.357ZM583.64 865.461L582.711 867.061C583.798 869.253 585.906 869.867 588.139 870.625C606.08 876.716 628.113 879.656 647.02 880.061L647.178 877.669C644.325 874.907 625.407 874.302 620.563 873.671C607.943 872.027 596.049 867.638 583.64 865.461Z"/>
	<path fill="#FEFEFE" d="M1101 741.319C1108.02 739.182 1115.13 735.459 1121.9 732.556C1135.15 726.88 1148.47 721.222 1161.99 716.219C1226.49 692.334 1294.98 673.929 1363.83 669.334C1364.41 670.342 1364.79 671.092 1364.88 672.272C1365.6 681.044 1365 690.265 1365 699.093L1365.01 753.459L1365.01 959.351C1365.01 968.448 1366.07 1018.12 1364.59 1022.53C1364.42 1023.03 1364.08 1023.57 1363.83 1024L0 1024L0 825.074C165.323 771.908 327.158 823.065 479.168 890.64C512.913 905.641 545.965 922.115 579.672 937.171C679.323 981.681 796.303 1024 907.03 1010.65C932.522 1007.57 956.148 1001.28 980.54 993.563C998.963 999.196 1018.08 1001.98 1037.36 1000.87C1067.87 999.122 1104.59 987.505 1125.35 963.987C1145.44 941.222 1148.65 911.904 1146.84 882.875C1146.06 870.265 1144.44 857.385 1141.51 845.081C1137.48 828.143 1111.61 750.673 1101 741.319ZM1317.39 734.332C1311.61 737.93 1304.44 740.124 1297.81 741.508C1251.76 751.12 1215 722.603 1174.54 764.686C1163.7 775.962 1154.62 789.353 1147.32 803.158C1144.61 808.296 1142.25 815.413 1138.87 819.953C1142.29 823.025 1145.02 826.915 1148.42 830.125C1151.48 833.017 1159.19 838.191 1161.03 841.002L1161.53 841.241C1167.68 844.222 1173.41 847.956 1179.63 850.864C1200.23 860.511 1223.12 863.449 1244.9 855.886C1274.11 845.739 1295.71 819.141 1308.62 792.028C1313.38 782.023 1325.9 746.264 1322.18 736.455C1321.74 735.278 1321.31 735.112 1320.39 734.332C1319.39 734.325 1318.39 734.295 1317.39 734.332ZM246.248 877.672Q244.045 877.752 241.847 877.906Q239.648 878.059 237.456 878.287Q235.264 878.514 233.08 878.815Q230.897 879.115 228.725 879.489Q226.553 879.862 224.394 880.308Q222.236 880.754 220.094 881.272Q217.952 881.79 215.828 882.38Q213.704 882.97 211.601 883.63Q209.499 884.29 207.419 885.021Q205.34 885.751 203.286 886.551Q201.232 887.351 199.206 888.219Q197.18 889.087 195.184 890.022Q193.189 890.957 191.225 891.959Q189.262 892.961 187.333 894.028Q185.405 895.095 183.513 896.226Q181.621 897.356 179.768 898.55C176.804 900.47 172.887 902.501 170.503 905.075C169.647 905.999 169.362 906.79 169.117 908.004C169.461 909.6 169.487 910.705 171.045 911.614C173.147 912.84 175.749 913.551 177.983 914.596C183.463 917.159 188.613 920.866 193.12 924.877C214.69 944.071 221.565 969.018 251.466 980.327C270.648 986.258 289.248 982.877 306.849 973.684C314.442 969.719 321.249 964.94 325.845 957.583C322.087 932.826 313.599 906.397 292.521 890.932C279.139 881.114 262.745 876.821 246.248 877.672Z"/>
	<path fill="#FEFEFE" d="M1079.77 741.146C1082.12 734.793 1081.51 721.446 1081.52 714.326C1084 715.557 1089.59 731.946 1090.93 735.703C1089.82 737.048 1088.92 737.114 1087.29 737.656C1085.25 739.488 1082.31 740.271 1079.77 741.146Z"/>
	<path fill="#D83B3D" d="M1138.87 819.953C1142.25 815.413 1144.61 808.296 1147.32 803.158C1154.62 789.353 1163.7 775.962 1174.54 764.686C1215 722.603 1251.76 751.12 1297.81 741.508C1304.44 740.124 1311.61 737.93 1317.39 734.332C1318.39 734.295 1319.39 734.325 1320.39 734.332C1321.31 735.112 1321.74 735.278 1322.18 736.455C1325.9 746.264 1313.38 782.023 1308.62 792.028C1295.71 819.141 1274.11 845.739 1244.9 855.886C1223.12 863.449 1200.23 860.511 1179.63 850.864C1173.41 847.956 1167.68 844.222 1161.53 841.241L1161.03 841.002C1159.19 838.191 1151.48 833.017 1148.42 830.125C1145.02 826.915 1142.29 823.025 1138.87 819.953ZM1310.42 745.666C1305.05 748.456 1297.66 749.774 1291.72 750.457C1251.69 755.068 1219.99 734.317 1183.4 763.67C1170.16 774.292 1159.06 789.454 1151.02 804.314C1148.84 808.35 1146.28 817.26 1143.46 819.843C1146.69 821.82 1159.22 831.499 1161.02 834.342L1161.48 834.564C1167.47 837.481 1172.94 841.291 1179.02 844.113C1197.88 852.874 1220.21 855.502 1240.06 848.729C1266.59 839.679 1287.13 815.683 1299.07 791.098C1304.11 780.728 1314.05 757.085 1313.25 746.129L1312.7 745.336L1310.42 745.666Z"/>
	<path fill="#FEFEFE" d="M1080.72 750.592C1084.99 749.435 1089.93 746.566 1093.75 744.33L1094.96 744.769C1099.08 750.117 1102.58 760.305 1105.47 766.666C1123.8 806.962 1140.4 851.74 1140.86 896.511C1141.12 921.356 1135.96 946.619 1117.81 964.853C1096.35 986.404 1063 993.985 1033.58 994.206C1020.36 993.93 1008.13 991.522 995.346 988.277C1030.53 971.988 1069.38 950.224 1083.73 911.818C1098.11 873.347 1087.68 822.15 1083.86 781.933C1083.21 775.076 1083.13 755.907 1080.72 750.592Z"/>
	<path fill="#FEFEFE" d="M1143.46 819.843C1146.28 817.26 1148.84 808.35 1151.02 804.314C1159.06 789.454 1170.16 774.292 1183.4 763.67C1219.99 734.317 1251.69 755.068 1291.72 750.457C1297.66 749.774 1305.05 748.456 1310.42 745.666L1312.7 745.336L1313.25 746.129C1314.05 757.085 1304.11 780.728 1299.07 791.098C1287.13 815.683 1266.59 839.679 1240.06 848.729C1220.21 855.502 1197.88 852.874 1179.02 844.113C1172.94 841.291 1167.47 837.481 1161.48 834.564L1161.02 834.342C1159.22 831.499 1146.69 821.82 1143.46 819.843ZM1276.17 768.997C1268.29 788.729 1254.16 802.718 1234.63 811.152C1214.14 820.004 1191.87 820.117 1170.55 814.575C1167.96 813.901 1163.33 811.402 1160.99 811.947C1161.87 813.641 1163.17 813.45 1164.49 814.595C1192.27 823.725 1215.71 826.633 1242.98 812.878C1258.12 805.243 1274.8 790.111 1280.12 773.601C1280.53 772.32 1280.53 771.514 1280.19 770.23C1278.53 768.853 1278.25 769.044 1276.17 768.997Z"/>
	<path fill="#FEFEFE" d="M726.519 985.845C798.923 924.317 873.197 865.825 954.874 816.985Q989.674 796.083 1025.72 777.414Q1041.11 769.744 1056.58 762.232C1061.6 759.777 1067.45 757.517 1071.98 754.321C1073.35 754.248 1073.55 754.152 1074.69 754.869C1076.09 759.793 1075.65 765.183 1076 770.269C1076.45 777.075 1077.1 783.877 1077.7 790.674C1081.03 828.811 1091.47 876.169 1076.93 912.824C1062.62 948.906 1024.3 971.587 990.41 986.311Q976.719 979.091 963.979 970.301C967.809 970.035 971.595 969.461 975.279 968.35C985.436 965.286 993.882 959.425 998.937 949.943C1004.21 940.043 1005.78 928.179 1002.42 917.418C999.786 909.003 994.619 901.853 986.694 897.742C976.601 892.506 963.865 893.099 953.32 896.585C941.479 900.5 930.272 908.715 924.708 920.099C920.36 928.995 920.198 939.188 923.492 948.45C931.478 970.909 952.91 982.423 973.095 991.961C956.171 998.29 937.022 1001.88 919.168 1004.48C855.266 1014.34 788.33 1002.61 726.519 985.845Z"/>
	<path fill="#D83B3D" d="M1164.49 814.595C1163.17 813.45 1161.87 813.641 1160.99 811.947C1163.33 811.402 1167.96 813.901 1170.55 814.575C1191.87 820.117 1214.14 820.004 1234.63 811.152C1254.16 802.718 1268.29 788.729 1276.17 768.997C1278.25 769.044 1278.53 768.853 1280.19 770.23C1280.53 771.514 1280.53 772.32 1280.12 773.601C1274.8 790.111 1258.12 805.243 1242.98 812.878C1215.71 826.633 1192.27 823.725 1164.49 814.595Z"/>
	<path fill="#D83B3D" d="M647.02 880.061C628.113 879.656 606.08 876.716 588.139 870.625C585.906 869.867 583.798 869.253 582.711 867.061L583.64 865.461C596.049 867.638 607.943 872.027 620.563 873.671C625.407 874.302 644.325 874.907 647.178 877.669L647.02 880.061Z"/>
	<path fill="#D83B3D" d="M251.466 980.327C221.565 969.018 214.69 944.071 193.12 924.877C188.613 920.866 183.463 917.159 177.983 914.596C175.749 913.551 173.147 912.84 171.045 911.614C169.487 910.705 169.461 909.6 169.117 908.004C169.362 906.79 169.647 905.999 170.503 905.075C172.887 902.501 176.804 900.47 179.768 898.55Q181.621 897.356 183.513 896.225Q185.405 895.095 187.333 894.028Q189.262 892.961 191.225 891.959Q193.189 890.957 195.184 890.022Q197.18 889.087 199.206 888.219Q201.232 887.351 203.286 886.551Q205.34 885.751 207.419 885.021Q209.499 884.29 211.601 883.63Q213.704 882.97 215.828 882.38Q217.952 881.79 220.094 881.272Q222.236 880.754 224.394 880.308Q226.553 879.862 228.725 879.489Q230.897 879.115 233.08 878.815Q235.264 878.514 237.456 878.287Q239.648 878.059 241.847 877.906Q244.045 877.752 246.248 877.672C262.745 876.821 279.139 881.114 292.521 890.932C313.599 906.397 322.087 932.826 325.845 957.583C321.249 964.94 314.442 969.719 306.849 973.684C289.248 982.877 270.648 986.258 251.466 980.327ZM246.779 885.602C220.352 887.497 201.856 895.08 178.709 907.327C217.729 925.112 219.342 963.287 257.758 976.32C276.898 980.735 296.601 975.433 313.048 965.106C315.829 963.36 318.259 961.409 320.656 959.173C315.718 935.929 308.48 909.506 287.294 895.735C275.521 888.082 260.725 884.949 246.779 885.602Z"/>
	<path fill="#FEFEFE" d="M178.709 907.327C201.856 895.08 220.352 887.497 246.779 885.602C260.725 884.949 275.521 888.082 287.294 895.735C308.48 909.506 315.718 935.929 320.656 959.173C318.259 961.409 315.829 963.36 313.048 965.106C296.601 975.433 276.898 980.735 257.758 976.32C219.342 963.287 217.729 925.112 178.709 907.327ZM232.442 908.264C228.114 908.706 217.659 909.426 214.813 913.009C214.654 913.209 214.516 913.425 214.368 913.633L214.872 914.595C220.438 916.258 229.098 913.809 234.936 913.354C239.206 913.021 243.818 913.827 248.022 914.541C267.848 917.909 282.757 927.938 295.751 942.94C297.93 945.656 300.47 949.71 303.469 951.419L304.313 950.972C304.691 948.607 303.926 947.279 302.563 945.371C289.474 927.049 271.659 912.378 248.934 908.761C243.721 907.931 237.702 907.604 232.442 908.264Z"/>
	<path fill="#FEFEFE" d="M958.406 965.563C951.662 958.692 945.636 950.361 943.044 940.972C940.756 932.686 941.492 923.275 945.838 915.762C950.202 908.219 956.863 904.3 965.076 902.08C970.884 901.576 976.622 901.796 982.068 904.055C988.698 906.804 993.579 912.319 996.18 918.94C999.571 927.573 999.064 937.197 995.231 945.59C990.864 955.153 983.873 959.982 974.323 963.639C969.01 964.882 963.832 965.324 958.406 965.563Z"/>
	<path fill="#D83B3D" d="M295.751 942.94C282.757 927.938 267.848 917.909 248.022 914.541C243.818 913.827 239.206 913.021 234.936 913.354C229.098 913.809 220.438 916.258 214.872 914.595L214.368 913.633C214.516 913.425 214.654 913.209 214.813 913.009C217.659 909.426 228.114 908.706 232.442 908.264C237.702 907.604 243.721 907.931 248.934 908.761C271.659 912.378 289.474 927.049 302.563 945.371C303.926 947.279 304.691 948.607 304.313 950.972L303.469 951.419C300.47 949.71 297.93 945.656 295.751 942.94Z"/>
</svg>
