<?xml version="1.0" standalone="no"?>
<!DOCTYPE svg PUBLIC "-//W3C//DTD SVG 20010904//EN"
 "http://www.w3.org/TR/2001/REC-SVG-20010904/DTD/svg10.dtd">
<svg version="1.0" xmlns="http://www.w3.org/2000/svg"
 width="672.000000pt" height="376.000000pt" viewBox="0 0 672.000000 376.000000"
 preserveAspectRatio="xMidYMid meet">
<metadata>
Created by potrace 1.16, written by Peter Selinger 2001-2019
</metadata>
<g transform="translate(0.000000,376.000000) scale(0.100000,-0.100000)"
fill="#000000" stroke="none">
<path d="M0 3320 l0 -440 33 0 c17 1 43 7 57 15 51 29 147 13 169 -28 13 -24
14 -28 26 -95 4 -23 11 -45 15 -47 11 -7 23 52 14 66 -5 9 -2 10 10 6 10 -4
23 1 33 13 10 11 23 20 29 20 6 0 14 14 17 30 5 21 12 30 27 30 19 0 22 4 24
33 2 20 23 37 40 31 11 -4 13 0 9 16 -3 12 -15 25 -27 30 l-21 8 21 9 c12 4
34 24 50 43 16 19 24 31 17 27 -6 -4 -15 -1 -20 7 -4 8 -12 16 -18 18 -5 2 -9
6 -7 11 1 4 -2 7 -8 7 -5 0 -10 -4 -10 -10 0 -5 -9 -10 -20 -10 -15 0 -19 5
-16 23 5 31 -10 56 -31 51 -19 -5 -49 31 -34 41 5 3 7 15 3 27 -4 17 -2 20 11
15 9 -3 19 -1 23 5 5 7 2 8 -7 3 -8 -5 1 5 19 22 17 17 32 37 32 45 0 17 30
36 51 33 11 -2 15 3 12 19 -4 18 2 24 33 34 20 6 41 9 46 6 5 -3 28 3 51 14
23 10 76 26 117 35 41 9 102 22 135 29 33 7 65 12 70 13 6 0 13 4 16 8 3 4 18
9 33 11 15 1 32 8 38 14 7 7 18 12 25 12 7 0 10 7 6 17 -5 13 -2 15 11 10 24
-10 63 1 63 18 0 10 -4 11 -19 2 -16 -10 -22 -8 -38 13 -11 14 -20 30 -20 35
0 6 5 3 10 -5 6 -9 10 -10 10 -3 0 6 -5 15 -11 19 -6 3 -9 17 -6 30 3 20 0 24
-20 24 -18 0 -24 4 -19 15 7 18 -10 20 -18 3 -5 -10 -7 -10 -12 -1 -4 9 -125
12 -515 13 l-509 0 0 -440z"/>
<path d="M2349 3713 c-50 -66 -79 -115 -79 -134 0 -23 25 -31 56 -19 36 14
123 82 124 97 0 6 4 13 8 15 5 2 11 19 15 38 3 19 3 29 0 22 -4 -11 -8 -10
-22 2 -9 8 -27 17 -41 21 -21 5 -31 -1 -61 -42z"/>
<path d="M4752 3746 c7 -8 15 -13 16 -11 2 2 24 -2 48 -10 40 -12 44 -11 45 3
0 13 2 13 9 -3 5 -11 9 -16 9 -12 1 4 11 2 24 -5 12 -7 42 -13 66 -13 27 0 46
-5 49 -13 3 -9 -3 -11 -21 -7 -16 5 -26 2 -30 -8 -4 -11 2 -14 23 -13 16 1 26
-2 23 -7 -3 -5 0 -7 8 -5 8 3 13 10 12 16 -2 6 3 9 11 6 8 -3 12 -13 9 -24 -6
-21 12 -36 23 -19 4 8 3 9 -4 5 -7 -4 -12 -4 -12 1 0 15 82 35 93 24 6 -6 22
-11 36 -11 19 0 22 -3 12 -9 -9 -6 -10 -11 -2 -15 6 -4 16 -4 21 -1 6 4 19 -4
29 -16 12 -15 22 -19 32 -13 22 13 90 12 96 -2 3 -8 33 -16 74 -20 38 -4 69
-11 69 -15 0 -5 11 -9 25 -9 14 0 25 -5 25 -11 0 -6 7 -8 16 -5 8 3 12 2 9 -4
-3 -6 0 -10 8 -10 8 0 27 -7 44 -15 16 -8 50 -16 76 -17 41 -3 45 -5 30 -16
-16 -11 -15 -12 6 -10 36 4 38 -21 2 -28 -19 -4 -28 -11 -24 -18 4 -6 0 -5 -9
2 -11 9 -18 10 -23 2 -3 -5 -13 -10 -21 -10 -8 0 -20 -5 -27 -10 -7 -6 -22
-19 -35 -29 l-23 -19 22 -7 c26 -9 43 -23 52 -45 4 -11 6 -10 6 4 1 13 6 16
19 11 9 -4 22 -8 29 -8 6 0 9 -5 7 -11 -3 -7 3 -20 12 -31 8 -11 13 -14 9 -7
-3 6 -2 12 3 12 9 0 25 -37 23 -52 -1 -5 3 -8 8 -8 5 0 7 -9 4 -20 -4 -14 -14
-20 -33 -20 -15 0 -30 -6 -33 -14 -8 -21 -130 -13 -197 13 -82 32 -371 101
-421 101 -16 0 -29 3 -29 8 0 4 -57 7 -127 6 -97 -2 -153 -8 -233 -27 -58 -14
-125 -28 -150 -31 -118 -16 -304 -68 -374 -105 -27 -14 -74 -49 -104 -77 -45
-41 -55 -56 -54 -81 1 -36 -22 -60 -153 -157 -49 -36 -95 -70 -101 -75 -6 -5
-24 -16 -40 -24 -37 -19 -184 -172 -184 -191 0 -8 -3 -16 -7 -18 -8 -3 -25
-33 -80 -139 -38 -74 -78 -204 -99 -324 -8 -44 -28 -125 -44 -180 -58 -189
-60 -199 -59 -290 2 -137 -19 -175 -110 -201 -31 -9 -60 -20 -66 -24 -5 -4
-37 -13 -70 -20 -55 -11 -104 -28 -148 -51 -15 -8 -71 -22 -202 -50 -22 -4
-58 -9 -80 -10 -38 -1 -38 -2 -10 -8 25 -5 27 -8 12 -14 -10 -4 -27 -7 -38 -7
-10 0 -19 -4 -19 -9 0 -5 -21 -12 -47 -16 -26 -4 -87 -20 -137 -36 -50 -17
-116 -36 -146 -44 -30 -8 -89 -24 -130 -35 -41 -12 -88 -24 -105 -27 -16 -3
-34 -12 -38 -19 -5 -9 -25 -14 -52 -14 -24 0 -45 -4 -47 -9 -1 -5 -34 -17 -73
-26 -38 -10 -84 -23 -101 -30 -17 -7 -73 -23 -125 -35 -52 -13 -124 -33 -162
-46 -37 -13 -113 -33 -169 -44 -56 -12 -120 -29 -142 -39 -23 -11 -70 -27
-106 -36 -36 -10 -112 -30 -170 -45 -58 -15 -130 -37 -160 -48 -30 -12 -73
-24 -95 -27 -22 -4 -71 -16 -109 -27 -107 -31 -143 -81 -112 -158 9 -22 16
-55 16 -72 0 -48 46 -159 96 -234 24 -36 44 -72 44 -80 0 -21 228 -20 290 2
25 9 135 27 245 40 110 13 232 28 270 34 39 5 131 14 205 20 74 6 173 15 220
20 47 5 117 12 155 15 39 3 129 12 200 20 72 7 177 16 235 20 58 3 146 10 195
15 130 14 179 18 280 25 50 4 142 13 205 22 63 8 144 16 180 19 87 5 130 13
130 23 0 10 -47 24 -58 17 -7 -4 -127 -12 -332 -21 -52 -3 -201 -7 -330 -10
-324 -7 -1010 -37 -1125 -50 -105 -11 -271 -15 -284 -6 -13 8 -13 12 -1 26 25
30 91 57 454 180 362 123 440 151 551 198 91 38 284 107 342 122 28 7 76 24
106 38 30 14 70 28 88 32 46 9 121 36 139 50 8 6 42 19 75 29 33 10 90 31 128
47 37 16 76 29 87 29 11 0 20 4 20 9 0 4 30 16 68 26 37 10 71 22 77 26 28 27
113 -12 141 -64 9 -18 26 -49 37 -70 10 -21 27 -43 36 -50 9 -6 30 -28 46 -48
17 -20 73 -72 125 -114 139 -114 257 -232 284 -287 l24 -48 -23 0 c-13 0 -27
-5 -30 -10 -4 -6 -11 -8 -16 -5 -17 11 -9 -8 12 -26 13 -11 45 -20 87 -24 40
-4 93 -19 132 -37 36 -16 74 -33 85 -38 99 -45 203 -60 432 -63 202 -2 714 10
768 18 17 3 84 7 150 9 130 5 277 13 392 22 73 5 342 14 577 20 71 1 139 -2
152 -6 l24 -10 0 371 c0 226 -4 368 -9 364 -5 -3 -12 -2 -15 3 -3 4 -31 5 -63
1 -32 -4 -85 -8 -117 -8 -64 -1 -68 -16 -6 -24 31 -3 29 -4 -11 -5 -28 -1 -52
-8 -59 -17 -7 -8 -18 -15 -26 -15 -7 0 -16 -5 -20 -12 -4 -6 -3 -8 4 -4 6 3
13 2 17 -4 4 -6 -6 -10 -22 -11 -43 -1 -86 -9 -98 -19 -5 -4 -26 -10 -45 -12
-46 -4 -49 16 -10 62 17 19 33 43 36 53 3 9 10 17 15 17 5 0 9 10 9 21 0 12
17 43 37 68 20 25 38 48 39 49 1 2 54 3 118 3 63 -1 117 3 121 8 3 6 -10 9
-32 8 -99 -4 -207 3 -197 13 7 7 71 11 167 11 99 -1 158 3 162 10 4 6 5 12 3
15 -3 2 -74 5 -159 7 -129 2 -154 4 -154 17 -1 8 4 18 10 23 6 4 5 10 -4 16
-9 6 -10 11 -2 15 6 4 9 12 6 17 -4 5 56 9 149 9 87 0 156 4 156 9 0 5 -61 7
-142 5 -82 -2 -135 -1 -124 4 19 8 19 9 0 16 -19 8 -19 8 1 16 19 8 19 9 -2 9
-27 1 -29 10 -9 37 13 16 28 19 118 20 143 2 158 3 158 12 0 4 -54 6 -121 4
-77 -2 -125 1 -134 8 -13 10 -9 50 4 50 4 0 5 19 3 43 -5 52 -5 64 0 320 3
114 1 207 -3 207 -8 0 -49 81 -49 95 0 23 -196 452 -217 475 -7 8 -41 49 -74
90 -33 41 -80 98 -104 126 -24 28 -50 67 -58 87 -9 19 -25 41 -37 47 -40 22
-14 19 56 -4 38 -14 105 -28 149 -31 44 -4 91 -9 105 -10 14 -2 30 0 35 4 22
17 104 32 179 34 77 2 78 2 106 -32 31 -36 50 -34 50 5 0 19 4 24 18 21 9 -3
34 -8 55 -12 l37 -6 0 431 0 430 -990 0 c-848 0 -989 -2 -978 -14z m413 -692
c106 -18 276 -62 289 -75 6 -5 16 -9 24 -9 23 0 181 -79 257 -129 258 -168
462 -426 555 -701 50 -150 64 -245 64 -430 -1 -242 -34 -386 -139 -600 -48
-98 -135 -230 -152 -230 -10 0 -13 29 -13 123 0 122 -10 214 -31 295 -9 31
-20 47 -40 58 -33 17 -33 11 -14 89 21 84 37 477 24 574 -14 106 -17 113 -39
71 -33 -65 -43 -140 -45 -335 -1 -211 -12 -268 -67 -338 -21 -27 -27 -41 -20
-54 13 -22 -11 -47 -63 -63 -22 -8 -112 -17 -200 -21 -144 -6 -134 -7 98 -5
l259 1 19 -24 c15 -19 18 -31 12 -50 -4 -14 -8 -102 -8 -196 -1 -231 -9 -261
-96 -346 -85 -83 -103 -89 -292 -89 -205 0 -250 6 -281 37 -37 37 -48 102 -53
328 -2 116 -7 221 -11 235 -9 38 -19 -86 -22 -285 -1 -93 -5 -183 -9 -199 -4
-20 -22 -40 -61 -67 -76 -52 -144 -62 -379 -57 -272 6 -280 12 -290 217 l-6
116 -7 -113 c-6 -112 -6 -114 -39 -148 -47 -49 -108 -64 -276 -71 -133 -6
-144 -5 -185 17 -58 30 -211 172 -265 245 -47 63 -193 347 -193 374 0 9 -13
57 -29 107 -40 124 -54 253 -49 442 3 145 6 163 30 213 112 234 145 297 195
371 70 103 160 222 202 267 17 19 41 47 52 62 11 16 26 29 34 29 7 0 15 6 18
13 3 8 29 30 59 49 29 20 62 45 72 57 11 12 24 21 31 21 6 0 29 13 51 28 21
16 59 34 84 42 25 7 61 21 80 31 62 30 202 77 295 98 50 11 108 24 130 29 67
16 340 14 440 -4z m-2244 -1893 c-45 -39 -240 -110 -666 -242 -177 -54 -261
-82 -365 -119 -63 -22 -182 -60 -265 -84 -82 -25 -199 -60 -260 -79 -60 -19
-171 -54 -245 -76 -74 -23 -191 -60 -260 -81 -118 -37 -209 -62 -343 -97 -117
-30 -119 15 -2 57 182 65 1244 409 1360 440 44 12 168 51 275 87 107 35 249
79 315 97 66 19 175 50 243 70 68 20 127 34 132 31 5 -3 11 -1 15 5 4 6 10 8
15 5 5 -3 11 -1 14 3 3 5 17 7 31 4 25 -4 25 -5 6 -21z m3302 -515 c15 -2 25
0 21 5 -3 5 8 9 25 9 16 0 33 -5 36 -10 4 -6 11 -8 16 -5 5 3 30 9 55 12 33 4
45 2 40 -6 -7 -10 7 -16 28 -12 16 3 121 -33 134 -46 7 -7 20 -13 29 -13 11 0
8 -6 -10 -20 -14 -11 -32 -20 -40 -20 -13 0 -82 -25 -152 -56 -33 -14 -103
-27 -260 -49 -91 -13 -290 -46 -357 -61 -25 -5 -28 -3 -28 20 0 24 53 96 70
96 12 0 147 88 206 133 51 40 67 41 187 23z m-702 -93 l217 -6 -26 -24 c-14
-12 -32 -23 -41 -23 -10 0 -21 -4 -27 -9 -5 -5 -27 -14 -49 -21 -22 -7 -49
-19 -60 -26 -11 -8 -29 -14 -40 -14 -11 0 -33 -7 -50 -16 -113 -61 -150 -76
-204 -79 -32 -2 -82 -10 -112 -19 -97 -28 -594 -19 -672 12 -15 7 -57 18 -93
27 -36 8 -102 32 -147 54 -45 21 -92 41 -104 45 -13 4 -23 11 -23 16 0 4 -10
11 -22 14 -28 8 -73 44 -65 52 9 10 515 26 577 19 75 -8 489 -5 570 4 36 4 85
6 110 4 25 -2 142 -6 261 -10z"/>
<path d="M3740 2140 c0 -42 31 -53 160 -57 58 -1 135 -6 172 -9 54 -5 73 -3
93 10 48 32 25 65 -44 66 -20 0 -22 -3 -13 -12 17 -17 15 -47 -3 -54 -8 -4
-31 -3 -50 0 -27 5 -36 13 -41 34 -9 34 -20 42 -62 42 -29 0 -31 -2 -21 -19
20 -31 4 -51 -41 -51 -43 0 -90 33 -90 65 0 10 -10 15 -30 15 -27 0 -30 -3
-30 -30z"/>
<path d="M5712 2121 c-16 -34 -20 -36 -70 -39 -53 -3 -54 -3 -50 25 3 25 0 28
-30 31 -29 3 -34 0 -43 -27 -10 -28 -15 -31 -56 -31 -44 0 -44 0 -41 33 3 31
2 32 -32 29 -43 -5 -40 -2 -47 -47 l-6 -38 84 6 c46 4 144 7 217 7 l133 0 15
36 c18 42 16 45 -26 48 -27 2 -34 -3 -48 -33z"/>
<path d="M3721 1861 c-18 -12 -12 -49 39 -231 52 -187 57 -199 88 -207 45 -11
55 6 84 148 15 74 27 141 28 149 2 37 19 -21 40 -135 27 -153 32 -165 67 -165
34 0 48 9 55 35 3 11 26 95 52 187 25 92 46 172 46 178 0 5 -18 10 -40 10 -45
0 -44 2 -75 -160 -9 -47 -19 -94 -22 -105 -6 -19 -6 -19 -13 1 -5 11 -18 72
-30 135 -12 63 -25 121 -29 128 -5 7 -26 15 -49 18 -40 5 -41 5 -46 -28 -28
-161 -47 -263 -50 -266 -2 -3 -7 11 -11 29 -20 101 -58 264 -64 269 -12 12
-56 18 -70 10z"/>
<path d="M5495 1846 c-47 -18 -94 -67 -96 -99 -5 -92 21 -121 130 -144 81 -17
111 -35 111 -68 0 -29 -30 -45 -86 -45 -33 0 -74 28 -74 50 0 11 -82 14 -93 4
-10 -10 13 -61 42 -88 55 -53 191 -56 263 -5 38 27 51 56 50 103 -3 75 -42
106 -156 127 -37 7 -75 18 -84 25 -14 11 -15 15 -3 38 12 22 21 26 60 26 35 0
51 -6 72 -26 23 -22 33 -25 63 -20 40 8 45 23 20 66 -35 59 -139 85 -219 56z"/>
<path d="M4617 1382 c-2 -4 -2 -24 0 -44 l5 -38 72 1 c39 1 59 4 44 6 -23 4
-28 9 -28 34 l0 29 73 0 c110 0 153 -39 65 -60 -32 -8 -31 -8 15 -9 51 -1 117
21 117 39 0 18 -49 31 -134 36 -45 2 -113 7 -153 9 -40 3 -74 1 -76 -3z"/>
<path d="M3954 1111 c-73 -33 -124 -119 -124 -209 0 -77 59 -169 129 -198 72
-30 176 -11 233 43 79 76 72 250 -14 330 -56 53 -151 67 -224 34z m156 -89
c33 -34 54 -101 45 -145 -18 -83 -71 -122 -145 -106 -78 18 -111 131 -64 221
33 64 115 79 164 30z"/>
<path d="M5463 1112 l-53 -3 0 -199 0 -199 53 -6 c68 -9 171 1 207 20 118 61
120 311 3 374 -23 12 -121 18 -210 13z m171 -86 c60 -39 43 -210 -24 -243 -37
-19 -106 -17 -114 3 -9 23 -7 249 2 258 11 12 111 -1 136 -18z"/>
<path d="M4645 1098 c-3 -7 -4 -99 -3 -203 l3 -190 36 -3 c35 -3 36 -2 42 35
4 21 7 57 7 81 l0 42 58 0 c66 0 82 -11 82 -54 0 -17 3 -48 6 -68 7 -38 7 -38
55 -38 48 0 48 0 39 26 -6 14 -10 47 -10 73 0 33 -6 56 -20 73 -19 25 -19 26
-1 42 37 33 45 72 27 119 -24 64 -42 71 -188 75 -102 3 -129 1 -133 -10z m216
-68 c13 -7 19 -21 19 -45 0 -43 -20 -55 -93 -55 l-54 0 -6 41 c-3 23 -3 48 0
55 6 17 104 19 134 4z"/>
<path d="M6548 2733 c-9 -2 -20 -19 -24 -36 -3 -18 -15 -49 -25 -69 -27 -53
-24 -65 17 -71 47 -8 64 -23 64 -58 0 -22 5 -29 19 -29 34 0 59 59 42 103 -6
15 -5 42 1 71 16 77 -18 109 -94 89z"/>
<path d="M13 2683 c-8 -2 -13 -22 -13 -44 0 -39 0 -40 22 -25 32 23 101 21
122 -3 15 -16 16 -25 6 -60 -6 -23 -8 -46 -5 -51 12 -19 35 -10 50 20 32 61 9
121 -57 154 -30 15 -99 20 -125 9z"/>
<path d="M297 2515 c-14 -30 -41 -71 -59 -92 -50 -58 -63 -84 -46 -94 7 -5 18
-9 25 -9 6 0 18 -2 25 -5 8 -3 26 6 40 20 25 24 120 65 152 65 26 0 102 41
115 62 26 42 -41 78 -167 91 -17 2 -35 7 -39 10 -13 13 -19 6 -46 -48z"/>
<path d="M2292 2238 c-6 -24 -13 -75 -16 -115 -5 -76 -23 -122 -75 -187 -17
-21 -31 -42 -31 -47 0 -12 67 -22 107 -16 20 4 48 17 62 29 14 13 46 34 71 47
87 46 90 68 9 78 -67 9 -79 24 -79 103 0 62 -13 124 -30 143 -4 4 -12 -11 -18
-35z"/>
<path d="M1646 2154 c-3 -9 -6 -63 -6 -120 0 -59 -5 -115 -11 -127 -28 -54
-91 -97 -143 -97 -24 0 -66 26 -66 40 0 6 18 13 39 16 56 9 69 54 17 54 -37 0
-45 20 -48 116 -3 81 -5 89 -23 89 -18 0 -21 -9 -27 -82 -4 -46 -10 -88 -14
-94 -6 -11 -40 -8 -76 6 -16 6 -18 0 -18 -66 0 -121 -31 -188 -102 -225 -22
-11 -27 -19 -20 -26 8 -8 47 -5 134 11 151 26 182 36 233 72 22 15 63 33 90
40 28 6 61 22 75 35 14 13 54 36 89 52 52 24 69 27 91 19 30 -11 105 2 105 19
0 13 -92 94 -106 94 -5 0 -9 -14 -9 -30 l0 -30 -72 6 c-48 4 -77 12 -85 22 -8
10 -13 48 -13 103 0 88 -5 119 -20 119 -4 0 -11 -7 -14 -16z"/>
<path d="M6558 2068 c-10 -10 -18 -22 -18 -28 0 -5 -11 -12 -25 -16 -14 -3
-25 -12 -25 -20 0 -13 32 -36 47 -33 21 4 35 -4 79 -46 25 -25 48 -45 50 -45
1 0 14 4 28 10 25 9 26 13 26 83 l0 74 -39 -7 c-42 -8 -61 2 -61 31 0 22 -40
21 -62 -3z"/>
</g>
</svg>
